<svg width="11" height="10" viewBox="0 0 11 10" fill="none" xmlns="http://www.w3.org/2000/svg">
<mask id="path-1-inside-1_81_4035" fill="white">
<path d="M5.00003 0L6.32255 3.17971L9.75532 3.45492L7.13991 5.69529L7.93896 9.04508L5.00003 7.25L2.06111 9.04508L2.86016 5.69529L0.244751 3.45492L3.67752 3.17971L5.00003 0Z"/>
</mask>
<g filter="url(#filter0_i_81_4035)">
<path d="M5.00003 0L6.32255 3.17971L9.75532 3.45492L7.13991 5.69529L7.93896 9.04508L5.00003 7.25L2.06111 9.04508L2.86016 5.69529L0.244751 3.45492L3.67752 3.17971L5.00003 0Z" fill="#FFDC6B"/>
</g>
<path d="M5.00003 0L5.92335 -0.384031L5.00003 -2.60396L4.07671 -0.384031L5.00003 0ZM6.32255 3.17971L5.39923 3.56374C5.54324 3.90998 5.86885 4.14655 6.24264 4.17651L6.32255 3.17971ZM9.75532 3.45492L10.4059 4.21437L12.2318 2.65025L9.83523 2.45811L9.75532 3.45492ZM7.13991 5.69529L6.48935 4.93583C6.20457 5.17978 6.08019 5.56256 6.1672 5.92731L7.13991 5.69529ZM7.93896 9.04508L7.41771 9.89849L9.46953 11.1517L8.91167 8.81306L7.93896 9.04508ZM5.00003 7.25L5.52129 6.3966C5.20127 6.20113 4.7988 6.20113 4.47878 6.3966L5.00003 7.25ZM2.06111 9.04508L1.0884 8.81306L0.530538 11.1517L2.58236 9.89849L2.06111 9.04508ZM2.86016 5.69529L3.83287 5.92731C3.91987 5.56256 3.7955 5.17978 3.51071 4.93583L2.86016 5.69529ZM0.244751 3.45492L0.164838 2.45811L-2.23176 2.65025L-0.405806 4.21437L0.244751 3.45492ZM3.67752 3.17971L3.75743 4.17651C4.13122 4.14655 4.45683 3.90998 4.60084 3.56374L3.67752 3.17971ZM5.00003 0L4.07671 0.384031L5.39923 3.56374L6.32255 3.17971L7.24587 2.79568L5.92335 -0.384031L5.00003 0ZM6.32255 3.17971L6.24264 4.17651L9.6754 4.45172L9.75532 3.45492L9.83523 2.45811L6.40246 2.18291L6.32255 3.17971ZM9.75532 3.45492L9.10476 2.69546L6.48935 4.93583L7.13991 5.69529L7.79047 6.45475L10.4059 4.21437L9.75532 3.45492ZM7.13991 5.69529L6.1672 5.92731L6.96625 9.27711L7.93896 9.04508L8.91167 8.81306L8.11262 5.46326L7.13991 5.69529ZM7.93896 9.04508L8.46021 8.19168L5.52129 6.3966L5.00003 7.25L4.47878 8.1034L7.41771 9.89849L7.93896 9.04508ZM5.00003 7.25L4.47878 6.3966L1.53985 8.19168L2.06111 9.04508L2.58236 9.89849L5.52129 8.1034L5.00003 7.25ZM2.06111 9.04508L3.03382 9.27711L3.83287 5.92731L2.86016 5.69529L1.88745 5.46326L1.0884 8.81306L2.06111 9.04508ZM2.86016 5.69529L3.51071 4.93583L0.895307 2.69546L0.244751 3.45492L-0.405806 4.21437L2.2096 6.45475L2.86016 5.69529ZM0.244751 3.45492L0.324664 4.45172L3.75743 4.17651L3.67752 3.17971L3.5976 2.18291L0.164838 2.45811L0.244751 3.45492ZM3.67752 3.17971L4.60084 3.56374L5.92335 0.384031L5.00003 0L4.07671 -0.384031L2.7542 2.79568L3.67752 3.17971Z" fill="url(#paint0_linear_81_4035)" mask="url(#path-1-inside-1_81_4035)"/>
<defs>
<filter id="filter0_i_81_4035" x="0.244751" y="0" width="10.5106" height="10.0451" filterUnits="userSpaceOnUse" color-interpolation-filters="sRGB">
<feFlood flood-opacity="0" result="BackgroundImageFix"/>
<feBlend mode="normal" in="SourceGraphic" in2="BackgroundImageFix" result="shape"/>
<feColorMatrix in="SourceAlpha" type="matrix" values="0 0 0 0 0 0 0 0 0 0 0 0 0 0 0 0 0 0 127 0" result="hardAlpha"/>
<feOffset dx="1" dy="1"/>
<feGaussianBlur stdDeviation="1"/>
<feComposite in2="hardAlpha" operator="arithmetic" k2="-1" k3="1"/>
<feColorMatrix type="matrix" values="0 0 0 0 1 0 0 0 0 1 0 0 0 0 1 0 0 0 1 0"/>
<feBlend mode="hard-light" in2="shape" result="effect1_innerShadow_81_4035"/>
</filter>
<linearGradient id="paint0_linear_81_4035" x1="2" y1="1.33333" x2="8.72044" y2="8.30558" gradientUnits="userSpaceOnUse">
<stop stop-color="#FDC922"/>
<stop offset="0.5" stop-color="#F0B411"/>
<stop offset="1" stop-color="#C88311"/>
</linearGradient>
</defs>
</svg>
