<svg width="16" height="16" viewBox="0 0 16 16" fill="none" xmlns="http://www.w3.org/2000/svg">
<g clip-path="url(#clip0_213_6175)">
<path d="M2 1.5H13C13.8284 1.5 14.5 2.17157 14.5 3V13C14.5 13.2761 14.2761 13.5 14 13.5H1C0.723858 13.5 0.5 13.2761 0.5 13V3C0.5 2.17157 1.17157 1.5 2 1.5Z" fill="#92B9E8" stroke="url(#paint0_linear_213_6175)"/>
<g filter="url(#filter0_i_213_6175)">
<path d="M1 3H14V13H1V3Z" fill="url(#paint1_radial_213_6175)"/>
</g>
<rect x="1" y="3" width="13" height="1" fill="url(#paint2_linear_213_6175)"/>
<mask id="path-4-inside-1_213_6175" fill="white">
<path d="M13 12L13 9L9 9L9 12L7 12L11 16L15 12L13 12Z"/>
</mask>
<g filter="url(#filter1_i_213_6175)">
<path d="M13 12L13 9L9 9L9 12L7 12L11 16L15 12L13 12Z" fill="#82C27C"/>
</g>
<path d="M13 9L14 9L14 8L13 8L13 9ZM13 12L12 12C12 12.5523 12.4477 13 13 13L13 12ZM15 12L15.7071 12.7071L17.4142 11L15 11L15 12ZM11 16L10.2929 16.7071L11 17.4142L11.7071 16.7071L11 16ZM7 12L7 11L4.58579 11L6.29289 12.7071L7 12ZM9 12L9 13C9.55228 13 10 12.5523 10 12L9 12ZM9 9L9 8L8 8L8 9L9 9ZM13 9L12 9L12 12L13 12L14 12L14 9L13 9ZM13 12L13 13L15 13L15 12L15 11L13 11L13 12ZM15 12L14.2929 11.2929L10.2929 15.2929L11 16L11.7071 16.7071L15.7071 12.7071L15 12ZM11 16L11.7071 15.2929L7.70711 11.2929L7 12L6.29289 12.7071L10.2929 16.7071L11 16ZM7 12L7 13L9 13L9 12L9 11L7 11L7 12ZM9 12L10 12L10 9L9 9L8 9L8 12L9 12ZM9 9L9 10L13 10L13 9L13 8L9 8L9 9Z" fill="url(#paint3_linear_213_6175)" mask="url(#path-4-inside-1_213_6175)"/>
</g>
<defs>
<filter id="filter0_i_213_6175" x="1" y="3" width="13" height="10" filterUnits="userSpaceOnUse" color-interpolation-filters="sRGB">
<feFlood flood-opacity="0" result="BackgroundImageFix"/>
<feBlend mode="normal" in="SourceGraphic" in2="BackgroundImageFix" result="shape"/>
<feColorMatrix in="SourceAlpha" type="matrix" values="0 0 0 0 0 0 0 0 0 0 0 0 0 0 0 0 0 0 127 0" result="hardAlpha"/>
<feOffset dx="-1" dy="2"/>
<feComposite in2="hardAlpha" operator="arithmetic" k2="-1" k3="1"/>
<feColorMatrix type="matrix" values="0 0 0 0 1 0 0 0 0 1 0 0 0 0 1 0 0 0 1 0"/>
<feBlend mode="normal" in2="shape" result="effect1_innerShadow_213_6175"/>
</filter>
<filter id="filter1_i_213_6175" x="7" y="9" width="9" height="8" filterUnits="userSpaceOnUse" color-interpolation-filters="sRGB">
<feFlood flood-opacity="0" result="BackgroundImageFix"/>
<feBlend mode="normal" in="SourceGraphic" in2="BackgroundImageFix" result="shape"/>
<feColorMatrix in="SourceAlpha" type="matrix" values="0 0 0 0 0 0 0 0 0 0 0 0 0 0 0 0 0 0 127 0" result="hardAlpha"/>
<feOffset dx="1" dy="1"/>
<feGaussianBlur stdDeviation="1"/>
<feComposite in2="hardAlpha" operator="arithmetic" k2="-1" k3="1"/>
<feColorMatrix type="matrix" values="0 0 0 0 0.71381 0 0 0 0 0.864312 0 0 0 0 0.687251 0 0 0 1 0"/>
<feBlend mode="normal" in2="shape" result="effect1_innerShadow_213_6175"/>
</filter>
<linearGradient id="paint0_linear_213_6175" x1="0" y1="1" x2="15" y2="14" gradientUnits="userSpaceOnUse">
<stop stop-color="#7BA7DC"/>
<stop offset="1" stop-color="#5171A9"/>
</linearGradient>
<radialGradient id="paint1_radial_213_6175" cx="0" cy="0" r="1" gradientUnits="userSpaceOnUse" gradientTransform="translate(14 3) rotate(90) scale(10 13)">
<stop stop-color="#DEE7F2"/>
<stop offset="1" stop-color="white"/>
</radialGradient>
<linearGradient id="paint2_linear_213_6175" x1="1" y1="3.5" x2="14" y2="3.5" gradientUnits="userSpaceOnUse">
<stop stop-color="#7BA7DC"/>
<stop offset="1" stop-color="#7BA7DC"/>
</linearGradient>
<linearGradient id="paint3_linear_213_6175" x1="8.14286" y1="10" x2="13.0986" y2="15.6637" gradientUnits="userSpaceOnUse">
<stop stop-color="#80C178"/>
<stop offset="1" stop-color="#2A6B26"/>
</linearGradient>
<clipPath id="clip0_213_6175">
<rect width="16" height="16" fill="white"/>
</clipPath>
</defs>
</svg>
