<svg width="16" height="16" viewBox="0 0 16 16" fill="none" xmlns="http://www.w3.org/2000/svg">
<mask id="path-1-inside-1_85_1714" fill="white">
<path d="M9 4H7V8.3418C7.62559 8.12067 8.29868 8 9 8H11V6L15 10L11 14V12H9C7.89543 12 7 12.8954 7 14V16H3V4H1L5 0L9 4Z"/>
</mask>
<g filter="url(#filter0_i_85_1714)">
<path d="M9 4H7V8.3418C7.62559 8.12067 8.29868 8 9 8H11V6L15 10L11 14V12H9C7.89543 12 7 12.8954 7 14V16H3V4H1L5 0L9 4Z" fill="#82C27C"/>
</g>
<path d="M9 4V5C9.40446 5 9.7691 4.75636 9.92388 4.38268C10.0787 4.00901 9.9931 3.57889 9.70711 3.29289L9 4ZM7 4V3C6.44772 3 6 3.44772 6 4H7ZM7 8.3418H6C6 8.66642 6.15757 8.97084 6.42262 9.15827C6.68767 9.3457 7.0272 9.39282 7.33327 9.28463L7 8.3418ZM9 8V7V7V8ZM11 8V9C11.5523 9 12 8.55229 12 8H11ZM11 6L11.7071 5.29289C11.4211 5.0069 10.991 4.92134 10.6173 5.07612C10.2436 5.2309 10 5.59554 10 6H11ZM15 10L15.7071 10.7071C16.0976 10.3166 16.0976 9.68342 15.7071 9.29289L15 10ZM11 14H10C10 14.4045 10.2436 14.7691 10.6173 14.9239C10.991 15.0787 11.4211 14.9931 11.7071 14.7071L11 14ZM11 12H12C12 11.4477 11.5523 11 11 11V12ZM9 12V13V13V12ZM7 14H6V14H7ZM7 16V17C7.55228 17 8 16.5523 8 16H7ZM3 16H2C2 16.5523 2.44772 17 3 17V16ZM3 4H4C4 3.44772 3.55228 3 3 3V4ZM1 4L0.292893 3.29289C0.00689524 3.57889 -0.0786605 4.00901 0.0761205 4.38268C0.230901 4.75636 0.595538 5 1 5V4ZM5 0L5.70711 -0.707107C5.31658 -1.09763 4.68342 -1.09763 4.29289 -0.707107L5 0ZM9 4V3H7V4V5H9V4ZM7 4H6V8.3418H7H8V4H7ZM7 8.3418L7.33327 9.28463C7.85365 9.10069 8.41414 9 9 9V8V7C8.18323 7 7.39753 7.14065 6.66673 7.39896L7 8.3418ZM9 8V9H11V8V7H9V8ZM11 8H12V6H11H10V8H11ZM11 6L10.2929 6.70711L14.2929 10.7071L15 10L15.7071 9.29289L11.7071 5.29289L11 6ZM15 10L14.2929 9.29289L10.2929 13.2929L11 14L11.7071 14.7071L15.7071 10.7071L15 10ZM11 14H12V12H11H10V14H11ZM11 12V11H9V12V13H11V12ZM9 12V11C7.34315 11 6 12.3431 6 14H7H8C8 13.4477 8.44772 13 9 13V12ZM7 14H6V16H7H8V14H7ZM7 16V15H3V16V17H7V16ZM3 16H4V4H3H2V16H3ZM3 4V3H1V4V5H3V4ZM1 4L1.70711 4.70711L5.70711 0.707107L5 0L4.29289 -0.707107L0.292893 3.29289L1 4ZM5 0L4.29289 0.707107L8.29289 4.70711L9 4L9.70711 3.29289L5.70711 -0.707107L5 0Z" fill="url(#paint0_linear_85_1714)" mask="url(#path-1-inside-1_85_1714)"/>
<mask id="mask0_85_1714" style="mask-type:alpha" maskUnits="userSpaceOnUse" x="3" y="8" width="6" height="6">
<rect x="3" y="8" width="6" height="6" fill="url(#paint1_linear_85_1714)"/>
</mask>
<g mask="url(#mask0_85_1714)">
<path d="M9 9C6.23858 9 4 11.2386 4 14L3 14C3 10.6863 5.68629 8 9 8V9Z" fill="url(#paint2_linear_85_1714)"/>
</g>
<defs>
<filter id="filter0_i_85_1714" x="1" y="0" width="15" height="17" filterUnits="userSpaceOnUse" color-interpolation-filters="sRGB">
<feFlood flood-opacity="0" result="BackgroundImageFix"/>
<feBlend mode="normal" in="SourceGraphic" in2="BackgroundImageFix" result="shape"/>
<feColorMatrix in="SourceAlpha" type="matrix" values="0 0 0 0 0 0 0 0 0 0 0 0 0 0 0 0 0 0 127 0" result="hardAlpha"/>
<feOffset dx="1" dy="1"/>
<feGaussianBlur stdDeviation="1"/>
<feComposite in2="hardAlpha" operator="arithmetic" k2="-1" k3="1"/>
<feColorMatrix type="matrix" values="0 0 0 0 0.71381 0 0 0 0 0.864312 0 0 0 0 0.687251 0 0 0 1 0"/>
<feBlend mode="normal" in2="shape" result="effect1_innerShadow_85_1714"/>
</filter>
<linearGradient id="paint0_linear_85_1714" x1="15" y1="16" x2="3.35178" y2="-1.56002" gradientUnits="userSpaceOnUse">
<stop stop-color="#2A6B26"/>
<stop offset="1" stop-color="#80C178"/>
</linearGradient>
<linearGradient id="paint1_linear_85_1714" x1="9" y1="8" x2="3" y2="14" gradientUnits="userSpaceOnUse">
<stop offset="0.330729" stop-color="#D9D9D9"/>
<stop offset="0.65625" stop-color="#737373" stop-opacity="0"/>
</linearGradient>
<linearGradient id="paint2_linear_85_1714" x1="9" y1="8" x2="3" y2="14" gradientUnits="userSpaceOnUse">
<stop stop-color="#4F904A"/>
<stop offset="1" stop-color="#488943"/>
</linearGradient>
</defs>
</svg>
