<svg width="16" height="16" viewBox="0 0 16 16" fill="none" xmlns="http://www.w3.org/2000/svg">
<mask id="path-1-inside-1_85_1699" fill="white">
<path d="M6 6.3915C6 7.08108 5.64476 7.72202 5.06 8.0875L4.544 8.41C2.96141 9.39912 2 11.1337 2 13V15H6V13V12.612C6 12.2202 6.15567 11.8443 6.43278 11.5672C7.29833 10.7017 8.70167 10.7017 9.56722 11.5672C9.84433 11.8443 10 12.2202 10 12.612V13V15H14V13C14 11.1337 13.0386 9.39912 11.456 8.41L10.94 8.0875C10.3552 7.72202 10 7.08108 10 6.3915V5H12L8 1L4 5H6V6.3915Z"/>
</mask>
<g filter="url(#filter0_i_85_1699)">
<path d="M6 6.3915C6 7.08108 5.64476 7.72202 5.06 8.0875L4.544 8.41C2.96141 9.39912 2 11.1337 2 13V15H6V13V12.612C6 12.2202 6.15567 11.8443 6.43278 11.5672C7.29833 10.7017 8.70167 10.7017 9.56722 11.5672C9.84433 11.8443 10 12.2202 10 12.612V13V15H14V13C14 11.1337 13.0386 9.39912 11.456 8.41L10.94 8.0875C10.3552 7.72202 10 7.08108 10 6.3915V5H12L8 1L4 5H6V6.3915Z" fill="#82C27C"/>
</g>
<path d="M6 5V4C6.55228 4 7 4.44771 7 5H6ZM10 5H9C9 4.44771 9.44772 4 10 4V5ZM10 15V16H9V15H10ZM14 15H15V16H14V15ZM6 15H7V16H6V15ZM2 15V16H1V15H2ZM4 5V6H1.58579L3.29289 4.29289L4 5ZM8 1L7.29289 0.292893L8 -0.414213L8.70711 0.292893L8 1ZM12 5L12.7071 4.29289L14.4142 6H12V5ZM11.456 8.41L10.926 9.258L11.456 8.41ZM5.06 8.0875L5.59 8.9355L5.07399 9.258L4.544 8.41L4.014 7.562L4.53 7.2395L5.06 8.0875ZM6 5H7V6.3915H6H5V5H6ZM10 13H9V12.612H10H11V13H10ZM11.456 8.41L10.926 9.258L10.41 8.9355L10.94 8.0875L11.47 7.2395L11.986 7.562L11.456 8.41ZM10 5H11V6.3915H10H9V5H10ZM10 13H11V15H10H9V13H10ZM10 15V14H14V15V16H10V15ZM14 15H13V13H14H15V15H14ZM6 13H7V15H6H5V13H6ZM6 15V16H2V15V14H6V15ZM2 15H1V13H2H3V15H2ZM6 13H5V12.612H6H7V13H6ZM6 5V6H4V5V4H6V5ZM4 5L3.29289 4.29289L7.29289 0.292893L8 1L8.70711 1.70711L4.70711 5.70711L4 5ZM8 1L8.70711 0.292893L12.7071 4.29289L12 5L11.2929 5.70711L7.29289 1.70711L8 1ZM12 5V6H10V5V4H12V5ZM6.43278 11.5672L5.72567 10.8601C6.98175 9.60404 9.01825 9.60404 10.2743 10.8601L9.56722 11.5672L8.86012 12.2743C8.38509 11.7993 7.61491 11.7993 7.13988 12.2743L6.43278 11.5672ZM10.94 8.0875L10.41 8.9355C9.53286 8.38728 9 7.42587 9 6.3915H10H11C11 6.73629 11.1776 7.05676 11.47 7.2395L10.94 8.0875ZM14 13H13C13 11.4785 12.2162 10.0644 10.926 9.258L11.456 8.41L11.986 7.562C13.861 8.73386 15 10.7889 15 13H14ZM10 12.612H9C9 12.4854 8.94968 12.3639 8.86012 12.2743L9.56722 11.5672L10.2743 10.8601C10.739 11.3248 11 11.9549 11 12.612H10ZM5.06 8.0875L4.53 7.2395C4.82238 7.05676 5 6.73629 5 6.3915H6H7C7 7.42587 6.46714 8.38728 5.59 8.9355L5.06 8.0875ZM6.43278 11.5672L7.13988 12.2743C7.05032 12.3639 7 12.4854 7 12.612H6H5C5 11.9549 5.26103 11.3248 5.72567 10.8601L6.43278 11.5672ZM4.544 8.41L5.07399 9.258C3.78379 10.0644 3 11.4785 3 13H2H1C1 10.7889 2.13903 8.73386 4.014 7.562L4.544 8.41Z" fill="url(#paint0_linear_85_1699)" mask="url(#path-1-inside-1_85_1699)"/>
<defs>
<filter id="filter0_i_85_1699" x="2" y="1" width="13" height="15" filterUnits="userSpaceOnUse" color-interpolation-filters="sRGB">
<feFlood flood-opacity="0" result="BackgroundImageFix"/>
<feBlend mode="normal" in="SourceGraphic" in2="BackgroundImageFix" result="shape"/>
<feColorMatrix in="SourceAlpha" type="matrix" values="0 0 0 0 0 0 0 0 0 0 0 0 0 0 0 0 0 0 127 0" result="hardAlpha"/>
<feOffset dx="1" dy="1"/>
<feGaussianBlur stdDeviation="1"/>
<feComposite in2="hardAlpha" operator="arithmetic" k2="-1" k3="1"/>
<feColorMatrix type="matrix" values="0 0 0 0 0.71381 0 0 0 0 0.864312 0 0 0 0 0.687251 0 0 0 1 0"/>
<feBlend mode="normal" in2="shape" result="effect1_innerShadow_85_1699"/>
</filter>
<linearGradient id="paint0_linear_85_1699" x1="2" y1="1" x2="12.1281" y2="16.2437" gradientUnits="userSpaceOnUse">
<stop offset="0.227944" stop-color="#72C466"/>
<stop offset="1" stop-color="#215F1E"/>
</linearGradient>
</defs>
</svg>
