<svg width="16" height="16" viewBox="0 0 16 16" fill="none" xmlns="http://www.w3.org/2000/svg">
<mask id="path-1-inside-1_85_1696" fill="white">
<path d="M11 6L1 6V10H11V12L15 8L11 4V6Z"/>
</mask>
<g filter="url(#filter0_i_85_1696)">
<path d="M11 6L1 6V10H11V12L15 8L11 4V6Z" fill="#82C27C"/>
</g>
<path d="M1 6V5H0V6H1ZM11 6V7C11.5523 7 12 6.55228 12 6H11ZM11 4L11.7071 3.29289L10 1.58579V4H11ZM15 8L15.7071 8.70711L16.4142 8L15.7071 7.29289L15 8ZM11 12H10V14.4142L11.7071 12.7071L11 12ZM11 10H12C12 9.44772 11.5523 9 11 9V10ZM1 10H0V11H1V10ZM1 6V7L11 7V6V5L1 5V6ZM11 6H12V4H11H10V6H11ZM11 4L10.2929 4.70711L14.2929 8.70711L15 8L15.7071 7.29289L11.7071 3.29289L11 4ZM15 8L14.2929 7.29289L10.2929 11.2929L11 12L11.7071 12.7071L15.7071 8.70711L15 8ZM11 12H12V10H11H10V12H11ZM11 10V9H1V10V11H11V10ZM1 10H2V6H1H0V10H1Z" fill="url(#paint0_linear_85_1696)" mask="url(#path-1-inside-1_85_1696)"/>
<defs>
<filter id="filter0_i_85_1696" x="1" y="4" width="15" height="9" filterUnits="userSpaceOnUse" color-interpolation-filters="sRGB">
<feFlood flood-opacity="0" result="BackgroundImageFix"/>
<feBlend mode="normal" in="SourceGraphic" in2="BackgroundImageFix" result="shape"/>
<feColorMatrix in="SourceAlpha" type="matrix" values="0 0 0 0 0 0 0 0 0 0 0 0 0 0 0 0 0 0 127 0" result="hardAlpha"/>
<feOffset dx="1" dy="1"/>
<feGaussianBlur stdDeviation="1"/>
<feComposite in2="hardAlpha" operator="arithmetic" k2="-1" k3="1"/>
<feColorMatrix type="matrix" values="0 0 0 0 0.71381 0 0 0 0 0.864312 0 0 0 0 0.687251 0 0 0 1 0"/>
<feBlend mode="normal" in2="shape" result="effect1_innerShadow_85_1696"/>
</filter>
<linearGradient id="paint0_linear_85_1696" x1="15" y1="12" x2="2.29924" y2="2.29901" gradientUnits="userSpaceOnUse">
<stop stop-color="#2A6B26"/>
<stop offset="1" stop-color="#80C178"/>
</linearGradient>
</defs>
</svg>
