<svg width="16" height="16" viewBox="0 0 16 16" fill="none" xmlns="http://www.w3.org/2000/svg">
<mask id="path-1-inside-1_85_1709" fill="white">
<path d="M10 1L10 3L8 3C4.68629 3 2 5.68629 2 9L2 16L6 16L6 9C6 7.89543 6.89543 7 8 7L10 7L10 9L14 5L10 1Z"/>
</mask>
<g filter="url(#filter0_i_85_1709)">
<path d="M10 1L10 3L8 3C4.68629 3 2 5.68629 2 9L2 16L6 16L6 9C6 7.89543 6.89543 7 8 7L10 7L10 9L14 5L10 1Z" fill="#82C27C"/>
</g>
<path d="M10 3L10 4C10.5523 4 11 3.55228 11 3L10 3ZM10 1L10.7071 0.292893L9 -1.41421L9 1L10 1ZM14 5L14.7071 5.70711L15.4142 5L14.7071 4.29289L14 5ZM10 9L9 9L9 11.4142L10.7071 9.70711L10 9ZM10 7L11 7C11 6.44772 10.5523 6 10 6L10 7ZM6 9L5 9L5 9L6 9ZM8 3L8 4V4L8 3ZM2 16L0.999999 16L0.999999 17L2 17L2 16ZM6 16L6 17L7 17L7 16L6 16ZM10 3L11 3L11 1L10 1L9 1L9 3L10 3ZM10 1L9.29289 1.70711L13.2929 5.70711L14 5L14.7071 4.29289L10.7071 0.292893L10 1ZM14 5L13.2929 4.29289L9.29289 8.29289L10 9L10.7071 9.70711L14.7071 5.70711L14 5ZM10 9L11 9L11 7L10 7L9 7L9 9L10 9ZM10 7L10 6L8 6L8 7L8 8L10 8L10 7ZM6 9L7 9C7 8.44771 7.44772 8 8 8L8 7L8 6C6.34315 6 5 7.34315 5 9L6 9ZM2 9L3 9C3 6.23858 5.23858 4 8 4L8 3L8 2C4.13401 2 1 5.13401 1 9L2 9ZM8 3L8 4L10 4L10 3L10 2L8 2L8 3ZM2 9L1 9L0.999999 16L2 16L3 16L3 9L2 9ZM2 16L2 17L6 17L6 16L6 15L2 15L2 16ZM6 16L7 16L7 9L6 9L5 9L5 16L6 16Z" fill="url(#paint0_linear_85_1709)" mask="url(#path-1-inside-1_85_1709)"/>
<defs>
<filter id="filter0_i_85_1709" x="2" y="1" width="13" height="16" filterUnits="userSpaceOnUse" color-interpolation-filters="sRGB">
<feFlood flood-opacity="0" result="BackgroundImageFix"/>
<feBlend mode="normal" in="SourceGraphic" in2="BackgroundImageFix" result="shape"/>
<feColorMatrix in="SourceAlpha" type="matrix" values="0 0 0 0 0 0 0 0 0 0 0 0 0 0 0 0 0 0 127 0" result="hardAlpha"/>
<feOffset dx="1" dy="1"/>
<feGaussianBlur stdDeviation="1"/>
<feComposite in2="hardAlpha" operator="arithmetic" k2="-1" k3="1"/>
<feColorMatrix type="matrix" values="0 0 0 0 0.71381 0 0 0 0 0.864312 0 0 0 0 0.687251 0 0 0 1 0"/>
<feBlend mode="normal" in2="shape" result="effect1_innerShadow_85_1709"/>
</filter>
<linearGradient id="paint0_linear_85_1709" x1="14" y1="17" x2="4.31654" y2="-0.296889" gradientUnits="userSpaceOnUse">
<stop offset="0.247441" stop-color="#2A6B26"/>
<stop offset="0.806397" stop-color="#80C178"/>
</linearGradient>
</defs>
</svg>
