<svg width="16" height="16" viewBox="0 0 16 16" fill="none" xmlns="http://www.w3.org/2000/svg">
<g clip-path="url(#clip0_85_1704)">
<mask id="path-1-inside-1_85_1704" fill="white">
<path d="M6 15.0771L4.61523 13.6924L3.69238 14.6152L5.07715 16H0V10.9229L1.38477 12.3076L2.30762 11.3848L0.922852 10H6V15.0771ZM13.6924 11.3848L14.6152 12.3076L16 10.9229V16H10.9229L12.3076 14.6152L11.3848 13.6924L10 15.0771V10H15.0771L13.6924 11.3848ZM3.69238 1.38477L4.61523 2.30762L6 0.922852V6H0.922852L2.30762 4.61523L1.38477 3.69238L0 5.07715V0H5.07715L3.69238 1.38477ZM16 5.07715L14.6152 3.69238L13.6924 4.61523L15.0771 6H10V0.922852L11.3848 2.30762L12.3076 1.38477L10.9229 0H16V5.07715Z"/>
</mask>
<g filter="url(#filter0_i_85_1704)">
<path d="M6 15.0771L4.61523 13.6924L3.69238 14.6152L5.07715 16H0V10.9229L1.38477 12.3076L2.30762 11.3848L0.922852 10H6V15.0771ZM13.6924 11.3848L14.6152 12.3076L16 10.9229V16H10.9229L12.3076 14.6152L11.3848 13.6924L10 15.0771V10H15.0771L13.6924 11.3848ZM3.69238 1.38477L4.61523 2.30762L6 0.922852V6H0.922852L2.30762 4.61523L1.38477 3.69238L0 5.07715V0H5.07715L3.69238 1.38477ZM16 5.07715L14.6152 3.69238L13.6924 4.61523L15.0771 6H10V0.922852L11.3848 2.30762L12.3076 1.38477L10.9229 0H16V5.07715Z" fill="#82C27C"/>
</g>
<path d="M6 15.0771L5.29289 15.7843C5.57889 16.0703 6.00901 16.1558 6.38268 16.001C6.75636 15.8462 7 15.4816 7 15.0771H6ZM4.61523 13.6924L5.32234 12.9853C4.93182 12.5948 4.29865 12.5948 3.90813 12.9853L4.61523 13.6924ZM3.69238 14.6152L2.98528 13.9081C2.59475 14.2987 2.59475 14.9318 2.98528 15.3223L3.69238 14.6152ZM5.07715 16V17C5.48161 17 5.84625 16.7564 6.00103 16.3827C6.15581 16.009 6.07025 15.5789 5.78426 15.2929L5.07715 16ZM0 16H-1C-1 16.5523 -0.552285 17 0 17L0 16ZM0 10.9229L0.707107 10.2157C0.421109 9.92975 -0.00900904 9.84419 -0.382683 9.99897C-0.756358 10.1538 -1 10.5184 -1 10.9229H0ZM1.38477 12.3076L0.677659 13.0147C1.06818 13.4052 1.70135 13.4052 2.09187 13.0147L1.38477 12.3076ZM2.30762 11.3848L3.01472 12.0919C3.40525 11.7013 3.40525 11.0682 3.01472 10.6777L2.30762 11.3848ZM0.922852 10V9C0.518389 9 0.153753 9.24364 -0.00102797 9.61732C-0.155809 9.99099 -0.0702532 10.4211 0.215745 10.7071L0.922852 10ZM6 10H7C7 9.44771 6.55228 9 6 9V10ZM13.6924 11.3848L12.9853 10.6777C12.5948 11.0682 12.5948 11.7013 12.9853 12.0919L13.6924 11.3848ZM14.6152 12.3076L13.9081 13.0147C14.2987 13.4052 14.9318 13.4052 15.3223 13.0147L14.6152 12.3076ZM16 10.9229H17C17 10.5184 16.7564 10.1538 16.3827 9.99897C16.009 9.84419 15.5789 9.92975 15.2929 10.2157L16 10.9229ZM16 16V17C16.5523 17 17 16.5523 17 16H16ZM10.9229 16L10.2157 15.2929C9.92975 15.5789 9.84419 16.009 9.99897 16.3827C10.1538 16.7564 10.5184 17 10.9229 17V16ZM12.3076 14.6152L13.0147 15.3223C13.4052 14.9318 13.4052 14.2987 13.0147 13.9081L12.3076 14.6152ZM11.3848 13.6924L12.0919 12.9853C11.7013 12.5948 11.0682 12.5948 10.6777 12.9853L11.3848 13.6924ZM10 15.0771H9C9 15.4816 9.24364 15.8462 9.61732 16.001C9.99099 16.1558 10.4211 16.0703 10.7071 15.7843L10 15.0771ZM10 10V9C9.44771 9 9 9.44771 9 10H10ZM15.0771 10L15.7843 10.7071C16.0703 10.4211 16.1558 9.99099 16.001 9.61732C15.8462 9.24364 15.4816 9 15.0771 9V10ZM3.69238 1.38477L2.98528 0.677659C2.59475 1.06818 2.59475 1.70135 2.98528 2.09187L3.69238 1.38477ZM4.61523 2.30762L3.90813 3.01472C4.29865 3.40525 4.93182 3.40525 5.32234 3.01472L4.61523 2.30762ZM6 0.922852H7C7 0.518389 6.75636 0.153753 6.38268 -0.00102797C6.00901 -0.155809 5.57889 -0.0702532 5.29289 0.215745L6 0.922852ZM6 6V7C6.55228 7 7 6.55228 7 6H6ZM0.922852 6L0.215745 5.29289C-0.0702532 5.57889 -0.155809 6.00901 -0.00102797 6.38268C0.153753 6.75636 0.518389 7 0.922852 7V6ZM2.30762 4.61523L3.01472 5.32234C3.40525 4.93182 3.40525 4.29865 3.01472 3.90813L2.30762 4.61523ZM1.38477 3.69238L2.09187 2.98528C1.70135 2.59475 1.06818 2.59475 0.677659 2.98528L1.38477 3.69238ZM0 5.07715H-1C-1 5.48161 -0.756358 5.84625 -0.382683 6.00103C-0.00900904 6.15581 0.421109 6.07025 0.707107 5.78426L0 5.07715ZM0 0V-1C-0.552285 -1 -1 -0.552285 -1 0L0 0ZM5.07715 0L5.78426 0.707107C6.07025 0.421109 6.15581 -0.00900904 6.00103 -0.382683C5.84625 -0.756358 5.48161 -1 5.07715 -1V0ZM16 5.07715L15.2929 5.78426C15.5789 6.07025 16.009 6.15581 16.3827 6.00103C16.7564 5.84625 17 5.48161 17 5.07715H16ZM14.6152 3.69238L15.3223 2.98528C14.9318 2.59475 14.2987 2.59475 13.9081 2.98528L14.6152 3.69238ZM13.6924 4.61523L12.9853 3.90813C12.5948 4.29865 12.5948 4.93182 12.9853 5.32234L13.6924 4.61523ZM15.0771 6V7C15.4816 7 15.8462 6.75636 16.001 6.38268C16.1558 6.00901 16.0703 5.57889 15.7843 5.29289L15.0771 6ZM10 6H9C9 6.55228 9.44771 7 10 7V6ZM10 0.922852L10.7071 0.215745C10.4211 -0.0702532 9.99099 -0.155809 9.61732 -0.00102797C9.24364 0.153753 9 0.518389 9 0.922852H10ZM11.3848 2.30762L10.6777 3.01472C11.0682 3.40525 11.7013 3.40525 12.0919 3.01472L11.3848 2.30762ZM12.3076 1.38477L13.0147 2.09187C13.4052 1.70135 13.4052 1.06818 13.0147 0.677659L12.3076 1.38477ZM10.9229 0V-1C10.5184 -1 10.1538 -0.756358 9.99897 -0.382683C9.84419 -0.00900904 9.92975 0.421109 10.2157 0.707107L10.9229 0ZM16 0H17C17 -0.552285 16.5523 -1 16 -1V0ZM6 15.0771L6.70711 14.37L5.32234 12.9853L4.61523 13.6924L3.90813 14.3995L5.29289 15.7843L6 15.0771ZM4.61523 13.6924L3.90813 12.9853L2.98528 13.9081L3.69238 14.6152L4.39949 15.3223L5.32234 14.3995L4.61523 13.6924ZM3.69238 14.6152L2.98528 15.3223L4.37004 16.7071L5.07715 16L5.78426 15.2929L4.39949 13.9081L3.69238 14.6152ZM5.07715 16V15H0V16V17H5.07715V16ZM0 16H1V10.9229H0H-1V16H0ZM0 10.9229L-0.707107 11.63L0.677659 13.0147L1.38477 12.3076L2.09187 11.6005L0.707107 10.2157L0 10.9229ZM1.38477 12.3076L2.09187 13.0147L3.01472 12.0919L2.30762 11.3848L1.60051 10.6777L0.677659 11.6005L1.38477 12.3076ZM2.30762 11.3848L3.01472 10.6777L1.62996 9.29289L0.922852 10L0.215745 10.7071L1.60051 12.0919L2.30762 11.3848ZM0.922852 10V11H6V10V9H0.922852V10ZM6 10H5V15.0771H6H7V10H6ZM13.6924 11.3848L12.9853 12.0919L13.9081 13.0147L14.6152 12.3076L15.3223 11.6005L14.3995 10.6777L13.6924 11.3848ZM14.6152 12.3076L15.3223 13.0147L16.7071 11.63L16 10.9229L15.2929 10.2157L13.9081 11.6005L14.6152 12.3076ZM16 10.9229H15V16H16H17V10.9229H16ZM16 16V15H10.9229V16V17H16V16ZM10.9229 16L11.63 16.7071L13.0147 15.3223L12.3076 14.6152L11.6005 13.9081L10.2157 15.2929L10.9229 16ZM12.3076 14.6152L13.0147 13.9081L12.0919 12.9853L11.3848 13.6924L10.6777 14.3995L11.6005 15.3223L12.3076 14.6152ZM11.3848 13.6924L10.6777 12.9853L9.29289 14.37L10 15.0771L10.7071 15.7843L12.0919 14.3995L11.3848 13.6924ZM10 15.0771H11V10H10H9V15.0771H10ZM10 10V11H15.0771V10V9H10V10ZM15.0771 10L14.37 9.29289L12.9853 10.6777L13.6924 11.3848L14.3995 12.0919L15.7843 10.7071L15.0771 10ZM3.69238 1.38477L2.98528 2.09187L3.90813 3.01472L4.61523 2.30762L5.32234 1.60051L4.39949 0.677659L3.69238 1.38477ZM4.61523 2.30762L5.32234 3.01472L6.70711 1.62996L6 0.922852L5.29289 0.215745L3.90813 1.60051L4.61523 2.30762ZM6 0.922852H5V6H6H7V0.922852H6ZM6 6V5H0.922852V6V7H6V6ZM0.922852 6L1.62996 6.70711L3.01472 5.32234L2.30762 4.61523L1.60051 3.90813L0.215745 5.29289L0.922852 6ZM2.30762 4.61523L3.01472 3.90813L2.09187 2.98528L1.38477 3.69238L0.677659 4.39949L1.60051 5.32234L2.30762 4.61523ZM1.38477 3.69238L0.677659 2.98528L-0.707107 4.37004L0 5.07715L0.707107 5.78426L2.09187 4.39949L1.38477 3.69238ZM0 5.07715H1V0H0H-1V5.07715H0ZM0 0V1H5.07715V0V-1H0V0ZM5.07715 0L4.37004 -0.707107L2.98528 0.677659L3.69238 1.38477L4.39949 2.09187L5.78426 0.707107L5.07715 0ZM16 5.07715L16.7071 4.37004L15.3223 2.98528L14.6152 3.69238L13.9081 4.39949L15.2929 5.78426L16 5.07715ZM14.6152 3.69238L13.9081 2.98528L12.9853 3.90813L13.6924 4.61523L14.3995 5.32234L15.3223 4.39949L14.6152 3.69238ZM13.6924 4.61523L12.9853 5.32234L14.37 6.70711L15.0771 6L15.7843 5.29289L14.3995 3.90813L13.6924 4.61523ZM15.0771 6V5H10V6V7H15.0771V6ZM10 6H11V0.922852H10H9V6H10ZM10 0.922852L9.29289 1.62996L10.6777 3.01472L11.3848 2.30762L12.0919 1.60051L10.7071 0.215745L10 0.922852ZM11.3848 2.30762L12.0919 3.01472L13.0147 2.09187L12.3076 1.38477L11.6005 0.677659L10.6777 1.60051L11.3848 2.30762ZM12.3076 1.38477L13.0147 0.677659L11.63 -0.707107L10.9229 0L10.2157 0.707107L11.6005 2.09187L12.3076 1.38477ZM10.9229 0V1H16V0V-1H10.9229V0ZM16 0H15V5.07715H16H17V0H16Z" fill="url(#paint0_linear_85_1704)" mask="url(#path-1-inside-1_85_1704)"/>
</g>
<defs>
<filter id="filter0_i_85_1704" x="0" y="0" width="17" height="17" filterUnits="userSpaceOnUse" color-interpolation-filters="sRGB">
<feFlood flood-opacity="0" result="BackgroundImageFix"/>
<feBlend mode="normal" in="SourceGraphic" in2="BackgroundImageFix" result="shape"/>
<feColorMatrix in="SourceAlpha" type="matrix" values="0 0 0 0 0 0 0 0 0 0 0 0 0 0 0 0 0 0 127 0" result="hardAlpha"/>
<feOffset dx="1" dy="1"/>
<feGaussianBlur stdDeviation="1"/>
<feComposite in2="hardAlpha" operator="arithmetic" k2="-1" k3="1"/>
<feColorMatrix type="matrix" values="0 0 0 0 0.71381 0 0 0 0 0.864312 0 0 0 0 0.687251 0 0 0 1 0"/>
<feBlend mode="normal" in2="shape" result="effect1_innerShadow_85_1704"/>
</filter>
<linearGradient id="paint0_linear_85_1704" x1="0" y1="0" x2="13.613" y2="17.8232" gradientUnits="userSpaceOnUse">
<stop stop-color="#80C178"/>
<stop offset="1" stop-color="#2A6B26"/>
</linearGradient>
<clipPath id="clip0_85_1704">
<rect width="16" height="16" fill="white"/>
</clipPath>
</defs>
</svg>
