<svg width="16" height="16" viewBox="0 0 16 16" fill="none" xmlns="http://www.w3.org/2000/svg">
<g clip-path="url(#clip0_85_1702)">
<mask id="path-1-inside-1_85_1702" fill="white">
<path d="M6 15.0771L4.61523 13.6924L2.30762 16L0 13.6924L2.30762 11.3848L0.922852 10H6V15.0771ZM13.6924 11.3848L16 13.6924L13.6924 16L11.3848 13.6924L10 15.0771V10H15.0771L13.6924 11.3848ZM4.61523 2.30762L6 0.922852V6H0.922852L2.30762 4.61523L0 2.30762L2.30762 0L4.61523 2.30762ZM16 2.30762L13.6924 4.61523L15.0771 6H10V0.922852L11.3848 2.30762L13.6924 0L16 2.30762Z"/>
</mask>
<g filter="url(#filter0_i_85_1702)">
<path d="M6 15.0771L4.61523 13.6924L2.30762 16L0 13.6924L2.30762 11.3848L0.922852 10H6V15.0771ZM13.6924 11.3848L16 13.6924L13.6924 16L11.3848 13.6924L10 15.0771V10H15.0771L13.6924 11.3848ZM4.61523 2.30762L6 0.922852V6H0.922852L2.30762 4.61523L0 2.30762L2.30762 0L4.61523 2.30762ZM16 2.30762L13.6924 4.61523L15.0771 6H10V0.922852L11.3848 2.30762L13.6924 0L16 2.30762Z" fill="#82C27C"/>
</g>
<path d="M6 15.0771L5.29289 15.7843C5.57889 16.0703 6.00901 16.1558 6.38268 16.001C6.75636 15.8462 7 15.4816 7 15.0771H6ZM4.61523 13.6924L5.32234 12.9853C4.93182 12.5948 4.29865 12.5948 3.90813 12.9853L4.61523 13.6924ZM2.30762 16L1.60051 16.7071C1.99103 17.0976 2.6242 17.0976 3.01472 16.7071L2.30762 16ZM0 13.6924L-0.707107 12.9853C-1.09763 13.3758 -1.09763 14.009 -0.707107 14.3995L0 13.6924ZM2.30762 11.3848L3.01472 12.0919C3.40525 11.7013 3.40525 11.0682 3.01472 10.6777L2.30762 11.3848ZM0.922852 10V9C0.518389 9 0.153753 9.24364 -0.00102797 9.61732C-0.155809 9.99099 -0.0702532 10.4211 0.215745 10.7071L0.922852 10ZM6 10H7C7 9.44771 6.55228 9 6 9V10ZM13.6924 11.3848L12.9853 10.6777C12.5948 11.0682 12.5948 11.7013 12.9853 12.0919L13.6924 11.3848ZM16 13.6924L16.7071 14.3995C17.0976 14.009 17.0976 13.3758 16.7071 12.9853L16 13.6924ZM13.6924 16L12.9853 16.7071C13.3758 17.0976 14.009 17.0976 14.3995 16.7071L13.6924 16ZM11.3848 13.6924L12.0919 12.9853C11.7013 12.5948 11.0682 12.5948 10.6777 12.9853L11.3848 13.6924ZM10 15.0771H9C9 15.4816 9.24364 15.8462 9.61732 16.001C9.99099 16.1558 10.4211 16.0703 10.7071 15.7843L10 15.0771ZM10 10V9C9.44771 9 9 9.44771 9 10H10ZM15.0771 10L15.7843 10.7071C16.0703 10.4211 16.1558 9.99099 16.001 9.61732C15.8462 9.24364 15.4816 9 15.0771 9V10ZM4.61523 2.30762L3.90813 3.01472C4.29865 3.40525 4.93182 3.40525 5.32234 3.01472L4.61523 2.30762ZM6 0.922852H7C7 0.518389 6.75636 0.153753 6.38268 -0.00102797C6.00901 -0.155809 5.57889 -0.0702532 5.29289 0.215745L6 0.922852ZM6 6V7C6.55228 7 7 6.55228 7 6H6ZM0.922852 6L0.215745 5.29289C-0.0702532 5.57889 -0.155809 6.00901 -0.00102797 6.38268C0.153753 6.75636 0.518389 7 0.922852 7V6ZM2.30762 4.61523L3.01472 5.32234C3.40525 4.93182 3.40525 4.29865 3.01472 3.90813L2.30762 4.61523ZM0 2.30762L-0.707107 1.60051C-1.09763 1.99103 -1.09763 2.6242 -0.707107 3.01472L0 2.30762ZM2.30762 0L3.01472 -0.707107C2.6242 -1.09763 1.99103 -1.09763 1.60051 -0.707107L2.30762 0ZM16 2.30762L16.7071 3.01472C17.0976 2.6242 17.0976 1.99103 16.7071 1.60051L16 2.30762ZM13.6924 4.61523L12.9853 3.90813C12.5948 4.29865 12.5948 4.93182 12.9853 5.32234L13.6924 4.61523ZM15.0771 6V7C15.4816 7 15.8462 6.75636 16.001 6.38268C16.1558 6.00901 16.0703 5.57889 15.7843 5.29289L15.0771 6ZM10 6H9C9 6.55228 9.44771 7 10 7V6ZM10 0.922852L10.7071 0.215745C10.4211 -0.0702532 9.99099 -0.155809 9.61732 -0.00102797C9.24364 0.153753 9 0.518389 9 0.922852H10ZM11.3848 2.30762L10.6777 3.01472C11.0682 3.40525 11.7013 3.40525 12.0919 3.01472L11.3848 2.30762ZM13.6924 0L14.3995 -0.707107C14.009 -1.09763 13.3758 -1.09763 12.9853 -0.707107L13.6924 0ZM6 15.0771L6.70711 14.37L5.32234 12.9853L4.61523 13.6924L3.90813 14.3995L5.29289 15.7843L6 15.0771ZM4.61523 13.6924L3.90813 12.9853L1.60051 15.2929L2.30762 16L3.01472 16.7071L5.32234 14.3995L4.61523 13.6924ZM2.30762 16L3.01472 15.2929L0.707107 12.9853L0 13.6924L-0.707107 14.3995L1.60051 16.7071L2.30762 16ZM0 13.6924L0.707107 14.3995L3.01472 12.0919L2.30762 11.3848L1.60051 10.6777L-0.707107 12.9853L0 13.6924ZM2.30762 11.3848L3.01472 10.6777L1.62996 9.29289L0.922852 10L0.215745 10.7071L1.60051 12.0919L2.30762 11.3848ZM0.922852 10V11H6V10V9H0.922852V10ZM6 10H5V15.0771H6H7V10H6ZM13.6924 11.3848L12.9853 12.0919L15.2929 14.3995L16 13.6924L16.7071 12.9853L14.3995 10.6777L13.6924 11.3848ZM16 13.6924L15.2929 12.9853L12.9853 15.2929L13.6924 16L14.3995 16.7071L16.7071 14.3995L16 13.6924ZM13.6924 16L14.3995 15.2929L12.0919 12.9853L11.3848 13.6924L10.6777 14.3995L12.9853 16.7071L13.6924 16ZM11.3848 13.6924L10.6777 12.9853L9.29289 14.37L10 15.0771L10.7071 15.7843L12.0919 14.3995L11.3848 13.6924ZM10 15.0771H11V10H10H9V15.0771H10ZM10 10V11H15.0771V10V9H10V10ZM15.0771 10L14.37 9.29289L12.9853 10.6777L13.6924 11.3848L14.3995 12.0919L15.7843 10.7071L15.0771 10ZM4.61523 2.30762L5.32234 3.01472L6.70711 1.62996L6 0.922852L5.29289 0.215745L3.90813 1.60051L4.61523 2.30762ZM6 0.922852H5V6H6H7V0.922852H6ZM6 6V5H0.922852V6V7H6V6ZM0.922852 6L1.62996 6.70711L3.01472 5.32234L2.30762 4.61523L1.60051 3.90813L0.215745 5.29289L0.922852 6ZM2.30762 4.61523L3.01472 3.90813L0.707107 1.60051L0 2.30762L-0.707107 3.01472L1.60051 5.32234L2.30762 4.61523ZM0 2.30762L0.707107 3.01472L3.01472 0.707107L2.30762 0L1.60051 -0.707107L-0.707107 1.60051L0 2.30762ZM2.30762 0L1.60051 0.707107L3.90813 3.01472L4.61523 2.30762L5.32234 1.60051L3.01472 -0.707107L2.30762 0ZM16 2.30762L15.2929 1.60051L12.9853 3.90813L13.6924 4.61523L14.3995 5.32234L16.7071 3.01472L16 2.30762ZM13.6924 4.61523L12.9853 5.32234L14.37 6.70711L15.0771 6L15.7843 5.29289L14.3995 3.90813L13.6924 4.61523ZM15.0771 6V5H10V6V7H15.0771V6ZM10 6H11V0.922852H10H9V6H10ZM10 0.922852L9.29289 1.62996L10.6777 3.01472L11.3848 2.30762L12.0919 1.60051L10.7071 0.215745L10 0.922852ZM11.3848 2.30762L12.0919 3.01472L14.3995 0.707107L13.6924 0L12.9853 -0.707107L10.6777 1.60051L11.3848 2.30762ZM13.6924 0L12.9853 0.707107L15.2929 3.01472L16 2.30762L16.7071 1.60051L14.3995 -0.707107L13.6924 0Z" fill="url(#paint0_linear_85_1702)" mask="url(#path-1-inside-1_85_1702)"/>
</g>
<defs>
<filter id="filter0_i_85_1702" x="0" y="0" width="17" height="17" filterUnits="userSpaceOnUse" color-interpolation-filters="sRGB">
<feFlood flood-opacity="0" result="BackgroundImageFix"/>
<feBlend mode="normal" in="SourceGraphic" in2="BackgroundImageFix" result="shape"/>
<feColorMatrix in="SourceAlpha" type="matrix" values="0 0 0 0 0 0 0 0 0 0 0 0 0 0 0 0 0 0 127 0" result="hardAlpha"/>
<feOffset dx="1" dy="1"/>
<feGaussianBlur stdDeviation="1"/>
<feComposite in2="hardAlpha" operator="arithmetic" k2="-1" k3="1"/>
<feColorMatrix type="matrix" values="0 0 0 0 0.71381 0 0 0 0 0.864312 0 0 0 0 0.687251 0 0 0 1 0"/>
<feBlend mode="normal" in2="shape" result="effect1_innerShadow_85_1702"/>
</filter>
<linearGradient id="paint0_linear_85_1702" x1="0" y1="0" x2="13.613" y2="17.8232" gradientUnits="userSpaceOnUse">
<stop stop-color="#80C178"/>
<stop offset="1" stop-color="#2A6B26"/>
</linearGradient>
<clipPath id="clip0_85_1702">
<rect width="16" height="16" fill="white"/>
</clipPath>
</defs>
</svg>
