<svg width="16" height="16" viewBox="0 0 16 16" fill="none" xmlns="http://www.w3.org/2000/svg">
<mask id="path-1-inside-1_85_1697" fill="white">
<path d="M6 5V15H10V5H12L8 1L4 5H6Z"/>
</mask>
<g filter="url(#filter0_i_85_1697)">
<path d="M6 5V15H10V5H12L8 1L4 5H6Z" fill="#82C27C"/>
</g>
<path d="M6 15H5V16H6V15ZM6 5H7C7 4.44772 6.55228 4 6 4V5ZM4 5L3.29289 4.29289L1.58579 6H4V5ZM8 1L8.70711 0.292893L8 -0.414214L7.29289 0.292893L8 1ZM12 5V6H14.4142L12.7071 4.29289L12 5ZM10 5V4C9.44772 4 9 4.44772 9 5H10ZM10 15V16H11V15H10ZM6 15H7V5H6H5V15H6ZM6 5V4H4V5V6H6V5ZM4 5L4.70711 5.70711L8.70711 1.70711L8 1L7.29289 0.292893L3.29289 4.29289L4 5ZM8 1L7.29289 1.70711L11.2929 5.70711L12 5L12.7071 4.29289L8.70711 0.292893L8 1ZM12 5V4H10V5V6H12V5ZM10 5H9V15H10H11V5H10ZM10 15V14H6V15V16H10V15Z" fill="url(#paint0_linear_85_1697)" mask="url(#path-1-inside-1_85_1697)"/>
<defs>
<filter id="filter0_i_85_1697" x="4" y="1" width="9" height="15" filterUnits="userSpaceOnUse" color-interpolation-filters="sRGB">
<feFlood flood-opacity="0" result="BackgroundImageFix"/>
<feBlend mode="normal" in="SourceGraphic" in2="BackgroundImageFix" result="shape"/>
<feColorMatrix in="SourceAlpha" type="matrix" values="0 0 0 0 0 0 0 0 0 0 0 0 0 0 0 0 0 0 127 0" result="hardAlpha"/>
<feOffset dx="1" dy="1"/>
<feGaussianBlur stdDeviation="1"/>
<feComposite in2="hardAlpha" operator="arithmetic" k2="-1" k3="1"/>
<feColorMatrix type="matrix" values="0 0 0 0 0.71381 0 0 0 0 0.864312 0 0 0 0 0.687251 0 0 0 1 0"/>
<feBlend mode="normal" in2="shape" result="effect1_innerShadow_85_1697"/>
</filter>
<linearGradient id="paint0_linear_85_1697" x1="12" y1="15" x2="5.98292" y2="0.194143" gradientUnits="userSpaceOnUse">
<stop stop-color="#2A6B26"/>
<stop offset="1" stop-color="#80C178"/>
</linearGradient>
</defs>
</svg>
