<svg width="16" height="16" viewBox="0 0 16 16" fill="none" xmlns="http://www.w3.org/2000/svg">
<mask id="path-1-inside-1_85_1707" fill="white">
<path d="M5 16V14L8 14H9C12.3137 14 15 11.3137 15 8C15 4.68629 12.3137 2 9 2L2 2L2 6L9 6C10.1046 6 11 6.89543 11 8C11 9.10457 10.1046 10 9 10H8H5V8L1 12L5 16Z"/>
</mask>
<g filter="url(#filter0_i_85_1707)">
<path d="M5 16V14L8 14H9C12.3137 14 15 11.3137 15 8C15 4.68629 12.3137 2 9 2L2 2L2 6L9 6C10.1046 6 11 6.89543 11 8C11 9.10457 10.1046 10 9 10H8H5V8L1 12L5 16Z" fill="#82C27C"/>
</g>
<path d="M5 14V13C4.44772 13 4 13.4477 4 14H5ZM5 16L4.29289 16.7071L6 18.4142V16H5ZM1 12L0.292893 11.2929L-0.414214 12L0.292893 12.7071L1 12ZM5 8H6V5.58579L4.29289 7.29289L5 8ZM5 10H4C4 10.5523 4.44772 11 5 11V10ZM8 14V13V13V14ZM9 10V11V11V10ZM9 2V3H9L9 2ZM2 2V1H0.999999L0.999999 2H2ZM2 6H0.999999L0.999999 7H2L2 6ZM9 14V15V15V14ZM5 14H4V16H5H6V14H5ZM5 16L5.70711 15.2929L1.70711 11.2929L1 12L0.292893 12.7071L4.29289 16.7071L5 16ZM1 12L1.70711 12.7071L5.70711 8.70711L5 8L4.29289 7.29289L0.292893 11.2929L1 12ZM5 8H4V10H5H6V8H5ZM5 10V11H8V10V9H5V10ZM8 14V13L5 13V14V15L8 15V14ZM9 10V9H8V10V11H9V10ZM9 2V1L2 1V2L2 3L9 3V2ZM2 2H0.999999L0.999999 6H2H3L3 2H2ZM2 6L2 7L9 7V6L9 5L2 5V6ZM9 14V13H8V14V15H9V14ZM9 10V11C10.6569 11 12 9.65685 12 8L11 8H10C10 8.55228 9.55229 9 9 9L9 10ZM15 8H16C16 4.13401 12.866 1 9 1L9 2L9 3C11.7614 3 14 5.23858 14 8H15ZM9 14V15C12.866 15 16 11.866 16 8H15H14C14 10.7614 11.7614 13 9 13V14ZM9 6V7C9.55229 7 10 7.44772 10 8H11L12 8C12 6.34315 10.6569 5 9 5L9 6Z" fill="url(#paint0_linear_85_1707)" mask="url(#path-1-inside-1_85_1707)"/>
<defs>
<filter id="filter0_i_85_1707" x="1" y="2" width="15" height="15" filterUnits="userSpaceOnUse" color-interpolation-filters="sRGB">
<feFlood flood-opacity="0" result="BackgroundImageFix"/>
<feBlend mode="normal" in="SourceGraphic" in2="BackgroundImageFix" result="shape"/>
<feColorMatrix in="SourceAlpha" type="matrix" values="0 0 0 0 0 0 0 0 0 0 0 0 0 0 0 0 0 0 127 0" result="hardAlpha"/>
<feOffset dx="1" dy="1"/>
<feGaussianBlur stdDeviation="1"/>
<feComposite in2="hardAlpha" operator="arithmetic" k2="-1" k3="1"/>
<feColorMatrix type="matrix" values="0 0 0 0 0.71381 0 0 0 0 0.864312 0 0 0 0 0.687251 0 0 0 1 0"/>
<feBlend mode="normal" in2="shape" result="effect1_innerShadow_85_1707"/>
</filter>
<linearGradient id="paint0_linear_85_1707" x1="1" y1="2" x2="12.9114" y2="17.5953" gradientUnits="userSpaceOnUse">
<stop stop-color="#72C466"/>
<stop offset="1" stop-color="#214F1E"/>
</linearGradient>
</defs>
</svg>
