<svg width="16" height="16" viewBox="0 0 16 16" fill="none" xmlns="http://www.w3.org/2000/svg">
<mask id="path-1-inside-1_85_1712" fill="white">
<path d="M11 1L11 3L10.5 3C9.24097 3 8.05542 3.59278 7.3 4.6L4 9L-3.49691e-07 9L-5.24537e-07 13L3.5 13C4.75903 13 5.94458 12.4072 6.7 11.4L10 7L11 7L11 9L15 5L11 1Z"/>
</mask>
<g filter="url(#filter0_i_85_1712)">
<path d="M11 1L11 3L10.5 3C9.24097 3 8.05542 3.59278 7.3 4.6L4 9L-3.49691e-07 9L-5.24537e-07 13L3.5 13C4.75903 13 5.94458 12.4072 6.7 11.4L10 7L11 7L11 9L15 5L11 1Z" fill="#82C27C"/>
</g>
<path d="M11 3L11 4C11.5523 4 12 3.55228 12 3L11 3ZM11 1L11.7071 0.292893L10 -1.41421L10 1L11 1ZM15 5L15.7071 5.70711L16.4142 5L15.7071 4.29289L15 5ZM11 9L10 9L10 11.4142L11.7071 9.70711L11 9ZM11 7L12 7C12 6.44772 11.5523 6 11 6L11 7ZM10 7L10 6C9.68524 6 9.38885 6.14819 9.2 6.4L10 7ZM10.5 3L10.5 2V2L10.5 3ZM6.7 11.4L5.9 10.8L5.9 10.8L6.7 11.4ZM-5.24537e-07 13L-1 13L-1 14L-5.68248e-07 14L-5.24537e-07 13ZM-3.49691e-07 9L-3.0598e-07 8L-1 8L-1 9L-3.49691e-07 9ZM4 9L4 10C4.31476 10 4.61115 9.85181 4.8 9.6L4 9ZM7.3 4.6L8.1 5.2V5.2L7.3 4.6ZM11 3L12 3L12 1L11 1L10 1L10 3L11 3ZM11 1L10.2929 1.70711L14.2929 5.70711L15 5L15.7071 4.29289L11.7071 0.292893L11 1ZM15 5L14.2929 4.29289L10.2929 8.29289L11 9L11.7071 9.70711L15.7071 5.70711L15 5ZM11 9L12 9L12 7L11 7L10 7L10 9L11 9ZM11 7L11 6L10 6L10 7L10 8L11 8L11 7ZM10.5 3L10.5 4L11 4L11 3L11 2L10.5 2L10.5 3ZM10 7L9.2 6.4L5.9 10.8L6.7 11.4L7.5 12L10.8 7.6L10 7ZM3.5 13L3.5 12L-4.80825e-07 12L-5.24537e-07 13L-5.68248e-07 14L3.5 14L3.5 13ZM-5.24537e-07 13L0.999999 13L1 9L-3.49691e-07 9L-1 9L-1 13L-5.24537e-07 13ZM-3.49691e-07 9L-3.93403e-07 10L4 10L4 9L4 8L-3.0598e-07 8L-3.49691e-07 9ZM4 9L4.8 9.6L8.1 5.2L7.3 4.6L6.5 4L3.2 8.4L4 9ZM6.7 11.4L5.9 10.8C5.33344 11.5554 4.44427 12 3.5 12L3.5 13L3.5 14C5.07379 14 6.55573 13.259 7.5 12L6.7 11.4ZM10.5 3L10.5 2C8.92621 2 7.44427 2.74097 6.5 4L7.3 4.6L8.1 5.2C8.66656 4.44458 9.55573 4 10.5 4L10.5 3Z" fill="url(#paint0_linear_85_1712)" mask="url(#path-1-inside-1_85_1712)"/>
<mask id="path-3-inside-2_85_1712" fill="white">
<path d="M11 15L11 13L10.5 13C9.24097 13 8.05542 12.4072 7.3 11.4L4 7L-3.49691e-07 7L-5.24537e-07 3L3.5 3C4.75903 3 5.94458 3.59278 6.7 4.6L10 9L11 9L11 7L15 11L11 15Z"/>
</mask>
<g filter="url(#filter1_i_85_1712)">
<path d="M11 15L11 13L10.5 13C9.24097 13 8.05542 12.4072 7.3 11.4L4 7L-3.49691e-07 7L-5.24537e-07 3L3.5 3C4.75903 3 5.94458 3.59278 6.7 4.6L10 9L11 9L11 7L15 11L11 15Z" fill="#82C27C"/>
</g>
<path d="M11 13L11 12C11.5523 12 12 12.4477 12 13L11 13ZM11 15L11.7071 15.7071L10 17.4142L10 15L11 15ZM15 11L15.7071 10.2929L16.4142 11L15.7071 11.7071L15 11ZM11 7L10 7L10 4.58579L11.7071 6.29289L11 7ZM11 9L12 9C12 9.55228 11.5523 10 11 10L11 9ZM10 9L10 10C9.68524 10 9.38885 9.85181 9.2 9.6L10 9ZM10.5 13L10.5 14V14L10.5 13ZM6.7 4.6L5.9 5.2L5.9 5.2L6.7 4.6ZM-5.24537e-07 3L-1 3L-1 2L-5.68248e-07 2L-5.24537e-07 3ZM-3.49691e-07 7L-3.0598e-07 8L-1 8L-1 7L-3.49691e-07 7ZM4 7L4 6C4.31476 6 4.61115 6.14819 4.8 6.4L4 7ZM7.3 11.4L8.1 10.8V10.8L7.3 11.4ZM11 13L12 13L12 15L11 15L10 15L10 13L11 13ZM11 15L10.2929 14.2929L14.2929 10.2929L15 11L15.7071 11.7071L11.7071 15.7071L11 15ZM15 11L14.2929 11.7071L10.2929 7.70711L11 7L11.7071 6.29289L15.7071 10.2929L15 11ZM11 7L12 7L12 9L11 9L10 9L10 7L11 7ZM11 9L11 10L10 10L10 9L10 8L11 8L11 9ZM10.5 13L10.5 12L11 12L11 13L11 14L10.5 14L10.5 13ZM10 9L9.2 9.6L5.9 5.2L6.7 4.6L7.5 4L10.8 8.4L10 9ZM3.5 3L3.5 4L-4.80825e-07 4L-5.24537e-07 3L-5.68248e-07 2L3.5 2L3.5 3ZM-5.24537e-07 3L0.999999 3L1 7L-3.49691e-07 7L-1 7L-1 3L-5.24537e-07 3ZM-3.49691e-07 7L-3.93403e-07 6L4 6L4 7L4 8L-3.0598e-07 8L-3.49691e-07 7ZM4 7L4.8 6.4L8.1 10.8L7.3 11.4L6.5 12L3.2 7.6L4 7ZM6.7 4.6L5.9 5.2C5.33344 4.44458 4.44427 4 3.5 4L3.5 3L3.5 2C5.07379 2 6.55573 2.74097 7.5 4L6.7 4.6ZM10.5 13L10.5 14C8.92621 14 7.44427 13.259 6.5 12L7.3 11.4L8.1 10.8C8.66656 11.5554 9.55573 12 10.5 12L10.5 13Z" fill="url(#paint1_linear_85_1712)" mask="url(#path-3-inside-2_85_1712)"/>
<defs>
<filter id="filter0_i_85_1712" x="0" y="1" width="16" height="13" filterUnits="userSpaceOnUse" color-interpolation-filters="sRGB">
<feFlood flood-opacity="0" result="BackgroundImageFix"/>
<feBlend mode="normal" in="SourceGraphic" in2="BackgroundImageFix" result="shape"/>
<feColorMatrix in="SourceAlpha" type="matrix" values="0 0 0 0 0 0 0 0 0 0 0 0 0 0 0 0 0 0 127 0" result="hardAlpha"/>
<feOffset dx="1" dy="1"/>
<feGaussianBlur stdDeviation="1"/>
<feComposite in2="hardAlpha" operator="arithmetic" k2="-1" k3="1"/>
<feColorMatrix type="matrix" values="0 0 0 0 0.71381 0 0 0 0 0.864312 0 0 0 0 0.687251 0 0 0 1 0"/>
<feBlend mode="normal" in2="shape" result="effect1_innerShadow_85_1712"/>
</filter>
<filter id="filter1_i_85_1712" x="0" y="3" width="17" height="14" filterUnits="userSpaceOnUse" color-interpolation-filters="sRGB">
<feFlood flood-opacity="0" result="BackgroundImageFix"/>
<feBlend mode="normal" in="SourceGraphic" in2="BackgroundImageFix" result="shape"/>
<feColorMatrix in="SourceAlpha" type="matrix" values="0 0 0 0 0 0 0 0 0 0 0 0 0 0 0 0 0 0 127 0" result="hardAlpha"/>
<feOffset dx="2" dy="2"/>
<feGaussianBlur stdDeviation="1.5"/>
<feComposite in2="hardAlpha" operator="arithmetic" k2="-1" k3="1"/>
<feColorMatrix type="matrix" values="0 0 0 0 0.71381 0 0 0 0 0.864312 0 0 0 0 0.687251 0 0 0 1 0"/>
<feBlend mode="normal" in2="shape" result="effect1_innerShadow_85_1712"/>
</filter>
<linearGradient id="paint0_linear_85_1712" x1="15" y1="15" x2="2.29046" y2="-0.702166" gradientUnits="userSpaceOnUse">
<stop offset="0.149955" stop-color="#214F1E"/>
<stop offset="0.732211" stop-color="#66B55A"/>
</linearGradient>
<linearGradient id="paint1_linear_85_1712" x1="15" y1="15" x2="-1.57765" y2="3.22021" gradientUnits="userSpaceOnUse">
<stop offset="0.133907" stop-color="#214F1E"/>
<stop offset="0.929186" stop-color="#66B55A"/>
</linearGradient>
</defs>
</svg>
