<svg width="16" height="16" viewBox="0 0 16 16" fill="none" xmlns="http://www.w3.org/2000/svg">
<mask id="path-1-inside-1_85_1711" fill="white">
<path d="M7 16V14L8 14C11.3137 14 14 11.3137 14 8C14 4.68629 11.3137 2 8 2C4.68629 2 2 4.68629 2 8L6 8C6 6.89543 6.89543 6 8 6C9.10457 6 10 6.89543 10 8C10 9.10457 9.10457 10 8 10L7 10V8L3 12L7 16Z"/>
</mask>
<g filter="url(#filter0_i_85_1711)">
<path d="M7 16V14L8 14C11.3137 14 14 11.3137 14 8C14 4.68629 11.3137 2 8 2C4.68629 2 2 4.68629 2 8L6 8C6 6.89543 6.89543 6 8 6C9.10457 6 10 6.89543 10 8C10 9.10457 9.10457 10 8 10L7 10V8L3 12L7 16Z" fill="#82C27C"/>
</g>
<path d="M7 14L7 13C6.44771 13 6 13.4477 6 14H7ZM7 16L6.29289 16.7071L8 18.4142V16H7ZM3 12L2.29289 11.2929L1.58579 12L2.29289 12.7071L3 12ZM7 8H8V5.58579L6.29289 7.29289L7 8ZM7 10H6C6 10.2652 6.10536 10.5196 6.29289 10.7071C6.48043 10.8946 6.73478 11 7 11L7 10ZM2 8H1V9L2 9L2 8ZM6 8L6 9L7 9V8H6ZM8 10L8 9V9L8 10ZM8 14V13H8L8 14ZM8 2V1H8L8 2ZM7 14H6V16H7H8V14H7ZM7 16L7.70711 15.2929L3.70711 11.2929L3 12L2.29289 12.7071L6.29289 16.7071L7 16ZM3 12L3.70711 12.7071L7.70711 8.70711L7 8L6.29289 7.29289L2.29289 11.2929L3 12ZM7 8H6V10H7H8V8H7ZM2 8L2 9L6 9L6 8L6 7L2 7L2 8ZM7 10L7 11L8 11L8 10L8 9L7 9L7 10ZM8 14L8 13L7 13L7 14L7 15L8 15L8 14ZM8 6L8 5C6.34315 5 5 6.34315 5 8H6H7C7 7.44772 7.44772 7 8 7V6ZM8 2L8 1C4.13401 1 1 4.134 1 8H2H3C3 5.23857 5.23858 3 8 3L8 2ZM8 14V15C11.866 15 15 11.866 15 8H14H13C13 10.7614 10.7614 13 8 13V14ZM8 10L8 11C9.65685 11 11 9.65685 11 8H10H9C9 8.55228 8.55229 9 8 9L8 10ZM14 8H15C15 4.134 11.866 1 8 1V2V3C10.7614 3 13 5.23857 13 8H14ZM8 6V7C8.55228 7 9 7.44772 9 8H10H11C11 6.34315 9.65685 5 8 5L8 6Z" fill="url(#paint0_linear_85_1711)" mask="url(#path-1-inside-1_85_1711)"/>
<defs>
<filter id="filter0_i_85_1711" x="2" y="2" width="13" height="15" filterUnits="userSpaceOnUse" color-interpolation-filters="sRGB">
<feFlood flood-opacity="0" result="BackgroundImageFix"/>
<feBlend mode="normal" in="SourceGraphic" in2="BackgroundImageFix" result="shape"/>
<feColorMatrix in="SourceAlpha" type="matrix" values="0 0 0 0 0 0 0 0 0 0 0 0 0 0 0 0 0 0 127 0" result="hardAlpha"/>
<feOffset dx="1" dy="1"/>
<feGaussianBlur stdDeviation="1"/>
<feComposite in2="hardAlpha" operator="arithmetic" k2="-1" k3="1"/>
<feColorMatrix type="matrix" values="0 0 0 0 0.71381 0 0 0 0 0.864312 0 0 0 0 0.687251 0 0 0 1 0"/>
<feBlend mode="normal" in2="shape" result="effect1_innerShadow_85_1711"/>
</filter>
<linearGradient id="paint0_linear_85_1711" x1="2" y1="2" x2="11.9466" y2="17.3321" gradientUnits="userSpaceOnUse">
<stop offset="0.13892" stop-color="#72C466"/>
<stop offset="0.779" stop-color="#215F1E"/>
</linearGradient>
</defs>
</svg>
