<svg width="16" height="16" viewBox="0 0 16 16" fill="none" xmlns="http://www.w3.org/2000/svg">
<mask id="path-1-inside-1_85_1713" fill="white">
<path d="M11 4H9V8C9 9.10457 9.89543 10 11 10H13V14H11C10.2986 14 9.62568 13.8784 9 13.6572V16H5V4H3L7 0L11 4Z"/>
</mask>
<g filter="url(#filter0_i_85_1713)">
<path d="M11 4H9V8C9 9.10457 9.89543 10 11 10H13V14H11C10.2986 14 9.62568 13.8784 9 13.6572V16H5V4H3L7 0L11 4Z" fill="#82C27C"/>
</g>
<path d="M11 4V5C11.4045 5 11.7691 4.75636 11.9239 4.38268C12.0787 4.00901 11.9931 3.57889 11.7071 3.29289L11 4ZM9 4V3C8.44772 3 8 3.44772 8 4H9ZM9 8H8V8H9ZM11 10V9V9V10ZM13 10H14C14 9.44771 13.5523 9 13 9V10ZM13 14V15C13.5523 15 14 14.5523 14 14H13ZM11 14V13V13V14ZM9 13.6572L9.33332 12.7144C9.02725 12.6062 8.6877 12.6533 8.42264 12.8407C8.15758 13.0282 8 13.3326 8 13.6572H9ZM9 16V17C9.55228 17 10 16.5523 10 16H9ZM5 16H4C4 16.5523 4.44772 17 5 17V16ZM5 4H6C6 3.44772 5.55228 3 5 3V4ZM3 4L2.29289 3.29289C2.0069 3.57889 1.92134 4.00901 2.07612 4.38268C2.2309 4.75636 2.59554 5 3 5V4ZM7 0L7.70711 -0.707107C7.31658 -1.09763 6.68342 -1.09763 6.29289 -0.707107L7 0ZM11 4V3H9V4V5H11V4ZM9 4H8V8H9H10V4H9ZM9 8H8C8 9.65685 9.34315 11 11 11V10V9C10.4477 9 10 8.55229 10 8H9ZM11 10V11H13V10V9H11V10ZM13 10H12V14H13H14V10H13ZM13 14V13H11V14V15H13V14ZM11 14V13C10.4149 13 9.85464 12.8987 9.33332 12.7144L9 13.6572L8.66668 14.6C9.39672 14.8581 10.1822 15 11 15V14ZM9 13.6572H8V16H9H10V13.6572H9ZM9 16V15H5V16V17H9V16ZM5 16H6V4H5H4V16H5ZM5 4V3H3V4V5H5V4ZM3 4L3.70711 4.70711L7.70711 0.707107L7 0L6.29289 -0.707107L2.29289 3.29289L3 4ZM7 0L6.29289 0.707107L10.2929 4.70711L11 4L11.7071 3.29289L7.70711 -0.707107L7 0Z" fill="url(#paint0_linear_85_1713)" mask="url(#path-1-inside-1_85_1713)"/>
<mask id="mask0_85_1713" style="mask-type:alpha" maskUnits="userSpaceOnUse" x="5" y="8" width="6" height="6">
<rect width="6" height="6" transform="matrix(1 0 0 -1 5 14)" fill="url(#paint1_linear_85_1713)"/>
</mask>
<g mask="url(#mask0_85_1713)">
<path d="M11 13C8.23858 13 6 10.7614 6 8L5 8C5 11.3137 7.68629 14 11 14V13Z" fill="url(#paint2_linear_85_1713)"/>
</g>
<defs>
<filter id="filter0_i_85_1713" x="3" y="0" width="11" height="17" filterUnits="userSpaceOnUse" color-interpolation-filters="sRGB">
<feFlood flood-opacity="0" result="BackgroundImageFix"/>
<feBlend mode="normal" in="SourceGraphic" in2="BackgroundImageFix" result="shape"/>
<feColorMatrix in="SourceAlpha" type="matrix" values="0 0 0 0 0 0 0 0 0 0 0 0 0 0 0 0 0 0 127 0" result="hardAlpha"/>
<feOffset dx="1" dy="1"/>
<feGaussianBlur stdDeviation="1"/>
<feComposite in2="hardAlpha" operator="arithmetic" k2="-1" k3="1"/>
<feColorMatrix type="matrix" values="0 0 0 0 0.71381 0 0 0 0 0.864312 0 0 0 0 0.687251 0 0 0 1 0"/>
<feBlend mode="normal" in2="shape" result="effect1_innerShadow_85_1713"/>
</filter>
<linearGradient id="paint0_linear_85_1713" x1="13" y1="16" x2="0.391178" y2="2.42274" gradientUnits="userSpaceOnUse">
<stop stop-color="#2A6B26"/>
<stop offset="1" stop-color="#80C178"/>
</linearGradient>
<linearGradient id="paint1_linear_85_1713" x1="6" y1="0" x2="7.15256e-07" y2="6" gradientUnits="userSpaceOnUse">
<stop offset="0.330729" stop-color="#D9D9D9"/>
<stop offset="0.65625" stop-color="#737373" stop-opacity="0"/>
</linearGradient>
<linearGradient id="paint2_linear_85_1713" x1="11" y1="14" x2="5" y2="8" gradientUnits="userSpaceOnUse">
<stop stop-color="#387933"/>
<stop offset="1" stop-color="#63A45C"/>
</linearGradient>
</defs>
</svg>
