<svg width="16" height="16" viewBox="0 0 16 16" fill="none" xmlns="http://www.w3.org/2000/svg">
<mask id="path-1-inside-1_85_1706" fill="white">
<path d="M9 16V14L8 14C4.68629 14 2 11.3137 2 8C2 4.68629 4.68629 2 8 2C11.3137 2 14 4.68629 14 8L10 8C10 6.89543 9.10457 6 8 6C6.89543 6 6 6.89543 6 8C6 9.10457 6.89543 10 8 10L9 10V8L13 12L9 16Z"/>
</mask>
<g filter="url(#filter0_i_85_1706)">
<path d="M9 16V14L8 14C4.68629 14 2 11.3137 2 8C2 4.68629 4.68629 2 8 2C11.3137 2 14 4.68629 14 8L10 8C10 6.89543 9.10457 6 8 6C6.89543 6 6 6.89543 6 8C6 9.10457 6.89543 10 8 10L9 10V8L13 12L9 16Z" fill="#82C27C"/>
</g>
<path d="M9 14L9 13C9.55229 13 10 13.4477 10 14H9ZM9 16L9.70711 16.7071L8 18.4142V16H9ZM13 12L13.7071 11.2929L14.4142 12L13.7071 12.7071L13 12ZM9 8H8V5.58579L9.70711 7.29289L9 8ZM9 10H10C10 10.2652 9.89464 10.5196 9.70711 10.7071C9.51957 10.8946 9.26522 11 9 11L9 10ZM14 8H15L15 9L14 9L14 8ZM10 8L10 9L9 9V8H10ZM8 10L8 9V9L8 10ZM8 14V13H8L8 14ZM8 2V1H8L8 2ZM9 14H10V16H9H8V14H9ZM9 16L8.29289 15.2929L12.2929 11.2929L13 12L13.7071 12.7071L9.70711 16.7071L9 16ZM13 12L12.2929 12.7071L8.29289 8.70711L9 8L9.70711 7.29289L13.7071 11.2929L13 12ZM9 8H10V10H9H8V8H9ZM14 8L14 9L10 9L10 8L10 7L14 7L14 8ZM9 10L9 11L8 11L8 10L8 9L9 9L9 10ZM8 14L8 13L9 13L9 14L9 15L8 15L8 14ZM8 6L8 5C9.65685 5 11 6.34315 11 8H10H9C9 7.44772 8.55228 7 8 7V6ZM8 2L8 1C11.866 1 15 4.134 15 8H14H13C13 5.23857 10.7614 3 8 3L8 2ZM8 14V15C4.13401 15 1 11.866 1 8H2H3C3 10.7614 5.23858 13 8 13V14ZM8 10L8 11C6.34315 11 5 9.65685 5 8H6H7C7 8.55228 7.44771 9 8 9L8 10ZM2 8H1C1 4.134 4.13401 1 8 1V2V3C5.23858 3 3 5.23857 3 8H2ZM8 6V7C7.44772 7 7 7.44772 7 8H6H5C5 6.34315 6.34315 5 8 5L8 6Z" fill="url(#paint0_linear_85_1706)" mask="url(#path-1-inside-1_85_1706)"/>
<defs>
<filter id="filter0_i_85_1706" x="2" y="2" width="13" height="15" filterUnits="userSpaceOnUse" color-interpolation-filters="sRGB">
<feFlood flood-opacity="0" result="BackgroundImageFix"/>
<feBlend mode="normal" in="SourceGraphic" in2="BackgroundImageFix" result="shape"/>
<feColorMatrix in="SourceAlpha" type="matrix" values="0 0 0 0 0 0 0 0 0 0 0 0 0 0 0 0 0 0 127 0" result="hardAlpha"/>
<feOffset dx="1" dy="1"/>
<feGaussianBlur stdDeviation="1"/>
<feComposite in2="hardAlpha" operator="arithmetic" k2="-1" k3="1"/>
<feColorMatrix type="matrix" values="0 0 0 0 0.71381 0 0 0 0 0.864312 0 0 0 0 0.687251 0 0 0 1 0"/>
<feBlend mode="normal" in2="shape" result="effect1_innerShadow_85_1706"/>
</filter>
<linearGradient id="paint0_linear_85_1706" x1="2" y1="2" x2="15.6305" y2="14.1745" gradientUnits="userSpaceOnUse">
<stop offset="0.130528" stop-color="#72C466"/>
<stop offset="0.807673" stop-color="#215F1E"/>
</linearGradient>
</defs>
</svg>
