<svg width="16" height="16" viewBox="0 0 16 16" fill="none" xmlns="http://www.w3.org/2000/svg">
<mask id="path-1-inside-1_85_1701" fill="white">
<path fill-rule="evenodd" clip-rule="evenodd" d="M2 5V5.67451C2 7.74325 3.06572 9.66607 4.82001 10.7625L5.06 10.9125C5.64476 11.278 6 11.9189 6 12.6085V15H10V12.6085C10 11.9189 10.3552 11.278 10.94 10.9125L11.18 10.7625C12.9343 9.66607 14 7.74325 14 5.67451V5H16L12 1L8 5L4 1L0 5H2ZM8 5H10V6.38796C10 6.77984 9.84433 7.15567 9.56722 7.43278C8.70167 8.29833 7.29833 8.29833 6.43278 7.43278C6.15567 7.15567 6 6.77984 6 6.38796V5H8Z"/>
</mask>
<g filter="url(#filter0_i_85_1701)">
<path fill-rule="evenodd" clip-rule="evenodd" d="M2 5V5.67451C2 7.74325 3.06572 9.66607 4.82001 10.7625L5.06 10.9125C5.64476 11.278 6 11.9189 6 12.6085V15H10V12.6085C10 11.9189 10.3552 11.278 10.94 10.9125L11.18 10.7625C12.9343 9.66607 14 7.74325 14 5.67451V5H16L12 1L8 5L4 1L0 5H2ZM8 5H10V6.38796C10 6.77984 9.84433 7.15567 9.56722 7.43278C8.70167 8.29833 7.29833 8.29833 6.43278 7.43278C6.15567 7.15567 6 6.77984 6 6.38796V5H8Z" fill="#82C27C"/>
</g>
<path d="M2 5H3C3 4.44772 2.55228 4 2 4V5ZM0 5L-0.707107 4.29289L-2.41421 6H0V5ZM4 1L4.70711 0.292893L4 -0.414214L3.29289 0.292893L4 1ZM6 5V4C5.44772 4 5 4.44772 5 5H6ZM6 15H5V16H6V15ZM10 15V16H11V15H10ZM10 5H11C11 4.44772 10.5523 4 10 4V5ZM12 1L12.7071 0.292893L12 -0.414214L11.2929 0.292893L12 1ZM16 5V6H18.4142L16.7071 4.29289L16 5ZM14 5V4C13.4477 4 13 4.44772 13 5H14ZM5.06 10.9125L5.59 10.0645L5.06 10.9125ZM2 5.67451H3V5H2H1V5.67451H2ZM2 5V4H0V5V6H2V5ZM0 5L0.707107 5.70711L4.70711 1.70711L4 1L3.29289 0.292893L-0.707107 4.29289L0 5ZM4 1L3.29289 1.70711L7.29289 5.70711L8 5L8.70711 4.29289L4.70711 0.292893L4 1ZM8 5V4H6V5V6H8V5ZM6 5H5V6.38796H6H7V5H6ZM5.06 10.9125L5.59 10.0645L5.35001 9.91451L4.82001 10.7625L4.29001 11.6105L4.53 11.7605L5.06 10.9125ZM6 15H7V12.6085H6H5V15H6ZM10 15V14H6V15V16H10V15ZM10 5V4H8V5V6H10V5ZM8 5L8.70711 5.70711L12.7071 1.70711L12 1L11.2929 0.292893L7.29289 4.29289L8 5ZM12 1L11.2929 1.70711L15.2929 5.70711L16 5L16.7071 4.29289L12.7071 0.292893L12 1ZM16 5V4H14V5V6H16V5ZM10 5H9V6.38796H10H11V5H10ZM14 5H13V5.67451H14H15V5H14ZM11.18 10.7625L10.65 9.91451L10.41 10.0645L10.94 10.9125L11.47 11.7605L11.71 11.6105L11.18 10.7625ZM10 15H11V12.6085H10H9V15H10ZM10.94 10.9125L10.41 10.0645C9.53286 10.6127 9 11.5741 9 12.6085H10H11C11 12.2637 11.1776 11.9432 11.47 11.7605L10.94 10.9125ZM10 6.38796H9C9 6.51463 8.94968 6.6361 8.86012 6.72567L9.56722 7.43278L10.2743 8.13988C10.739 7.67524 11 7.04506 11 6.38796H10ZM5.06 10.9125L4.53 11.7605C4.82238 11.9432 5 12.2637 5 12.6085H6H7C7 11.5741 6.46714 10.6127 5.59 10.0645L5.06 10.9125ZM6.43278 7.43278L5.72567 8.13988C6.98175 9.39596 9.01825 9.39596 10.2743 8.13988L9.56722 7.43278L8.86012 6.72567C8.38509 7.2007 7.61491 7.2007 7.13988 6.72567L6.43278 7.43278ZM6 6.38796H5C5 7.04506 5.26103 7.67524 5.72567 8.13988L6.43278 7.43278L7.13988 6.72567C7.05032 6.6361 7 6.51463 7 6.38796H6ZM14 5.67451H13C13 7.39846 12.1119 9.00081 10.65 9.91451L11.18 10.7625L11.71 11.6105C13.7567 10.3313 15 8.08804 15 5.67451H14ZM2 5.67451H1C1 8.08804 2.24334 10.3313 4.29001 11.6105L4.82001 10.7625L5.35001 9.91451C3.8881 9.00081 3 7.39846 3 5.67451H2Z" fill="url(#paint0_linear_85_1701)" mask="url(#path-1-inside-1_85_1701)"/>
<defs>
<filter id="filter0_i_85_1701" x="0" y="1" width="17" height="15" filterUnits="userSpaceOnUse" color-interpolation-filters="sRGB">
<feFlood flood-opacity="0" result="BackgroundImageFix"/>
<feBlend mode="normal" in="SourceGraphic" in2="BackgroundImageFix" result="shape"/>
<feColorMatrix in="SourceAlpha" type="matrix" values="0 0 0 0 0 0 0 0 0 0 0 0 0 0 0 0 0 0 127 0" result="hardAlpha"/>
<feOffset dx="1" dy="1"/>
<feGaussianBlur stdDeviation="1"/>
<feComposite in2="hardAlpha" operator="arithmetic" k2="-1" k3="1"/>
<feColorMatrix type="matrix" values="0 0 0 0 0.71381 0 0 0 0 0.864312 0 0 0 0 0.687251 0 0 0 1 0"/>
<feBlend mode="normal" in2="shape" result="effect1_innerShadow_85_1701"/>
</filter>
<linearGradient id="paint0_linear_85_1701" x1="0" y1="1" x2="11.1022" y2="18.1674" gradientUnits="userSpaceOnUse">
<stop offset="0.12473" stop-color="#72C466"/>
<stop offset="0.812949" stop-color="#215F1E"/>
</linearGradient>
</defs>
</svg>
