<svg width="16" height="16" viewBox="0 0 16 16" fill="none" xmlns="http://www.w3.org/2000/svg">
<mask id="path-1-inside-1_85_1710" fill="white">
<path d="M6 1L6 3L8 3C11.3137 3 14 5.68629 14 9L14 16L10 16L10 9C10 7.89543 9.10457 7 8 7L6 7L6 9L2 5L6 1Z"/>
</mask>
<g filter="url(#filter0_i_85_1710)">
<path d="M6 1L6 3L8 3C11.3137 3 14 5.68629 14 9L14 16L10 16L10 9C10 7.89543 9.10457 7 8 7L6 7L6 9L2 5L6 1Z" fill="#82C27C"/>
</g>
<path d="M6 3L6 4C5.44772 4 5 3.55228 5 3L6 3ZM6 1L5.29289 0.292893L7 -1.41421L7 1L6 1ZM2 5L1.29289 5.70711L0.585787 5L1.29289 4.29289L2 5ZM6 9L7 9L7 11.4142L5.29289 9.70711L6 9ZM6 7L5 7C5 6.44772 5.44772 6 6 6L6 7ZM10 9L11 9L11 9L10 9ZM8 3L8 4V4L8 3ZM14 16L15 16L15 17L14 17L14 16ZM10 16L10 17L9 17L9 16L10 16ZM6 3L5 3L5 1L6 1L7 1L7 3L6 3ZM6 1L6.70711 1.70711L2.70711 5.70711L2 5L1.29289 4.29289L5.29289 0.292893L6 1ZM2 5L2.70711 4.29289L6.70711 8.29289L6 9L5.29289 9.70711L1.29289 5.70711L2 5ZM6 9L5 9L5 7L6 7L7 7L7 9L6 9ZM6 7L6 6L8 6L8 7L8 8L6 8L6 7ZM10 9L9 9C9 8.44771 8.55228 8 8 8L8 7L8 6C9.65685 6 11 7.34315 11 9L10 9ZM14 9L13 9C13 6.23858 10.7614 4 8 4L8 3L8 2C11.866 2 15 5.13401 15 9L14 9ZM8 3L8 4L6 4L6 3L6 2L8 2L8 3ZM14 9L15 9L15 16L14 16L13 16L13 9L14 9ZM14 16L14 17L10 17L10 16L10 15L14 15L14 16ZM10 16L9 16L9 9L10 9L11 9L11 16L10 16Z" fill="url(#paint0_linear_85_1710)" mask="url(#path-1-inside-1_85_1710)"/>
<defs>
<filter id="filter0_i_85_1710" x="2" y="1" width="13" height="16" filterUnits="userSpaceOnUse" color-interpolation-filters="sRGB">
<feFlood flood-opacity="0" result="BackgroundImageFix"/>
<feBlend mode="normal" in="SourceGraphic" in2="BackgroundImageFix" result="shape"/>
<feColorMatrix in="SourceAlpha" type="matrix" values="0 0 0 0 0 0 0 0 0 0 0 0 0 0 0 0 0 0 127 0" result="hardAlpha"/>
<feOffset dx="1" dy="1"/>
<feGaussianBlur stdDeviation="1"/>
<feComposite in2="hardAlpha" operator="arithmetic" k2="-1" k3="1"/>
<feColorMatrix type="matrix" values="0 0 0 0 0.71381 0 0 0 0 0.864312 0 0 0 0 0.687251 0 0 0 1 0"/>
<feBlend mode="normal" in2="shape" result="effect1_innerShadow_85_1710"/>
</filter>
<linearGradient id="paint0_linear_85_1710" x1="14" y1="17" x2="0.106356" y2="2.86075" gradientUnits="userSpaceOnUse">
<stop stop-color="#215F1E"/>
<stop offset="0.884962" stop-color="#80C178"/>
</linearGradient>
</defs>
</svg>
