<svg width="16" height="16" viewBox="0 0 16 16" fill="none" xmlns="http://www.w3.org/2000/svg">
<g clip-path="url(#clip0_85_1705)">
<mask id="path-1-inside-1_85_1705" fill="white">
<path d="M9 -1.74846e-07L9 2L6 2C2.68629 2 -2.04844e-07 4.68629 -3.49691e-07 8L4 8C4 6.89543 4.89543 6 6 6L9 6L9 8L13 4L9 -1.74846e-07Z"/>
</mask>
<g filter="url(#filter0_i_85_1705)">
<path d="M9 -1.74846e-07L9 2L6 2C2.68629 2 -2.04844e-07 4.68629 -3.49691e-07 8L4 8C4 6.89543 4.89543 6 6 6L9 6L9 8L13 4L9 -1.74846e-07Z" fill="#82C27C"/>
</g>
<path d="M9 2L9 3C9.55228 3 10 2.55228 10 2L9 2ZM9 -1.74846e-07L9.70711 -0.707107L8 -2.41421L8 -2.18557e-07L9 -1.74846e-07ZM13 4L13.7071 4.70711L14.4142 4L13.7071 3.29289L13 4ZM9 8L8 8L8 10.4142L9.70711 8.70711L9 8ZM9 6L10 6C10 5.44772 9.55228 5 9 5L9 6ZM4 8L4 9L5 9L5 8L4 8ZM-3.49691e-07 8L-1 8L-1 9L-3.93403e-07 9L-3.49691e-07 8ZM6 2L6 3L6 2ZM9 2L10 2L10 -1.31134e-07L9 -1.74846e-07L8 -2.18557e-07L8 2L9 2ZM9 -1.74846e-07L8.29289 0.707107L12.2929 4.70711L13 4L13.7071 3.29289L9.70711 -0.707107L9 -1.74846e-07ZM13 4L12.2929 3.29289L8.29289 7.29289L9 8L9.70711 8.70711L13.7071 4.70711L13 4ZM9 8L10 8L10 6L9 6L8 6L8 8L9 8ZM9 6L9 5L6 5L6 6L6 7L9 7L9 6ZM4 8L5 8C5 7.44771 5.44771 7 6 7L6 6L6 5C4.34315 5 3 6.34315 3 8L4 8ZM-3.49691e-07 8L1 8C1 5.23858 3.23858 3 6 3L6 2L6 1C2.13401 1 -1 4.13401 -1 8L-3.49691e-07 8ZM6 2L6 3L9 3L9 2L9 1L6 1L6 2ZM-3.49691e-07 8L-3.93403e-07 9L4 9L4 8L4 7L-3.0598e-07 7L-3.49691e-07 8Z" fill="url(#paint0_linear_85_1705)" mask="url(#path-1-inside-1_85_1705)"/>
<mask id="path-3-inside-2_85_1705" fill="white">
<path d="M7 16V14L10 14C13.3137 14 16 11.3137 16 8L12 8C12 9.10457 11.1046 10 10 10H7V8L3 12L7 16Z"/>
</mask>
<g filter="url(#filter1_i_85_1705)">
<path d="M7 16V14L10 14C13.3137 14 16 11.3137 16 8L12 8C12 9.10457 11.1046 10 10 10H7V8L3 12L7 16Z" fill="#82C27C"/>
</g>
<path d="M7 14V13C6.44772 13 6 13.4477 6 14H7ZM7 16L6.29289 16.7071L8 18.4142V16H7ZM3 12L2.29289 11.2929L1.58579 12L2.29289 12.7071L3 12ZM7 8H8V5.58579L6.29289 7.29289L7 8ZM7 10H6C6 10.5523 6.44772 11 7 11V10ZM12 8V7H11V8H12ZM16 8H17V7H16V8ZM10 14V13V14ZM7 14H6V16H7H8V14H7ZM7 16L7.70711 15.2929L3.70711 11.2929L3 12L2.29289 12.7071L6.29289 16.7071L7 16ZM3 12L3.70711 12.7071L7.70711 8.70711L7 8L6.29289 7.29289L2.29289 11.2929L3 12ZM7 8H6V10H7H8V8H7ZM7 10V11H10V10V9H7V10ZM12 8H11C11 8.55228 10.5523 9 10 9V10V11C11.6569 11 13 9.65685 13 8H12ZM16 8H15C15 10.7614 12.7614 13 10 13V14V15C13.866 15 17 11.866 17 8H16ZM10 14V13L7 13V14V15L10 15V14ZM16 8V7L12 7V8L12 9L16 9V8Z" fill="url(#paint1_linear_85_1705)" mask="url(#path-3-inside-2_85_1705)"/>
</g>
<defs>
<filter id="filter0_i_85_1705" x="0" y="0" width="14" height="9" filterUnits="userSpaceOnUse" color-interpolation-filters="sRGB">
<feFlood flood-opacity="0" result="BackgroundImageFix"/>
<feBlend mode="normal" in="SourceGraphic" in2="BackgroundImageFix" result="shape"/>
<feColorMatrix in="SourceAlpha" type="matrix" values="0 0 0 0 0 0 0 0 0 0 0 0 0 0 0 0 0 0 127 0" result="hardAlpha"/>
<feOffset dx="1" dy="1"/>
<feGaussianBlur stdDeviation="1"/>
<feComposite in2="hardAlpha" operator="arithmetic" k2="-1" k3="1"/>
<feColorMatrix type="matrix" values="0 0 0 0 0.71381 0 0 0 0 0.864312 0 0 0 0 0.687251 0 0 0 1 0"/>
<feBlend mode="normal" in2="shape" result="effect1_innerShadow_85_1705"/>
</filter>
<filter id="filter1_i_85_1705" x="3" y="8" width="14" height="9" filterUnits="userSpaceOnUse" color-interpolation-filters="sRGB">
<feFlood flood-opacity="0" result="BackgroundImageFix"/>
<feBlend mode="normal" in="SourceGraphic" in2="BackgroundImageFix" result="shape"/>
<feColorMatrix in="SourceAlpha" type="matrix" values="0 0 0 0 0 0 0 0 0 0 0 0 0 0 0 0 0 0 127 0" result="hardAlpha"/>
<feOffset dx="1" dy="1"/>
<feGaussianBlur stdDeviation="1"/>
<feComposite in2="hardAlpha" operator="arithmetic" k2="-1" k3="1"/>
<feColorMatrix type="matrix" values="0 0 0 0 0.71381 0 0 0 0 0.864312 0 0 0 0 0.687251 0 0 0 1 0"/>
<feBlend mode="normal" in2="shape" result="effect1_innerShadow_85_1705"/>
</filter>
<linearGradient id="paint0_linear_85_1705" x1="13" y1="8" x2="4.948" y2="0.92161" gradientUnits="userSpaceOnUse">
<stop stop-color="#2A6B26"/>
<stop offset="1" stop-color="#80C178"/>
</linearGradient>
<linearGradient id="paint1_linear_85_1705" x1="11" y1="14" x2="3.93037" y2="7.05318" gradientUnits="userSpaceOnUse">
<stop stop-color="#2A6B26"/>
<stop offset="1" stop-color="#80C178"/>
</linearGradient>
<clipPath id="clip0_85_1705">
<rect width="16" height="16" fill="white"/>
</clipPath>
</defs>
</svg>
