<svg width="16" height="16" viewBox="0 0 16 16" fill="none" xmlns="http://www.w3.org/2000/svg">
<g clip-path="url(#clip0_85_1703)">
<mask id="path-1-inside-1_85_1703" fill="white">
<path d="M6 12.3076L3.69238 14.6152L5.07715 16H0V10.9229L1.38477 12.3076L3.69238 10L6 12.3076ZM14.6152 12.3076L16 10.9229V16H10.9229L12.3076 14.6152L10 12.3076L12.3076 10L14.6152 12.3076ZM3.69238 1.38477L6 3.69238L3.69238 6L1.38477 3.69238L0 5.07715V0H5.07715L3.69238 1.38477ZM16 5.07715L14.6152 3.69238L12.3076 6L10 3.69238L12.3076 1.38477L10.9229 0H16V5.07715Z"/>
</mask>
<g filter="url(#filter0_i_85_1703)">
<path d="M6 12.3076L3.69238 14.6152L5.07715 16H0V10.9229L1.38477 12.3076L3.69238 10L6 12.3076ZM14.6152 12.3076L16 10.9229V16H10.9229L12.3076 14.6152L10 12.3076L12.3076 10L14.6152 12.3076ZM3.69238 1.38477L6 3.69238L3.69238 6L1.38477 3.69238L0 5.07715V0H5.07715L3.69238 1.38477ZM16 5.07715L14.6152 3.69238L12.3076 6L10 3.69238L12.3076 1.38477L10.9229 0H16V5.07715Z" fill="#82C27C"/>
</g>
<path d="M6 12.3076L6.70711 13.0147C7.09763 12.6242 7.09763 11.991 6.70711 11.6005L6 12.3076ZM3.69238 14.6152L2.98528 13.9081C2.59475 14.2987 2.59475 14.9318 2.98528 15.3223L3.69238 14.6152ZM5.07715 16V17C5.48161 17 5.84625 16.7564 6.00103 16.3827C6.15581 16.009 6.07025 15.5789 5.78426 15.2929L5.07715 16ZM0 16H-1C-1 16.5523 -0.552285 17 0 17L0 16ZM0 10.9229L0.707107 10.2157C0.421109 9.92975 -0.00900904 9.84419 -0.382683 9.99897C-0.756358 10.1538 -1 10.5184 -1 10.9229H0ZM1.38477 12.3076L0.677659 13.0147C1.06818 13.4052 1.70135 13.4052 2.09187 13.0147L1.38477 12.3076ZM3.69238 10L4.39949 9.29289C4.00897 8.90237 3.3758 8.90237 2.98528 9.29289L3.69238 10ZM14.6152 12.3076L13.9081 13.0147C14.2987 13.4052 14.9318 13.4052 15.3223 13.0147L14.6152 12.3076ZM16 10.9229H17C17 10.5184 16.7564 10.1538 16.3827 9.99897C16.009 9.84419 15.5789 9.92975 15.2929 10.2157L16 10.9229ZM16 16V17C16.5523 17 17 16.5523 17 16H16ZM10.9229 16L10.2157 15.2929C9.92975 15.5789 9.84419 16.009 9.99897 16.3827C10.1538 16.7564 10.5184 17 10.9229 17V16ZM12.3076 14.6152L13.0147 15.3223C13.4052 14.9318 13.4052 14.2987 13.0147 13.9081L12.3076 14.6152ZM10 12.3076L9.29289 11.6005C8.90237 11.991 8.90237 12.6242 9.29289 13.0147L10 12.3076ZM12.3076 10L13.0147 9.29289C12.6242 8.90237 11.991 8.90237 11.6005 9.29289L12.3076 10ZM3.69238 1.38477L2.98528 0.677659C2.59475 1.06818 2.59475 1.70135 2.98528 2.09187L3.69238 1.38477ZM6 3.69238L6.70711 4.39949C7.09763 4.00897 7.09763 3.3758 6.70711 2.98528L6 3.69238ZM3.69238 6L2.98528 6.70711C3.3758 7.09763 4.00897 7.09763 4.39949 6.70711L3.69238 6ZM1.38477 3.69238L2.09187 2.98528C1.70135 2.59475 1.06818 2.59475 0.677659 2.98528L1.38477 3.69238ZM0 5.07715H-1C-1 5.48161 -0.756358 5.84625 -0.382683 6.00103C-0.00900904 6.15581 0.421109 6.07025 0.707107 5.78426L0 5.07715ZM0 0V-1C-0.552285 -1 -1 -0.552285 -1 0L0 0ZM5.07715 0L5.78426 0.707107C6.07025 0.421109 6.15581 -0.00900904 6.00103 -0.382683C5.84625 -0.756358 5.48161 -1 5.07715 -1V0ZM16 5.07715L15.2929 5.78426C15.5789 6.07025 16.009 6.15581 16.3827 6.00103C16.7564 5.84625 17 5.48161 17 5.07715H16ZM14.6152 3.69238L15.3223 2.98528C14.9318 2.59475 14.2987 2.59475 13.9081 2.98528L14.6152 3.69238ZM12.3076 6L11.6005 6.70711C11.991 7.09763 12.6242 7.09763 13.0147 6.70711L12.3076 6ZM10 3.69238L9.29289 2.98528C8.90237 3.3758 8.90237 4.00897 9.29289 4.39949L10 3.69238ZM12.3076 1.38477L13.0147 2.09187C13.4052 1.70135 13.4052 1.06818 13.0147 0.677659L12.3076 1.38477ZM10.9229 0V-1C10.5184 -1 10.1538 -0.756358 9.99897 -0.382683C9.84419 -0.00900904 9.92975 0.421109 10.2157 0.707107L10.9229 0ZM16 0H17C17 -0.552285 16.5523 -1 16 -1V0ZM6 12.3076L5.29289 11.6005L2.98528 13.9081L3.69238 14.6152L4.39949 15.3223L6.70711 13.0147L6 12.3076ZM3.69238 14.6152L2.98528 15.3223L4.37004 16.7071L5.07715 16L5.78426 15.2929L4.39949 13.9081L3.69238 14.6152ZM5.07715 16V15H0V16V17H5.07715V16ZM0 16H1V10.9229H0H-1V16H0ZM0 10.9229L-0.707107 11.63L0.677659 13.0147L1.38477 12.3076L2.09187 11.6005L0.707107 10.2157L0 10.9229ZM1.38477 12.3076L2.09187 13.0147L4.39949 10.7071L3.69238 10L2.98528 9.29289L0.677659 11.6005L1.38477 12.3076ZM3.69238 10L2.98528 10.7071L5.29289 13.0147L6 12.3076L6.70711 11.6005L4.39949 9.29289L3.69238 10ZM14.6152 12.3076L15.3223 13.0147L16.7071 11.63L16 10.9229L15.2929 10.2157L13.9081 11.6005L14.6152 12.3076ZM16 10.9229H15V16H16H17V10.9229H16ZM16 16V15H10.9229V16V17H16V16ZM10.9229 16L11.63 16.7071L13.0147 15.3223L12.3076 14.6152L11.6005 13.9081L10.2157 15.2929L10.9229 16ZM12.3076 14.6152L13.0147 13.9081L10.7071 11.6005L10 12.3076L9.29289 13.0147L11.6005 15.3223L12.3076 14.6152ZM10 12.3076L10.7071 13.0147L13.0147 10.7071L12.3076 10L11.6005 9.29289L9.29289 11.6005L10 12.3076ZM12.3076 10L11.6005 10.7071L13.9081 13.0147L14.6152 12.3076L15.3223 11.6005L13.0147 9.29289L12.3076 10ZM3.69238 1.38477L2.98528 2.09187L5.29289 4.39949L6 3.69238L6.70711 2.98528L4.39949 0.677659L3.69238 1.38477ZM6 3.69238L5.29289 2.98528L2.98528 5.29289L3.69238 6L4.39949 6.70711L6.70711 4.39949L6 3.69238ZM3.69238 6L4.39949 5.29289L2.09187 2.98528L1.38477 3.69238L0.677659 4.39949L2.98528 6.70711L3.69238 6ZM1.38477 3.69238L0.677659 2.98528L-0.707107 4.37004L0 5.07715L0.707107 5.78426L2.09187 4.39949L1.38477 3.69238ZM0 5.07715H1V0H0H-1V5.07715H0ZM0 0V1H5.07715V0V-1H0V0ZM5.07715 0L4.37004 -0.707107L2.98528 0.677659L3.69238 1.38477L4.39949 2.09187L5.78426 0.707107L5.07715 0ZM16 5.07715L16.7071 4.37004L15.3223 2.98528L14.6152 3.69238L13.9081 4.39949L15.2929 5.78426L16 5.07715ZM14.6152 3.69238L13.9081 2.98528L11.6005 5.29289L12.3076 6L13.0147 6.70711L15.3223 4.39949L14.6152 3.69238ZM12.3076 6L13.0147 5.29289L10.7071 2.98528L10 3.69238L9.29289 4.39949L11.6005 6.70711L12.3076 6ZM10 3.69238L10.7071 4.39949L13.0147 2.09187L12.3076 1.38477L11.6005 0.677659L9.29289 2.98528L10 3.69238ZM12.3076 1.38477L13.0147 0.677659L11.63 -0.707107L10.9229 0L10.2157 0.707107L11.6005 2.09187L12.3076 1.38477ZM10.9229 0V1H16V0V-1H10.9229V0ZM16 0H15V5.07715H16H17V0H16Z" fill="url(#paint0_linear_85_1703)" mask="url(#path-1-inside-1_85_1703)"/>
</g>
<defs>
<filter id="filter0_i_85_1703" x="0" y="0" width="17" height="17" filterUnits="userSpaceOnUse" color-interpolation-filters="sRGB">
<feFlood flood-opacity="0" result="BackgroundImageFix"/>
<feBlend mode="normal" in="SourceGraphic" in2="BackgroundImageFix" result="shape"/>
<feColorMatrix in="SourceAlpha" type="matrix" values="0 0 0 0 0 0 0 0 0 0 0 0 0 0 0 0 0 0 127 0" result="hardAlpha"/>
<feOffset dx="1" dy="1"/>
<feGaussianBlur stdDeviation="1"/>
<feComposite in2="hardAlpha" operator="arithmetic" k2="-1" k3="1"/>
<feColorMatrix type="matrix" values="0 0 0 0 0.71381 0 0 0 0 0.864312 0 0 0 0 0.687251 0 0 0 1 0"/>
<feBlend mode="normal" in2="shape" result="effect1_innerShadow_85_1703"/>
</filter>
<linearGradient id="paint0_linear_85_1703" x1="0" y1="0" x2="13.613" y2="17.8232" gradientUnits="userSpaceOnUse">
<stop stop-color="#80C178"/>
<stop offset="1" stop-color="#2A6B26"/>
</linearGradient>
<clipPath id="clip0_85_1703">
<rect width="16" height="16" fill="white"/>
</clipPath>
</defs>
</svg>
