<svg width="16" height="16" viewBox="0 0 16 16" fill="none" xmlns="http://www.w3.org/2000/svg">
<g clip-path="url(#clip0_86_1815)">
<g filter="url(#filter0_i_86_1815)">
<path d="M7.4 -5.55C7.75556 -5.81667 8.24444 -5.81667 8.6 -5.55L11.6 -3.3C11.8518 -3.11115 12 -2.81476 12 -2.5V3.5C12 3.81476 11.8518 4.11115 11.6 4.3L8.6 6.55C8.24444 6.81667 7.75556 6.81667 7.4 6.55L4.4 4.3C4.14819 4.11115 4 3.81476 4 3.5V-2.5C4 -2.81476 4.14819 -3.11115 4.4 -3.3L7.4 -5.55Z" fill="#69C459"/>
</g>
<path d="M7.09961 -5.9502C7.63294 -6.3502 8.36706 -6.3502 8.90039 -5.9502L11.9004 -3.7002C12.278 -3.41691 12.5 -2.97207 12.5 -2.5V3.5C12.5 3.97207 12.278 4.41691 11.9004 4.7002L8.90039 6.9502C8.36706 7.35019 7.63294 7.35019 7.09961 6.9502L4.09961 4.7002C3.722 4.41691 3.5 3.97207 3.5 3.5V-2.5C3.5 -2.97207 3.722 -3.41691 4.09961 -3.7002L7.09961 -5.9502Z" stroke="url(#paint0_linear_86_1815)" stroke-linejoin="round"/>
<path d="M7.7002 -5.15039C7.87784 -5.28341 8.12216 -5.28341 8.2998 -5.15039L11.2998 -2.90039C11.4257 -2.80596 11.5 -2.65738 11.5 -2.5V3.5C11.5 3.65738 11.4257 3.80596 11.2998 3.90039L8.2998 6.15039C8.12216 6.28341 7.87784 6.28341 7.7002 6.15039L4.7002 3.90039C4.57429 3.80596 4.5 3.65738 4.5 3.5V-2.5C4.5 -2.65738 4.57429 -2.80596 4.7002 -2.90039L7.7002 -5.15039Z" stroke="white" stroke-opacity="0.5" style="mix-blend-mode:hard-light"/>
<g filter="url(#filter1_i_86_1815)">
<path d="M7.99999 1L10.116 6.08754L15.6084 6.52786L11.4238 10.1125L12.7023 15.4721L7.99999 12.6L3.29771 15.4721L4.57619 10.1125L0.391541 6.52786L5.88397 6.08754L7.99999 1Z" fill="#E9A46C"/>
</g>
<path d="M9.65424 6.2793L9.77142 6.56152L10.0761 6.58594L14.3701 6.92969L11.0986 9.73242L10.8661 9.93164L10.9374 10.2285L11.9365 14.4189L8.26068 12.1729L7.99994 12.0137L7.7392 12.1729L4.06244 14.4189L5.06244 10.2285L5.13373 9.93164L4.90131 9.73242L1.62885 6.92969L5.92377 6.58594L6.22845 6.56152L6.34564 6.2793L7.99994 2.30176L9.65424 6.2793Z" stroke="url(#paint1_linear_86_1815)"/>
</g>
<defs>
<filter id="filter0_i_86_1815" x="3" y="-6.75" width="12" height="16.5" filterUnits="userSpaceOnUse" color-interpolation-filters="sRGB">
<feFlood flood-opacity="0" result="BackgroundImageFix"/>
<feBlend mode="normal" in="SourceGraphic" in2="BackgroundImageFix" result="shape"/>
<feColorMatrix in="SourceAlpha" type="matrix" values="0 0 0 0 0 0 0 0 0 0 0 0 0 0 0 0 0 0 127 0" result="hardAlpha"/>
<feOffset dx="2" dy="2"/>
<feGaussianBlur stdDeviation="2.5"/>
<feComposite in2="hardAlpha" operator="arithmetic" k2="-1" k3="1"/>
<feColorMatrix type="matrix" values="0 0 0 0 1 0 0 0 0 1 0 0 0 0 1 0 0 0 0.5 0"/>
<feBlend mode="hard-light" in2="shape" result="effect1_innerShadow_86_1815"/>
</filter>
<filter id="filter1_i_86_1815" x="0.391541" y="1" width="16.2169" height="15.4721" filterUnits="userSpaceOnUse" color-interpolation-filters="sRGB">
<feFlood flood-opacity="0" result="BackgroundImageFix"/>
<feBlend mode="normal" in="SourceGraphic" in2="BackgroundImageFix" result="shape"/>
<feColorMatrix in="SourceAlpha" type="matrix" values="0 0 0 0 0 0 0 0 0 0 0 0 0 0 0 0 0 0 127 0" result="hardAlpha"/>
<feOffset dx="1" dy="1"/>
<feGaussianBlur stdDeviation="1.5"/>
<feComposite in2="hardAlpha" operator="arithmetic" k2="-1" k3="1"/>
<feColorMatrix type="matrix" values="0 0 0 0 1 0 0 0 0 1 0 0 0 0 1 0 0 0 0.66 0"/>
<feBlend mode="overlay" in2="shape" result="effect1_innerShadow_86_1815"/>
</filter>
<linearGradient id="paint0_linear_86_1815" x1="12" y1="7" x2="4" y2="-6" gradientUnits="userSpaceOnUse">
<stop stop-color="#235120"/>
<stop offset="1" stop-color="#65B359"/>
</linearGradient>
<linearGradient id="paint1_linear_86_1815" x1="3.19994" y1="3.13333" x2="13.9526" y2="14.2889" gradientUnits="userSpaceOnUse">
<stop stop-color="#E6A46E"/>
<stop offset="1" stop-color="#9E602E"/>
</linearGradient>
<clipPath id="clip0_86_1815">
<rect width="16" height="16" fill="white"/>
</clipPath>
</defs>
</svg>
