<svg width="16" height="16" viewBox="0 0 16 16" fill="none" xmlns="http://www.w3.org/2000/svg">
<path d="M7.5 3.5C8.8054 3.5 9.97899 4.29484 10.4639 5.50684L10.9873 6.81445C11.1185 7.14269 10.8769 7.49968 10.5234 7.5H9.61816C9.4288 7.5 9.2556 7.39299 9.1709 7.22363L8.66602 6.21387C8.44735 5.77653 7.9997 5.5 7.51074 5.5C7.02734 5.50017 6.58447 5.77036 6.36328 6.2002L5.83398 7.22852C5.74829 7.39508 5.57697 7.5 5.38965 7.5H4.47656C4.12315 7.49968 3.88153 7.1427 4.0127 6.81445L4.53613 5.50684C5.02101 4.29484 6.1946 3.5 7.5 3.5Z" fill="#83BBD5" stroke="url(#paint0_linear_99_12323)" stroke-linecap="round"/>
<path d="M3.5 7.5V14.5M5.5 7.5V14.5M7.5 7.5V14.5M9.5 7.5V14.5M1.5 8V11M11.5 7.5V14.5M13.5 8V11" stroke="url(#paint1_linear_99_12323)" stroke-opacity="0.66" stroke-linecap="round" stroke-linejoin="round"/>
<path d="M1.5 8.5H13.5M2 10.5H13M2.5 12.5H12.5" stroke="url(#paint2_linear_99_12323)" stroke-opacity="0.66" stroke-linecap="round" stroke-linejoin="round"/>
<path d="M2.52246 7.5H12.4775C13.444 7.5003 14.1581 8.4017 13.9375 9.34277L13 13.3428C12.8409 14.0206 12.2362 14.4998 11.54 14.5H3.45996C2.76376 14.4998 2.15908 14.0206 2 13.3428L1.0625 9.34277C0.841936 8.4017 1.55597 7.5003 2.52246 7.5Z" stroke="url(#paint3_linear_99_12323)" stroke-linecap="round" stroke-linejoin="round"/>
<mask id="path-5-inside-1_99_12323" fill="white">
<path d="M10 5V8H14V5H16V4L12 0L8 4V5H10Z"/>
</mask>
<g filter="url(#filter0_i_99_12323)">
<path d="M10 5V8H14V5H16V4L12 0L8 4V5H10Z" fill="#5EB521"/>
</g>
<path d="M10 8H9V9H10V8ZM10 5H11C11 4.44772 10.5523 4 10 4V5ZM8 5H7V6H8V5ZM16 5V6H17V5H16ZM14 5V4C13.4477 4 13 4.44772 13 5H14ZM14 8V9H15V8H14ZM8 4L7.29289 3.29289L7 3.58579V4H8ZM12 0L12.7071 -0.707107L12 -1.41421L11.2929 -0.707107L12 0ZM16 4H17V3.58579L16.7071 3.29289L16 4ZM10 8H11V5H10H9V8H10ZM10 5V4H8V5V6H10V5ZM16 5V4H14V5V6H16V5ZM14 5H13V8H14H15V5H14ZM14 8V7H10V8V9H14V8ZM8 5H9V4H8H7V5H8ZM8 4L8.70711 4.70711L12.7071 0.707107L12 0L11.2929 -0.707107L7.29289 3.29289L8 4ZM12 0L11.2929 0.707107L15.2929 4.70711L16 4L16.7071 3.29289L12.7071 -0.707107L12 0ZM16 4H15V5H16H17V4H16Z" fill="url(#paint4_linear_99_12323)" mask="url(#path-5-inside-1_99_12323)"/>
<defs>
<filter id="filter0_i_99_12323" x="8" y="0" width="9" height="9" filterUnits="userSpaceOnUse" color-interpolation-filters="sRGB">
<feFlood flood-opacity="0" result="BackgroundImageFix"/>
<feBlend mode="normal" in="SourceGraphic" in2="BackgroundImageFix" result="shape"/>
<feColorMatrix in="SourceAlpha" type="matrix" values="0 0 0 0 0 0 0 0 0 0 0 0 0 0 0 0 0 0 127 0" result="hardAlpha"/>
<feOffset dx="1" dy="1"/>
<feGaussianBlur stdDeviation="2"/>
<feComposite in2="hardAlpha" operator="arithmetic" k2="-1" k3="1"/>
<feColorMatrix type="matrix" values="0 0 0 0 1 0 0 0 0 1 0 0 0 0 1 0 0 0 1 0"/>
<feBlend mode="hard-light" in2="shape" result="effect1_innerShadow_99_12323"/>
</filter>
<linearGradient id="paint0_linear_99_12323" x1="12" y1="7" x2="4.24642" y2="1.30349" gradientUnits="userSpaceOnUse">
<stop stop-color="#2E6691"/>
<stop offset="1" stop-color="#74A9CC"/>
</linearGradient>
<linearGradient id="paint1_linear_99_12323" x1="1.5" y1="7.5" x2="13.3187" y2="14.7938" gradientUnits="userSpaceOnUse">
<stop stop-color="#D7D7D7"/>
<stop offset="1" stop-color="#404040"/>
</linearGradient>
<linearGradient id="paint2_linear_99_12323" x1="1.5" y1="8.5" x2="9.03323" y2="16.6359" gradientUnits="userSpaceOnUse">
<stop stop-color="#D7D7D7"/>
<stop offset="1" stop-color="#404040"/>
</linearGradient>
<linearGradient id="paint3_linear_99_12323" x1="0" y1="7" x2="14.0146" y2="16.4599" gradientUnits="userSpaceOnUse">
<stop stop-color="#D7D7D7"/>
<stop offset="1" stop-color="#404040"/>
</linearGradient>
<linearGradient id="paint4_linear_99_12323" x1="16" y1="8" x2="9.04143" y2="-0.821498" gradientUnits="userSpaceOnUse">
<stop stop-color="#308912"/>
<stop offset="0.503566" stop-color="#51B80C"/>
<stop offset="0.745416" stop-color="#8EC045"/>
</linearGradient>
</defs>
</svg>
