<svg width="16" height="16" viewBox="0 0 16 16" fill="none" xmlns="http://www.w3.org/2000/svg">
<path d="M8.5 3.5C9.8054 3.5 10.979 4.29484 11.4639 5.50684L11.9873 6.81445C12.1185 7.14269 11.8769 7.49968 11.5234 7.5H10.6182C10.4288 7.5 10.2556 7.39299 10.1709 7.22363L9.66602 6.21387C9.44735 5.77653 8.9997 5.5 8.51074 5.5C8.02734 5.50017 7.58447 5.77036 7.36328 6.2002L6.83398 7.22852C6.74829 7.39508 6.57697 7.5 6.38965 7.5H5.47656C5.12315 7.49968 4.88153 7.1427 5.0127 6.81445L5.53613 5.50684C6.02101 4.29484 7.1946 3.5 8.5 3.5Z" fill="#83BBD5" stroke="url(#paint0_linear_99_12325)" stroke-linecap="round"/>
<path d="M4.5 7.5V14.5M6.5 7.5V14.5M8.5 7.5V14.5M10.5 7.5V14.5M2.5 8V11M12.5 7.5V14.5M14.5 8V11" stroke="url(#paint1_linear_99_12325)" stroke-opacity="0.66" stroke-linecap="round" stroke-linejoin="round"/>
<path d="M2.5 8.5H14.5M3 10.5H14M3.5 12.5H13.5" stroke="url(#paint2_linear_99_12325)" stroke-opacity="0.66" stroke-linecap="round" stroke-linejoin="round"/>
<path d="M3.52246 7.5H13.4775C14.444 7.5003 15.1581 8.4017 14.9375 9.34277L14 13.3428C13.8409 14.0206 13.2362 14.4998 12.54 14.5H4.45996C3.76376 14.4998 3.15908 14.0206 3 13.3428L2.0625 9.34277C1.84194 8.4017 2.55597 7.5003 3.52246 7.5Z" stroke="url(#paint3_linear_99_12325)" stroke-linecap="round" stroke-linejoin="round"/>
<mask id="path-5-inside-1_99_12325" fill="white">
<path d="M6 3V0H2V3H0V4L4 8L8 4V3H6Z"/>
</mask>
<g filter="url(#filter0_i_99_12325)">
<path d="M6 3V0H2V3H0V4L4 8L8 4V3H6Z" fill="#5EB521"/>
</g>
<path d="M6 0H7V-1H6V0ZM6 3H5C5 3.55228 5.44772 4 6 4L6 3ZM8 3H9V2H8V3ZM0 3V2H-1V3H0ZM2 3V4C2.55228 4 3 3.55228 3 3H2ZM2 0V-1H1V0H2ZM4 8L3.29289 8.70711L4 9.41421L4.70711 8.70711L4 8ZM0 4H-1V4.41421L-0.707107 4.70711L0 4ZM8 4L8.70711 4.70711L9 4.41421V4H8ZM6 0H5L5 3H6H7V0H6ZM6 3L6 4H8V3V2H6V3ZM0 3V4H2V3V2H0V3ZM2 3H3V0H2H1V3H2ZM2 0V1L6 1V0V-1H2V0ZM4 8L4.70711 7.29289L0.707107 3.29289L0 4L-0.707107 4.70711L3.29289 8.70711L4 8ZM0 4H1V3H0H-1V4H0ZM8 3H7L7 4H8H9V3H8ZM8 4L7.29289 3.29289L3.29289 7.29289L4 8L4.70711 8.70711L8.70711 4.70711L8 4Z" fill="url(#paint4_linear_99_12325)" mask="url(#path-5-inside-1_99_12325)"/>
<defs>
<filter id="filter0_i_99_12325" x="0" y="0" width="9" height="9" filterUnits="userSpaceOnUse" color-interpolation-filters="sRGB">
<feFlood flood-opacity="0" result="BackgroundImageFix"/>
<feBlend mode="normal" in="SourceGraphic" in2="BackgroundImageFix" result="shape"/>
<feColorMatrix in="SourceAlpha" type="matrix" values="0 0 0 0 0 0 0 0 0 0 0 0 0 0 0 0 0 0 127 0" result="hardAlpha"/>
<feOffset dx="1" dy="1"/>
<feGaussianBlur stdDeviation="2"/>
<feComposite in2="hardAlpha" operator="arithmetic" k2="-1" k3="1"/>
<feColorMatrix type="matrix" values="0 0 0 0 1 0 0 0 0 1 0 0 0 0 1 0 0 0 1 0"/>
<feBlend mode="hard-light" in2="shape" result="effect1_innerShadow_99_12325"/>
</filter>
<linearGradient id="paint0_linear_99_12325" x1="13" y1="7" x2="5.24642" y2="1.30349" gradientUnits="userSpaceOnUse">
<stop stop-color="#2E6691"/>
<stop offset="1" stop-color="#74A9CC"/>
</linearGradient>
<linearGradient id="paint1_linear_99_12325" x1="2.5" y1="7.5" x2="14.3187" y2="14.7938" gradientUnits="userSpaceOnUse">
<stop stop-color="#D7D7D7"/>
<stop offset="1" stop-color="#404040"/>
</linearGradient>
<linearGradient id="paint2_linear_99_12325" x1="2.5" y1="8.5" x2="10.0332" y2="16.6359" gradientUnits="userSpaceOnUse">
<stop stop-color="#D7D7D7"/>
<stop offset="1" stop-color="#404040"/>
</linearGradient>
<linearGradient id="paint3_linear_99_12325" x1="1" y1="7" x2="15.0146" y2="16.4599" gradientUnits="userSpaceOnUse">
<stop stop-color="#D7D7D7"/>
<stop offset="1" stop-color="#404040"/>
</linearGradient>
<linearGradient id="paint4_linear_99_12325" x1="2.38419e-07" y1="2.38419e-07" x2="6.95857" y2="8.8215" gradientUnits="userSpaceOnUse">
<stop offset="0.128451" stop-color="#8EC045"/>
<stop offset="0.437482" stop-color="#51B80C"/>
<stop offset="0.768905" stop-color="#308912"/>
</linearGradient>
</defs>
</svg>
