<svg width="16" height="16" viewBox="0 0 16 16" fill="none" xmlns="http://www.w3.org/2000/svg">
<g clip-path="url(#clip0_99_11892)">
<g clip-path="url(#clip1_99_11892)">
<path d="M0 5L8 9V16L0 12V5Z" fill="url(#paint0_linear_99_11892)"/>
<path d="M16 5L8 9V16L16 12V5Z" fill="url(#paint1_linear_99_11892)"/>
<path d="M8 1L0 5L8 9L16 5L8 1Z" fill="#E5E5E5"/>
<path d="M15.5 11.8438L15.2217 11.9814L8.22168 15.4482L8 15.5576L7.77832 15.4482L0.77832 11.9814L0.5 11.8438V5.15625L0.77832 5.01855L7.77832 1.55176L8 1.44238L8.22168 1.55176L15.2217 5.01855L15.5 5.15625V11.8438Z" stroke="url(#paint2_linear_99_11892)"/>
<path d="M14.5 5.77637V11.2227L8 14.4414L1.5 11.2227V5.77637L8 2.55762L14.5 5.77637Z" stroke="white" stroke-opacity="0.33"/>
<g filter="url(#filter0_d_99_11892)">
<ellipse cx="8" cy="2" rx="2" ry="1" fill="white"/>
<path d="M8 0.5C8.61303 0.5 9.19272 0.623238 9.6377 0.845703C10.0528 1.05324 10.5 1.43244 10.5 2C10.5 2.56756 10.0528 2.94676 9.6377 3.1543C9.19272 3.37676 8.61303 3.5 8 3.5C7.38697 3.5 6.80728 3.37676 6.3623 3.1543C5.94722 2.94676 5.5 2.56756 5.5 2C5.5 1.43244 5.94722 1.05324 6.3623 0.845703C6.80728 0.623238 7.38697 0.5 8 0.5Z" stroke="url(#paint3_linear_99_11892)"/>
</g>
<g filter="url(#filter1_d_99_11892)">
<ellipse cx="4" cy="4" rx="2" ry="1" fill="white"/>
<path d="M4 2.5C4.61303 2.5 5.19272 2.62324 5.6377 2.8457C6.05278 3.05324 6.5 3.43244 6.5 4C6.5 4.56756 6.05278 4.94676 5.6377 5.1543C5.19272 5.37676 4.61303 5.5 4 5.5C3.38697 5.5 2.80728 5.37676 2.3623 5.1543C1.94722 4.94676 1.5 4.56756 1.5 4C1.5 3.43244 1.94722 3.05324 2.3623 2.8457C2.80728 2.62324 3.38697 2.5 4 2.5Z" stroke="url(#paint4_linear_99_11892)"/>
</g>
<g filter="url(#filter2_d_99_11892)">
<ellipse cx="12" cy="4" rx="2" ry="1" fill="white"/>
<path d="M12 2.5C12.613 2.5 13.1927 2.62324 13.6377 2.8457C14.0528 3.05324 14.5 3.43244 14.5 4C14.5 4.56756 14.0528 4.94676 13.6377 5.1543C13.1927 5.37676 12.613 5.5 12 5.5C11.387 5.5 10.8073 5.37676 10.3623 5.1543C9.94722 4.94676 9.5 4.56756 9.5 4C9.5 3.43244 9.94722 3.05324 10.3623 2.8457C10.8073 2.62324 11.387 2.5 12 2.5Z" stroke="url(#paint5_linear_99_11892)"/>
</g>
<g filter="url(#filter3_d_99_11892)">
<ellipse cx="8" cy="6" rx="2" ry="1" fill="white"/>
<path d="M8 4.5C8.61303 4.5 9.19272 4.62324 9.6377 4.8457C10.0528 5.05324 10.5 5.43244 10.5 6C10.5 6.56756 10.0528 6.94676 9.6377 7.1543C9.19272 7.37676 8.61303 7.5 8 7.5C7.38697 7.5 6.80728 7.37676 6.3623 7.1543C5.94722 6.94676 5.5 6.56756 5.5 6C5.5 5.43244 5.94722 5.05324 6.3623 4.8457C6.80728 4.62324 7.38697 4.5 8 4.5Z" stroke="url(#paint6_linear_99_11892)"/>
</g>
</g>
<mask id="path-14-inside-1_99_11892" fill="white">
<path d="M10 9H6V14H10V16H11L16 11.5L11 7H10V9Z"/>
</mask>
<g filter="url(#filter4_i_99_11892)">
<path d="M10 9H6V14H10V16H11L16 11.5L11 7H10V9Z" fill="#80B361"/>
</g>
<path d="M6 9V8H5V9H6ZM10 9V10C10.5523 10 11 9.55228 11 9H10ZM10 7V6H9V7H10ZM11 7L11.669 6.25671L11.3837 6H11V7ZM16 11.5L16.669 12.2433L17.4948 11.5L16.669 10.7567L16 11.5ZM11 16V17H11.3837L11.669 16.7433L11 16ZM10 16H9V17H10V16ZM10 14H11C11 13.4477 10.5523 13 10 13V14ZM6 14H5V15H6V14ZM6 9V10H10V9V8H6V9ZM10 9H11V7H10H9V9H10ZM10 7V8H11V7V6H10V7ZM11 7L10.331 7.74329L15.331 12.2433L16 11.5L16.669 10.7567L11.669 6.25671L11 7ZM16 11.5L15.331 10.7567L10.331 15.2567L11 16L11.669 16.7433L16.669 12.2433L16 11.5ZM11 16V15H10V16V17H11V16ZM10 16H11V14H10H9V16H10ZM10 14V13H6V14V15H10V14ZM6 14H7V9H6H5V14H6Z" fill="url(#paint7_linear_99_11892)" mask="url(#path-14-inside-1_99_11892)"/>
<path d="M13.752 11.4996L11.4404 13.5826C11.2619 12.9642 10.6972 12.4996 10.0049 12.4996H7.5V10.4996H10C10.7153 10.4996 11.2655 10.0249 11.4404 9.41566L13.752 11.4996Z" stroke="white" stroke-opacity="0.2"/>
</g>
<defs>
<filter id="filter0_d_99_11892" x="5" y="0" width="6" height="4.5" filterUnits="userSpaceOnUse" color-interpolation-filters="sRGB">
<feFlood flood-opacity="0" result="BackgroundImageFix"/>
<feColorMatrix in="SourceAlpha" type="matrix" values="0 0 0 0 0 0 0 0 0 0 0 0 0 0 0 0 0 0 127 0" result="hardAlpha"/>
<feOffset dy="0.5"/>
<feComposite in2="hardAlpha" operator="out"/>
<feColorMatrix type="matrix" values="0 0 0 0 0.8 0 0 0 0 0.8 0 0 0 0 0.8 0 0 0 1 0"/>
<feBlend mode="normal" in2="BackgroundImageFix" result="effect1_dropShadow_99_11892"/>
<feBlend mode="normal" in="SourceGraphic" in2="effect1_dropShadow_99_11892" result="shape"/>
</filter>
<filter id="filter1_d_99_11892" x="1" y="2" width="6" height="4.5" filterUnits="userSpaceOnUse" color-interpolation-filters="sRGB">
<feFlood flood-opacity="0" result="BackgroundImageFix"/>
<feColorMatrix in="SourceAlpha" type="matrix" values="0 0 0 0 0 0 0 0 0 0 0 0 0 0 0 0 0 0 127 0" result="hardAlpha"/>
<feOffset dy="0.5"/>
<feComposite in2="hardAlpha" operator="out"/>
<feColorMatrix type="matrix" values="0 0 0 0 0.8 0 0 0 0 0.8 0 0 0 0 0.8 0 0 0 1 0"/>
<feBlend mode="normal" in2="BackgroundImageFix" result="effect1_dropShadow_99_11892"/>
<feBlend mode="normal" in="SourceGraphic" in2="effect1_dropShadow_99_11892" result="shape"/>
</filter>
<filter id="filter2_d_99_11892" x="9" y="2" width="6" height="4.5" filterUnits="userSpaceOnUse" color-interpolation-filters="sRGB">
<feFlood flood-opacity="0" result="BackgroundImageFix"/>
<feColorMatrix in="SourceAlpha" type="matrix" values="0 0 0 0 0 0 0 0 0 0 0 0 0 0 0 0 0 0 127 0" result="hardAlpha"/>
<feOffset dy="0.5"/>
<feComposite in2="hardAlpha" operator="out"/>
<feColorMatrix type="matrix" values="0 0 0 0 0.8 0 0 0 0 0.8 0 0 0 0 0.8 0 0 0 1 0"/>
<feBlend mode="normal" in2="BackgroundImageFix" result="effect1_dropShadow_99_11892"/>
<feBlend mode="normal" in="SourceGraphic" in2="effect1_dropShadow_99_11892" result="shape"/>
</filter>
<filter id="filter3_d_99_11892" x="5" y="4" width="6" height="4.5" filterUnits="userSpaceOnUse" color-interpolation-filters="sRGB">
<feFlood flood-opacity="0" result="BackgroundImageFix"/>
<feColorMatrix in="SourceAlpha" type="matrix" values="0 0 0 0 0 0 0 0 0 0 0 0 0 0 0 0 0 0 127 0" result="hardAlpha"/>
<feOffset dy="0.5"/>
<feComposite in2="hardAlpha" operator="out"/>
<feColorMatrix type="matrix" values="0 0 0 0 0.8 0 0 0 0 0.8 0 0 0 0 0.8 0 0 0 1 0"/>
<feBlend mode="normal" in2="BackgroundImageFix" result="effect1_dropShadow_99_11892"/>
<feBlend mode="normal" in="SourceGraphic" in2="effect1_dropShadow_99_11892" result="shape"/>
</filter>
<filter id="filter4_i_99_11892" x="6" y="7" width="12" height="11" filterUnits="userSpaceOnUse" color-interpolation-filters="sRGB">
<feFlood flood-opacity="0" result="BackgroundImageFix"/>
<feBlend mode="normal" in="SourceGraphic" in2="BackgroundImageFix" result="shape"/>
<feColorMatrix in="SourceAlpha" type="matrix" values="0 0 0 0 0 0 0 0 0 0 0 0 0 0 0 0 0 0 127 0" result="hardAlpha"/>
<feOffset dx="2" dy="2"/>
<feGaussianBlur stdDeviation="1"/>
<feComposite in2="hardAlpha" operator="arithmetic" k2="-1" k3="1"/>
<feColorMatrix type="matrix" values="0 0 0 0 1 0 0 0 0 1 0 0 0 0 1 0 0 0 0.25 0"/>
<feBlend mode="normal" in2="shape" result="effect1_innerShadow_99_11892"/>
</filter>
<linearGradient id="paint0_linear_99_11892" x1="0" y1="5" x2="8" y2="16" gradientUnits="userSpaceOnUse">
<stop offset="0.140203" stop-color="#F1F1F1"/>
<stop offset="0.906757" stop-color="#D6D6D6"/>
</linearGradient>
<linearGradient id="paint1_linear_99_11892" x1="8" y1="5" x2="16" y2="16" gradientUnits="userSpaceOnUse">
<stop offset="0.227703" stop-color="#C4C4C4"/>
<stop offset="0.749324" stop-color="#BBBBBB"/>
</linearGradient>
<linearGradient id="paint2_linear_99_11892" x1="1.16406" y1="2" x2="14.8745" y2="15.131" gradientUnits="userSpaceOnUse">
<stop stop-color="#AAAAAA" stop-opacity="0.941176"/>
<stop offset="1" stop-color="#979797" stop-opacity="0.941176"/>
</linearGradient>
<linearGradient id="paint3_linear_99_11892" x1="8" y1="1" x2="8" y2="3" gradientUnits="userSpaceOnUse">
<stop offset="0.245" stop-color="#A3A3A3"/>
<stop offset="1" stop-color="#CCCCCC"/>
</linearGradient>
<linearGradient id="paint4_linear_99_11892" x1="4" y1="3" x2="4" y2="5" gradientUnits="userSpaceOnUse">
<stop offset="0.245" stop-color="#A3A3A3"/>
<stop offset="1" stop-color="#CCCCCC"/>
</linearGradient>
<linearGradient id="paint5_linear_99_11892" x1="12" y1="3" x2="12" y2="5" gradientUnits="userSpaceOnUse">
<stop offset="0.245" stop-color="#A3A3A3"/>
<stop offset="1" stop-color="#CCCCCC"/>
</linearGradient>
<linearGradient id="paint6_linear_99_11892" x1="8" y1="5" x2="8" y2="7" gradientUnits="userSpaceOnUse">
<stop offset="0.245" stop-color="#A3A3A3"/>
<stop offset="1" stop-color="#CCCCCC"/>
</linearGradient>
<linearGradient id="paint7_linear_99_11892" x1="14.5714" y1="14.7143" x2="8.17837" y2="7.61089" gradientUnits="userSpaceOnUse">
<stop stop-color="#247C10"/>
<stop offset="1" stop-color="#6FA53D"/>
</linearGradient>
<clipPath id="clip0_99_11892">
<rect width="16" height="16" fill="white"/>
</clipPath>
<clipPath id="clip1_99_11892">
<rect width="16" height="16" fill="white"/>
</clipPath>
</defs>
</svg>
