<svg width="16" height="16" viewBox="0 0 16 16" fill="none" xmlns="http://www.w3.org/2000/svg">
<g clip-path="url(#clip0_169_2777)">
<g clip-path="url(#clip1_169_2777)">
<path fill-rule="evenodd" clip-rule="evenodd" d="M7.65812 0.0257945C7.92009 0.113119 8.06167 0.39628 7.97434 0.658251C7.50039 2.08008 7.50001 3.01472 7.5 4.00014C7.5 4.27628 7.27614 4.50014 7 4.50014C6.72385 4.50013 6.5 4.27627 6.5 4.00013V3.9977C6.50001 2.98385 6.50002 1.91893 7.02566 0.34202C7.11298 0.0800489 7.39614 -0.0615302 7.65812 0.0257945ZM15.9743 8.34202C16.0617 8.60399 15.9201 8.88715 15.6581 8.97448C14.0811 9.50014 13.0162 9.50014 12.0023 9.50014H12C11.7239 9.50014 11.5 9.27628 11.5 9.00014C11.5 8.72399 11.7239 8.50014 12 8.50014C12.9854 8.50014 13.9201 8.49974 15.3419 8.02579C15.6039 7.93847 15.887 8.08005 15.9743 8.34202ZM11.4472 9.77653C11.3237 9.52954 11.0234 9.42943 10.7764 9.55292C10.5294 9.67641 10.4293 9.97675 10.5528 10.2237C11.096 11.3101 11.9038 12.1135 12.5626 12.6406C12.8939 12.9055 13.1924 13.1047 13.4098 13.2385C13.5187 13.3054 13.6076 13.3563 13.6706 13.391C13.7021 13.4084 13.7271 13.4218 13.745 13.4312L13.7664 13.4423L13.7728 13.4456L13.775 13.4466L13.7758 13.447L13.7761 13.4472C13.7762 13.4473 13.7764 13.4473 14 13.0001L13.7764 13.4473C14.0234 13.5708 14.3237 13.4707 14.4472 13.2237C14.5707 12.9768 14.4707 12.6766 14.2238 12.553L14.2236 12.5529L14.2221 12.5521L14.2096 12.5456C14.1977 12.5394 14.1788 12.5293 14.1536 12.5155C14.1034 12.4877 14.0282 12.4448 13.9339 12.3868C13.7451 12.2706 13.4811 12.0947 13.1873 11.8597C12.5962 11.3868 11.904 10.6901 11.4472 9.77653ZM6.44721 5.22374C6.5707 4.97675 6.47059 4.67641 6.2236 4.55292C5.30999 4.09612 4.61332 3.4039 4.14043 2.81279C3.9054 2.519 3.72954 2.25506 3.61332 2.06621C3.5553 1.97193 3.5124 1.89677 3.48466 1.84649C3.47079 1.82135 3.46073 1.80247 3.45449 1.79056L3.44798 1.77803L3.44721 1.77653L3.44709 1.77629C3.32352 1.52947 3.0233 1.42947 2.77639 1.55292C2.5294 1.67641 2.42929 1.97675 2.55278 2.22374L2.99999 2.00013C2.55278 2.22374 2.55285 2.22388 2.55292 2.22403L2.55309 2.22436L2.55349 2.22516L2.55458 2.22731L2.55787 2.23377L2.56894 2.25511C2.57832 2.27299 2.5917 2.29805 2.60908 2.32956C2.64384 2.39256 2.69469 2.48147 2.76167 2.59031C2.89545 2.80771 3.09459 3.10627 3.35956 3.43748C3.88667 4.09636 4.69 4.90415 5.77639 5.44735C6.02338 5.57084 6.32371 5.47073 6.44721 5.22374ZM9.64644 12.3537C9.45117 12.1584 9.45117 11.8418 9.64643 11.6466C9.84169 11.4513 10.1583 11.4513 10.3535 11.6466C11.0488 12.3418 11.5488 14.1584 9.85354 15.8537C9.65828 16.049 9.3417 16.049 9.14644 15.8537C8.95117 15.6584 8.95117 15.3418 9.14644 15.1466C10.4512 13.8418 9.95118 12.6584 9.64644 12.3537ZM4.35355 6.35369C4.15829 6.54895 3.84171 6.54895 3.64645 6.35369C3.34171 6.04895 2.15829 5.54895 0.853553 6.85369C0.658291 7.04895 0.341709 7.04895 0.146447 6.85369C-0.0488155 6.65842 -0.0488155 6.34184 0.146447 6.14658C1.84171 4.45132 3.65829 4.95132 4.35355 5.64658C4.54882 5.84184 4.54882 6.15842 4.35355 6.35369ZM12 0.500136C12 0.223993 11.7761 0.000135653 11.5 0.000135653C11.2239 0.000135653 11 0.223993 11 0.500136V4.50014V5.00014H11.5H15.5C15.7761 5.00014 16 4.77628 16 4.50014C16 4.22399 15.7761 4.00014 15.5 4.00014H12V0.500136Z" fill="url(#paint0_linear_169_2777)"/>
<g filter="url(#filter0_i_169_2777)">
<ellipse cx="11.2844" cy="4.71558" rx="2.15045" ry="1.30342" transform="rotate(45 11.2844 4.71558)" fill="#54A24C"/>
</g>
<path d="M12.5596 3.44033C13.0332 3.91393 13.3638 4.47567 13.4973 5.02027C13.6282 5.55437 13.5839 6.16424 13.1583 6.58986C12.7327 7.01524 12.1234 7.05904 11.5894 6.92822C11.0448 6.79466 10.483 6.46407 10.0095 5.99047C9.53593 5.51694 9.20598 4.95576 9.0724 4.41122C8.94142 3.87713 8.98455 3.26734 9.41007 2.84164C9.83578 2.41593 10.4462 2.37228 10.9803 2.50328C11.5248 2.63689 12.0861 2.96687 12.5596 3.44033Z" stroke="url(#paint1_linear_169_2777)"/>
<path d="M9 4.01549C9 4.01549 8.0893 3.73243 7 4.01549C5.91069 4.29855 3 8 3 8C3 8 3 9.99999 4.5 11.5C6 13 8 13 8 13C8 13 11.6945 10.1246 12 9C12.3055 7.87541 12 7 12 7L10 6L9 4.01549Z" fill="url(#paint2_linear_169_2777)"/>
<path d="M8.36035 4.40726C8.47871 4.41878 8.57968 4.43531 8.65918 4.45023L9.55371 6.22465L9.62793 6.37309L11.5713 7.34476C11.5869 7.42032 11.605 7.51668 11.6172 7.6309C11.6503 7.94296 11.6507 8.37923 11.5176 8.86918C11.5019 8.92667 11.4496 9.03844 11.3311 9.20805C11.2174 9.37061 11.0624 9.55789 10.876 9.76273C10.5034 10.172 10.028 10.6242 9.55273 11.0489C9.07895 11.4722 8.61318 11.8623 8.26562 12.1465C8.09211 12.2884 7.94772 12.4029 7.84766 12.4825C7.84451 12.485 7.84095 12.4869 7.83789 12.4893C7.80334 12.4865 7.76371 12.4844 7.71973 12.4795C7.52991 12.4584 7.25875 12.4158 6.94434 12.3301C6.31299 12.1579 5.5244 11.8174 4.85352 11.1465C4.18263 10.4756 3.84211 9.68705 3.66992 9.0557C3.58418 8.74127 3.5416 8.47014 3.52051 8.28031C3.51558 8.23589 3.5126 8.19597 3.50977 8.16117C3.5119 8.15851 3.51441 8.15609 3.5166 8.15336C3.59713 8.05307 3.71407 7.90917 3.85742 7.73539C4.14442 7.38747 4.53729 6.92164 4.96289 6.44828C5.39002 5.97324 5.84397 5.49838 6.25195 5.12797C6.4561 4.94263 6.64171 4.78947 6.80176 4.67777C6.96997 4.5604 7.07649 4.51192 7.12598 4.49906C7.59958 4.37604 8.03842 4.37596 8.36035 4.40726Z" stroke="white" stroke-opacity="0.5" style="mix-blend-mode:soft-light"/>
<g filter="url(#filter1_d_169_2777)">
<path d="M10 6L4.5 11.5" stroke="url(#paint3_linear_169_2777)" stroke-linecap="square"/>
</g>
<path d="M6.87402 3.53129C7.48961 3.37132 8.05136 3.3727 8.45703 3.41215C8.66061 3.43195 8.82773 3.46174 8.94629 3.48734C9.00542 3.50012 9.05284 3.51149 9.08691 3.52055C9.10383 3.52504 9.11771 3.52931 9.12793 3.53226C9.13292 3.53371 9.13731 3.53518 9.14062 3.53617C9.1423 3.53667 9.14428 3.53677 9.14551 3.53715H9.14746V3.53812H9.14844L9.35059 3.60062L9.44629 3.79008L10.3711 5.62601L12.2236 6.55277L12.4053 6.64359L12.4717 6.835L12.4727 6.83598V6.83695L12.4736 6.83891C12.474 6.84003 12.4741 6.8414 12.4746 6.84281C12.4758 6.84631 12.4778 6.85127 12.4795 6.85648C12.4828 6.86687 12.4872 6.88063 12.4922 6.8975C12.5023 6.93163 12.5152 6.97915 12.5293 7.03812C12.5575 7.15597 12.5897 7.32185 12.6113 7.52543C12.6545 7.93218 12.6548 8.49631 12.4824 9.1309C12.4217 9.35454 12.292 9.57881 12.1504 9.78129C12.0037 9.9911 11.8189 10.2128 11.6162 10.4356C11.2102 10.8816 10.7052 11.3603 10.2188 11.795C9.73078 12.231 9.25311 12.6299 8.89844 12.92C8.72091 13.0651 8.57384 13.1836 8.4707 13.2657C8.41914 13.3067 8.3784 13.3385 8.35059 13.3604C8.33668 13.3713 8.32568 13.3801 8.31836 13.3858C8.31509 13.3883 8.31241 13.3902 8.31055 13.3916C8.30958 13.3924 8.30814 13.3932 8.30762 13.3936V13.3946L8 13L8.30664 13.3946L8.17188 13.5H7.98828C7.98242 13.5 7.97446 13.4993 7.96484 13.4991C7.94562 13.4986 7.91904 13.4978 7.88574 13.4961C7.81901 13.4927 7.72459 13.4866 7.6084 13.4737C7.37643 13.4479 7.05342 13.3966 6.68066 13.295C5.93705 13.0921 4.97551 12.6826 4.14648 11.8536C3.31747 11.0245 2.90792 10.063 2.70508 9.31937C2.60342 8.94664 2.55216 8.62361 2.52637 8.39164C2.51346 8.27547 2.5073 8.18102 2.50391 8.1143C2.50221 8.08102 2.50145 8.05442 2.50098 8.03519C2.50074 8.02557 2.50007 8.01762 2.5 8.01176V7.82719L2.60742 7.69047L2.60938 7.68754C2.61088 7.68564 2.61343 7.68324 2.61621 7.67973C2.622 7.6724 2.63055 7.66142 2.6416 7.6475C2.6637 7.61967 2.69588 7.57896 2.7373 7.52738C2.8202 7.42415 2.93941 7.2763 3.08594 7.09867C3.37867 6.7438 3.78164 6.26657 4.21973 5.77934C4.65628 5.29381 5.13511 4.79086 5.5791 4.38773C5.80096 4.18631 6.0219 4.00332 6.22949 3.85844C6.42877 3.71936 6.65126 3.5892 6.87402 3.53129Z" stroke="url(#paint4_linear_169_2777)"/>
</g>
<mask id="path-8-inside-1_169_2777" fill="white">
<path d="M10 9H6V14H10V16H11L16 11.5L11 7H10V9Z"/>
</mask>
<g filter="url(#filter2_i_169_2777)">
<path d="M10 9H6V14H10V16H11L16 11.5L11 7H10V9Z" fill="#80B361"/>
</g>
<path d="M6 9V8H5V9H6ZM10 9V10C10.5523 10 11 9.55228 11 9H10ZM10 7V6H9V7H10ZM11 7L11.669 6.25671L11.3837 6H11V7ZM16 11.5L16.669 12.2433L17.4948 11.5L16.669 10.7567L16 11.5ZM11 16V17H11.3837L11.669 16.7433L11 16ZM10 16H9V17H10V16ZM10 14H11C11 13.4477 10.5523 13 10 13V14ZM6 14H5V15H6V14ZM6 9V10H10V9V8H6V9ZM10 9H11V7H10H9V9H10ZM10 7V8H11V7V6H10V7ZM11 7L10.331 7.74329L15.331 12.2433L16 11.5L16.669 10.7567L11.669 6.25671L11 7ZM16 11.5L15.331 10.7567L10.331 15.2567L11 16L11.669 16.7433L16.669 12.2433L16 11.5ZM11 16V15H10V16V17H11V16ZM10 16H11V14H10H9V16H10ZM10 14V13H6V14V15H10V14ZM6 14H7V9H6H5V14H6Z" fill="url(#paint5_linear_169_2777)" mask="url(#path-8-inside-1_169_2777)"/>
<path d="M13.752 11.4996L11.4404 13.5826C11.2619 12.9642 10.6972 12.4996 10.0049 12.4996H7.5V10.4996H10C10.7153 10.4996 11.2655 10.0249 11.4404 9.41566L13.752 11.4996Z" stroke="white" stroke-opacity="0.2"/>
</g>
<defs>
<filter id="filter0_i_169_2777" x="8.50708" y="1.93822" width="5.55472" height="5.55471" filterUnits="userSpaceOnUse" color-interpolation-filters="sRGB">
<feFlood flood-opacity="0" result="BackgroundImageFix"/>
<feBlend mode="normal" in="SourceGraphic" in2="BackgroundImageFix" result="shape"/>
<feColorMatrix in="SourceAlpha" type="matrix" values="0 0 0 0 0 0 0 0 0 0 0 0 0 0 0 0 0 0 127 0" result="hardAlpha"/>
<feOffset dx="-1.3" dy="1.3"/>
<feComposite in2="hardAlpha" operator="arithmetic" k2="-1" k3="1"/>
<feColorMatrix type="matrix" values="0 0 0 0 1 0 0 0 0 1 0 0 0 0 1 0 0 0 0.5 0"/>
<feBlend mode="hard-light" in2="shape" result="effect1_innerShadow_169_2777"/>
</filter>
<filter id="filter1_d_169_2777" x="3.79291" y="5.29289" width="7.41418" height="7.41422" filterUnits="userSpaceOnUse" color-interpolation-filters="sRGB">
<feFlood flood-opacity="0" result="BackgroundImageFix"/>
<feColorMatrix in="SourceAlpha" type="matrix" values="0 0 0 0 0 0 0 0 0 0 0 0 0 0 0 0 0 0 127 0" result="hardAlpha"/>
<feOffset dx="0.5" dy="0.5"/>
<feComposite in2="hardAlpha" operator="out"/>
<feColorMatrix type="matrix" values="0 0 0 0 0.690196 0 0 0 0 0.835294 0 0 0 0 0.615686 0 0 0 1 0"/>
<feBlend mode="normal" in2="BackgroundImageFix" result="effect1_dropShadow_169_2777"/>
<feBlend mode="normal" in="SourceGraphic" in2="effect1_dropShadow_169_2777" result="shape"/>
</filter>
<filter id="filter2_i_169_2777" x="6" y="7" width="12" height="11" filterUnits="userSpaceOnUse" color-interpolation-filters="sRGB">
<feFlood flood-opacity="0" result="BackgroundImageFix"/>
<feBlend mode="normal" in="SourceGraphic" in2="BackgroundImageFix" result="shape"/>
<feColorMatrix in="SourceAlpha" type="matrix" values="0 0 0 0 0 0 0 0 0 0 0 0 0 0 0 0 0 0 127 0" result="hardAlpha"/>
<feOffset dx="2" dy="2"/>
<feGaussianBlur stdDeviation="1"/>
<feComposite in2="hardAlpha" operator="arithmetic" k2="-1" k3="1"/>
<feColorMatrix type="matrix" values="0 0 0 0 1 0 0 0 0 1 0 0 0 0 1 0 0 0 0.25 0"/>
<feBlend mode="normal" in2="shape" result="effect1_innerShadow_169_2777"/>
</filter>
<linearGradient id="paint0_linear_169_2777" x1="-0.531592" y1="-3.23499e-07" x2="15.0785" y2="16.5059" gradientUnits="userSpaceOnUse">
<stop stop-color="#40B73A"/>
<stop offset="1" stop-color="#235C20"/>
</linearGradient>
<linearGradient id="paint1_linear_169_2777" x1="13.0112" y1="6.03004" x2="10.7043" y2="2.62445" gradientUnits="userSpaceOnUse">
<stop stop-color="#33822E"/>
<stop offset="1" stop-color="#379532"/>
</linearGradient>
<linearGradient id="paint2_linear_169_2777" x1="5" y1="5" x2="11" y2="11" gradientUnits="userSpaceOnUse">
<stop stop-color="#A5CC8D"/>
<stop offset="0.44542" stop-color="#5C9F42"/>
<stop offset="0.554484" stop-color="#96BF83"/>
<stop offset="1" stop-color="#609A46"/>
</linearGradient>
<linearGradient id="paint3_linear_169_2777" x1="11" y1="5.5" x2="5" y2="11.5" gradientUnits="userSpaceOnUse">
<stop stop-color="#358A30"/>
<stop offset="0.505" stop-color="#549E4D"/>
<stop offset="1" stop-color="#358D30"/>
</linearGradient>
<linearGradient id="paint4_linear_169_2777" x1="3" y1="4" x2="12" y2="13" gradientUnits="userSpaceOnUse">
<stop stop-color="#3BA635"/>
<stop offset="1" stop-color="#2E712A"/>
</linearGradient>
<linearGradient id="paint5_linear_169_2777" x1="14.5714" y1="14.7143" x2="8.17837" y2="7.61089" gradientUnits="userSpaceOnUse">
<stop stop-color="#247C10"/>
<stop offset="1" stop-color="#6FA53D"/>
</linearGradient>
<clipPath id="clip0_169_2777">
<rect width="16" height="16" fill="white"/>
</clipPath>
<clipPath id="clip1_169_2777">
<rect width="16" height="16" fill="white"/>
</clipPath>
</defs>
</svg>
