<svg width="16" height="16" viewBox="0 0 16 16" fill="none" xmlns="http://www.w3.org/2000/svg">
<g clip-path="url(#clip0_99_11828)">
<g filter="url(#filter0_i_99_11828)">
<rect x="3" y="2" width="10" height="13" fill="#D9D9D9"/>
</g>
<rect x="3.5" y="2.5" width="9" height="12" stroke="url(#paint0_linear_99_11828)"/>
<rect x="6.5" y="10.5" width="3" height="4" rx="0.5" fill="#B9B9B9" stroke="#838383"/>
<path d="M13.9287 10.2432L14.6572 11.4561C15.1968 12.3554 14.5488 13.5 13.5 13.5C12.4512 13.5 11.8032 12.3554 12.3428 11.4561L13.0713 10.2432L13.5 9.52832L13.9287 10.2432Z" fill="#5EB354" stroke="url(#paint1_linear_99_11828)" stroke-linecap="round"/>
<path d="M2.07129 10.2432L1.34277 11.4561C0.803174 12.3554 1.45121 13.5 2.5 13.5C3.54879 13.5 4.19683 12.3554 3.65723 11.4561L2.92871 10.2432L2.5 9.52832L2.07129 10.2432Z" fill="#80C377" stroke="url(#paint2_linear_99_11828)" stroke-linecap="round"/>
<path fill-rule="evenodd" clip-rule="evenodd" d="M5 4H11V5H5V4ZM5 6H11V7H5V6ZM11 8H5V9H11V8Z" fill="url(#paint3_linear_99_11828)"/>
<circle cx="10.5" cy="0.5" r="0.5" fill="#FF0F0F"/>
<rect x="10" y="1" width="1" height="2" fill="#747474"/>
<path d="M0 15C0 14.4477 0.447715 14 1 14H15C15.5523 14 16 14.4477 16 15H0Z" fill="#6A6C6A"/>
<mask id="path-10-inside-1_99_11828" fill="white">
<path d="M10 9H6V14H10V16H11L16 11.5L11 7H10V9Z"/>
</mask>
<g filter="url(#filter1_i_99_11828)">
<path d="M10 9H6V14H10V16H11L16 11.5L11 7H10V9Z" fill="#80B361"/>
</g>
<path d="M6 9V8H5V9H6ZM10 9V10C10.5523 10 11 9.55228 11 9H10ZM10 7V6H9V7H10ZM11 7L11.669 6.25671L11.3837 6H11V7ZM16 11.5L16.669 12.2433L17.4948 11.5L16.669 10.7567L16 11.5ZM11 16V17H11.3837L11.669 16.7433L11 16ZM10 16H9V17H10V16ZM10 14H11C11 13.4477 10.5523 13 10 13V14ZM6 14H5V15H6V14ZM6 9V10H10V9V8H6V9ZM10 9H11V7H10H9V9H10ZM10 7V8H11V7V6H10V7ZM11 7L10.331 7.74329L15.331 12.2433L16 11.5L16.669 10.7567L11.669 6.25671L11 7ZM16 11.5L15.331 10.7567L10.331 15.2567L11 16L11.669 16.7433L16.669 12.2433L16 11.5ZM11 16V15H10V16V17H11V16ZM10 16H11V14H10H9V16H10ZM10 14V13H6V14V15H10V14ZM6 14H7V9H6H5V14H6Z" fill="url(#paint4_linear_99_11828)" mask="url(#path-10-inside-1_99_11828)"/>
<path d="M13.752 11.4996L11.4404 13.5826C11.2619 12.9642 10.6972 12.4996 10.0049 12.4996H7.5V10.4996H10C10.7153 10.4996 11.2655 10.0249 11.4404 9.41566L13.752 11.4996Z" stroke="white" stroke-opacity="0.2"/>
</g>
<defs>
<filter id="filter0_i_99_11828" x="3" y="2" width="10" height="13" filterUnits="userSpaceOnUse" color-interpolation-filters="sRGB">
<feFlood flood-opacity="0" result="BackgroundImageFix"/>
<feBlend mode="normal" in="SourceGraphic" in2="BackgroundImageFix" result="shape"/>
<feColorMatrix in="SourceAlpha" type="matrix" values="0 0 0 0 0 0 0 0 0 0 0 0 0 0 0 0 0 0 127 0" result="hardAlpha"/>
<feMorphology radius="2" operator="erode" in="SourceAlpha" result="effect1_innerShadow_99_11828"/>
<feOffset/>
<feComposite in2="hardAlpha" operator="arithmetic" k2="-1" k3="1"/>
<feColorMatrix type="matrix" values="0 0 0 0 1 0 0 0 0 1 0 0 0 0 1 0 0 0 0.66 0"/>
<feBlend mode="normal" in2="shape" result="effect1_innerShadow_99_11828"/>
</filter>
<filter id="filter1_i_99_11828" x="6" y="7" width="12" height="11" filterUnits="userSpaceOnUse" color-interpolation-filters="sRGB">
<feFlood flood-opacity="0" result="BackgroundImageFix"/>
<feBlend mode="normal" in="SourceGraphic" in2="BackgroundImageFix" result="shape"/>
<feColorMatrix in="SourceAlpha" type="matrix" values="0 0 0 0 0 0 0 0 0 0 0 0 0 0 0 0 0 0 127 0" result="hardAlpha"/>
<feOffset dx="2" dy="2"/>
<feGaussianBlur stdDeviation="1"/>
<feComposite in2="hardAlpha" operator="arithmetic" k2="-1" k3="1"/>
<feColorMatrix type="matrix" values="0 0 0 0 1 0 0 0 0 1 0 0 0 0 1 0 0 0 0.25 0"/>
<feBlend mode="normal" in2="shape" result="effect1_innerShadow_99_11828"/>
</filter>
<linearGradient id="paint0_linear_99_11828" x1="3" y1="2.5" x2="13" y2="14" gradientUnits="userSpaceOnUse">
<stop stop-color="#D6D6D6"/>
<stop offset="1" stop-color="#6B6B6B"/>
</linearGradient>
<linearGradient id="paint1_linear_99_11828" x1="12" y1="10" x2="14.5" y2="13" gradientUnits="userSpaceOnUse">
<stop stop-color="#57AF4F"/>
<stop offset="1" stop-color="#3B7A37" stop-opacity="0.972549"/>
</linearGradient>
<linearGradient id="paint2_linear_99_11828" x1="1.5" y1="10" x2="4" y2="13" gradientUnits="userSpaceOnUse">
<stop stop-color="#7CC673"/>
<stop offset="1" stop-color="#52AB47" stop-opacity="0.996078"/>
</linearGradient>
<linearGradient id="paint3_linear_99_11828" x1="11" y1="9" x2="5" y2="4" gradientUnits="userSpaceOnUse">
<stop stop-color="#95B8F1"/>
<stop offset="1" stop-color="#B2CCF5"/>
</linearGradient>
<linearGradient id="paint4_linear_99_11828" x1="14.5714" y1="14.7143" x2="8.17837" y2="7.61089" gradientUnits="userSpaceOnUse">
<stop stop-color="#247C10"/>
<stop offset="1" stop-color="#6FA53D"/>
</linearGradient>
<clipPath id="clip0_99_11828">
<rect width="16" height="16" fill="white"/>
</clipPath>
</defs>
</svg>
