<svg width="16" height="16" viewBox="0 0 16 16" fill="none" xmlns="http://www.w3.org/2000/svg">
<mask id="path-1-inside-1_99_12603" fill="white">
<path d="M7 6H3V11H7V13H8L13 8.5L8 4H7V6Z"/>
</mask>
<g filter="url(#filter0_i_99_12603)">
<path d="M7 6H3V11H7V13H8L13 8.5L8 4H7V6Z" fill="#80B361"/>
</g>
<path d="M3 6V5H2V6H3ZM7 6V7C7.55228 7 8 6.55228 8 6H7ZM7 4V3H6V4H7ZM8 4L8.66896 3.25671L8.38374 3H8V4ZM13 8.5L13.669 9.24329L14.4948 8.5L13.669 7.75671L13 8.5ZM8 13V14H8.38374L8.66896 13.7433L8 13ZM7 13H6V14H7V13ZM7 11H8C8 10.4477 7.55228 10 7 10V11ZM3 11H2V12H3V11ZM3 6V7H7V6V5H3V6ZM7 6H8V4H7H6V6H7ZM7 4V5H8V4V3H7V4ZM8 4L7.33104 4.74329L12.331 9.24329L13 8.5L13.669 7.75671L8.66896 3.25671L8 4ZM13 8.5L12.331 7.75671L7.33104 12.2567L8 13L8.66896 13.7433L13.669 9.24329L13 8.5ZM8 13V12H7V13V14H8V13ZM7 13H8V11H7H6V13H7ZM7 11V10H3V11V12H7V11ZM3 11H4V6H3H2V11H3Z" fill="url(#paint0_linear_99_12603)" mask="url(#path-1-inside-1_99_12603)"/>
<path d="M10.752 8.49964L8.44043 10.5826C8.26193 9.96423 7.69721 9.49964 7.00488 9.49964H4.5V7.49964H7C7.71526 7.49964 8.26549 7.02495 8.44043 6.41566L10.752 8.49964Z" stroke="white" stroke-opacity="0.2"/>
<defs>
<filter id="filter0_i_99_12603" x="3" y="4" width="12" height="11" filterUnits="userSpaceOnUse" color-interpolation-filters="sRGB">
<feFlood flood-opacity="0" result="BackgroundImageFix"/>
<feBlend mode="normal" in="SourceGraphic" in2="BackgroundImageFix" result="shape"/>
<feColorMatrix in="SourceAlpha" type="matrix" values="0 0 0 0 0 0 0 0 0 0 0 0 0 0 0 0 0 0 127 0" result="hardAlpha"/>
<feOffset dx="2" dy="2"/>
<feGaussianBlur stdDeviation="1"/>
<feComposite in2="hardAlpha" operator="arithmetic" k2="-1" k3="1"/>
<feColorMatrix type="matrix" values="0 0 0 0 1 0 0 0 0 1 0 0 0 0 1 0 0 0 0.25 0"/>
<feBlend mode="normal" in2="shape" result="effect1_innerShadow_99_12603"/>
</filter>
<linearGradient id="paint0_linear_99_12603" x1="11.5714" y1="11.7143" x2="5.17837" y2="4.61089" gradientUnits="userSpaceOnUse">
<stop stop-color="#247C10"/>
<stop offset="1" stop-color="#6FA53D"/>
</linearGradient>
</defs>
</svg>
