<svg width="16" height="16" viewBox="0 0 16 16" fill="none" xmlns="http://www.w3.org/2000/svg">
<mask id="path-1-inside-1_99_12595" fill="white">
<path d="M8 3L9.32252 6.17971L12.7553 6.45492L10.1399 8.69529L10.9389 12.0451L8 10.25L5.06108 12.0451L5.86013 8.69529L3.24472 6.45492L6.67749 6.17971L8 3Z"/>
</mask>
<g filter="url(#filter0_i_99_12595)">
<path d="M8 3L9.32252 6.17971L12.7553 6.45492L10.1399 8.69529L10.9389 12.0451L8 10.25L5.06108 12.0451L5.86013 8.69529L3.24472 6.45492L6.67749 6.17971L8 3Z" fill="#FFDC6B"/>
</g>
<path d="M8 3L8.92332 2.61597L8 0.396041L7.07668 2.61597L8 3ZM9.32252 6.17971L8.3992 6.56374C8.54321 6.90998 8.86882 7.14655 9.24261 7.17651L9.32252 6.17971ZM12.7553 6.45492L13.4058 7.21437L15.2318 5.65025L12.8352 5.45811L12.7553 6.45492ZM10.1399 8.69529L9.48932 7.93583C9.20454 8.17978 9.08016 8.56256 9.16717 8.92731L10.1399 8.69529ZM10.9389 12.0451L10.4177 12.8985L12.4695 14.1517L11.9116 11.8131L10.9389 12.0451ZM8 10.25L8.52126 9.3966C8.20124 9.20113 7.79877 9.20113 7.47875 9.3966L8 10.25ZM5.06108 12.0451L4.08837 11.8131L3.53051 14.1517L5.58233 12.8985L5.06108 12.0451ZM5.86013 8.69529L6.83284 8.92731C6.91984 8.56256 6.79547 8.17978 6.51068 7.93583L5.86013 8.69529ZM3.24472 6.45492L3.16481 5.45811L0.768208 5.65025L2.59416 7.21437L3.24472 6.45492ZM6.67749 6.17971L6.7574 7.17651C7.13119 7.14655 7.4568 6.90998 7.60081 6.56374L6.67749 6.17971ZM8 3L7.07668 3.38403L8.3992 6.56374L9.32252 6.17971L10.2458 5.79568L8.92332 2.61597L8 3ZM9.32252 6.17971L9.24261 7.17651L12.6754 7.45172L12.7553 6.45492L12.8352 5.45811L9.40243 5.18291L9.32252 6.17971ZM12.7553 6.45492L12.1047 5.69546L9.48932 7.93583L10.1399 8.69529L10.7904 9.45475L13.4058 7.21437L12.7553 6.45492ZM10.1399 8.69529L9.16717 8.92731L9.96622 12.2771L10.9389 12.0451L11.9116 11.8131L11.1126 8.46326L10.1399 8.69529ZM10.9389 12.0451L11.4602 11.1917L8.52126 9.3966L8 10.25L7.47875 11.1034L10.4177 12.8985L10.9389 12.0451ZM8 10.25L7.47875 9.3966L4.53982 11.1917L5.06108 12.0451L5.58233 12.8985L8.52126 11.1034L8 10.25ZM5.06108 12.0451L6.03379 12.2771L6.83284 8.92731L5.86013 8.69529L4.88742 8.46326L4.08837 11.8131L5.06108 12.0451ZM5.86013 8.69529L6.51068 7.93583L3.89528 5.69546L3.24472 6.45492L2.59416 7.21437L5.20957 9.45475L5.86013 8.69529ZM3.24472 6.45492L3.32463 7.45172L6.7574 7.17651L6.67749 6.17971L6.59757 5.18291L3.16481 5.45811L3.24472 6.45492ZM6.67749 6.17971L7.60081 6.56374L8.92332 3.38403L8 3L7.07668 2.61597L5.75417 5.79568L6.67749 6.17971Z" fill="url(#paint0_linear_99_12595)" mask="url(#path-1-inside-1_99_12595)"/>
<defs>
<filter id="filter0_i_99_12595" x="3.24472" y="3" width="10.5106" height="10.0451" filterUnits="userSpaceOnUse" color-interpolation-filters="sRGB">
<feFlood flood-opacity="0" result="BackgroundImageFix"/>
<feBlend mode="normal" in="SourceGraphic" in2="BackgroundImageFix" result="shape"/>
<feColorMatrix in="SourceAlpha" type="matrix" values="0 0 0 0 0 0 0 0 0 0 0 0 0 0 0 0 0 0 127 0" result="hardAlpha"/>
<feOffset dx="1" dy="1"/>
<feGaussianBlur stdDeviation="1"/>
<feComposite in2="hardAlpha" operator="arithmetic" k2="-1" k3="1"/>
<feColorMatrix type="matrix" values="0 0 0 0 1 0 0 0 0 1 0 0 0 0 1 0 0 0 1 0"/>
<feBlend mode="hard-light" in2="shape" result="effect1_innerShadow_99_12595"/>
</filter>
<linearGradient id="paint0_linear_99_12595" x1="4.99997" y1="4.33333" x2="11.7204" y2="11.3056" gradientUnits="userSpaceOnUse">
<stop stop-color="#FDC922"/>
<stop offset="0.5" stop-color="#F0B411"/>
<stop offset="1" stop-color="#C88311"/>
</linearGradient>
</defs>
</svg>
