<svg width="16" height="16" viewBox="0 0 16 16" fill="none" xmlns="http://www.w3.org/2000/svg">
<g clip-path="url(#clip0_134_2349)">
<g clip-path="url(#clip1_134_2349)">
<path d="M8 7C8.12876 7 8.25184 7.02434 8.36488 7.06866L10.7901 0.5C9.9214 0.176693 8.98133 0 8 0V7Z" fill="url(#paint0_linear_134_2349)"/>
<path d="M8.9695 7.75398L15.6377 5.61266C14.9001 3.25024 13.0966 1.35838 10.7901 0.5L8.36488 7.06866C8.66218 7.18522 8.89008 7.44003 8.9695 7.75398Z" fill="url(#paint1_linear_134_2349)"/>
<path d="M8.99999 8C8.99999 8.18214 8.9513 8.35291 8.86621 8.5L15.4185 11C15.7935 10.0736 16 9.0609 16 8C16 7.16849 15.8731 6.36661 15.6377 5.61266L8.9695 7.75398C8.98941 7.83268 8.99999 7.91511 8.99999 8Z" fill="url(#paint2_linear_134_2349)"/>
<path d="M8.00003 9C7.73091 9 7.48661 8.89369 7.30686 8.72077L2.58777 13.8914C4.0122 15.2006 5.91277 16 8.00003 16C11.3574 16 14.2317 13.9318 15.4185 11L8.86621 8.5C8.69331 8.7989 8.37017 9 8.00003 9Z" fill="url(#paint3_linear_134_2349)"/>
<path d="M2.58777 13.8914L7.30686 8.72077C7.23938 8.65587 7.18098 8.58158 7.13379 8.5L0.861328 11.6148C1.29761 12.4747 1.8847 13.2451 2.58777 13.8914Z" fill="url(#paint4_linear_134_2349)"/>
<path d="M7 8C7 7.71684 7.11769 7.46116 7.30683 7.27922L2.58774 2.10863C0.996956 3.57082 0 5.66898 0 8C0 9.30079 0.310465 10.5291 0.861328 11.6148L7.13379 8.5C7.0487 8.35291 7 8.18214 7 8Z" fill="url(#paint5_linear_134_2349)"/>
<path d="M8 7V0C5.91274 0 4.01217 0.799352 2.58774 2.10863L7.30683 7.27922C7.48658 7.10631 7.73088 7 8 7Z" fill="url(#paint6_linear_134_2349)"/>
<g clip-path="url(#paint7_angular_134_2349_clip_path)" data-figma-skip-parse="true"><g transform="matrix(0 -0.008 0.008 0 8 8)"><foreignObject x="-1125" y="-1125" width="2250" height="2250"><div xmlns="http://www.w3.org/1999/xhtml" style="background:conic-gradient(from 90deg,rgba(179, 217, 243, 1) 0deg,rgba(200, 237, 249, 1) 3.52214deg,rgba(254, 255, 255, 1) 20.2533deg,rgba(232, 247, 255, 1) 31.2867deg,rgba(241, 254, 255, 1) 54.4623deg,rgba(255, 255, 255, 1) 67.0121deg,rgba(148, 188, 231, 1) 72.317deg,rgba(196, 225, 255, 1) 109.826deg,rgba(148, 188, 231, 1) 111.588deg,rgba(186, 219, 254, 1) 173.66deg,rgba(241, 253, 255, 1) 222.879deg,rgba(151, 189, 236, 1) 225.026deg,rgba(200, 237, 249, 1) 228.18deg,rgba(148, 188, 231, 1) 243.669deg,rgba(178, 214, 251, 1) 316.332deg,rgba(255, 255, 255, 1) 318.437deg,rgba(186, 219, 254, 1) 337.38deg,rgba(151, 189, 236, 1) 355.047deg,rgba(179, 217, 243, 1) 360deg);height:100%;width:100%;opacity:1"></div></foreignObject></g></g><path d="M8 0.5C12.1421 0.5 15.5 3.85786 15.5 8C15.5 12.1421 12.1421 15.5 8 15.5C3.85786 15.5 0.5 12.1421 0.5 8C0.5 3.85786 3.85786 0.5 8 0.5ZM8 6.5C7.17157 6.5 6.5 7.17157 6.5 8C6.5 8.82843 7.17157 9.5 8 9.5C8.82843 9.5 9.5 8.82843 9.5 8C9.5 7.17157 8.82843 6.5 8 6.5Z" data-figma-gradient-fill="{&#34;type&#34;:&#34;GRADIENT_ANGULAR&#34;,&#34;stops&#34;:[{&#34;color&#34;:{&#34;r&#34;:0.78431373834609985,&#34;g&#34;:0.92941176891326904,&#34;b&#34;:0.97647058963775635,&#34;a&#34;:1.0},&#34;position&#34;:0.0097837150096893311},{&#34;color&#34;:{&#34;r&#34;:0.99607843160629272,&#34;g&#34;:1.0,&#34;b&#34;:1.0,&#34;a&#34;:1.0},&#34;position&#34;:0.056259077042341232},{&#34;color&#34;:{&#34;r&#34;:0.90980392694473267,&#34;g&#34;:0.96862745285034180,&#34;b&#34;:1.0,&#34;a&#34;:1.0},&#34;position&#34;:0.086907573044300079},{&#34;color&#34;:{&#34;r&#34;:0.94509804248809814,&#34;g&#34;:0.99607843160629272,&#34;b&#34;:1.0,&#34;a&#34;:1.0},&#34;position&#34;:0.15128423273563385},{&#34;color&#34;:{&#34;r&#34;:1.0,&#34;g&#34;:1.0,&#34;b&#34;:1.0,&#34;a&#34;:1.0},&#34;position&#34;:0.18614466488361359},{&#34;color&#34;:{&#34;r&#34;:0.58039218187332153,&#34;g&#34;:0.73725491762161255,&#34;b&#34;:0.90588235855102539,&#34;a&#34;:1.0},&#34;position&#34;:0.20088045299053192},{&#34;color&#34;:{&#34;r&#34;:0.77070313692092896,&#34;g&#34;:0.88364005088806152,&#34;b&#34;:1.0,&#34;a&#34;:1.0},&#34;position&#34;:0.30507355928421021},{&#34;color&#34;:{&#34;r&#34;:0.58039218187332153,&#34;g&#34;:0.73725491762161255,&#34;b&#34;:0.90588235855102539,&#34;a&#34;:1.0},&#34;position&#34;:0.30996635556221008},{&#34;color&#34;:{&#34;r&#34;:0.7294117808341980,&#34;g&#34;:0.85882353782653809,&#34;b&#34;:0.99607843160629272,&#34;a&#34;:1.0},&#34;position&#34;:0.48238837718963623},{&#34;color&#34;:{&#34;r&#34;:0.94509804248809814,&#34;g&#34;:0.99215686321258545,&#34;b&#34;:1.0,&#34;a&#34;:1.0},&#34;position&#34;:0.61910802125930786},{&#34;color&#34;:{&#34;r&#34;:0.59215688705444336,&#34;g&#34;:0.74117648601531982,&#34;b&#34;:0.92549020051956177,&#34;a&#34;:1.0},&#34;position&#34;:0.62507313489913940},{&#34;color&#34;:{&#34;r&#34;:0.78431373834609985,&#34;g&#34;:0.92941176891326904,&#34;b&#34;:0.97647058963775635,&#34;a&#34;:1.0},&#34;position&#34;:0.63383287191390991},{&#34;color&#34;:{&#34;r&#34;:0.58039218187332153,&#34;g&#34;:0.73725491762161255,&#34;b&#34;:0.90588235855102539,&#34;a&#34;:1.0},&#34;position&#34;:0.67685914039611816},{&#34;color&#34;:{&#34;r&#34;:0.69803923368453979,&#34;g&#34;:0.83921569585800171,&#34;b&#34;:0.98431372642517090,&#34;a&#34;:1.0},&#34;position&#34;:0.87870067358016968},{&#34;color&#34;:{&#34;r&#34;:1.0,&#34;g&#34;:1.0,&#34;b&#34;:1.0,&#34;a&#34;:1.0},&#34;position&#34;:0.88454765081405640},{&#34;color&#34;:{&#34;r&#34;:0.7294117808341980,&#34;g&#34;:0.85882353782653809,&#34;b&#34;:0.99607843160629272,&#34;a&#34;:1.0},&#34;position&#34;:0.93716704845428467},{&#34;color&#34;:{&#34;r&#34;:0.59215688705444336,&#34;g&#34;:0.74117648601531982,&#34;b&#34;:0.92549020051956177,&#34;a&#34;:1.0},&#34;position&#34;:0.98624092340469360}],&#34;stopsVar&#34;:[{&#34;color&#34;:{&#34;r&#34;:0.78431373834609985,&#34;g&#34;:0.92941176891326904,&#34;b&#34;:0.97647058963775635,&#34;a&#34;:1.0},&#34;position&#34;:0.0097837150096893311},{&#34;color&#34;:{&#34;r&#34;:0.99607843160629272,&#34;g&#34;:1.0,&#34;b&#34;:1.0,&#34;a&#34;:1.0},&#34;position&#34;:0.056259077042341232},{&#34;color&#34;:{&#34;r&#34;:0.90980392694473267,&#34;g&#34;:0.96862745285034180,&#34;b&#34;:1.0,&#34;a&#34;:1.0},&#34;position&#34;:0.086907573044300079},{&#34;color&#34;:{&#34;r&#34;:0.94509804248809814,&#34;g&#34;:0.99607843160629272,&#34;b&#34;:1.0,&#34;a&#34;:1.0},&#34;position&#34;:0.15128423273563385},{&#34;color&#34;:{&#34;r&#34;:1.0,&#34;g&#34;:1.0,&#34;b&#34;:1.0,&#34;a&#34;:1.0},&#34;position&#34;:0.18614466488361359},{&#34;color&#34;:{&#34;r&#34;:0.58039218187332153,&#34;g&#34;:0.73725491762161255,&#34;b&#34;:0.90588235855102539,&#34;a&#34;:1.0},&#34;position&#34;:0.20088045299053192},{&#34;color&#34;:{&#34;r&#34;:0.77070313692092896,&#34;g&#34;:0.88364005088806152,&#34;b&#34;:1.0,&#34;a&#34;:1.0},&#34;position&#34;:0.30507355928421021},{&#34;color&#34;:{&#34;r&#34;:0.58039218187332153,&#34;g&#34;:0.73725491762161255,&#34;b&#34;:0.90588235855102539,&#34;a&#34;:1.0},&#34;position&#34;:0.30996635556221008},{&#34;color&#34;:{&#34;r&#34;:0.7294117808341980,&#34;g&#34;:0.85882353782653809,&#34;b&#34;:0.99607843160629272,&#34;a&#34;:1.0},&#34;position&#34;:0.48238837718963623},{&#34;color&#34;:{&#34;r&#34;:0.94509804248809814,&#34;g&#34;:0.99215686321258545,&#34;b&#34;:1.0,&#34;a&#34;:1.0},&#34;position&#34;:0.61910802125930786},{&#34;color&#34;:{&#34;r&#34;:0.59215688705444336,&#34;g&#34;:0.74117648601531982,&#34;b&#34;:0.92549020051956177,&#34;a&#34;:1.0},&#34;position&#34;:0.62507313489913940},{&#34;color&#34;:{&#34;r&#34;:0.78431373834609985,&#34;g&#34;:0.92941176891326904,&#34;b&#34;:0.97647058963775635,&#34;a&#34;:1.0},&#34;position&#34;:0.63383287191390991},{&#34;color&#34;:{&#34;r&#34;:0.58039218187332153,&#34;g&#34;:0.73725491762161255,&#34;b&#34;:0.90588235855102539,&#34;a&#34;:1.0},&#34;position&#34;:0.67685914039611816},{&#34;color&#34;:{&#34;r&#34;:0.69803923368453979,&#34;g&#34;:0.83921569585800171,&#34;b&#34;:0.98431372642517090,&#34;a&#34;:1.0},&#34;position&#34;:0.87870067358016968},{&#34;color&#34;:{&#34;r&#34;:1.0,&#34;g&#34;:1.0,&#34;b&#34;:1.0,&#34;a&#34;:1.0},&#34;position&#34;:0.88454765081405640},{&#34;color&#34;:{&#34;r&#34;:0.7294117808341980,&#34;g&#34;:0.85882353782653809,&#34;b&#34;:0.99607843160629272,&#34;a&#34;:1.0},&#34;position&#34;:0.93716704845428467},{&#34;color&#34;:{&#34;r&#34;:0.59215688705444336,&#34;g&#34;:0.74117648601531982,&#34;b&#34;:0.92549020051956177,&#34;a&#34;:1.0},&#34;position&#34;:0.98624092340469360}],&#34;transform&#34;:{&#34;m00&#34;:1.3231137444892106e-14,&#34;m01&#34;:16.0,&#34;m02&#34;:0.0,&#34;m10&#34;:-16.0,&#34;m11&#34;:9.6784237660916053e-15,&#34;m12&#34;:16.0},&#34;opacity&#34;:1.0,&#34;blendMode&#34;:&#34;NORMAL&#34;,&#34;visible&#34;:true}" stroke="#5988B9"/>
<path d="M8 1.5C11.5899 1.5 14.5 4.41015 14.5 8C14.5 11.5899 11.5899 14.5 8 14.5C4.41015 14.5 1.5 11.5899 1.5 8C1.5 4.41015 4.41015 1.5 8 1.5ZM8 5.5C6.61929 5.5 5.5 6.61929 5.5 8C5.5 9.38071 6.61929 10.5 8 10.5C9.38071 10.5 10.5 9.38071 10.5 8C10.5 6.61929 9.38071 5.5 8 5.5Z" stroke="white" stroke-opacity="0.66" style="mix-blend-mode:hard-light"/>
</g>
<g filter="url(#filter0_i_134_2349)">
<path d="M10 9H6V14H10V16H11L16 11.5L11 7H10V9Z" fill="#80B361"/>
</g>
<path d="M10.8076 7.5L15.251 11.5L10.8076 15.5H10.5V14C10.5 13.7239 10.2761 13.5 10 13.5H6.5V9.5H10C10.2761 9.5 10.5 9.27614 10.5 9V7.5H10.8076Z" stroke="url(#paint8_linear_134_2349)" stroke-linejoin="round"/>
<path d="M13.752 11.4996L11.4404 13.5826C11.2619 12.9642 10.6972 12.4996 10.0049 12.4996H7.5V10.4996H10C10.7153 10.4996 11.2655 10.0249 11.4404 9.41565L13.752 11.4996Z" stroke="white" stroke-opacity="0.2" stroke-linejoin="round"/>
</g>
<defs>
<clipPath id="paint7_angular_134_2349_clip_path"><path d="M8 0.5C12.1421 0.5 15.5 3.85786 15.5 8C15.5 12.1421 12.1421 15.5 8 15.5C3.85786 15.5 0.5 12.1421 0.5 8C0.5 3.85786 3.85786 0.5 8 0.5ZM8 6.5C7.17157 6.5 6.5 7.17157 6.5 8C6.5 8.82843 7.17157 9.5 8 9.5C8.82843 9.5 9.5 8.82843 9.5 8C9.5 7.17157 8.82843 6.5 8 6.5Z"/></clipPath><filter id="filter0_i_134_2349" x="6" y="7" width="12" height="11" filterUnits="userSpaceOnUse" color-interpolation-filters="sRGB">
<feFlood flood-opacity="0" result="BackgroundImageFix"/>
<feBlend mode="normal" in="SourceGraphic" in2="BackgroundImageFix" result="shape"/>
<feColorMatrix in="SourceAlpha" type="matrix" values="0 0 0 0 0 0 0 0 0 0 0 0 0 0 0 0 0 0 127 0" result="hardAlpha"/>
<feOffset dx="2" dy="2"/>
<feGaussianBlur stdDeviation="1"/>
<feComposite in2="hardAlpha" operator="arithmetic" k2="-1" k3="1"/>
<feColorMatrix type="matrix" values="0 0 0 0 1 0 0 0 0 1 0 0 0 0 1 0 0 0 0.25 0"/>
<feBlend mode="normal" in2="shape" result="effect1_innerShadow_134_2349"/>
</filter>
<linearGradient id="paint0_linear_134_2349" x1="9.5" y1="4" x2="8" y2="3.53433" gradientUnits="userSpaceOnUse">
<stop stop-color="#FEFFFF"/>
<stop offset="1" stop-color="#C8EDF9"/>
</linearGradient>
<linearGradient id="paint1_linear_134_2349" x1="10.5" y1="0.5" x2="15.5" y2="5.5" gradientUnits="userSpaceOnUse">
<stop stop-color="#FEFFFF"/>
<stop offset="0.264347" stop-color="#E8F7FF"/>
<stop offset="0.558853" stop-color="#F1FEFF"/>
<stop offset="1" stop-color="white"/>
</linearGradient>
<linearGradient id="paint2_linear_134_2349" x1="8" y1="5.52732e-07" x2="8" y2="16" gradientUnits="userSpaceOnUse">
<stop stop-color="#94BCE7"/>
<stop offset="1" stop-color="#C5E1FF"/>
</linearGradient>
<linearGradient id="paint3_linear_134_2349" x1="8.74229e-08" y1="8" x2="16" y2="8" gradientUnits="userSpaceOnUse">
<stop offset="0.164959" stop-color="#F1FDFF"/>
<stop offset="0.572115" stop-color="#BADBFE"/>
<stop offset="1" stop-color="#94BCE7"/>
</linearGradient>
<linearGradient id="paint4_linear_134_2349" x1="0.5" y1="11.5" x2="2.5" y2="14" gradientUnits="userSpaceOnUse">
<stop stop-color="#94BCE7"/>
<stop offset="0.502415" stop-color="#C8EDF9"/>
<stop offset="1" stop-color="#97BDEC"/>
</linearGradient>
<linearGradient id="paint5_linear_134_2349" x1="3.65341" y1="2.10863" x2="3.65341" y2="11.6148" gradientUnits="userSpaceOnUse">
<stop stop-color="#B2D6FB"/>
<stop offset="1" stop-color="#94BCE7"/>
</linearGradient>
<linearGradient id="paint6_linear_134_2349" x1="8" y1="2.70379e-07" x2="2.5" y2="2" gradientUnits="userSpaceOnUse">
<stop stop-color="#97BDEC"/>
<stop offset="0.485577" stop-color="#BADBFE"/>
<stop offset="1" stop-color="white"/>
</linearGradient>
<linearGradient id="paint8_linear_134_2349" x1="14.5714" y1="14.7143" x2="8.17837" y2="7.61089" gradientUnits="userSpaceOnUse">
<stop stop-color="#247C10"/>
<stop offset="1" stop-color="#6FA53D"/>
</linearGradient>
<clipPath id="clip0_134_2349">
<rect width="16" height="16" fill="white"/>
</clipPath>
<clipPath id="clip1_134_2349">
<rect width="16" height="16" fill="white"/>
</clipPath>
</defs>
</svg>
