<svg width="16" height="16" viewBox="0 0 16 16" fill="none" xmlns="http://www.w3.org/2000/svg">
<g clip-path="url(#clip0_446_7336)">
<circle cx="8" cy="8" r="6.5" fill="url(#paint0_linear_446_7336)" stroke="url(#paint1_linear_446_7336)"/>
<circle cx="8" cy="8" r="4.5" fill="url(#paint2_linear_446_7336)" stroke="url(#paint3_linear_446_7336)"/>
<path d="M3.35358 13.4394C3.74409 13.0489 4.37711 13.0489 4.76764 13.4394C5.15816 13.8299 5.15816 14.463 4.76764 14.8535L4.41412 15.207C4.0236 15.5975 3.39059 15.5975 3.00006 15.207C2.60956 14.8165 2.60954 14.1835 3.00006 13.7929L3.35358 13.4394ZM10.9395 13.4394C11.33 13.049 11.9631 13.0489 12.3536 13.4394L12.7071 13.7929C13.0976 14.1834 13.0975 14.8165 12.7071 15.207C12.3166 15.5975 11.6836 15.5975 11.293 15.207L10.9395 14.8535C10.549 14.463 10.549 13.8299 10.9395 13.4394Z" fill="#D9D9D9" stroke="url(#paint4_linear_446_7336)" stroke-linejoin="round"/>
<path d="M2.43907 1.35382C3.02486 0.768033 3.97461 0.768035 4.56039 1.35382L4.85318 1.64661C5.04844 1.84187 5.04844 2.15845 4.85318 2.35371L2.35345 4.85345C2.25968 4.94721 2.1325 4.99984 1.99989 4.99984C1.86732 4.99981 1.74008 4.94719 1.64634 4.85345L1.35355 4.56066C0.767767 3.97487 0.767767 3.02513 1.35355 2.43934L2.43907 1.35382Z" fill="url(#paint5_linear_446_7336)" stroke="url(#paint6_linear_446_7336)" stroke-linejoin="round"/>
<path d="M13.5609 1.35382C12.9751 0.768034 12.0254 0.768035 11.4396 1.35382L11.1468 1.64661C10.9516 1.84187 10.9516 2.15845 11.1468 2.35371L13.6466 4.85345C13.7403 4.94721 13.8675 4.99984 14.0001 4.99984C14.1327 4.99981 14.2599 4.94719 14.3537 4.85345L14.6464 4.56066C15.2322 3.97487 15.2322 3.02513 14.6464 2.43934L13.5609 1.35382Z" fill="url(#paint7_linear_446_7336)" stroke="url(#paint8_linear_446_7336)" stroke-linejoin="round"/>
<path d="M8 6V8L11 6" stroke="#777F81" stroke-linecap="round" stroke-linejoin="round"/>
<mask id="path-7-inside-1_446_7336" fill="white">
<path d="M10 9H6V14H10V16H11L16 11.5L11 7H10V9Z"/>
</mask>
<g filter="url(#filter0_i_446_7336)">
<path d="M10 9H6V14H10V16H11L16 11.5L11 7H10V9Z" fill="#80B361"/>
</g>
<path d="M6 9V8H5V9H6ZM10 9V10C10.5523 10 11 9.55228 11 9H10ZM10 7V6H9V7H10ZM11 7L11.669 6.25671L11.3837 6H11V7ZM16 11.5L16.669 12.2433L17.4948 11.5L16.669 10.7567L16 11.5ZM11 16V17H11.3837L11.669 16.7433L11 16ZM10 16H9V17H10V16ZM10 14H11C11 13.4477 10.5523 13 10 13V14ZM6 14H5V15H6V14ZM6 9V10H10V9V8H6V9ZM10 9H11V7H10H9V9H10ZM10 7V8H11V7V6H10V7ZM11 7L10.331 7.74329L15.331 12.2433L16 11.5L16.669 10.7567L11.669 6.25671L11 7ZM16 11.5L15.331 10.7567L10.331 15.2567L11 16L11.669 16.7433L16.669 12.2433L16 11.5ZM11 16V15H10V16V17H11V16ZM10 16H11V14H10H9V16H10ZM10 14V13H6V14V15H10V14ZM6 14H7V9H6H5V14H6Z" fill="url(#paint9_linear_446_7336)" mask="url(#path-7-inside-1_446_7336)"/>
<path d="M13.752 11.4996L11.4404 13.5826C11.2619 12.9642 10.6972 12.4996 10.0049 12.4996H7.5V10.4996H10C10.7153 10.4996 11.2655 10.0249 11.4404 9.41565L13.752 11.4996Z" stroke="white" stroke-opacity="0.2"/>
</g>
<defs>
<filter id="filter0_i_446_7336" x="6" y="7" width="12" height="11" filterUnits="userSpaceOnUse" color-interpolation-filters="sRGB">
<feFlood flood-opacity="0" result="BackgroundImageFix"/>
<feBlend mode="normal" in="SourceGraphic" in2="BackgroundImageFix" result="shape"/>
<feColorMatrix in="SourceAlpha" type="matrix" values="0 0 0 0 0 0 0 0 0 0 0 0 0 0 0 0 0 0 127 0" result="hardAlpha"/>
<feOffset dx="2" dy="2"/>
<feGaussianBlur stdDeviation="1"/>
<feComposite in2="hardAlpha" operator="arithmetic" k2="-1" k3="1"/>
<feColorMatrix type="matrix" values="0 0 0 0 1 0 0 0 0 1 0 0 0 0 1 0 0 0 0.25 0"/>
<feBlend mode="normal" in2="shape" result="effect1_innerShadow_446_7336"/>
</filter>
<linearGradient id="paint0_linear_446_7336" x1="8" y1="1" x2="8" y2="15" gradientUnits="userSpaceOnUse">
<stop stop-color="#A1D8F1"/>
<stop offset="1" stop-color="#477AB3"/>
</linearGradient>
<linearGradient id="paint1_linear_446_7336" x1="8" y1="1" x2="8" y2="15" gradientUnits="userSpaceOnUse">
<stop stop-color="#77BBF6"/>
<stop offset="1" stop-color="#1A5C9E"/>
</linearGradient>
<linearGradient id="paint2_linear_446_7336" x1="8" y1="3" x2="8" y2="13" gradientUnits="userSpaceOnUse">
<stop stop-color="white"/>
<stop offset="0.5" stop-color="#E9F6FD"/>
<stop offset="1" stop-color="white"/>
</linearGradient>
<linearGradient id="paint3_linear_446_7336" x1="8" y1="3" x2="8" y2="13" gradientUnits="userSpaceOnUse">
<stop stop-color="#77BBF6"/>
<stop offset="1" stop-color="#1A5C9E"/>
</linearGradient>
<linearGradient id="paint4_linear_446_7336" x1="12" y1="12.5" x2="12" y2="15" gradientUnits="userSpaceOnUse">
<stop stop-color="#D3D3D3"/>
<stop offset="1" stop-color="#A4A4A4"/>
</linearGradient>
<linearGradient id="paint5_linear_446_7336" x1="4.5" y1="1.5" x2="3.41003" y2="5.08131" gradientUnits="userSpaceOnUse">
<stop stop-color="#F2CF6A"/>
<stop offset="0.485" stop-color="#FAECBF"/>
<stop offset="1" stop-color="#F3D485"/>
</linearGradient>
<linearGradient id="paint6_linear_446_7336" x1="1.5" y1="1.5" x2="3.75" y2="3.75" gradientUnits="userSpaceOnUse">
<stop offset="0.200121" stop-color="#F4D584"/>
<stop offset="0.501802" stop-color="#F6C22E"/>
<stop offset="1" stop-color="#DEA92F"/>
</linearGradient>
<linearGradient id="paint7_linear_446_7336" x1="11.5" y1="1.5" x2="12.59" y2="5.08131" gradientUnits="userSpaceOnUse">
<stop stop-color="#F3D374"/>
<stop offset="0.515" stop-color="#FAECBF"/>
<stop offset="1" stop-color="#F3D485"/>
</linearGradient>
<linearGradient id="paint8_linear_446_7336" x1="12.5" y1="0.5" x2="13.5" y2="5" gradientUnits="userSpaceOnUse">
<stop stop-color="#F6C22E"/>
<stop offset="1" stop-color="#DEA92F"/>
</linearGradient>
<linearGradient id="paint9_linear_446_7336" x1="14.5714" y1="14.7143" x2="8.17837" y2="7.61089" gradientUnits="userSpaceOnUse">
<stop stop-color="#247C10"/>
<stop offset="1" stop-color="#6FA53D"/>
</linearGradient>
<clipPath id="clip0_446_7336">
<rect width="16" height="16" fill="white"/>
</clipPath>
</defs>
</svg>
