<svg width="16" height="16" viewBox="0 0 16 16" fill="none" xmlns="http://www.w3.org/2000/svg">
<g clip-path="url(#clip0_188_3178)">
<mask id="path-1-outside-1_188_3178" maskUnits="userSpaceOnUse" x="5" y="0" width="11" height="14" fill="black">
<rect fill="white" x="5" width="11" height="14"/>
<path fill-rule="evenodd" clip-rule="evenodd" d="M9 1L6 4V11L9 13H15V1H9Z"/>
</mask>
<path d="M6 4L5.29289 3.29289C5.10536 3.48043 5 3.73478 5 4H6ZM9 1V0C8.73478 0 8.48043 0.105357 8.29289 0.292893L9 1ZM6 11H5C5 11.3344 5.1671 11.6466 5.4453 11.8321L6 11ZM9 13L8.4453 13.8321C8.60957 13.9416 8.80258 14 9 14V13ZM15 13V14C15.5523 14 16 13.5523 16 13H15ZM15 1H16C16 0.447715 15.5523 0 15 0V1ZM6.70711 4.70711L9.70711 1.70711L8.29289 0.292893L5.29289 3.29289L6.70711 4.70711ZM7 11V4H5V11H7ZM9.5547 12.1679L6.5547 10.1679L5.4453 11.8321L8.4453 13.8321L9.5547 12.1679ZM15 12H9V14H15V12ZM14 1V13H16V1H14ZM9 2H15V0H9V2Z" fill="url(#paint0_linear_188_3178)" mask="url(#path-1-outside-1_188_3178)"/>
<path d="M6 4L9 1V13L6 11V4Z" fill="url(#paint1_linear_188_3178)"/>
<rect x="9" y="1" width="6" height="12" fill="url(#paint2_linear_188_3178)"/>
<mask id="path-5-inside-2_188_3178" fill="white">
<path fill-rule="evenodd" clip-rule="evenodd" d="M9 1L6 4V11L9 13H15V1H9Z"/>
</mask>
<path d="M6 4L5.29289 3.29289C5.10536 3.48043 5 3.73478 5 4H6ZM9 1V0C8.73478 0 8.48043 0.105357 8.29289 0.292893L9 1ZM6 11H5C5 11.3344 5.1671 11.6466 5.4453 11.8321L6 11ZM9 13L8.4453 13.8321C8.60957 13.9416 8.80258 14 9 14V13ZM15 13V14C15.5523 14 16 13.5523 16 13H15ZM15 1H16C16 0.447715 15.5523 0 15 0V1ZM6.70711 4.70711L9.70711 1.70711L8.29289 0.292893L5.29289 3.29289L6.70711 4.70711ZM7 11V4H5V11H7ZM9.5547 12.1679L6.5547 10.1679L5.4453 11.8321L8.4453 13.8321L9.5547 12.1679ZM15 12H9V14H15V12ZM14 1V13H16V1H14ZM9 2H15V0H9V2Z" fill="white" style="mix-blend-mode:soft-light" mask="url(#path-5-inside-2_188_3178)"/>
<rect x="10" y="3" width="4" height="1" rx="0.5" fill="black" fill-opacity="0.33"/>
<rect x="10" y="5" width="4" height="1" rx="0.5" fill="black" fill-opacity="0.33"/>
<circle cx="13" cy="8" r="1" fill="url(#paint3_linear_188_3178)"/>
<path d="M7.5 11H4.5C4.5 12.6667 4.5 13.5 3 14.3333V16H9L9 14.3333C7.5 13.5 7.5 12.6667 7.5 11Z" fill="url(#paint4_linear_188_3178)"/>
<path d="M7.00293 11.5C7.00916 12.1057 7.04076 12.6593 7.2168 13.1484C7.43136 13.7445 7.83715 14.203 8.5 14.6172V15.5H3.5V14.6172C4.16285 14.203 4.56864 13.7445 4.7832 13.1484C4.95924 12.6593 4.99084 12.1057 4.99707 11.5H7.00293Z" stroke="black" stroke-opacity="0.33"/>
<rect x="0.5" y="3.5" width="11" height="9" rx="0.5" fill="url(#paint5_linear_188_3178)" stroke="url(#paint6_linear_188_3178)" stroke-linejoin="round"/>
<rect x="2" y="5" width="8" height="6" fill="#6EA4DC"/>
<rect x="2" y="5" width="8" height="6" fill="url(#paint7_linear_188_3178)"/>
<rect x="2" y="5" width="8" height="6" fill="url(#paint8_linear_188_3178)"/>
<rect x="2.5" y="5.5" width="7" height="5" stroke="black" stroke-opacity="0.33" style="mix-blend-mode:overlay" stroke-linejoin="round"/>
<mask id="path-15-inside-3_188_3178" fill="white">
<path d="M10 9H6V14H10V16H11L16 11.5L11 7H10V9Z"/>
</mask>
<g filter="url(#filter0_i_188_3178)">
<path d="M10 9H6V14H10V16H11L16 11.5L11 7H10V9Z" fill="#80B361"/>
</g>
<path d="M6 9V8H5V9H6ZM10 9V10C10.5523 10 11 9.55228 11 9H10ZM10 7V6H9V7H10ZM11 7L11.669 6.25671L11.3837 6H11V7ZM16 11.5L16.669 12.2433L17.4948 11.5L16.669 10.7567L16 11.5ZM11 16V17H11.3837L11.669 16.7433L11 16ZM10 16H9V17H10V16ZM10 14H11C11 13.4477 10.5523 13 10 13V14ZM6 14H5V15H6V14ZM6 9V10H10V9V8H6V9ZM10 9H11V7H10H9V9H10ZM10 7V8H11V7V6H10V7ZM11 7L10.331 7.74329L15.331 12.2433L16 11.5L16.669 10.7567L11.669 6.25671L11 7ZM16 11.5L15.331 10.7567L10.331 15.2567L11 16L11.669 16.7433L16.669 12.2433L16 11.5ZM11 16V15H10V16V17H11V16ZM10 16H11V14H10H9V16H10ZM10 14V13H6V14V15H10V14ZM6 14H7V9H6H5V14H6Z" fill="url(#paint9_linear_188_3178)" mask="url(#path-15-inside-3_188_3178)"/>
<path d="M13.752 11.4996L11.4404 13.5826C11.2619 12.9642 10.6972 12.4996 10.0049 12.4996H7.5V10.4996H10C10.7153 10.4996 11.2655 10.0249 11.4404 9.41565L13.752 11.4996Z" stroke="white" stroke-opacity="0.2"/>
</g>
<defs>
<filter id="filter0_i_188_3178" x="6" y="7" width="12" height="11" filterUnits="userSpaceOnUse" color-interpolation-filters="sRGB">
<feFlood flood-opacity="0" result="BackgroundImageFix"/>
<feBlend mode="normal" in="SourceGraphic" in2="BackgroundImageFix" result="shape"/>
<feColorMatrix in="SourceAlpha" type="matrix" values="0 0 0 0 0 0 0 0 0 0 0 0 0 0 0 0 0 0 127 0" result="hardAlpha"/>
<feOffset dx="2" dy="2"/>
<feGaussianBlur stdDeviation="1"/>
<feComposite in2="hardAlpha" operator="arithmetic" k2="-1" k3="1"/>
<feColorMatrix type="matrix" values="0 0 0 0 1 0 0 0 0 1 0 0 0 0 1 0 0 0 0.25 0"/>
<feBlend mode="normal" in2="shape" result="effect1_innerShadow_188_3178"/>
</filter>
<linearGradient id="paint0_linear_188_3178" x1="9" y1="1" x2="15" y2="13" gradientUnits="userSpaceOnUse">
<stop stop-color="#CACACA"/>
<stop offset="1" stop-color="#636363"/>
</linearGradient>
<linearGradient id="paint1_linear_188_3178" x1="6" y1="2" x2="9" y2="11.5" gradientUnits="userSpaceOnUse">
<stop stop-color="#E1E1E1"/>
<stop offset="1" stop-color="#D2D2D4"/>
</linearGradient>
<linearGradient id="paint2_linear_188_3178" x1="12" y1="1" x2="12" y2="13" gradientUnits="userSpaceOnUse">
<stop stop-color="#C9CACF"/>
<stop offset="1" stop-color="#AEAFB7"/>
</linearGradient>
<linearGradient id="paint3_linear_188_3178" x1="12" y1="7" x2="14" y2="9" gradientUnits="userSpaceOnUse">
<stop stop-color="#A4C8A0"/>
<stop offset="1" stop-color="#42A13B"/>
</linearGradient>
<linearGradient id="paint4_linear_188_3178" x1="6" y1="11" x2="6" y2="16" gradientUnits="userSpaceOnUse">
<stop stop-color="#B5B7BC"/>
<stop offset="1" stop-color="#F1F1F2"/>
</linearGradient>
<linearGradient id="paint5_linear_188_3178" x1="0" y1="3" x2="12.531" y2="12.2832" gradientUnits="userSpaceOnUse">
<stop stop-color="#F0F0F2"/>
<stop offset="1" stop-color="#B2B3BB"/>
</linearGradient>
<linearGradient id="paint6_linear_188_3178" x1="0" y1="3" x2="12" y2="13" gradientUnits="userSpaceOnUse">
<stop stop-color="#CBCBCB"/>
<stop offset="1" stop-color="#636363"/>
</linearGradient>
<linearGradient id="paint7_linear_188_3178" x1="9.33333" y1="5" x2="2.66667" y2="11" gradientUnits="userSpaceOnUse">
<stop stop-color="white" stop-opacity="0.2"/>
<stop offset="0.494495" stop-color="white" stop-opacity="0.66"/>
<stop offset="0.5" stop-color="white" stop-opacity="0.33"/>
<stop offset="1" stop-color="white" stop-opacity="0"/>
</linearGradient>
<linearGradient id="paint8_linear_188_3178" x1="10" y1="8" x2="2" y2="8" gradientUnits="userSpaceOnUse">
<stop offset="0.205" stop-color="#96BDF1"/>
<stop offset="1" stop-color="#90BDF6" stop-opacity="0"/>
</linearGradient>
<linearGradient id="paint9_linear_188_3178" x1="14.5714" y1="14.7143" x2="8.17837" y2="7.61089" gradientUnits="userSpaceOnUse">
<stop stop-color="#247C10"/>
<stop offset="1" stop-color="#6FA53D"/>
</linearGradient>
<clipPath id="clip0_188_3178">
<rect width="16" height="16" fill="white"/>
</clipPath>
</defs>
</svg>
