<svg width="16" height="16" viewBox="0 0 16 16" fill="none" xmlns="http://www.w3.org/2000/svg">
<g clip-path="url(#clip0_99_12589)">
<g filter="url(#filter0_i_99_12589)">
<circle cx="8" cy="8" r="7" fill="#353535"/>
</g>
<circle cx="8" cy="8" r="6.5" stroke="url(#paint0_linear_99_12589)"/>
<mask id="mask0_99_12589" style="mask-type:alpha" maskUnits="userSpaceOnUse" x="0" y="0" width="16" height="16">
<path d="M16 0H0V16L16 0Z" fill="#D9D9D9"/>
</mask>
<g mask="url(#mask0_99_12589)">
<g filter="url(#filter1_i_99_12589)">
<circle cx="8" cy="8" r="7" fill="#E9E9E9"/>
</g>
<circle cx="8" cy="8" r="6.5" stroke="url(#paint1_linear_99_12589)"/>
</g>
<circle cx="8" cy="8" r="5.5" stroke="white" stroke-opacity="0.66" style="mix-blend-mode:soft-light"/>
<mask id="path-7-inside-1_99_12589" fill="white">
<path d="M14 12V9H10V12H8L12 16L16 12H14Z"/>
</mask>
<g filter="url(#filter2_i_99_12589)">
<path d="M14 12V9H10V12H8L12 16L16 12H14Z" fill="#82C27C"/>
</g>
<path d="M14 9H15L15 8H14V9ZM14 12H13C13 12.5523 13.4477 13 14 13V12ZM16 12L16.7071 12.7071L18.4142 11H16V12ZM12 16L11.2929 16.7071L12 17.4142L12.7071 16.7071L12 16ZM8 12V11H5.58579L7.29289 12.7071L8 12ZM10 12V13C10.5523 13 11 12.5523 11 12H10ZM10 9V8H9V9H10ZM14 9H13V12H14H15V9H14ZM14 12V13H16V12V11H14V12ZM16 12L15.2929 11.2929L11.2929 15.2929L12 16L12.7071 16.7071L16.7071 12.7071L16 12ZM12 16L12.7071 15.2929L8.70711 11.2929L8 12L7.29289 12.7071L11.2929 16.7071L12 16ZM8 12V13H10V12V11H8V12ZM10 12H11V9H10H9V12H10ZM10 9V10H14V9V8H10V9Z" fill="url(#paint2_linear_99_12589)" mask="url(#path-7-inside-1_99_12589)"/>
</g>
<defs>
<filter id="filter0_i_99_12589" x="1" y="1" width="16" height="16" filterUnits="userSpaceOnUse" color-interpolation-filters="sRGB">
<feFlood flood-opacity="0" result="BackgroundImageFix"/>
<feBlend mode="normal" in="SourceGraphic" in2="BackgroundImageFix" result="shape"/>
<feColorMatrix in="SourceAlpha" type="matrix" values="0 0 0 0 0 0 0 0 0 0 0 0 0 0 0 0 0 0 127 0" result="hardAlpha"/>
<feOffset dx="2" dy="2"/>
<feGaussianBlur stdDeviation="4"/>
<feComposite in2="hardAlpha" operator="arithmetic" k2="-1" k3="1"/>
<feColorMatrix type="matrix" values="0 0 0 0 1 0 0 0 0 1 0 0 0 0 1 0 0 0 0.33 0"/>
<feBlend mode="normal" in2="shape" result="effect1_innerShadow_99_12589"/>
</filter>
<filter id="filter1_i_99_12589" x="1" y="1" width="16" height="16" filterUnits="userSpaceOnUse" color-interpolation-filters="sRGB">
<feFlood flood-opacity="0" result="BackgroundImageFix"/>
<feBlend mode="normal" in="SourceGraphic" in2="BackgroundImageFix" result="shape"/>
<feColorMatrix in="SourceAlpha" type="matrix" values="0 0 0 0 0 0 0 0 0 0 0 0 0 0 0 0 0 0 127 0" result="hardAlpha"/>
<feOffset dx="2" dy="2"/>
<feGaussianBlur stdDeviation="4"/>
<feComposite in2="hardAlpha" operator="arithmetic" k2="-1" k3="1"/>
<feColorMatrix type="matrix" values="0 0 0 0 1 0 0 0 0 1 0 0 0 0 1 0 0 0 0.66 0"/>
<feBlend mode="normal" in2="shape" result="effect1_innerShadow_99_12589"/>
</filter>
<filter id="filter2_i_99_12589" x="8" y="9" width="9" height="8" filterUnits="userSpaceOnUse" color-interpolation-filters="sRGB">
<feFlood flood-opacity="0" result="BackgroundImageFix"/>
<feBlend mode="normal" in="SourceGraphic" in2="BackgroundImageFix" result="shape"/>
<feColorMatrix in="SourceAlpha" type="matrix" values="0 0 0 0 0 0 0 0 0 0 0 0 0 0 0 0 0 0 127 0" result="hardAlpha"/>
<feOffset dx="1" dy="1"/>
<feGaussianBlur stdDeviation="1"/>
<feComposite in2="hardAlpha" operator="arithmetic" k2="-1" k3="1"/>
<feColorMatrix type="matrix" values="0 0 0 0 0.71381 0 0 0 0 0.864312 0 0 0 0 0.687251 0 0 0 1 0"/>
<feBlend mode="normal" in2="shape" result="effect1_innerShadow_99_12589"/>
</filter>
<linearGradient id="paint0_linear_99_12589" x1="13" y1="13" x2="3" y2="3" gradientUnits="userSpaceOnUse">
<stop stop-color="#343434"/>
<stop offset="1" stop-color="#626262"/>
</linearGradient>
<linearGradient id="paint1_linear_99_12589" x1="13" y1="13" x2="3" y2="3" gradientUnits="userSpaceOnUse">
<stop stop-color="#9F9F9F"/>
<stop offset="1" stop-color="#B3B3B3"/>
</linearGradient>
<linearGradient id="paint2_linear_99_12589" x1="9.14286" y1="10" x2="14.0986" y2="15.6637" gradientUnits="userSpaceOnUse">
<stop stop-color="#80C178"/>
<stop offset="1" stop-color="#2A6B26"/>
</linearGradient>
<clipPath id="clip0_99_12589">
<rect width="16" height="16" fill="white"/>
</clipPath>
</defs>
</svg>
