<svg width="16" height="16" viewBox="0 0 16 16" fill="none" xmlns="http://www.w3.org/2000/svg">
<g clip-path="url(#clip0_99_12587)">
<g filter="url(#filter0_i_99_12587)">
<circle cx="8" cy="8" r="7" fill="#353535"/>
</g>
<circle cx="8" cy="8" r="6.5" stroke="url(#paint0_linear_99_12587)"/>
<mask id="mask0_99_12587" style="mask-type:alpha" maskUnits="userSpaceOnUse" x="0" y="0" width="16" height="16">
<path d="M16 0H0V16L16 0Z" fill="#D9D9D9"/>
</mask>
<g mask="url(#mask0_99_12587)">
<g filter="url(#filter1_i_99_12587)">
<circle cx="8" cy="8" r="7" fill="#E9E9E9"/>
</g>
<circle cx="8" cy="8" r="6.5" stroke="url(#paint1_linear_99_12587)"/>
</g>
<circle cx="8" cy="8" r="5.5" stroke="white" stroke-opacity="0.66" style="mix-blend-mode:soft-light"/>
<mask id="path-7-inside-1_99_12587" fill="white">
<path d="M10 13V16H14V13H16L12 9L8 13H10Z"/>
</mask>
<g filter="url(#filter2_i_99_12587)">
<path d="M10 13V16H14V13H16L12 9L8 13H10Z" fill="#82C27C"/>
</g>
<path d="M10 16H9V17H10V16ZM10 13H11C11 12.4477 10.5523 12 10 12V13ZM8 13L7.29289 12.2929L5.58579 14H8V13ZM12 9L12.7071 8.29289L12 7.58579L11.2929 8.29289L12 9ZM16 13V14H18.4142L16.7071 12.2929L16 13ZM14 13V12C13.4477 12 13 12.4477 13 13H14ZM14 16V17H15V16H14ZM10 16H11V13H10H9V16H10ZM10 13V12H8V13V14H10V13ZM8 13L8.70711 13.7071L12.7071 9.70711L12 9L11.2929 8.29289L7.29289 12.2929L8 13ZM12 9L11.2929 9.70711L15.2929 13.7071L16 13L16.7071 12.2929L12.7071 8.29289L12 9ZM16 13V12H14V13V14H16V13ZM14 13H13V16H14H15V13H14ZM14 16V15H10V16V17H14V16Z" fill="url(#paint2_linear_99_12587)" mask="url(#path-7-inside-1_99_12587)"/>
</g>
<defs>
<filter id="filter0_i_99_12587" x="1" y="1" width="16" height="16" filterUnits="userSpaceOnUse" color-interpolation-filters="sRGB">
<feFlood flood-opacity="0" result="BackgroundImageFix"/>
<feBlend mode="normal" in="SourceGraphic" in2="BackgroundImageFix" result="shape"/>
<feColorMatrix in="SourceAlpha" type="matrix" values="0 0 0 0 0 0 0 0 0 0 0 0 0 0 0 0 0 0 127 0" result="hardAlpha"/>
<feOffset dx="2" dy="2"/>
<feGaussianBlur stdDeviation="4"/>
<feComposite in2="hardAlpha" operator="arithmetic" k2="-1" k3="1"/>
<feColorMatrix type="matrix" values="0 0 0 0 1 0 0 0 0 1 0 0 0 0 1 0 0 0 0.33 0"/>
<feBlend mode="normal" in2="shape" result="effect1_innerShadow_99_12587"/>
</filter>
<filter id="filter1_i_99_12587" x="1" y="1" width="16" height="16" filterUnits="userSpaceOnUse" color-interpolation-filters="sRGB">
<feFlood flood-opacity="0" result="BackgroundImageFix"/>
<feBlend mode="normal" in="SourceGraphic" in2="BackgroundImageFix" result="shape"/>
<feColorMatrix in="SourceAlpha" type="matrix" values="0 0 0 0 0 0 0 0 0 0 0 0 0 0 0 0 0 0 127 0" result="hardAlpha"/>
<feOffset dx="2" dy="2"/>
<feGaussianBlur stdDeviation="4"/>
<feComposite in2="hardAlpha" operator="arithmetic" k2="-1" k3="1"/>
<feColorMatrix type="matrix" values="0 0 0 0 1 0 0 0 0 1 0 0 0 0 1 0 0 0 0.66 0"/>
<feBlend mode="normal" in2="shape" result="effect1_innerShadow_99_12587"/>
</filter>
<filter id="filter2_i_99_12587" x="8" y="9" width="9" height="8" filterUnits="userSpaceOnUse" color-interpolation-filters="sRGB">
<feFlood flood-opacity="0" result="BackgroundImageFix"/>
<feBlend mode="normal" in="SourceGraphic" in2="BackgroundImageFix" result="shape"/>
<feColorMatrix in="SourceAlpha" type="matrix" values="0 0 0 0 0 0 0 0 0 0 0 0 0 0 0 0 0 0 127 0" result="hardAlpha"/>
<feOffset dx="1" dy="1"/>
<feGaussianBlur stdDeviation="1"/>
<feComposite in2="hardAlpha" operator="arithmetic" k2="-1" k3="1"/>
<feColorMatrix type="matrix" values="0 0 0 0 0.71381 0 0 0 0 0.864312 0 0 0 0 0.687251 0 0 0 1 0"/>
<feBlend mode="normal" in2="shape" result="effect1_innerShadow_99_12587"/>
</filter>
<linearGradient id="paint0_linear_99_12587" x1="13" y1="13" x2="3" y2="3" gradientUnits="userSpaceOnUse">
<stop stop-color="#343434"/>
<stop offset="1" stop-color="#626262"/>
</linearGradient>
<linearGradient id="paint1_linear_99_12587" x1="13" y1="13" x2="3" y2="3" gradientUnits="userSpaceOnUse">
<stop stop-color="#9F9F9F"/>
<stop offset="1" stop-color="#B3B3B3"/>
</linearGradient>
<linearGradient id="paint2_linear_99_12587" x1="14.8571" y1="15" x2="9.90139" y2="9.33628" gradientUnits="userSpaceOnUse">
<stop stop-color="#2A6B26"/>
<stop offset="1" stop-color="#80C178"/>
</linearGradient>
<clipPath id="clip0_99_12587">
<rect width="16" height="16" fill="white"/>
</clipPath>
</defs>
</svg>
