<svg width="16" height="16" viewBox="0 0 16 16" fill="none" xmlns="http://www.w3.org/2000/svg">
<g clip-path="url(#clip0_393_6300)">
<path d="M8 2.5C9.97479 2.5 11.7845 2.78543 13.1182 3.26172C13.7826 3.49903 14.3559 3.79283 14.7725 4.14453C15.1868 4.49439 15.5 4.95057 15.5 5.5C15.5 7.45783 15.2502 9.69761 14.1768 11.46C13.0758 13.2673 11.1538 14.5 8 14.5C4.84616 14.5 2.92418 13.2673 1.82324 11.46C0.749781 9.69761 0.5 7.45783 0.5 5.5C0.5 4.95057 0.813196 4.49439 1.22754 4.14453C1.64412 3.79283 2.21744 3.49903 2.88184 3.26172C4.21546 2.78543 6.02521 2.5 8 2.5Z" fill="url(#paint0_linear_393_6300)" stroke="url(#paint1_linear_393_6300)"/>
<path d="M8 3.5C9.89105 3.5 11.5814 3.77465 12.7812 4.20312C13.3833 4.41815 13.8352 4.66283 14.127 4.90918C14.421 5.15751 14.5 5.35908 14.5 5.5C14.5 7.40806 14.2497 9.41834 13.3232 10.9395C12.4242 12.4155 10.846 13.5 8 13.5C5.15395 13.5 3.57584 12.4155 2.67676 10.9395C1.75035 9.41834 1.5 7.40806 1.5 5.5C1.5 5.35908 1.57895 5.15751 1.87305 4.90918C2.16483 4.66283 2.61669 4.41815 3.21875 4.20312C4.41861 3.77465 6.10895 3.5 8 3.5Z" stroke="white" stroke-opacity="0.66"/>
<path d="M2.71372 10.2175C2.71372 9.32624 3.49721 9.02464 3.8562 8.43498C4.21519 7.84532 3.8562 7.26671 3.28496 7.09808C2.71372 6.92945 2.14248 6.92068 1.57124 7.5437C1 8.16672 1 8.81443 1 9.32621C1 11 2 12 2.71372 12C3.11935 12 3.28496 11.7726 3.28496 11.5C3.28496 11.2274 2.71372 11 2.71372 10.2175Z" fill="white"/>
<path d="M2.33398 6.5332C2.73031 6.45743 3.10433 6.52298 3.42676 6.61816C3.82888 6.7369 4.18356 7.00848 4.36914 7.39062C4.56253 7.7891 4.54744 8.26128 4.2832 8.69531C4.16296 8.89274 4.01421 9.05482 3.88184 9.18848C3.73243 9.33931 3.63311 9.42771 3.51758 9.55273C3.32003 9.76653 3.21387 9.94881 3.21387 10.2178C3.21393 10.4661 3.29751 10.6147 3.39844 10.748C3.42658 10.7852 3.45551 10.8206 3.48926 10.8613C3.52016 10.8986 3.56056 10.9476 3.59668 10.9961C3.65956 11.0805 3.78516 11.2589 3.78516 11.5C3.78516 11.736 3.71181 12.0017 3.50293 12.208C3.29294 12.4153 3.00943 12.5 2.71387 12.5C2.13975 12.5 1.5796 12.1186 1.1875 11.5879C0.78082 11.0373 0.5 10.2632 0.5 9.32617C0.5 8.80725 0.491993 7.98165 1.20312 7.20605C1.5497 6.82809 1.9271 6.61106 2.33398 6.5332Z" stroke="url(#paint2_linear_393_6300)"/>
<path d="M8 3.5C9.89105 3.5 11.5814 3.77465 12.7812 4.20312C13.3833 4.41815 13.8352 4.66283 14.127 4.90918C14.421 5.15751 14.5 5.35908 14.5 5.5C14.5 5.64092 14.421 5.84249 14.127 6.09082C13.8352 6.33717 13.3833 6.58185 12.7812 6.79688C11.5814 7.22535 9.89105 7.5 8 7.5C6.10895 7.5 4.41861 7.22535 3.21875 6.79688C2.61669 6.58185 2.16483 6.33717 1.87305 6.09082C1.57895 5.84249 1.5 5.64092 1.5 5.5C1.5 5.35908 1.57895 5.15751 1.87305 4.90918C2.16483 4.66283 2.61669 4.41815 3.21875 4.20312C4.41861 3.77465 6.10895 3.5 8 3.5Z" fill="url(#paint3_linear_393_6300)" stroke="url(#paint4_linear_393_6300)"/>
<ellipse cx="8" cy="5.5" rx="5" ry="1.5" fill="#8F5035"/>
<mask id="path-7-inside-1_393_6300" fill="white">
<path d="M10 9H6V14H10V16H11L16 11.5L11 7H10V9Z"/>
</mask>
<g filter="url(#filter0_i_393_6300)">
<path d="M10 9H6V14H10V16H11L16 11.5L11 7H10V9Z" fill="#80B361"/>
</g>
<path d="M6 9V8H5V9H6ZM10 9V10C10.5523 10 11 9.55228 11 9H10ZM10 7V6H9V7H10ZM11 7L11.669 6.25671L11.3837 6H11V7ZM16 11.5L16.669 12.2433L17.4948 11.5L16.669 10.7567L16 11.5ZM11 16V17H11.3837L11.669 16.7433L11 16ZM10 16H9V17H10V16ZM10 14H11C11 13.4477 10.5523 13 10 13V14ZM6 14H5V15H6V14ZM6 9V10H10V9V8H6V9ZM10 9H11V7H10H9V9H10ZM10 7V8H11V7V6H10V7ZM11 7L10.331 7.74329L15.331 12.2433L16 11.5L16.669 10.7567L11.669 6.25671L11 7ZM16 11.5L15.331 10.7567L10.331 15.2567L11 16L11.669 16.7433L16.669 12.2433L16 11.5ZM11 16V15H10V16V17H11V16ZM10 16H11V14H10H9V16H10ZM10 14V13H6V14V15H10V14ZM6 14H7V9H6H5V14H6Z" fill="url(#paint5_linear_393_6300)" mask="url(#path-7-inside-1_393_6300)"/>
<path d="M13.752 11.4996L11.4404 13.5826C11.2619 12.9642 10.6972 12.4996 10.0049 12.4996H7.5V10.4996H10C10.7153 10.4996 11.2655 10.0249 11.4404 9.41565L13.752 11.4996Z" stroke="white" stroke-opacity="0.2"/>
</g>
<defs>
<filter id="filter0_i_393_6300" x="6" y="7" width="12" height="11" filterUnits="userSpaceOnUse" color-interpolation-filters="sRGB">
<feFlood flood-opacity="0" result="BackgroundImageFix"/>
<feBlend mode="normal" in="SourceGraphic" in2="BackgroundImageFix" result="shape"/>
<feColorMatrix in="SourceAlpha" type="matrix" values="0 0 0 0 0 0 0 0 0 0 0 0 0 0 0 0 0 0 127 0" result="hardAlpha"/>
<feOffset dx="2" dy="2"/>
<feGaussianBlur stdDeviation="1"/>
<feComposite in2="hardAlpha" operator="arithmetic" k2="-1" k3="1"/>
<feColorMatrix type="matrix" values="0 0 0 0 1 0 0 0 0 1 0 0 0 0 1 0 0 0 0.25 0"/>
<feBlend mode="normal" in2="shape" result="effect1_innerShadow_393_6300"/>
</filter>
<linearGradient id="paint0_linear_393_6300" x1="1.8776" y1="14.5572" x2="10.7054" y2="6.24614" gradientUnits="userSpaceOnUse">
<stop offset="0.308746" stop-color="#E5E5E5"/>
<stop offset="1" stop-color="#C4C4C4"/>
</linearGradient>
<linearGradient id="paint1_linear_393_6300" x1="2.46475" y1="3" x2="13.5352" y2="14" gradientUnits="userSpaceOnUse">
<stop stop-color="#D9D9D9"/>
<stop offset="1" stop-color="#B3B3B3"/>
</linearGradient>
<linearGradient id="paint2_linear_393_6300" x1="1" y1="9.5" x2="5" y2="9.5" gradientUnits="userSpaceOnUse">
<stop stop-color="#A4A4A4"/>
<stop offset="0.515625" stop-color="#C4C4C4" stop-opacity="0.996078"/>
<stop offset="1" stop-color="#C4C4C4" stop-opacity="0"/>
</linearGradient>
<linearGradient id="paint3_linear_393_6300" x1="8" y1="3" x2="8" y2="8" gradientUnits="userSpaceOnUse">
<stop stop-color="#F6F6F6"/>
<stop offset="1" stop-color="#A8A8A8"/>
</linearGradient>
<linearGradient id="paint4_linear_393_6300" x1="1" y1="5.50174" x2="15" y2="5.49826" gradientUnits="userSpaceOnUse">
<stop stop-color="white"/>
<stop offset="1" stop-color="#F0F0F0"/>
</linearGradient>
<linearGradient id="paint5_linear_393_6300" x1="14.5714" y1="14.7143" x2="8.17837" y2="7.61089" gradientUnits="userSpaceOnUse">
<stop stop-color="#247C10"/>
<stop offset="1" stop-color="#6FA53D"/>
</linearGradient>
<clipPath id="clip0_393_6300">
<rect width="16" height="16" fill="white"/>
</clipPath>
</defs>
</svg>
