<svg width="16" height="16" viewBox="0 0 16 16" fill="none" xmlns="http://www.w3.org/2000/svg">
<g clip-path="url(#clip0_99_13564)">
<mask id="path-1-inside-1_99_13564" fill="white">
<path fill-rule="evenodd" clip-rule="evenodd" d="M12 3V11C12 12.6569 9.31371 14 6 14C2.68629 14 0 12.6569 0 11V3C0 1.34315 2.68629 0 6 0C9.31371 0 12 1.34315 12 3Z"/>
</mask>
<path fill-rule="evenodd" clip-rule="evenodd" d="M12 3V11C12 12.6569 9.31371 14 6 14C2.68629 14 0 12.6569 0 11V3C0 1.34315 2.68629 0 6 0C9.31371 0 12 1.34315 12 3Z" fill="url(#paint0_linear_99_13564)"/>
<path d="M11 3V11H13V3H11ZM6 15C7.77844 15 9.43795 14.6417 10.6899 14.0157C11.8819 13.4197 13 12.4113 13 11H11C11 11.2456 10.7749 11.7372 9.79543 12.2269C8.87576 12.6867 7.53527 13 6 13V15ZM-1 11C-1 12.4113 0.118055 13.4197 1.31015 14.0157C2.56205 14.6417 4.22156 15 6 15V13C4.46473 13 3.12424 12.6867 2.20457 12.2269C1.22509 11.7372 1 11.2456 1 11H-1ZM1 11V3H-1V11H1ZM6 -1C4.22156 -1 2.56205 -0.6417 1.31015 -0.0157475C0.118055 0.580298 -1 1.58874 -1 3H1C1 2.7544 1.22509 2.26285 2.20457 1.77311C3.12424 1.31327 4.46473 1 6 1V-1ZM13 3C13 1.58874 11.8819 0.580298 10.6899 -0.0157475C9.43795 -0.6417 7.77844 -1 6 -1V1C7.53527 1 8.87576 1.31327 9.79543 1.77311C10.7749 2.26285 11 2.7544 11 3H13Z" fill="url(#paint1_linear_99_13564)" fill-opacity="0.5" mask="url(#path-1-inside-1_99_13564)"/>
<g filter="url(#filter0_d_99_13564)">
<ellipse cx="6" cy="3" rx="5" ry="2" fill="white"/>
</g>
<mask id="path-4-inside-2_99_13564" fill="white">
<path fill-rule="evenodd" clip-rule="evenodd" d="M11 3V11C11 12.1046 8.76142 13 6 13C3.23858 13 1 12.1046 1 11V3C1 1.89543 3.23858 1 6 1C8.76142 1 11 1.89543 11 3Z"/>
</mask>
<path d="M10 3V11H12V3H10ZM6 14C7.47536 14 8.8571 13.7626 9.90692 13.3427C10.4291 13.1338 10.9187 12.8601 11.2942 12.505C11.6718 12.148 12 11.6397 12 11H10C10 10.9126 10.0484 10.9305 9.91997 11.0519C9.78941 11.1754 9.54683 11.3327 9.16414 11.4857C8.40432 11.7897 7.28606 12 6 12V14ZM0 11C0 11.6397 0.328233 12.148 0.705817 12.505C1.08129 12.8601 1.57094 13.1338 2.09308 13.3427C3.1429 13.7626 4.52464 14 6 14V12C4.71394 12 3.59568 11.7897 2.83586 11.4857C2.45317 11.3327 2.21059 11.1754 2.08003 11.0519C1.95159 10.9305 2 10.9126 2 11H0ZM2 11V3H0V11H2ZM6 0C4.52464 0 3.1429 0.237381 2.09308 0.65731C1.57094 0.866164 1.08129 1.13987 0.705817 1.49495C0.328233 1.85204 0 2.36029 0 3H2C2 3.08742 1.95159 3.06954 2.08003 2.94807C2.21059 2.8246 2.45317 2.66734 2.83586 2.51426C3.59568 2.21033 4.71394 2 6 2V0ZM12 3C12 2.36029 11.6718 1.85204 11.2942 1.49495C10.9187 1.13987 10.4291 0.866164 9.90692 0.65731C8.8571 0.237381 7.47536 0 6 0V2C7.28606 2 8.40432 2.21033 9.16414 2.51426C9.54683 2.66734 9.78941 2.8246 9.91997 2.94807C10.0484 3.06954 10 3.08742 10 3H12Z" fill="url(#paint2_linear_99_13564)" mask="url(#path-4-inside-2_99_13564)"/>
<mask id="path-6-inside-3_99_13564" fill="white">
<path d="M11 2L11 4L9 4C6.79086 4 5 5.79086 5 8L8 8C8 7.44772 8.44772 7 9 7L11 7L11 9L15 5.5L11 2Z"/>
</mask>
<g filter="url(#filter1_i_99_13564)">
<path d="M11 2L11 4L9 4C6.79086 4 5 5.79086 5 8L8 8C8 7.44772 8.44772 7 9 7L11 7L11 9L15 5.5L11 2Z" fill="#82C27C"/>
</g>
<path d="M11 4L11 5C11.5523 5 12 4.55228 12 4L11 4ZM11 2L11.6585 1.24742L10 -0.203768L10 2L11 2ZM15 5.5L15.6585 6.25258L16.5186 5.5L15.6585 4.74742L15 5.5ZM11 9L10 9L10 11.2038L11.6585 9.75258L11 9ZM11 7L12 7C12 6.73478 11.8946 6.48043 11.7071 6.29289C11.5196 6.10536 11.2652 6 11 6L11 7ZM9 7L9 8L9 8L9 7ZM9 4L9 5V5L9 4ZM5 8L4 8L4 9L5 9L5 8ZM8 8L8 9L9 9L9 8L8 8ZM11 4L12 4L12 2L11 2L10 2L10 4L11 4ZM11 2L10.3415 2.75258L14.3415 6.25258L15 5.5L15.6585 4.74742L11.6585 1.24742L11 2ZM15 5.5L14.3415 4.74742L10.3415 8.24742L11 9L11.6585 9.75258L15.6585 6.25258L15 5.5ZM11 9L12 9L12 7L11 7L10 7L10 9L11 9ZM11 7L11 6L9 6L9 7L9 8L11 8L11 7ZM9 4L9 5L11 5L11 4L11 3L9 3L9 4ZM5 8L5 9L8 9L8 8L8 7L5 7L5 8ZM5 8L6 8C6 6.34315 7.34315 5 9 5L9 4L9 3C6.23858 3 4 5.23858 4 8L5 8ZM9 7L9 6C7.89543 6 7 6.89543 7 8L8 8L9 8L9 8L9 7Z" fill="url(#paint3_linear_99_13564)" mask="url(#path-6-inside-3_99_13564)"/>
<mask id="path-8-inside-4_99_13564" fill="white">
<path d="M10 16V14L12 14C14.2091 14 16 12.2091 16 10H13C13 10.5523 12.5523 11 12 11L10 11V9L6 12.5L10 16Z"/>
</mask>
<g filter="url(#filter2_i_99_13564)">
<path d="M10 16V14L12 14C14.2091 14 16 12.2091 16 10H13C13 10.5523 12.5523 11 12 11L10 11V9L6 12.5L10 16Z" fill="#82C27C"/>
</g>
<path d="M10 14L10 13C9.44772 13 9 13.4477 9 14H10ZM10 16L9.3415 16.7526L11 18.2038V16H10ZM6 12.5L5.3415 11.7474L4.48141 12.5L5.3415 13.2526L6 12.5ZM10 9H11V6.79623L9.3415 8.24742L10 9ZM10 11H9C9 11.2652 9.10536 11.5196 9.29289 11.7071C9.48043 11.8946 9.73478 12 10 12V11ZM12 11L12 10H12V11ZM12 14V13V13V14ZM16 10L17 10V9L16 9V10ZM13 10V9H12V10H13ZM10 14H9V16H10H11V14H10ZM10 16L10.6585 15.2474L6.6585 11.7474L6 12.5L5.3415 13.2526L9.3415 16.7526L10 16ZM6 12.5L6.6585 13.2526L10.6585 9.75258L10 9L9.3415 8.24742L5.3415 11.7474L6 12.5ZM10 9H9V11H10H11V9H10ZM10 11V12L12 12V11V10L10 10L10 11ZM12 14V13L10 13L10 14V15L12 15V14ZM16 10V9H13V10V11H16V10ZM16 10H15C15 11.6569 13.6569 13 12 13V14V15C14.7614 15 17 12.7614 17 10L16 10ZM12 11L12 12C13.1046 12 14 11.1046 14 10H13H12H12L12 11Z" fill="url(#paint4_linear_99_13564)" mask="url(#path-8-inside-4_99_13564)"/>
</g>
<defs>
<filter id="filter0_d_99_13564" x="1" y="1" width="10" height="5" filterUnits="userSpaceOnUse" color-interpolation-filters="sRGB">
<feFlood flood-opacity="0" result="BackgroundImageFix"/>
<feColorMatrix in="SourceAlpha" type="matrix" values="0 0 0 0 0 0 0 0 0 0 0 0 0 0 0 0 0 0 127 0" result="hardAlpha"/>
<feOffset dy="1"/>
<feComposite in2="hardAlpha" operator="out"/>
<feColorMatrix type="matrix" values="0 0 0 0 0 0 0 0 0 0 0 0 0 0 0 0 0 0 0.1 0"/>
<feBlend mode="normal" in2="BackgroundImageFix" result="effect1_dropShadow_99_13564"/>
<feBlend mode="normal" in="SourceGraphic" in2="effect1_dropShadow_99_13564" result="shape"/>
</filter>
<filter id="filter1_i_99_13564" x="5" y="2" width="11" height="8" filterUnits="userSpaceOnUse" color-interpolation-filters="sRGB">
<feFlood flood-opacity="0" result="BackgroundImageFix"/>
<feBlend mode="normal" in="SourceGraphic" in2="BackgroundImageFix" result="shape"/>
<feColorMatrix in="SourceAlpha" type="matrix" values="0 0 0 0 0 0 0 0 0 0 0 0 0 0 0 0 0 0 127 0" result="hardAlpha"/>
<feOffset dx="1" dy="1"/>
<feGaussianBlur stdDeviation="1"/>
<feComposite in2="hardAlpha" operator="arithmetic" k2="-1" k3="1"/>
<feColorMatrix type="matrix" values="0 0 0 0 0.71381 0 0 0 0 0.864312 0 0 0 0 0.687251 0 0 0 1 0"/>
<feBlend mode="normal" in2="shape" result="effect1_innerShadow_99_13564"/>
</filter>
<filter id="filter2_i_99_13564" x="6" y="9" width="11" height="8" filterUnits="userSpaceOnUse" color-interpolation-filters="sRGB">
<feFlood flood-opacity="0" result="BackgroundImageFix"/>
<feBlend mode="normal" in="SourceGraphic" in2="BackgroundImageFix" result="shape"/>
<feColorMatrix in="SourceAlpha" type="matrix" values="0 0 0 0 0 0 0 0 0 0 0 0 0 0 0 0 0 0 127 0" result="hardAlpha"/>
<feOffset dx="1" dy="1"/>
<feGaussianBlur stdDeviation="1"/>
<feComposite in2="hardAlpha" operator="arithmetic" k2="-1" k3="1"/>
<feColorMatrix type="matrix" values="0 0 0 0 0.71381 0 0 0 0 0.864312 0 0 0 0 0.687251 0 0 0 1 0"/>
<feBlend mode="normal" in2="shape" result="effect1_innerShadow_99_13564"/>
</filter>
<linearGradient id="paint0_linear_99_13564" x1="1.37549e-07" y1="6.46154" x2="12" y2="6.46154" gradientUnits="userSpaceOnUse">
<stop stop-color="#EEEEEE"/>
<stop offset="1" stop-color="#C2C2C2"/>
</linearGradient>
<linearGradient id="paint1_linear_99_13564" x1="12" y1="15" x2="1.68524" y2="-1.08096" gradientUnits="userSpaceOnUse">
<stop offset="0.0914634" stop-color="#727272"/>
<stop offset="0.917175" stop-color="#B8B8B8"/>
</linearGradient>
<linearGradient id="paint2_linear_99_13564" x1="11" y1="13" x2="1.98345" y2="0.301692" gradientUnits="userSpaceOnUse">
<stop stop-color="#E7E7E7"/>
<stop offset="0.883197" stop-color="white"/>
</linearGradient>
<linearGradient id="paint3_linear_99_13564" x1="16" y1="9" x2="9.91275" y2="2.18475" gradientUnits="userSpaceOnUse">
<stop stop-color="#2A6B26"/>
<stop offset="1" stop-color="#80C178"/>
</linearGradient>
<linearGradient id="paint4_linear_99_13564" x1="6" y1="9" x2="13.2012" y2="14.9644" gradientUnits="userSpaceOnUse">
<stop stop-color="#80C178"/>
<stop offset="1" stop-color="#2A6B26"/>
</linearGradient>
<clipPath id="clip0_99_13564">
<rect width="16" height="16" fill="white"/>
</clipPath>
</defs>
</svg>
