<svg width="16" height="16" viewBox="0 0 16 16" fill="none" xmlns="http://www.w3.org/2000/svg">
<g clip-path="url(#clip0_445_7139)">
<rect x="1.5" y="1.5" width="13" height="14" stroke="#919191" stroke-linejoin="round"/>
<rect x="1.5" y="1.5" width="13" height="13" fill="url(#paint0_linear_445_7139)" stroke="#C9C9C9" stroke-linejoin="round"/>
<mask id="path-3-outside-1_445_7139" maskUnits="userSpaceOnUse" x="1" y="1" width="14" height="5" fill="black">
<rect fill="white" x="1" y="1" width="14" height="5"/>
<path d="M2 2H14V6H2V2Z"/>
</mask>
<path d="M2 2H14V6H2V2Z" fill="#ED0202"/>
<path d="M2 2V1C1.44772 1 1 1.44772 1 2H2ZM14 2H15C15 1.44772 14.5523 1 14 1V2ZM2 3H14V1H2V3ZM13 2V6H15V2H13ZM3 6V2H1V6H3Z" fill="#CD0000" mask="url(#path-3-outside-1_445_7139)"/>
<circle cx="4.5" cy="3.5" r="1" stroke="black" stroke-opacity="0.33"/>
<mask id="path-6-inside-2_445_7139" fill="white">
<path d="M3 1.5C3 0.671573 3.67157 0 4.5 0C5.32843 0 6 0.671573 6 1.5V2.5C6 3.32843 5.32843 4 4.5 4C3.67157 4 3 3.32843 3 2.5V1.5Z"/>
</mask>
<path d="M3 1.5C3 0.671573 3.67157 0 4.5 0C5.32843 0 6 0.671573 6 1.5V2.5C6 3.32843 5.32843 4 4.5 4C3.67157 4 3 3.32843 3 2.5V1.5Z" fill="url(#paint1_linear_445_7139)"/>
<path d="M5 1.5V2.5H7V1.5H5ZM4 2.5V1.5H2V2.5H4ZM4.5 3C4.22386 3 4 2.77614 4 2.5H2C2 3.88071 3.11929 5 4.5 5V3ZM5 2.5C5 2.77614 4.77614 3 4.5 3V5C5.88071 5 7 3.88071 7 2.5H5ZM4.5 1C4.77614 1 5 1.22386 5 1.5H7C7 0.119288 5.88071 -1 4.5 -1V1ZM4.5 -1C3.11929 -1 2 0.119288 2 1.5H4C4 1.22386 4.22386 1 4.5 1V-1Z" fill="black" fill-opacity="0.2" mask="url(#path-6-inside-2_445_7139)"/>
<circle cx="11.5" cy="3.5" r="1" stroke="black" stroke-opacity="0.33"/>
<mask id="path-9-inside-3_445_7139" fill="white">
<path d="M10 1.5C10 0.671573 10.6716 0 11.5 0C12.3284 0 13 0.671573 13 1.5V2.5C13 3.32843 12.3284 4 11.5 4C10.6716 4 10 3.32843 10 2.5V1.5Z"/>
</mask>
<path d="M10 1.5C10 0.671573 10.6716 0 11.5 0C12.3284 0 13 0.671573 13 1.5V2.5C13 3.32843 12.3284 4 11.5 4C10.6716 4 10 3.32843 10 2.5V1.5Z" fill="url(#paint2_linear_445_7139)"/>
<path d="M12 1.5V2.5H14V1.5H12ZM11 2.5V1.5H9V2.5H11ZM11.5 3C11.2239 3 11 2.77614 11 2.5H9C9 3.88071 10.1193 5 11.5 5V3ZM12 2.5C12 2.77614 11.7761 3 11.5 3V5C12.8807 5 14 3.88071 14 2.5H12ZM11.5 1C11.7761 1 12 1.22386 12 1.5H14C14 0.119288 12.8807 -1 11.5 -1V1ZM11.5 -1C10.1193 -1 9 0.119288 9 1.5H11C11 1.22386 11.2239 1 11.5 1V-1Z" fill="black" fill-opacity="0.2" mask="url(#path-9-inside-3_445_7139)"/>
<path d="M7.38 7.275V12H6.351V8.304L5.497 8.913L5.028 8.234L6.435 7.275H7.38ZM11.0426 7.268V7.989L9.55159 12.112L8.59959 11.804L9.97859 8.066H8.33359V7.268H11.0426Z" fill="black" fill-opacity="0.5"/>
<mask id="path-12-inside-4_445_7139" fill="white">
<path d="M10 9H6V14H10V16H11L16 11.5L11 7H10V9Z"/>
</mask>
<g filter="url(#filter0_i_445_7139)">
<path d="M10 9H6V14H10V16H11L16 11.5L11 7H10V9Z" fill="#80B361"/>
</g>
<path d="M6 9V8H5V9H6ZM10 9V10C10.5523 10 11 9.55228 11 9H10ZM10 7V6H9V7H10ZM11 7L11.669 6.25671L11.3837 6H11V7ZM16 11.5L16.669 12.2433L17.4948 11.5L16.669 10.7567L16 11.5ZM11 16V17H11.3837L11.669 16.7433L11 16ZM10 16H9V17H10V16ZM10 14H11C11 13.4477 10.5523 13 10 13V14ZM6 14H5V15H6V14ZM6 9V10H10V9V8H6V9ZM10 9H11V7H10H9V9H10ZM10 7V8H11V7V6H10V7ZM11 7L10.331 7.74329L15.331 12.2433L16 11.5L16.669 10.7567L11.669 6.25671L11 7ZM16 11.5L15.331 10.7567L10.331 15.2567L11 16L11.669 16.7433L16.669 12.2433L16 11.5ZM11 16V15H10V16V17H11V16ZM10 16H11V14H10H9V16H10ZM10 14V13H6V14V15H10V14ZM6 14H7V9H6H5V14H6Z" fill="url(#paint3_linear_445_7139)" mask="url(#path-12-inside-4_445_7139)"/>
<path d="M13.752 11.4996L11.4404 13.5826C11.2619 12.9642 10.6972 12.4996 10.0049 12.4996H7.5V10.4996H10C10.7153 10.4996 11.2655 10.0249 11.4404 9.41565L13.752 11.4996Z" stroke="white" stroke-opacity="0.2"/>
</g>
<defs>
<filter id="filter0_i_445_7139" x="6" y="7" width="12" height="11" filterUnits="userSpaceOnUse" color-interpolation-filters="sRGB">
<feFlood flood-opacity="0" result="BackgroundImageFix"/>
<feBlend mode="normal" in="SourceGraphic" in2="BackgroundImageFix" result="shape"/>
<feColorMatrix in="SourceAlpha" type="matrix" values="0 0 0 0 0 0 0 0 0 0 0 0 0 0 0 0 0 0 127 0" result="hardAlpha"/>
<feOffset dx="2" dy="2"/>
<feGaussianBlur stdDeviation="1"/>
<feComposite in2="hardAlpha" operator="arithmetic" k2="-1" k3="1"/>
<feColorMatrix type="matrix" values="0 0 0 0 1 0 0 0 0 1 0 0 0 0 1 0 0 0 0.25 0"/>
<feBlend mode="normal" in2="shape" result="effect1_innerShadow_445_7139"/>
</filter>
<linearGradient id="paint0_linear_445_7139" x1="2" y1="2.09255" x2="14" y2="13.9075" gradientUnits="userSpaceOnUse">
<stop stop-color="#FCFCFC"/>
<stop offset="1" stop-color="white"/>
</linearGradient>
<linearGradient id="paint1_linear_445_7139" x1="4.5" y1="0" x2="4.5" y2="4" gradientUnits="userSpaceOnUse">
<stop stop-color="#D4D4D4"/>
<stop offset="0.465" stop-color="white"/>
<stop offset="1" stop-color="#DFBDBD"/>
</linearGradient>
<linearGradient id="paint2_linear_445_7139" x1="11.5" y1="0" x2="11.5" y2="4" gradientUnits="userSpaceOnUse">
<stop stop-color="#D4D4D4"/>
<stop offset="0.465" stop-color="white"/>
<stop offset="1" stop-color="#DFBDBD"/>
</linearGradient>
<linearGradient id="paint3_linear_445_7139" x1="14.5714" y1="14.7143" x2="8.17837" y2="7.61089" gradientUnits="userSpaceOnUse">
<stop stop-color="#247C10"/>
<stop offset="1" stop-color="#6FA53D"/>
</linearGradient>
<clipPath id="clip0_445_7139">
<rect width="16" height="16" fill="white"/>
</clipPath>
</defs>
</svg>
