<svg width="16" height="16" viewBox="0 0 16 16" fill="none" xmlns="http://www.w3.org/2000/svg">
<g clip-path="url(#clip0_426_7085)">
<rect y="14" width="14" height="1" rx="0.5" fill="url(#paint0_linear_426_7085)"/>
<rect x="2.5" y="2.5" width="9" height="12" fill="url(#paint1_linear_426_7085)" stroke="url(#paint2_linear_426_7085)"/>
<path d="M15 0.5C15.2761 0.5 15.5 0.723858 15.5 1V15C15.5 15.2761 15.2761 15.5 15 15.5H14C13.9592 15.5 13.9185 15.4952 13.8789 15.4854L9.87891 14.4854C9.65632 14.4297 9.5 14.2294 9.5 14V3C9.5 2.81061 9.60698 2.63743 9.77637 2.55273L13.7764 0.552734L13.8848 0.513672C13.9224 0.504751 13.961 0.5 14 0.5H15Z" fill="#B58B51" stroke="url(#paint3_linear_426_7085)" stroke-linejoin="round"/>
<path d="M10 3L14 1V15L10 14V3Z" fill="url(#paint4_linear_426_7085)"/>
<path d="M13.5 14.3594L10.5 13.6094V3.30859L13.5 1.80859V14.3594Z" stroke="white" stroke-opacity="0.33"/>
<circle cx="12.5" cy="8.5" r="1.5" fill="#FFD44B"/>
<mask id="path-7-inside-1_426_7085" fill="white">
<path d="M4 6H0V11H4V13H5L10 8.5L5 4H4V6Z"/>
</mask>
<g filter="url(#filter0_i_426_7085)">
<path d="M4 6H0V11H4V13H5L10 8.5L5 4H4V6Z" fill="#80B361"/>
</g>
<path d="M0 6V5H-1V6H0ZM4 6V7C4.55228 7 5 6.55228 5 6H4ZM4 4V3H3V4H4ZM5 4L5.66896 3.25671L5.38374 3H5V4ZM10 8.5L10.669 9.24329L11.4948 8.5L10.669 7.75671L10 8.5ZM5 13V14H5.38374L5.66896 13.7433L5 13ZM4 13H3V14H4V13ZM4 11H5C5 10.4477 4.55228 10 4 10V11ZM0 11H-1V12H0V11ZM0 6V7H4V6V5H0V6ZM4 6H5V4H4H3V6H4ZM4 4V5H5V4V3H4V4ZM5 4L4.33104 4.74329L9.33104 9.24329L10 8.5L10.669 7.75671L5.66896 3.25671L5 4ZM10 8.5L9.33104 7.75671L4.33104 12.2567L5 13L5.66896 13.7433L10.669 9.24329L10 8.5ZM5 13V12H4V13V14H5V13ZM4 13H5V11H4H3V13H4ZM4 11V10H0V11V12H4V11ZM0 11H1V6H0H-1V11H0Z" fill="url(#paint5_linear_426_7085)" mask="url(#path-7-inside-1_426_7085)"/>
<path d="M7.75195 8.49963L5.44043 10.5826C5.26193 9.96423 4.69721 9.49963 4.00488 9.49963H1.5V7.49963H4C4.71526 7.49963 5.26549 7.02494 5.44043 6.41565L7.75195 8.49963Z" stroke="white" stroke-opacity="0.2"/>
</g>
<defs>
<filter id="filter0_i_426_7085" x="0" y="4" width="12" height="11" filterUnits="userSpaceOnUse" color-interpolation-filters="sRGB">
<feFlood flood-opacity="0" result="BackgroundImageFix"/>
<feBlend mode="normal" in="SourceGraphic" in2="BackgroundImageFix" result="shape"/>
<feColorMatrix in="SourceAlpha" type="matrix" values="0 0 0 0 0 0 0 0 0 0 0 0 0 0 0 0 0 0 127 0" result="hardAlpha"/>
<feOffset dx="2" dy="2"/>
<feGaussianBlur stdDeviation="1"/>
<feComposite in2="hardAlpha" operator="arithmetic" k2="-1" k3="1"/>
<feColorMatrix type="matrix" values="0 0 0 0 1 0 0 0 0 1 0 0 0 0 1 0 0 0 0.25 0"/>
<feBlend mode="normal" in2="shape" result="effect1_innerShadow_426_7085"/>
</filter>
<linearGradient id="paint0_linear_426_7085" x1="0" y1="14.5" x2="14" y2="14.5" gradientUnits="userSpaceOnUse">
<stop stop-color="#B7B7B7"/>
<stop offset="1" stop-color="#6C6C6C"/>
</linearGradient>
<linearGradient id="paint1_linear_426_7085" x1="7" y1="3" x2="7" y2="14" gradientUnits="userSpaceOnUse">
<stop stop-color="#999999"/>
<stop offset="1" stop-color="#A5A5A5"/>
</linearGradient>
<linearGradient id="paint2_linear_426_7085" x1="3.00287" y1="3" x2="10.9971" y2="14" gradientUnits="userSpaceOnUse">
<stop stop-color="#808080"/>
<stop offset="1" stop-color="#454545"/>
</linearGradient>
<linearGradient id="paint3_linear_426_7085" x1="4.1425" y1="3" x2="11.8575" y2="14" gradientUnits="userSpaceOnUse">
<stop stop-color="#D59D6E"/>
<stop offset="1" stop-color="#935B11"/>
</linearGradient>
<linearGradient id="paint4_linear_426_7085" x1="10.0324" y1="3" x2="17.9676" y2="14" gradientUnits="userSpaceOnUse">
<stop stop-color="#DFC290"/>
<stop offset="1" stop-color="#C79554"/>
</linearGradient>
<linearGradient id="paint5_linear_426_7085" x1="8.57143" y1="11.7143" x2="2.17837" y2="4.61089" gradientUnits="userSpaceOnUse">
<stop stop-color="#247C10"/>
<stop offset="1" stop-color="#6FA53D"/>
</linearGradient>
<clipPath id="clip0_426_7085">
<rect width="16" height="16" fill="white"/>
</clipPath>
</defs>
</svg>
