<svg width="16" height="16" viewBox="0 0 16 16" fill="none" xmlns="http://www.w3.org/2000/svg">
<g clip-path="url(#clip0_426_7086)">
<rect y="14" width="14" height="1" rx="0.5" fill="url(#paint0_linear_426_7086)"/>
<rect x="2.5" y="2.5" width="9" height="12" fill="url(#paint1_linear_426_7086)" stroke="url(#paint2_linear_426_7086)"/>
<path d="M15 0.5C15.2761 0.5 15.5 0.723858 15.5 1V15C15.5 15.2761 15.2761 15.5 15 15.5H14C13.9592 15.5 13.9185 15.4952 13.8789 15.4854L9.87891 14.4854C9.65632 14.4297 9.5 14.2294 9.5 14V3C9.5 2.81061 9.60698 2.63743 9.77637 2.55273L13.7764 0.552734L13.8848 0.513672C13.9224 0.504751 13.961 0.5 14 0.5H15Z" fill="#B58B51" stroke="url(#paint3_linear_426_7086)" stroke-linejoin="round"/>
<path d="M10 3L14 1V15L10 14V3Z" fill="url(#paint4_linear_426_7086)"/>
<path d="M13.5 14.3594L10.5 13.6094V3.30859L13.5 1.80859V14.3594Z" stroke="white" stroke-opacity="0.33"/>
<circle cx="12.5" cy="8.5" r="1.5" fill="#FFD44B"/>
<mask id="path-7-inside-1_426_7086" fill="white">
<path d="M6 6H10V11H6V13H5L0 8.5L5 4H6V6Z"/>
</mask>
<g filter="url(#filter0_i_426_7086)">
<path d="M6 6H10V11H6V13H5L0 8.5L5 4H6V6Z" fill="#80B361"/>
</g>
<path d="M10 6V5H11V6H10ZM6 6V7C5.44772 7 5 6.55228 5 6H6ZM6 4V3H7V4H6ZM5 4L4.33104 3.25671L4.61626 3H5V4ZM0 8.5L-0.668964 9.24329L-1.49485 8.5L-0.668964 7.75671L0 8.5ZM5 13V14H4.61626L4.33104 13.7433L5 13ZM6 13H7V14H6V13ZM6 11H5C5 10.4477 5.44772 10 6 10V11ZM10 11H11V12H10V11ZM10 6V7H6V6V5H10V6ZM6 6H5V4H6H7V6H6ZM6 4V5H5V4V3H6V4ZM5 4L5.66896 4.74329L0.668964 9.24329L0 8.5L-0.668964 7.75671L4.33104 3.25671L5 4ZM0 8.5L0.668964 7.75671L5.66896 12.2567L5 13L4.33104 13.7433L-0.668964 9.24329L0 8.5ZM5 13V12H6V13V14H5V13ZM6 13H5V11H6H7V13H6ZM6 11V10H10V11V12H6V11ZM10 11H9V6H10H11V11H10Z" fill="url(#paint5_linear_426_7086)" mask="url(#path-7-inside-1_426_7086)"/>
<path d="M2.24805 8.49963L4.55957 10.5826C4.73807 9.96423 5.30279 9.49963 5.99512 9.49963H8.5V7.49963H6C5.28474 7.49963 4.73451 7.02494 4.55957 6.41565L2.24805 8.49963Z" stroke="white" stroke-opacity="0.2"/>
</g>
<defs>
<filter id="filter0_i_426_7086" x="0" y="4" width="12" height="11" filterUnits="userSpaceOnUse" color-interpolation-filters="sRGB">
<feFlood flood-opacity="0" result="BackgroundImageFix"/>
<feBlend mode="normal" in="SourceGraphic" in2="BackgroundImageFix" result="shape"/>
<feColorMatrix in="SourceAlpha" type="matrix" values="0 0 0 0 0 0 0 0 0 0 0 0 0 0 0 0 0 0 127 0" result="hardAlpha"/>
<feOffset dx="2" dy="2"/>
<feGaussianBlur stdDeviation="1"/>
<feComposite in2="hardAlpha" operator="arithmetic" k2="-1" k3="1"/>
<feColorMatrix type="matrix" values="0 0 0 0 1 0 0 0 0 1 0 0 0 0 1 0 0 0 0.25 0"/>
<feBlend mode="normal" in2="shape" result="effect1_innerShadow_426_7086"/>
</filter>
<linearGradient id="paint0_linear_426_7086" x1="0" y1="14.5" x2="14" y2="14.5" gradientUnits="userSpaceOnUse">
<stop stop-color="#B7B7B7"/>
<stop offset="1" stop-color="#6C6C6C"/>
</linearGradient>
<linearGradient id="paint1_linear_426_7086" x1="7" y1="3" x2="7" y2="14" gradientUnits="userSpaceOnUse">
<stop stop-color="#999999"/>
<stop offset="1" stop-color="#A5A5A5"/>
</linearGradient>
<linearGradient id="paint2_linear_426_7086" x1="3.00287" y1="3" x2="10.9971" y2="14" gradientUnits="userSpaceOnUse">
<stop stop-color="#808080"/>
<stop offset="1" stop-color="#454545"/>
</linearGradient>
<linearGradient id="paint3_linear_426_7086" x1="4.1425" y1="3" x2="11.8575" y2="14" gradientUnits="userSpaceOnUse">
<stop stop-color="#D59D6E"/>
<stop offset="1" stop-color="#935B11"/>
</linearGradient>
<linearGradient id="paint4_linear_426_7086" x1="10.0324" y1="3" x2="17.9676" y2="14" gradientUnits="userSpaceOnUse">
<stop stop-color="#DFC290"/>
<stop offset="1" stop-color="#C79554"/>
</linearGradient>
<linearGradient id="paint5_linear_426_7086" x1="3" y1="6" x2="10.5492" y2="11.2031" gradientUnits="userSpaceOnUse">
<stop stop-color="#6FA53D"/>
<stop offset="1" stop-color="#247C10"/>
</linearGradient>
<clipPath id="clip0_426_7086">
<rect width="16" height="16" fill="white"/>
</clipPath>
</defs>
</svg>
