<svg width="16" height="16" viewBox="0 0 16 16" fill="none" xmlns="http://www.w3.org/2000/svg">
<g clip-path="url(#clip0_134_2483)">
<g clip-path="url(#clip1_134_2483)">
<g clip-path="url(#clip2_134_2483)">
<path d="M8 7C8.12876 7 8.25184 7.02434 8.36488 7.06866L10.7901 0.5C9.9214 0.176693 8.98133 0 8 0V7Z" fill="url(#paint0_linear_134_2483)"/>
<path d="M8.9695 7.75398L15.6377 5.61266C14.9001 3.25024 13.0966 1.35838 10.7901 0.5L8.36488 7.06866C8.66218 7.18522 8.89008 7.44003 8.9695 7.75398Z" fill="url(#paint1_linear_134_2483)"/>
<path d="M8.99999 8C8.99999 8.18214 8.9513 8.35291 8.86621 8.5L15.4185 11C15.7935 10.0736 16 9.0609 16 8C16 7.16849 15.8731 6.36661 15.6377 5.61266L8.9695 7.75398C8.98941 7.83268 8.99999 7.91511 8.99999 8Z" fill="url(#paint2_linear_134_2483)"/>
<path d="M8.00003 9C7.73091 9 7.48661 8.89369 7.30686 8.72077L2.58777 13.8914C4.0122 15.2006 5.91277 16 8.00003 16C11.3574 16 14.2317 13.9318 15.4185 11L8.86621 8.5C8.69331 8.7989 8.37017 9 8.00003 9Z" fill="url(#paint3_linear_134_2483)"/>
<path d="M2.58777 13.8914L7.30686 8.72077C7.23938 8.65587 7.18098 8.58158 7.13379 8.5L0.861328 11.6148C1.29761 12.4747 1.8847 13.2451 2.58777 13.8914Z" fill="url(#paint4_linear_134_2483)"/>
<path d="M7 8C7 7.71684 7.11769 7.46116 7.30683 7.27922L2.58774 2.10863C0.996956 3.57082 0 5.66898 0 8C0 9.30079 0.310465 10.5291 0.861328 11.6148L7.13379 8.5C7.0487 8.35291 7 8.18214 7 8Z" fill="url(#paint5_linear_134_2483)"/>
<path d="M8 7V0C5.91274 0 4.01217 0.799352 2.58774 2.10863L7.30683 7.27922C7.48658 7.10631 7.73088 7 8 7Z" fill="url(#paint6_linear_134_2483)"/>
<g clip-path="url(#paint7_angular_134_2483_clip_path)" data-figma-skip-parse="true"><g transform="matrix(0 -0.008 0.008 0 8 8)"><foreignObject x="-1125" y="-1125" width="2250" height="2250"><div xmlns="http://www.w3.org/1999/xhtml" style="background:conic-gradient(from 90deg,rgba(213, 213, 213, 1) 0deg,rgba(255, 255, 255, 1) 19.8434deg,rgba(255, 244, 183, 1) 31.0548deg,rgba(255, 237, 136, 1) 55.8443deg,rgba(255, 255, 255, 1) 72.1291deg,rgba(237, 237, 237, 1) 76.4907deg,rgba(152, 214, 255, 1) 107.426deg,rgba(235, 235, 235, 1) 110.724deg,rgba(191, 243, 158, 1) 223.79deg,rgba(194, 194, 194, 1) 226.086deg,rgba(255, 255, 255, 1) 230.029deg,rgba(210, 210, 210, 1) 243.225deg,rgba(231, 231, 231, 1) 316.155deg,rgba(255, 255, 255, 1) 317.595deg,rgba(201, 201, 201, 1) 354.309deg,rgba(213, 213, 213, 1) 360deg);height:100%;width:100%;opacity:1"></div></foreignObject></g></g><path fill-rule="evenodd" clip-rule="evenodd" d="M8 0C12.4183 0 16 3.58172 16 8C16 12.4183 12.4183 16 8 16C3.58172 16 0 12.4183 0 8C0 3.58172 3.58172 0 8 0ZM8 7C7.44772 7 7 7.44772 7 8C7 8.55228 7.44772 9 8 9C8.55228 9 9 8.55228 9 8C9 7.44772 8.55228 7 8 7Z" data-figma-gradient-fill="{&#34;type&#34;:&#34;GRADIENT_ANGULAR&#34;,&#34;stops&#34;:[{&#34;color&#34;:{&#34;r&#34;:1.0,&#34;g&#34;:1.0,&#34;b&#34;:1.0,&#34;a&#34;:1.0},&#34;position&#34;:0.055120464414358139},{&#34;color&#34;:{&#34;r&#34;:1.0,&#34;g&#34;:0.95738303661346436,&#34;b&#34;:0.72062176465988159,&#34;a&#34;:1.0},&#34;position&#34;:0.086263343691825867},{&#34;color&#34;:{&#34;r&#34;:1.0,&#34;g&#34;:0.93145388364791870,&#34;b&#34;:0.53388673067092896,&#34;a&#34;:1.0},&#34;position&#34;:0.15512295067310333},{&#34;color&#34;:{&#34;r&#34;:1.0,&#34;g&#34;:1.0,&#34;b&#34;:1.0,&#34;a&#34;:1.0},&#34;position&#34;:0.20035858452320099},{&#34;color&#34;:{&#34;r&#34;:0.93000000715255737,&#34;g&#34;:0.93000000715255737,&#34;b&#34;:0.93000000715255737,&#34;a&#34;:1.0},&#34;position&#34;:0.21247418224811554},{&#34;color&#34;:{&#34;r&#34;:0.59850257635116577,&#34;g&#34;:0.84183436632156372,&#34;b&#34;:1.0,&#34;a&#34;:1.0},&#34;position&#34;:0.29840609431266785},{&#34;color&#34;:{&#34;r&#34;:0.92526042461395264,&#34;g&#34;:0.92526042461395264,&#34;b&#34;:0.92526042461395264,&#34;a&#34;:1.0},&#34;position&#34;:0.3075672984123230},{&#34;color&#34;:{&#34;r&#34;:0.75136303901672363,&#34;g&#34;:0.95441359281539917,&#34;b&#34;:0.62214887142181396,&#34;a&#34;:1.0},&#34;position&#34;:0.62163805961608887},{&#34;color&#34;:{&#34;r&#34;:0.76113283634185791,&#34;g&#34;:0.76113283634185791,&#34;b&#34;:0.76113283634185791,&#34;a&#34;:1.0},&#34;position&#34;:0.62801724672317505},{&#34;color&#34;:{&#34;r&#34;:1.0,&#34;g&#34;:1.0,&#34;b&#34;:1.0,&#34;a&#34;:1.0},&#34;position&#34;:0.63897055387496948},{&#34;color&#34;:{&#34;r&#34;:0.82488608360290527,&#34;g&#34;:0.82488608360290527,&#34;b&#34;:0.82488608360290527,&#34;a&#34;:1.0},&#34;position&#34;:0.67562526464462280},{&#34;color&#34;:{&#34;r&#34;:0.90605407953262329,&#34;g&#34;:0.90605407953262329,&#34;b&#34;:0.90605407953262329,&#34;a&#34;:1.0},&#34;position&#34;:0.87820714712142944},{&#34;color&#34;:{&#34;r&#34;:1.0,&#34;g&#34;:1.0,&#34;b&#34;:1.0,&#34;a&#34;:1.0},&#34;position&#34;:0.88220709562301636},{&#34;color&#34;:{&#34;r&#34;:0.7907714843750,&#34;g&#34;:0.7907714843750,&#34;b&#34;:0.7907714843750,&#34;a&#34;:1.0},&#34;position&#34;:0.98419117927551270}],&#34;stopsVar&#34;:[{&#34;color&#34;:{&#34;r&#34;:1.0,&#34;g&#34;:1.0,&#34;b&#34;:1.0,&#34;a&#34;:1.0},&#34;position&#34;:0.055120464414358139},{&#34;color&#34;:{&#34;r&#34;:1.0,&#34;g&#34;:0.95738303661346436,&#34;b&#34;:0.72062176465988159,&#34;a&#34;:1.0},&#34;position&#34;:0.086263343691825867},{&#34;color&#34;:{&#34;r&#34;:1.0,&#34;g&#34;:0.93145388364791870,&#34;b&#34;:0.53388673067092896,&#34;a&#34;:1.0},&#34;position&#34;:0.15512295067310333},{&#34;color&#34;:{&#34;r&#34;:1.0,&#34;g&#34;:1.0,&#34;b&#34;:1.0,&#34;a&#34;:1.0},&#34;position&#34;:0.20035858452320099},{&#34;color&#34;:{&#34;r&#34;:0.93000000715255737,&#34;g&#34;:0.93000000715255737,&#34;b&#34;:0.93000000715255737,&#34;a&#34;:1.0},&#34;position&#34;:0.21247418224811554},{&#34;color&#34;:{&#34;r&#34;:0.59850257635116577,&#34;g&#34;:0.84183436632156372,&#34;b&#34;:1.0,&#34;a&#34;:1.0},&#34;position&#34;:0.29840609431266785},{&#34;color&#34;:{&#34;r&#34;:0.92526042461395264,&#34;g&#34;:0.92526042461395264,&#34;b&#34;:0.92526042461395264,&#34;a&#34;:1.0},&#34;position&#34;:0.3075672984123230},{&#34;color&#34;:{&#34;r&#34;:0.75136303901672363,&#34;g&#34;:0.95441359281539917,&#34;b&#34;:0.62214887142181396,&#34;a&#34;:1.0},&#34;position&#34;:0.62163805961608887},{&#34;color&#34;:{&#34;r&#34;:0.76113283634185791,&#34;g&#34;:0.76113283634185791,&#34;b&#34;:0.76113283634185791,&#34;a&#34;:1.0},&#34;position&#34;:0.62801724672317505},{&#34;color&#34;:{&#34;r&#34;:1.0,&#34;g&#34;:1.0,&#34;b&#34;:1.0,&#34;a&#34;:1.0},&#34;position&#34;:0.63897055387496948},{&#34;color&#34;:{&#34;r&#34;:0.82488608360290527,&#34;g&#34;:0.82488608360290527,&#34;b&#34;:0.82488608360290527,&#34;a&#34;:1.0},&#34;position&#34;:0.67562526464462280},{&#34;color&#34;:{&#34;r&#34;:0.90605407953262329,&#34;g&#34;:0.90605407953262329,&#34;b&#34;:0.90605407953262329,&#34;a&#34;:1.0},&#34;position&#34;:0.87820714712142944},{&#34;color&#34;:{&#34;r&#34;:1.0,&#34;g&#34;:1.0,&#34;b&#34;:1.0,&#34;a&#34;:1.0},&#34;position&#34;:0.88220709562301636},{&#34;color&#34;:{&#34;r&#34;:0.7907714843750,&#34;g&#34;:0.7907714843750,&#34;b&#34;:0.7907714843750,&#34;a&#34;:1.0},&#34;position&#34;:0.98419117927551270}],&#34;transform&#34;:{&#34;m00&#34;:1.3231137444892106e-14,&#34;m01&#34;:16.0,&#34;m02&#34;:0.0,&#34;m10&#34;:-16.0,&#34;m11&#34;:9.6784237660916053e-15,&#34;m12&#34;:16.0},&#34;opacity&#34;:1.0,&#34;blendMode&#34;:&#34;NORMAL&#34;,&#34;visible&#34;:true}"/>
<path d="M8 0.5C12.1421 0.5 15.5 3.85786 15.5 8C15.5 12.1421 12.1421 15.5 8 15.5C3.85786 15.5 0.5 12.1421 0.5 8C0.5 3.85786 3.85786 0.5 8 0.5ZM8 6.5C7.17157 6.5 6.5 7.17157 6.5 8C6.5 8.82843 7.17157 9.5 8 9.5C8.82843 9.5 9.5 8.82843 9.5 8C9.5 7.17157 8.82843 6.5 8 6.5Z" stroke="url(#paint8_linear_134_2483)" stroke-opacity="0.66" style="mix-blend-mode:hard-light"/>
<mask id="path-4-inside-1_134_2483" fill="white">
<path d="M8 1C11.866 1 15 4.13401 15 8C15 11.866 11.866 15 8 15C4.13401 15 1 11.866 1 8C1 4.13401 4.13401 1 8 1ZM8 6C6.89543 6 6 6.89543 6 8C6 9.10457 6.89543 10 8 10C9.10457 10 10 9.10457 10 8C10 6.89543 9.10457 6 8 6Z"/>
</mask>
<path d="M8 1V2C11.3137 2 14 4.68629 14 8H15H16C16 3.58172 12.4183 0 8 0V1ZM15 8H14C14 11.3137 11.3137 14 8 14V15V16C12.4183 16 16 12.4183 16 8H15ZM8 15V14C4.68629 14 2 11.3137 2 8H1H0C0 12.4183 3.58172 16 8 16V15ZM1 8H2C2 4.68629 4.68629 2 8 2V1V0C3.58172 0 0 3.58172 0 8H1ZM8 6V5C6.34315 5 5 6.34315 5 8H6H7C7 7.44772 7.44772 7 8 7V6ZM6 8H5C5 9.65685 6.34315 11 8 11V10V9C7.44772 9 7 8.55228 7 8H6ZM8 10V11C9.65685 11 11 9.65685 11 8H10H9C9 8.55228 8.55228 9 8 9V10ZM10 8H11C11 6.34315 9.65685 5 8 5V6V7C8.55228 7 9 7.44772 9 8H10Z" fill="white" fill-opacity="0.66" style="mix-blend-mode:hard-light" mask="url(#path-4-inside-1_134_2483)"/>
</g>
<rect y="6" width="11" height="6" rx="1" fill="#303030"/>
<path d="M1.9964 6.9806C3.0694 6.9806 4.0844 7.3112 4.0844 8.97C4.0844 10.5882 3.11 11 2.0834 11H0.877V6.9806H1.9964ZM2.1298 7.6708H1.8282V10.3098H2.1414C2.7156 10.3098 3.0984 10.0372 3.0984 8.97C3.0984 7.8912 2.6866 7.6708 2.1298 7.6708ZM7.11617 6.9806L5.99677 11H4.81357L3.65357 6.9806H4.65697L5.42257 10.2576L6.14177 6.9806H7.11617ZM8.06918 6.9806C9.14218 6.9806 10.1572 7.3112 10.1572 8.97C10.1572 10.5882 9.18278 11 8.15618 11H6.94978V6.9806H8.06918ZM8.20258 7.6708H7.90098V10.3098H8.21418C8.78838 10.3098 9.17118 10.0372 9.17118 8.97C9.17118 7.8912 8.75938 7.6708 8.20258 7.6708Z" fill="white"/>
</g>
<path d="M6.40527 11.0088C6.56819 10.9774 6.7362 11.0292 6.85352 11.1465L8.85352 13.1465C8.97083 13.2638 9.02259 13.4318 8.99121 13.5947C8.95981 13.7575 8.84966 13.8946 8.69727 13.96L5.19727 15.46C5.00934 15.5405 4.79105 15.4981 4.64648 15.3535C4.50191 15.2089 4.4595 14.9907 4.54004 14.8027L6.04004 11.3027L6.06836 11.248C6.14052 11.1244 6.26276 11.0363 6.40527 11.0088Z" fill="url(#paint9_linear_134_2483)"/>
<path d="M6.40527 11.0088C6.56819 10.9774 6.7362 11.0292 6.85352 11.1465L8.85352 13.1465C8.97083 13.2638 9.02259 13.4318 8.99121 13.5947C8.95981 13.7575 8.84966 13.8946 8.69727 13.96L5.19727 15.46C5.00934 15.5405 4.79105 15.4981 4.64648 15.3535C4.50191 15.2089 4.4595 14.9907 4.54004 14.8027L6.04004 11.3027L6.06836 11.248C6.14052 11.1244 6.26276 11.0363 6.40527 11.0088Z" fill="url(#paint10_linear_134_2483)"/>
<path d="M6.40527 11.0088C6.56819 10.9774 6.7362 11.0292 6.85352 11.1465L8.85352 13.1465C8.97083 13.2638 9.02259 13.4318 8.99121 13.5947C8.95981 13.7575 8.84966 13.8946 8.69727 13.96L5.19727 15.46C5.00934 15.5405 4.79105 15.4981 4.64648 15.3535C4.50191 15.2089 4.4595 14.9907 4.54004 14.8027L6.04004 11.3027L6.06836 11.248C6.14052 11.1244 6.26276 11.0363 6.40527 11.0088Z" stroke="url(#paint11_linear_134_2483)" stroke-linejoin="round"/>
<path d="M6.40527 11.0088C6.56819 10.9774 6.7362 11.0292 6.85352 11.1465L8.85352 13.1465C8.97083 13.2638 9.02259 13.4318 8.99121 13.5947C8.95981 13.7575 8.84966 13.8946 8.69727 13.96L5.19727 15.46C5.00934 15.5405 4.79105 15.4981 4.64648 15.3535C4.50191 15.2089 4.4595 14.9907 4.54004 14.8027L6.04004 11.3027L6.06836 11.248C6.14052 11.1244 6.26276 11.0363 6.40527 11.0088Z" stroke="url(#paint12_linear_134_2483)" stroke-linejoin="round"/>
<path d="M12.2246 5.08203C12.4187 4.95387 12.6827 4.97562 12.8535 5.14648L14.8535 7.14648C15.0488 7.34175 15.0488 7.65825 14.8535 7.85352L8.85352 13.8535C8.65825 14.0488 8.34175 14.0488 8.14648 13.8535L6.14648 11.8535C5.95122 11.6583 5.95122 11.3417 6.14648 11.1465L12.1465 5.14648L12.2246 5.08203Z" fill="url(#paint13_linear_134_2483)" stroke="url(#paint14_linear_134_2483)" stroke-linejoin="round"/>
<path fill-rule="evenodd" clip-rule="evenodd" d="M6.5 11.5L7.20711 12.2071L13.2071 6.20711L12.5 5.5L6.5 11.5Z" fill="#FCF4B3"/>
<path d="M13.2451 4.58173C13.7599 4.49805 14.3385 4.63122 14.8535 5.14618C15.3687 5.66141 15.5028 6.24063 15.4189 6.75555C15.3402 7.23929 15.0767 7.62996 14.8535 7.85321L14.5 8.20673L11.793 5.49969L12.1465 5.14618C12.3698 4.92297 12.7613 4.66048 13.2451 4.58173Z" fill="url(#paint15_linear_134_2483)" stroke="url(#paint16_linear_134_2483)"/>
</g>
<defs>
<clipPath id="paint7_angular_134_2483_clip_path"><path fill-rule="evenodd" clip-rule="evenodd" d="M8 0C12.4183 0 16 3.58172 16 8C16 12.4183 12.4183 16 8 16C3.58172 16 0 12.4183 0 8C0 3.58172 3.58172 0 8 0ZM8 7C7.44772 7 7 7.44772 7 8C7 8.55228 7.44772 9 8 9C8.55228 9 9 8.55228 9 8C9 7.44772 8.55228 7 8 7Z"/></clipPath><linearGradient id="paint0_linear_134_2483" x1="9.5" y1="4" x2="8" y2="3.53433" gradientUnits="userSpaceOnUse">
<stop stop-color="#FEFFFF"/>
<stop offset="1" stop-color="#CACACA"/>
</linearGradient>
<linearGradient id="paint1_linear_134_2483" x1="10.5" y1="0.5" x2="15.5" y2="5.5" gradientUnits="userSpaceOnUse">
<stop stop-color="white"/>
<stop offset="0.264347" stop-color="#FFF4B8"/>
<stop offset="0.558853" stop-color="#FFEE88"/>
<stop offset="1" stop-color="white"/>
</linearGradient>
<linearGradient id="paint2_linear_134_2483" x1="8" y1="5.52732e-07" x2="8" y2="16" gradientUnits="userSpaceOnUse">
<stop offset="0.283654" stop-color="#EDEDED"/>
<stop offset="0.706731" stop-color="#99D7FF"/>
</linearGradient>
<linearGradient id="paint3_linear_134_2483" x1="8.74229e-08" y1="8" x2="16" y2="8" gradientUnits="userSpaceOnUse">
<stop offset="0.164959" stop-color="#C0F39F"/>
<stop offset="1" stop-color="#ECECEC"/>
</linearGradient>
<linearGradient id="paint4_linear_134_2483" x1="0.5" y1="11.5" x2="2.5" y2="14" gradientUnits="userSpaceOnUse">
<stop stop-color="#D2D2D2"/>
<stop offset="0.497585" stop-color="white"/>
<stop offset="1" stop-color="#C2C2C2"/>
</linearGradient>
<linearGradient id="paint5_linear_134_2483" x1="3.65341" y1="2.10863" x2="3.65341" y2="11.6148" gradientUnits="userSpaceOnUse">
<stop stop-color="#E7E7E7"/>
<stop offset="1" stop-color="#D2D2D2"/>
</linearGradient>
<linearGradient id="paint6_linear_134_2483" x1="8" y1="2.70379e-07" x2="2.5" y2="2" gradientUnits="userSpaceOnUse">
<stop stop-color="#CACACA"/>
<stop offset="1" stop-color="white"/>
</linearGradient>
<linearGradient id="paint8_linear_134_2483" x1="16" y1="16" x2="0" y2="0" gradientUnits="userSpaceOnUse">
<stop/>
<stop offset="1" stop-color="#666666"/>
</linearGradient>
<linearGradient id="paint9_linear_134_2483" x1="6.16667" y1="11.8889" x2="8.11111" y2="13.8333" gradientUnits="userSpaceOnUse">
<stop stop-color="#FAE7D1"/>
<stop offset="1" stop-color="#E89840"/>
</linearGradient>
<linearGradient id="paint10_linear_134_2483" x1="6.94444" y1="12.6667" x2="3.83333" y2="15.7778" gradientUnits="userSpaceOnUse">
<stop stop-color="#584013" stop-opacity="0"/>
<stop offset="0.499937" stop-color="#584013" stop-opacity="0"/>
<stop offset="0.661921" stop-color="#584013"/>
</linearGradient>
<linearGradient id="paint11_linear_134_2483" x1="6.16667" y1="12.6667" x2="7.33333" y2="13.8333" gradientUnits="userSpaceOnUse">
<stop stop-color="#B98926"/>
<stop offset="1" stop-color="#AA6016"/>
</linearGradient>
<linearGradient id="paint12_linear_134_2483" x1="7.72222" y1="11.8889" x2="3.83333" y2="15.7778" gradientUnits="userSpaceOnUse">
<stop offset="0.5" stop-color="#B98926" stop-opacity="0"/>
<stop offset="0.656842" stop-color="#584013"/>
</linearGradient>
<linearGradient id="paint13_linear_134_2483" x1="6.5" y1="11.6579" x2="8.34211" y2="13.5" gradientUnits="userSpaceOnUse">
<stop stop-color="#F5DC60"/>
<stop offset="1" stop-color="#EFCB1A"/>
</linearGradient>
<linearGradient id="paint14_linear_134_2483" x1="6.5" y1="11.6579" x2="8.3421" y2="13.5" gradientUnits="userSpaceOnUse">
<stop stop-color="#E9C755"/>
<stop offset="1" stop-color="#D98F3B"/>
</linearGradient>
<linearGradient id="paint15_linear_134_2483" x1="12.4766" y1="6.30195" x2="14.8903" y2="6.69267" gradientUnits="userSpaceOnUse">
<stop stop-color="#FDD7D1"/>
<stop offset="1" stop-color="#FBACA1"/>
</linearGradient>
<linearGradient id="paint16_linear_134_2483" x1="12.5" y1="6.31509" x2="14.8693" y2="6.72938" gradientUnits="userSpaceOnUse">
<stop stop-color="#E1B3AD"/>
<stop offset="1" stop-color="#B17971"/>
</linearGradient>
<clipPath id="clip0_134_2483">
<rect width="16" height="16" fill="white"/>
</clipPath>
<clipPath id="clip1_134_2483">
<rect width="16" height="16" fill="white"/>
</clipPath>
<clipPath id="clip2_134_2483">
<rect width="16" height="16" fill="white"/>
</clipPath>
</defs>
</svg>
