<svg width="16" height="16" viewBox="0 0 16 16" fill="none" xmlns="http://www.w3.org/2000/svg">
<path fill-rule="evenodd" clip-rule="evenodd" d="M0 1C0 0.447715 0.447715 0 1 0H2C2.55228 0 3 0.447715 3 1V14C3 14.5523 2.55228 15 2 15H1C0.447715 15 0 14.5523 0 14V1ZM2 13.3C2 13.1343 1.86569 13 1.7 13H1.3C1.13431 13 1 13.1343 1 13.3V13.7C1 13.8657 1.13431 14 1.3 14H1.7C1.86569 14 2 13.8657 2 13.7V13.3ZM2 11.3C2 11.1343 1.86569 11 1.7 11H1.3C1.13431 11 1 11.1343 1 11.3V11.7C1 11.8657 1.13431 12 1.3 12H1.7C1.86569 12 2 11.8657 2 11.7V11.3ZM2 9.3C2 9.13431 1.86569 9 1.7 9H1.3C1.13431 9 1 9.13431 1 9.3V9.7C1 9.86569 1.13431 10 1.3 10H1.7C1.86569 10 2 9.86569 2 9.7V9.3ZM2 7.3C2 7.13431 1.86569 7 1.7 7H1.3C1.13431 7 1 7.13431 1 7.3V7.7C1 7.86569 1.13431 8 1.3 8H1.7C1.86569 8 2 7.86569 2 7.7V7.3ZM2 5.3C2 5.13431 1.86569 5 1.7 5H1.3C1.13431 5 1 5.13431 1 5.3V5.7C1 5.86569 1.13431 6 1.3 6H1.7C1.86569 6 2 5.86569 2 5.7V5.3ZM2 3.3C2 3.13431 1.86569 3 1.7 3H1.3C1.13431 3 1 3.13431 1 3.3V3.7C1 3.86569 1.13431 4 1.3 4H1.7C1.86569 4 2 3.86569 2 3.7V3.3ZM2 1.3C2 1.13431 1.86569 1 1.7 1H1.3C1.13431 1 1 1.13431 1 1.3V1.7C1 1.86569 1.13431 2 1.3 2H1.7C1.86569 2 2 1.86569 2 1.7V1.3Z" fill="url(#paint0_linear_481_8268)"/>
<path fill-rule="evenodd" clip-rule="evenodd" d="M9 1C9 0.447715 9.44772 0 10 0H11C11.5523 0 12 0.447715 12 1V14C12 14.5523 11.5523 15 11 15H10C9.44772 15 9 14.5523 9 14V1ZM11 13.3C11 13.1343 10.8657 13 10.7 13H10.3C10.1343 13 10 13.1343 10 13.3V13.7C10 13.8657 10.1343 14 10.3 14H10.7C10.8657 14 11 13.8657 11 13.7V13.3ZM11 11.3C11 11.1343 10.8657 11 10.7 11H10.3C10.1343 11 10 11.1343 10 11.3V11.7C10 11.8657 10.1343 12 10.3 12H10.7C10.8657 12 11 11.8657 11 11.7V11.3ZM11 9.3C11 9.13431 10.8657 9 10.7 9H10.3C10.1343 9 10 9.13431 10 9.3V9.7C10 9.86569 10.1343 10 10.3 10H10.7C10.8657 10 11 9.86569 11 9.7V9.3ZM11 7.3C11 7.13431 10.8657 7 10.7 7H10.3C10.1343 7 10 7.13431 10 7.3V7.7C10 7.86569 10.1343 8 10.3 8H10.7C10.8657 8 11 7.86569 11 7.7V7.3ZM11 5.3C11 5.13431 10.8657 5 10.7 5H10.3C10.1343 5 10 5.13431 10 5.3V5.7C10 5.86569 10.1343 6 10.3 6H10.7C10.8657 6 11 5.86569 11 5.7V5.3ZM11 3.3C11 3.13431 10.8657 3 10.7 3H10.3C10.1343 3 10 3.13431 10 3.3V3.7C10 3.86569 10.1343 4 10.3 4H10.7C10.8657 4 11 3.86569 11 3.7V3.3ZM11 1.3C11 1.13431 10.8657 1 10.7 1H10.3C10.1343 1 10 1.13431 10 1.3V1.7C10 1.86569 10.1343 2 10.3 2H10.7C10.8657 2 11 1.86569 11 1.7V1.3Z" fill="url(#paint1_linear_481_8268)"/>
<path d="M3 1L9 1V2H3V1Z" fill="url(#paint2_linear_481_8268)"/>
<path d="M3 7H9V8H3V7Z" fill="url(#paint3_linear_481_8268)"/>
<path d="M3 13H9V14H3V13Z" fill="url(#paint4_linear_481_8268)"/>
<g clip-path="url(#clip0_481_8268)">
<mask id="mask0_481_8268" style="mask-type:alpha" maskUnits="userSpaceOnUse" x="3" y="2" width="6" height="5">
<rect x="3" y="2" width="6" height="5" fill="url(#paint5_linear_481_8268)"/>
</mask>
<g mask="url(#mask0_481_8268)">
<rect x="3" y="2" width="6" height="5" fill="url(#paint6_linear_481_8268)"/>
<rect x="5.40002" y="4.85715" width="3.6" height="2.14286" fill="#2E9CFF"/>
<path d="M6.00002 4.85715C6.00002 3.08586 3.48002 2.71429 2.40002 2.71429V7.00001C3.90002 7.71429 3.60002 4.85715 6.00002 4.85715Z" fill="#60CB70"/>
<path d="M2.40002 7.71429V7C2.40002 7 3.00002 4.85715 5.47621 4.85715C8.10002 4.85715 9.00002 6.28572 9.60002 7V7.71429H2.40002Z" fill="url(#paint7_linear_481_8268)"/>
<circle cx="9" cy="2" r="2" fill="#F9E068"/>
</g>
</g>
<g clip-path="url(#clip1_481_8268)">
<mask id="mask1_481_8268" style="mask-type:alpha" maskUnits="userSpaceOnUse" x="3" y="8" width="6" height="5">
<rect x="3" y="8" width="6" height="5" fill="url(#paint8_linear_481_8268)"/>
</mask>
<g mask="url(#mask1_481_8268)">
<rect x="3" y="8" width="6" height="5" fill="url(#paint9_linear_481_8268)"/>
<rect x="5.40002" y="10.8571" width="3.6" height="2.14286" fill="#2E9CFF"/>
<path d="M6.00002 10.8572C6.00002 9.08586 3.48002 8.71429 2.40002 8.71429V13C3.90002 13.7143 3.60002 10.8572 6.00002 10.8572Z" fill="#60CB70"/>
<path d="M2.40002 13.7143V13C2.40002 13 3.00002 10.8571 5.47621 10.8571C8.10002 10.8571 9.00002 12.2857 9.60002 13V13.7143H2.40002Z" fill="url(#paint10_linear_481_8268)"/>
<circle cx="9" cy="8" r="2" fill="#F9E068"/>
</g>
</g>
<mask id="path-14-inside-1_481_8268" fill="white">
<path d="M10 9H6V14H10V16H11L16 11.5L11 7H10V9Z"/>
</mask>
<g filter="url(#filter0_i_481_8268)">
<path d="M10 9H6V14H10V16H11L16 11.5L11 7H10V9Z" fill="#80B361"/>
</g>
<path d="M6 9V8H5V9H6ZM10 9V10C10.5523 10 11 9.55228 11 9H10ZM10 7V6H9V7H10ZM11 7L11.669 6.25671L11.3837 6H11V7ZM16 11.5L16.669 12.2433L17.4948 11.5L16.669 10.7567L16 11.5ZM11 16V17H11.3837L11.669 16.7433L11 16ZM10 16H9V17H10V16ZM10 14H11C11 13.4477 10.5523 13 10 13V14ZM6 14H5V15H6V14ZM6 9V10H10V9V8H6V9ZM10 9H11V7H10H9V9H10ZM10 7V8H11V7V6H10V7ZM11 7L10.331 7.74329L15.331 12.2433L16 11.5L16.669 10.7567L11.669 6.25671L11 7ZM16 11.5L15.331 10.7567L10.331 15.2567L11 16L11.669 16.7433L16.669 12.2433L16 11.5ZM11 16V15H10V16V17H11V16ZM10 16H11V14H10H9V16H10ZM10 14V13H6V14V15H10V14ZM6 14H7V9H6H5V14H6Z" fill="url(#paint11_linear_481_8268)" mask="url(#path-14-inside-1_481_8268)"/>
<path d="M13.752 11.4996L11.4404 13.5826C11.2619 12.9642 10.6972 12.4996 10.0049 12.4996H7.5V10.4996H10C10.7153 10.4996 11.2655 10.0249 11.4404 9.41565L13.752 11.4996Z" stroke="white" stroke-opacity="0.2"/>
<defs>
<filter id="filter0_i_481_8268" x="6" y="7" width="12" height="11" filterUnits="userSpaceOnUse" color-interpolation-filters="sRGB">
<feFlood flood-opacity="0" result="BackgroundImageFix"/>
<feBlend mode="normal" in="SourceGraphic" in2="BackgroundImageFix" result="shape"/>
<feColorMatrix in="SourceAlpha" type="matrix" values="0 0 0 0 0 0 0 0 0 0 0 0 0 0 0 0 0 0 127 0" result="hardAlpha"/>
<feOffset dx="2" dy="2"/>
<feGaussianBlur stdDeviation="1"/>
<feComposite in2="hardAlpha" operator="arithmetic" k2="-1" k3="1"/>
<feColorMatrix type="matrix" values="0 0 0 0 1 0 0 0 0 1 0 0 0 0 1 0 0 0 0.25 0"/>
<feBlend mode="normal" in2="shape" result="effect1_innerShadow_481_8268"/>
</filter>
<linearGradient id="paint0_linear_481_8268" x1="1.64509e-07" y1="1.5" x2="12" y2="13.5" gradientUnits="userSpaceOnUse">
<stop stop-color="#6C6C6C"/>
<stop offset="1" stop-color="#050505"/>
</linearGradient>
<linearGradient id="paint1_linear_481_8268" x1="1.64509e-07" y1="1.5" x2="12" y2="13.5" gradientUnits="userSpaceOnUse">
<stop stop-color="#6C6C6C"/>
<stop offset="1" stop-color="#050505"/>
</linearGradient>
<linearGradient id="paint2_linear_481_8268" x1="1.64509e-07" y1="1.5" x2="12" y2="13.5" gradientUnits="userSpaceOnUse">
<stop stop-color="#6C6C6C"/>
<stop offset="1" stop-color="#050505"/>
</linearGradient>
<linearGradient id="paint3_linear_481_8268" x1="1.64509e-07" y1="1.5" x2="12" y2="13.5" gradientUnits="userSpaceOnUse">
<stop stop-color="#6C6C6C"/>
<stop offset="1" stop-color="#050505"/>
</linearGradient>
<linearGradient id="paint4_linear_481_8268" x1="1.64509e-07" y1="1.5" x2="12" y2="13.5" gradientUnits="userSpaceOnUse">
<stop stop-color="#6C6C6C"/>
<stop offset="1" stop-color="#050505"/>
</linearGradient>
<linearGradient id="paint5_linear_481_8268" x1="9" y1="4.5" x2="3" y2="4.5" gradientUnits="userSpaceOnUse">
<stop stop-color="#3CA5E9"/>
<stop offset="1" stop-color="#75C4FA"/>
</linearGradient>
<linearGradient id="paint6_linear_481_8268" x1="9" y1="7" x2="2.19705" y2="5.38745" gradientUnits="userSpaceOnUse">
<stop stop-color="#5DB7FF"/>
<stop offset="1" stop-color="#76C8FF"/>
</linearGradient>
<linearGradient id="paint7_linear_481_8268" x1="6.00002" y1="4.85715" x2="6.00002" y2="7" gradientUnits="userSpaceOnUse">
<stop stop-color="#74D550"/>
<stop offset="0.834534" stop-color="#9DE272"/>
</linearGradient>
<linearGradient id="paint8_linear_481_8268" x1="9" y1="10.5" x2="3" y2="10.5" gradientUnits="userSpaceOnUse">
<stop stop-color="#3CA5E9"/>
<stop offset="1" stop-color="#75C4FA"/>
</linearGradient>
<linearGradient id="paint9_linear_481_8268" x1="9" y1="13" x2="2.19705" y2="11.3874" gradientUnits="userSpaceOnUse">
<stop stop-color="#5DB7FF"/>
<stop offset="1" stop-color="#76C8FF"/>
</linearGradient>
<linearGradient id="paint10_linear_481_8268" x1="6.00002" y1="10.8571" x2="6.00002" y2="13" gradientUnits="userSpaceOnUse">
<stop stop-color="#74D550"/>
<stop offset="0.834534" stop-color="#9DE272"/>
</linearGradient>
<linearGradient id="paint11_linear_481_8268" x1="14.5714" y1="14.7143" x2="8.17837" y2="7.61089" gradientUnits="userSpaceOnUse">
<stop stop-color="#247C10"/>
<stop offset="1" stop-color="#6FA53D"/>
</linearGradient>
<clipPath id="clip0_481_8268">
<rect width="6" height="5" fill="white" transform="translate(3 2)"/>
</clipPath>
<clipPath id="clip1_481_8268">
<rect width="6" height="5" fill="white" transform="translate(3 8)"/>
</clipPath>
</defs>
</svg>
