<svg width="16" height="16" viewBox="0 0 16 16" fill="none" xmlns="http://www.w3.org/2000/svg">
<g clip-path="url(#clip0_155_3000)">
<path d="M6.14258 5.5C6.76838 5.5 7.29428 5.92391 7.45117 6.5H12C12.8284 6.5 13.5 7.17157 13.5 8V14C13.5 14.8284 12.8284 15.5 12 15.5H2C1.17157 15.5 0.5 14.8284 0.5 14V6.85742C0.5 6.10789 1.10789 5.5 1.85742 5.5H6.14258Z" fill="url(#paint0_linear_155_3000)" stroke="url(#paint1_linear_155_3000)"/>
<path d="M1.85742 6.5H6.14258C6.33982 6.5 6.5 6.66018 6.5 6.85742C6.50015 7.21224 6.78776 7.49985 7.14258 7.5H12C12.2761 7.5 12.5 7.72386 12.5 8V14C12.5 14.2761 12.2761 14.5 12 14.5H2C1.72386 14.5 1.5 14.2761 1.5 14V6.85742C1.5 6.66018 1.66018 6.5 1.85742 6.5Z" stroke="white" stroke-opacity="0.5" style="mix-blend-mode:soft-light" stroke-linejoin="round"/>
<path d="M1.85742 6.5H6.14258C6.33982 6.5 6.5 6.66018 6.5 6.85742C6.50015 7.21224 6.78776 7.49985 7.14258 7.5H12C12.2761 7.5 12.5 7.72386 12.5 8V14C12.5 14.2761 12.2761 14.5 12 14.5H2C1.72386 14.5 1.5 14.2761 1.5 14V6.85742C1.5 6.66018 1.66018 6.5 1.85742 6.5Z" stroke="white" stroke-opacity="0.5" style="mix-blend-mode:hard-light" stroke-linejoin="round"/>
<mask id="path-3-inside-1_155_3000" fill="white">
<path d="M11 0L12.3225 3.17971L15.7553 3.45492L13.1398 5.69529L13.9389 9.04508L11 7.25L8.06105 9.04508L8.8601 5.69529L6.24469 3.45492L9.67746 3.17971L11 0Z"/>
</mask>
<g filter="url(#filter0_i_155_3000)">
<path d="M11 0L12.3225 3.17971L15.7553 3.45492L13.1398 5.69529L13.9389 9.04508L11 7.25L8.06105 9.04508L8.8601 5.69529L6.24469 3.45492L9.67746 3.17971L11 0Z" fill="#FFDC6B"/>
</g>
<path d="M11 0L11.9233 -0.384031L11 -2.60396L10.0767 -0.384031L11 0ZM12.3225 3.17971L11.3992 3.56374C11.5432 3.90998 11.8688 4.14655 12.2426 4.17651L12.3225 3.17971ZM15.7553 3.45492L16.4058 4.21437L18.2318 2.65025L15.8352 2.45811L15.7553 3.45492ZM13.1398 5.69529L12.4893 4.93583C12.2045 5.17978 12.0801 5.56256 12.1671 5.92731L13.1398 5.69529ZM13.9389 9.04508L13.4176 9.89849L15.4695 11.1517L14.9116 8.81306L13.9389 9.04508ZM11 7.25L11.5212 6.3966C11.2012 6.20113 10.7987 6.20113 10.4787 6.3966L11 7.25ZM8.06105 9.04508L7.08834 8.81306L6.53048 11.1517L8.5823 9.89849L8.06105 9.04508ZM8.8601 5.69529L9.8328 5.92731C9.91981 5.56256 9.79544 5.17978 9.51065 4.93583L8.8601 5.69529ZM6.24469 3.45492L6.16478 2.45811L3.76818 2.65025L5.59413 4.21437L6.24469 3.45492ZM9.67746 3.17971L9.75737 4.17651C10.1312 4.14655 10.4568 3.90998 10.6008 3.56374L9.67746 3.17971ZM11 0L10.0767 0.384031L11.3992 3.56374L12.3225 3.17971L13.2458 2.79568L11.9233 -0.384031L11 0ZM12.3225 3.17971L12.2426 4.17651L15.6753 4.45172L15.7553 3.45492L15.8352 2.45811L12.4024 2.18291L12.3225 3.17971ZM15.7553 3.45492L15.1047 2.69546L12.4893 4.93583L13.1398 5.69529L13.7904 6.45475L16.4058 4.21437L15.7553 3.45492ZM13.1398 5.69529L12.1671 5.92731L12.9662 9.27711L13.9389 9.04508L14.9116 8.81306L14.1126 5.46326L13.1398 5.69529ZM13.9389 9.04508L14.4602 8.19168L11.5212 6.3966L11 7.25L10.4787 8.1034L13.4176 9.89849L13.9389 9.04508ZM11 7.25L10.4787 6.3966L7.53979 8.19168L8.06105 9.04508L8.5823 9.89849L11.5212 8.1034L11 7.25ZM8.06105 9.04508L9.03376 9.27711L9.8328 5.92731L8.8601 5.69529L7.88739 5.46326L7.08834 8.81306L8.06105 9.04508ZM8.8601 5.69529L9.51065 4.93583L6.89525 2.69546L6.24469 3.45492L5.59413 4.21437L8.20954 6.45475L8.8601 5.69529ZM6.24469 3.45492L6.3246 4.45172L9.75737 4.17651L9.67746 3.17971L9.59754 2.18291L6.16478 2.45811L6.24469 3.45492ZM9.67746 3.17971L10.6008 3.56374L11.9233 0.384031L11 0L10.0767 -0.384031L8.75414 2.79568L9.67746 3.17971Z" fill="url(#paint2_linear_155_3000)" mask="url(#path-3-inside-1_155_3000)"/>
<path d="M12 8.5C12.8284 8.5 13.5 9.17157 13.5 10V14C13.5 14.8284 12.8284 15.5 12 15.5H2C1.17157 15.5 0.5 14.8284 0.5 14V11C0.5 10.1716 1.17157 9.5 2 9.5H4.29297C4.61309 9.49998 4.92013 9.37284 5.14648 9.14648C5.56038 8.73259 6.1217 8.50002 6.70703 8.5H12Z" fill="url(#paint3_linear_155_3000)" stroke="url(#paint4_linear_155_3000)"/>
<path d="M6.70703 9.5H12C12.2761 9.5 12.5 9.72386 12.5 10V14C12.5 14.2761 12.2761 14.5 12 14.5H2C1.72386 14.5 1.5 14.2761 1.5 14V11C1.5 10.7239 1.72386 10.5 2 10.5H4.29297C4.8783 10.5 5.43962 10.2674 5.85352 9.85352C6.07987 9.62716 6.38691 9.50002 6.70703 9.5Z" stroke="white" stroke-opacity="0.5" style="mix-blend-mode:hard-light"/>
<path d="M6.70703 9.5H12C12.2761 9.5 12.5 9.72386 12.5 10V14C12.5 14.2761 12.2761 14.5 12 14.5H2C1.72386 14.5 1.5 14.2761 1.5 14V11C1.5 10.7239 1.72386 10.5 2 10.5H4.29297C4.8783 10.5 5.43962 10.2674 5.85352 9.85352C6.07987 9.62716 6.38691 9.50002 6.70703 9.5Z" stroke="white" stroke-opacity="0.5" style="mix-blend-mode:soft-light"/>
</g>
<defs>
<filter id="filter0_i_155_3000" x="6.24469" y="0" width="10.5106" height="10.0451" filterUnits="userSpaceOnUse" color-interpolation-filters="sRGB">
<feFlood flood-opacity="0" result="BackgroundImageFix"/>
<feBlend mode="normal" in="SourceGraphic" in2="BackgroundImageFix" result="shape"/>
<feColorMatrix in="SourceAlpha" type="matrix" values="0 0 0 0 0 0 0 0 0 0 0 0 0 0 0 0 0 0 127 0" result="hardAlpha"/>
<feOffset dx="1" dy="1"/>
<feGaussianBlur stdDeviation="1"/>
<feComposite in2="hardAlpha" operator="arithmetic" k2="-1" k3="1"/>
<feColorMatrix type="matrix" values="0 0 0 0 1 0 0 0 0 1 0 0 0 0 1 0 0 0 1 0"/>
<feBlend mode="hard-light" in2="shape" result="effect1_innerShadow_155_3000"/>
</filter>
<linearGradient id="paint0_linear_155_3000" x1="1" y1="6" x2="13" y2="15" gradientUnits="userSpaceOnUse">
<stop stop-color="#F8E48E"/>
<stop offset="1" stop-color="#F1CD2E"/>
</linearGradient>
<linearGradient id="paint1_linear_155_3000" x1="7" y1="6" x2="7" y2="15" gradientUnits="userSpaceOnUse">
<stop stop-color="#E0C259"/>
<stop offset="1" stop-color="#D98C34"/>
</linearGradient>
<linearGradient id="paint2_linear_155_3000" x1="7.99994" y1="1.33333" x2="14.7204" y2="8.30558" gradientUnits="userSpaceOnUse">
<stop stop-color="#FDC922"/>
<stop offset="0.5" stop-color="#F0B411"/>
<stop offset="1" stop-color="#C88311"/>
</linearGradient>
<linearGradient id="paint3_linear_155_3000" x1="6" y1="9" x2="8" y2="15" gradientUnits="userSpaceOnUse">
<stop stop-color="white" stop-opacity="0.66"/>
<stop offset="1" stop-color="#F1CD2E"/>
</linearGradient>
<linearGradient id="paint4_linear_155_3000" x1="7" y1="9" x2="7" y2="15" gradientUnits="userSpaceOnUse">
<stop stop-color="#DEB04D"/>
<stop offset="1" stop-color="#D98B34"/>
</linearGradient>
<clipPath id="clip0_155_3000">
<rect width="16" height="16" fill="white"/>
</clipPath>
</defs>
</svg>
