<svg width="16" height="16" viewBox="0 0 16 16" fill="none" xmlns="http://www.w3.org/2000/svg">
<path d="M7 12.5C8.90011 12.5 10.6018 12.7205 11.8125 13.0664C12.4211 13.2403 12.8773 13.4381 13.1699 13.6357C13.48 13.8452 13.5 13.9776 13.5 14C13.5 14.0224 13.48 14.1548 13.1699 14.3643C12.8773 14.5619 12.4211 14.7597 11.8125 14.9336C10.6018 15.2795 8.90011 15.5 7 15.5C5.09989 15.5 3.39818 15.2795 2.1875 14.9336C1.57887 14.7597 1.12269 14.5619 0.830078 14.3643C0.520013 14.1548 0.5 14.0224 0.5 14C0.5 13.9776 0.520013 13.8452 0.830078 13.6357C1.12269 13.4381 1.57887 13.2403 2.1875 13.0664C3.39818 12.7205 5.09989 12.5 7 12.5Z" fill="url(#paint0_linear_455_8079)" stroke="url(#paint1_linear_455_8079)"/>
<path d="M7 1.5C8.40336 1.5 9.68796 1.61357 10.6338 1.80273C11.1025 1.89649 11.5147 2.01421 11.8213 2.15918C11.9731 2.23101 12.1263 2.32144 12.248 2.44043C12.3709 2.56046 12.5 2.74913 12.5 3C12.5 4.55 11.2434 5.43946 10.2832 6.09961C9.76377 6.45672 9.31052 6.75507 8.97461 7.08398C8.64916 7.40271 8.5 7.68811 8.5 8C8.5 8.31189 8.64916 8.59729 8.97461 8.91602C9.31052 9.24493 9.76377 9.54328 10.2832 9.90039C11.2434 10.5605 12.5 11.45 12.5 13C12.5 13.2509 12.3709 13.4395 12.248 13.5596C12.1263 13.6786 11.9731 13.769 11.8213 13.8408C11.5147 13.9858 11.1025 14.1035 10.6338 14.1973C9.68796 14.3864 8.40336 14.5 7 14.5C5.59664 14.5 4.31204 14.3864 3.36621 14.1973C2.89751 14.1035 2.4853 13.9858 2.17871 13.8408C2.02691 13.769 1.87375 13.6786 1.75195 13.5596C1.62915 13.4395 1.5 13.2509 1.5 13C1.5 11.45 2.75658 10.5605 3.7168 9.90039C4.23623 9.54328 4.68948 9.24493 5.02539 8.91602C5.35084 8.59729 5.5 8.31189 5.5 8C5.5 7.68811 5.35084 7.40271 5.02539 7.08398C4.68948 6.75507 4.23623 6.45672 3.7168 6.09961C2.75658 5.43946 1.5 4.55 1.5 3C1.5 2.74913 1.62915 2.56046 1.75195 2.44043C1.87375 2.32144 2.02691 2.23101 2.17871 2.15918C2.4853 2.01421 2.89751 1.89649 3.36621 1.80273C4.31204 1.61357 5.59664 1.5 7 1.5Z" fill="url(#paint2_linear_455_8079)" stroke="url(#paint3_linear_455_8079)"/>
<path d="M12 13C12 12.7239 9.76142 12.5 7 12.5C4.23858 12.5 2 12.7239 2 13" stroke="url(#paint4_linear_455_8079)" stroke-opacity="0.66" stroke-linecap="round"/>
<g filter="url(#filter0_f_455_8079)">
<ellipse cx="1.5" cy="2.5" rx="1.5" ry="2.5" transform="matrix(-0.866025 0.5 0.5 0.866025 5.54907 1.58496)" fill="white"/>
</g>
<g filter="url(#filter1_f_455_8079)">
<ellipse cx="5.49997" cy="11.5" rx="1.5" ry="2.5" transform="rotate(30 5.49997 11.5)" fill="white"/>
</g>
<path d="M7 0.5C8.90011 0.5 10.6018 0.720498 11.8125 1.06641C12.4211 1.24031 12.8773 1.43811 13.1699 1.63574C13.48 1.84519 13.5 1.97761 13.5 2C13.5 2.02239 13.48 2.15481 13.1699 2.36426C12.8773 2.56189 12.4211 2.75969 11.8125 2.93359C10.6018 3.2795 8.90011 3.5 7 3.5C5.09989 3.5 3.39818 3.2795 2.1875 2.93359C1.57887 2.75969 1.12269 2.56189 0.830078 2.36426C0.520013 2.15481 0.5 2.02239 0.5 2C0.5 1.97761 0.520013 1.84519 0.830078 1.63574C1.12269 1.43811 1.57887 1.24031 2.1875 1.06641C3.39818 0.720498 5.09989 0.5 7 0.5Z" fill="url(#paint5_linear_455_8079)" stroke="url(#paint6_linear_455_8079)"/>
<mask id="path-7-inside-1_455_8079" fill="white">
<path d="M10 9H6V14H10V16H11L16 11.5L11 7H10V9Z"/>
</mask>
<g filter="url(#filter2_i_455_8079)">
<path d="M10 9H6V14H10V16H11L16 11.5L11 7H10V9Z" fill="#80B361"/>
</g>
<path d="M6 9V8H5V9H6ZM10 9V10C10.5523 10 11 9.55228 11 9H10ZM10 7V6H9V7H10ZM11 7L11.669 6.25671L11.3837 6H11V7ZM16 11.5L16.669 12.2433L17.4948 11.5L16.669 10.7567L16 11.5ZM11 16V17H11.3837L11.669 16.7433L11 16ZM10 16H9V17H10V16ZM10 14H11C11 13.4477 10.5523 13 10 13V14ZM6 14H5V15H6V14ZM6 9V10H10V9V8H6V9ZM10 9H11V7H10H9V9H10ZM10 7V8H11V7V6H10V7ZM11 7L10.331 7.74329L15.331 12.2433L16 11.5L16.669 10.7567L11.669 6.25671L11 7ZM16 11.5L15.331 10.7567L10.331 15.2567L11 16L11.669 16.7433L16.669 12.2433L16 11.5ZM11 16V15H10V16V17H11V16ZM10 16H11V14H10H9V16H10ZM10 14V13H6V14V15H10V14ZM6 14H7V9H6H5V14H6Z" fill="url(#paint7_linear_455_8079)" mask="url(#path-7-inside-1_455_8079)"/>
<path d="M13.752 11.4996L11.4404 13.5826C11.2619 12.9642 10.6972 12.4996 10.0049 12.4996H7.5V10.4996H10C10.7153 10.4996 11.2655 10.0249 11.4404 9.41565L13.752 11.4996Z" stroke="white" stroke-opacity="0.2"/>
<defs>
<filter id="filter0_f_455_8079" x="2.69727" y="1.2081" width="5.60553" height="6.58383" filterUnits="userSpaceOnUse" color-interpolation-filters="sRGB">
<feFlood flood-opacity="0" result="BackgroundImageFix"/>
<feBlend mode="normal" in="SourceGraphic" in2="BackgroundImageFix" result="shape"/>
<feGaussianBlur stdDeviation="0.5" result="effect1_foregroundBlur_455_8079"/>
</filter>
<filter id="filter1_f_455_8079" x="1.6972" y="7.2081" width="7.60553" height="8.58383" filterUnits="userSpaceOnUse" color-interpolation-filters="sRGB">
<feFlood flood-opacity="0" result="BackgroundImageFix"/>
<feBlend mode="normal" in="SourceGraphic" in2="BackgroundImageFix" result="shape"/>
<feGaussianBlur stdDeviation="1" result="effect1_foregroundBlur_455_8079"/>
</filter>
<filter id="filter2_i_455_8079" x="6" y="7" width="12" height="11" filterUnits="userSpaceOnUse" color-interpolation-filters="sRGB">
<feFlood flood-opacity="0" result="BackgroundImageFix"/>
<feBlend mode="normal" in="SourceGraphic" in2="BackgroundImageFix" result="shape"/>
<feColorMatrix in="SourceAlpha" type="matrix" values="0 0 0 0 0 0 0 0 0 0 0 0 0 0 0 0 0 0 127 0" result="hardAlpha"/>
<feOffset dx="2" dy="2"/>
<feGaussianBlur stdDeviation="1"/>
<feComposite in2="hardAlpha" operator="arithmetic" k2="-1" k3="1"/>
<feColorMatrix type="matrix" values="0 0 0 0 1 0 0 0 0 1 0 0 0 0 1 0 0 0 0.25 0"/>
<feBlend mode="normal" in2="shape" result="effect1_innerShadow_455_8079"/>
</filter>
<linearGradient id="paint0_linear_455_8079" x1="1" y1="13" x2="13" y2="15" gradientUnits="userSpaceOnUse">
<stop stop-color="#ECD3A1"/>
<stop offset="1" stop-color="#CF9B73"/>
</linearGradient>
<linearGradient id="paint1_linear_455_8079" x1="1" y1="13" x2="13" y2="15" gradientUnits="userSpaceOnUse">
<stop stop-color="#D69F71"/>
<stop offset="1" stop-color="#98631E"/>
</linearGradient>
<linearGradient id="paint2_linear_455_8079" x1="2" y1="8" x2="12" y2="8" gradientUnits="userSpaceOnUse">
<stop stop-color="#E5F0FA"/>
<stop offset="0.203309" stop-color="#E5F0FA"/>
<stop offset="0.575454" stop-color="#CEE2F6"/>
<stop offset="0.862286" stop-color="#DFECF9"/>
</linearGradient>
<linearGradient id="paint3_linear_455_8079" x1="2" y1="3" x2="12" y2="13" gradientUnits="userSpaceOnUse">
<stop stop-color="#B8D5F4" stop-opacity="0.996078"/>
<stop offset="1" stop-color="#749ACB"/>
</linearGradient>
<linearGradient id="paint4_linear_455_8079" x1="2" y1="8.5" x2="6" y2="16.5" gradientUnits="userSpaceOnUse">
<stop stop-color="#B8D5F4" stop-opacity="0.996078"/>
<stop offset="1" stop-color="#749ACB"/>
</linearGradient>
<linearGradient id="paint5_linear_455_8079" x1="1" y1="1" x2="13" y2="3" gradientUnits="userSpaceOnUse">
<stop stop-color="#ECD3A1"/>
<stop offset="1" stop-color="#CF9B73"/>
</linearGradient>
<linearGradient id="paint6_linear_455_8079" x1="1" y1="1" x2="13" y2="3" gradientUnits="userSpaceOnUse">
<stop stop-color="#D69F71"/>
<stop offset="1" stop-color="#98631E"/>
</linearGradient>
<linearGradient id="paint7_linear_455_8079" x1="14.5714" y1="14.7143" x2="8.17837" y2="7.61089" gradientUnits="userSpaceOnUse">
<stop stop-color="#247C10"/>
<stop offset="1" stop-color="#6FA53D"/>
</linearGradient>
</defs>
</svg>
