<svg width="16" height="16" viewBox="0 0 16 16" fill="none" xmlns="http://www.w3.org/2000/svg">
<g clip-path="url(#clip0_319_9661)">
<g clip-path="url(#clip1_319_9661)">
<path d="M12.5 8.70703V14.5H3.5V8.70703L8 4.20703L12.5 8.70703Z" fill="#F3F8FE" stroke="url(#paint0_linear_319_9661)"/>
<mask id="path-2-inside-1_319_9661" fill="white">
<path d="M6 9H10V15H6V9Z"/>
</mask>
<path d="M6 9H10V15H6V9Z" fill="url(#paint1_linear_319_9661)"/>
<path d="M6 9V8H5V9H6ZM10 9H11V8H10V9ZM10 15V16H11V15H10ZM6 15H5V16H6V15ZM6 10H10V8H6V10ZM9 9V15H11V9H9ZM10 14H6V16H10V14ZM7 15V9H5V15H7Z" fill="url(#paint2_linear_319_9661)" mask="url(#path-2-inside-1_319_9661)"/>
<path d="M5 14C5 14.4907 5 15 5 15H0C0 15 0 14.8284 0 14C0 13.1716 1.11929 12 2.50001 12C3.88072 12 5 13.1716 5 14Z" fill="url(#paint3_linear_319_9661)"/>
<path d="M2.5 12.5C3.04877 12.5 3.56069 12.7344 3.93848 13.0654C4.33295 13.4112 4.5 13.7856 4.5 14C4.5 14.172 4.5 14.3462 4.5 14.5H0.5V14C0.5 13.7856 0.667051 13.4112 1.06152 13.0654C1.43931 12.7344 1.95123 12.5 2.5 12.5Z" stroke="#2F6F29" stroke-opacity="0.33"/>
<path d="M16 14C16 14.4907 16 15 16 15H11C11 15 11 14.8284 11 14C11 13.1716 12.1193 12 13.5 12C14.8807 12 16 13.1716 16 14Z" fill="url(#paint4_linear_319_9661)"/>
<path d="M13.5 12.5C14.0488 12.5 14.5607 12.7344 14.9385 13.0654C15.3329 13.4112 15.5 13.7856 15.5 14C15.5 14.172 15.5 14.3462 15.5 14.5H11.5V14C11.5 13.7856 11.6671 13.4112 12.0615 13.0654C12.4393 12.7344 12.9512 12.5 13.5 12.5Z" stroke="#2F6F29" stroke-opacity="0.33"/>
<path d="M9 1.5L9.09766 1.50977C9.19389 1.52894 9.28311 1.57608 9.35352 1.64648L14.8535 7.14648C15.0488 7.34175 15.0488 7.65825 14.8535 7.85352L13.8535 8.85352C13.6583 9.04878 13.3417 9.04878 13.1465 8.85352L8.79297 4.5H7.20703L2.85352 8.85352C2.65825 9.04878 2.34175 9.04878 2.14648 8.85352L1.14648 7.85352C0.951222 7.65825 0.951222 7.34175 1.14648 7.14648L6.64648 1.64648L6.72266 1.58398C6.80419 1.52963 6.90056 1.5 7 1.5H9Z" fill="url(#paint5_linear_319_9661)" stroke="url(#paint6_linear_319_9661)" stroke-linejoin="round"/>
</g>
<mask id="path-9-inside-2_319_9661" fill="white">
<path d="M10 9H6V14H10V16H11L16 11.5L11 7H10V9Z"/>
</mask>
<g filter="url(#filter0_i_319_9661)">
<path d="M10 9H6V14H10V16H11L16 11.5L11 7H10V9Z" fill="#80B361"/>
</g>
<path d="M6 9V8H5V9H6ZM10 9V10C10.5523 10 11 9.55228 11 9H10ZM10 7V6H9V7H10ZM11 7L11.669 6.25671L11.3837 6H11V7ZM16 11.5L16.669 12.2433L17.4948 11.5L16.669 10.7567L16 11.5ZM11 16V17H11.3837L11.669 16.7433L11 16ZM10 16H9V17H10V16ZM10 14H11C11 13.4477 10.5523 13 10 13V14ZM6 14H5V15H6V14ZM6 9V10H10V9V8H6V9ZM10 9H11V7H10H9V9H10ZM10 7V8H11V7V6H10V7ZM11 7L10.331 7.74329L15.331 12.2433L16 11.5L16.669 10.7567L11.669 6.25671L11 7ZM16 11.5L15.331 10.7567L10.331 15.2567L11 16L11.669 16.7433L16.669 12.2433L16 11.5ZM11 16V15H10V16V17H11V16ZM10 16H11V14H10H9V16H10ZM10 14V13H6V14V15H10V14ZM6 14H7V9H6H5V14H6Z" fill="url(#paint7_linear_319_9661)" mask="url(#path-9-inside-2_319_9661)"/>
<path d="M13.752 11.4996L11.4404 13.5826C11.2619 12.9642 10.6972 12.4996 10.0049 12.4996H7.5V10.4996H10C10.7153 10.4996 11.2655 10.0249 11.4404 9.41565L13.752 11.4996Z" stroke="white" stroke-opacity="0.2"/>
</g>
<defs>
<filter id="filter0_i_319_9661" x="6" y="7" width="12" height="11" filterUnits="userSpaceOnUse" color-interpolation-filters="sRGB">
<feFlood flood-opacity="0" result="BackgroundImageFix"/>
<feBlend mode="normal" in="SourceGraphic" in2="BackgroundImageFix" result="shape"/>
<feColorMatrix in="SourceAlpha" type="matrix" values="0 0 0 0 0 0 0 0 0 0 0 0 0 0 0 0 0 0 127 0" result="hardAlpha"/>
<feOffset dx="2" dy="2"/>
<feGaussianBlur stdDeviation="1"/>
<feComposite in2="hardAlpha" operator="arithmetic" k2="-1" k3="1"/>
<feColorMatrix type="matrix" values="0 0 0 0 1 0 0 0 0 1 0 0 0 0 1 0 0 0 0.25 0"/>
<feBlend mode="normal" in2="shape" result="effect1_innerShadow_319_9661"/>
</filter>
<linearGradient id="paint0_linear_319_9661" x1="3" y1="6.5" x2="10" y2="14.5" gradientUnits="userSpaceOnUse">
<stop stop-color="#CFCDCB"/>
<stop offset="1" stop-color="#666666"/>
</linearGradient>
<linearGradient id="paint1_linear_319_9661" x1="8" y1="9" x2="8" y2="15" gradientUnits="userSpaceOnUse">
<stop stop-color="#999999"/>
<stop offset="1" stop-color="#ACACAC"/>
</linearGradient>
<linearGradient id="paint2_linear_319_9661" x1="8" y1="9" x2="8" y2="15" gradientUnits="userSpaceOnUse">
<stop stop-color="#747474"/>
<stop offset="1" stop-color="#8C8C8C"/>
</linearGradient>
<linearGradient id="paint3_linear_319_9661" x1="2.34112e-08" y1="13.5" x2="4.99933" y2="13.5581" gradientUnits="userSpaceOnUse">
<stop stop-color="#8FCA84"/>
<stop offset="1" stop-color="#5EA455"/>
</linearGradient>
<linearGradient id="paint4_linear_319_9661" x1="11" y1="13.5" x2="15.9993" y2="13.5581" gradientUnits="userSpaceOnUse">
<stop stop-color="#8FCA84"/>
<stop offset="1" stop-color="#2F6F29" stop-opacity="0.956863"/>
</linearGradient>
<linearGradient id="paint5_linear_319_9661" x1="14.5" y1="5.25" x2="1.5" y2="5.25" gradientUnits="userSpaceOnUse">
<stop stop-color="#B18C5C"/>
<stop offset="1" stop-color="#D3AF7A"/>
</linearGradient>
<linearGradient id="paint6_linear_319_9661" x1="14" y1="9" x2="7" y2="2" gradientUnits="userSpaceOnUse">
<stop stop-color="#783E25" stop-opacity="0.992157"/>
<stop offset="1" stop-color="#BA7D33" stop-opacity="0.945098"/>
</linearGradient>
<linearGradient id="paint7_linear_319_9661" x1="14.5714" y1="14.7143" x2="8.17837" y2="7.61089" gradientUnits="userSpaceOnUse">
<stop stop-color="#247C10"/>
<stop offset="1" stop-color="#6FA53D"/>
</linearGradient>
<clipPath id="clip0_319_9661">
<rect width="16" height="16" fill="white"/>
</clipPath>
<clipPath id="clip1_319_9661">
<rect width="16" height="16" fill="white"/>
</clipPath>
</defs>
</svg>
