<svg width="16" height="16" viewBox="0 0 16 16" fill="none" xmlns="http://www.w3.org/2000/svg">
<g clip-path="url(#clip0_146_4544)">
<g filter="url(#filter0_i_146_4544)">
<path d="M7.4 -4.55C7.75556 -4.81667 8.24444 -4.81667 8.6 -4.55L11.6 -2.3C11.8518 -2.11115 12 -1.81476 12 -1.5V4.5C12 4.81476 11.8518 5.11115 11.6 5.3L8.6 7.55C8.24444 7.81667 7.75556 7.81667 7.4 7.55L4.4 5.3C4.14819 5.11115 4 4.81476 4 4.5V-1.5C4 -1.81476 4.14819 -2.11115 4.4 -2.3L7.4 -4.55Z" fill="#69C459"/>
</g>
<path d="M7.09961 -4.9502C7.63294 -5.3502 8.36706 -5.3502 8.90039 -4.9502L11.9004 -2.7002C12.278 -2.41691 12.5 -1.97207 12.5 -1.5V4.5C12.5 4.97207 12.278 5.41691 11.9004 5.7002L8.90039 7.9502C8.36706 8.35019 7.63294 8.35019 7.09961 7.9502L4.09961 5.7002C3.722 5.41691 3.5 4.97207 3.5 4.5V-1.5C3.5 -1.97207 3.722 -2.41691 4.09961 -2.7002L7.09961 -4.9502Z" stroke="url(#paint0_linear_146_4544)" stroke-linejoin="round"/>
<path d="M7.7002 -4.15039C7.87784 -4.28341 8.12216 -4.28341 8.2998 -4.15039L11.2998 -1.90039C11.4257 -1.80596 11.5 -1.65738 11.5 -1.5V4.5C11.5 4.65738 11.4257 4.80596 11.2998 4.90039L8.2998 7.15039C8.12216 7.28341 7.87784 7.28341 7.7002 7.15039L4.7002 4.90039C4.57429 4.80596 4.5 4.65738 4.5 4.5V-1.5C4.5 -1.65738 4.57429 -1.80596 4.7002 -1.90039L7.7002 -4.15039Z" stroke="white" stroke-opacity="0.5" style="mix-blend-mode:hard-light"/>
<mask id="path-4-inside-1_146_4544" fill="white">
<path d="M7.99999 4L9.58702 7.81565L13.7063 8.1459L10.5678 10.8343L11.5267 14.8541L7.99999 12.7L4.47328 14.8541L5.43214 10.8343L2.29366 8.1459L6.41297 7.81565L7.99999 4Z"/>
</mask>
<g filter="url(#filter1_i_146_4544)">
<path d="M7.99999 4L9.58702 7.81565L13.7063 8.1459L10.5678 10.8343L11.5267 14.8541L7.99999 12.7L4.47328 14.8541L5.43214 10.8343L2.29366 8.1459L6.41297 7.81565L7.99999 4Z" fill="#C5C5C5"/>
</g>
<path d="M7.99999 4L8.92332 3.61597L7.99999 1.39604L7.07667 3.61597L7.99999 4ZM9.58702 7.81565L8.66369 8.19968C8.8077 8.54592 9.13331 8.78249 9.5071 8.81246L9.58702 7.81565ZM13.7063 8.1459L14.3569 8.90536L16.1828 7.34123L13.7862 7.1491L13.7063 8.1459ZM10.5678 10.8343L9.91729 10.0749C9.6325 10.3188 9.50813 10.7016 9.59514 11.0664L10.5678 10.8343ZM11.5267 14.8541L11.0055 15.7075L13.0573 16.9607L12.4994 14.6221L11.5267 14.8541ZM7.99999 12.7L8.52125 11.8466C8.20123 11.6511 7.79876 11.6511 7.47874 11.8466L7.99999 12.7ZM4.47328 14.8541L3.50057 14.6221L2.94271 16.9607L4.99454 15.7075L4.47328 14.8541ZM5.43214 10.8343L6.40485 11.0664C6.49186 10.7016 6.36749 10.3188 6.0827 10.0749L5.43214 10.8343ZM2.29366 8.1459L2.21374 7.1491L-0.182857 7.34123L1.6431 8.90536L2.29366 8.1459ZM6.41297 7.81565L6.49289 8.81246C6.86668 8.78249 7.19229 8.54592 7.33629 8.19968L6.41297 7.81565ZM7.99999 4L7.07667 4.38403L8.66369 8.19968L9.58702 7.81565L10.5103 7.43162L8.92332 3.61597L7.99999 4ZM9.58702 7.81565L9.5071 8.81246L13.6264 9.1427L13.7063 8.1459L13.7862 7.1491L9.66693 6.81885L9.58702 7.81565ZM13.7063 8.1459L13.0558 7.38644L9.91729 10.0749L10.5678 10.8343L11.2184 11.5938L14.3569 8.90536L13.7063 8.1459ZM10.5678 10.8343L9.59514 11.0664L10.554 15.0861L11.5267 14.8541L12.4994 14.6221L11.5406 10.6023L10.5678 10.8343ZM11.5267 14.8541L12.048 14.0007L8.52125 11.8466L7.99999 12.7L7.47874 13.5534L11.0055 15.7075L11.5267 14.8541ZM7.99999 12.7L7.47874 11.8466L3.95203 14.0007L4.47328 14.8541L4.99454 15.7075L8.52125 13.5534L7.99999 12.7ZM4.47328 14.8541L5.44599 15.0861L6.40485 11.0664L5.43214 10.8343L4.45943 10.6023L3.50057 14.6221L4.47328 14.8541ZM5.43214 10.8343L6.0827 10.0749L2.94421 7.38644L2.29366 8.1459L1.6431 8.90536L4.78159 11.5938L5.43214 10.8343ZM2.29366 8.1459L2.37357 9.1427L6.49289 8.81246L6.41297 7.81565L6.33306 6.81885L2.21374 7.1491L2.29366 8.1459ZM6.41297 7.81565L7.33629 8.19968L8.92332 4.38403L7.99999 4L7.07667 3.61597L5.48965 7.43162L6.41297 7.81565Z" fill="url(#paint1_linear_146_4544)" mask="url(#path-4-inside-1_146_4544)"/>
</g>
<defs>
<filter id="filter0_i_146_4544" x="3" y="-5.75" width="12" height="16.5" filterUnits="userSpaceOnUse" color-interpolation-filters="sRGB">
<feFlood flood-opacity="0" result="BackgroundImageFix"/>
<feBlend mode="normal" in="SourceGraphic" in2="BackgroundImageFix" result="shape"/>
<feColorMatrix in="SourceAlpha" type="matrix" values="0 0 0 0 0 0 0 0 0 0 0 0 0 0 0 0 0 0 127 0" result="hardAlpha"/>
<feOffset dx="2" dy="2"/>
<feGaussianBlur stdDeviation="2.5"/>
<feComposite in2="hardAlpha" operator="arithmetic" k2="-1" k3="1"/>
<feColorMatrix type="matrix" values="0 0 0 0 1 0 0 0 0 1 0 0 0 0 1 0 0 0 0.5 0"/>
<feBlend mode="hard-light" in2="shape" result="effect1_innerShadow_146_4544"/>
</filter>
<filter id="filter1_i_146_4544" x="2.29366" y="4" width="12.4127" height="11.8541" filterUnits="userSpaceOnUse" color-interpolation-filters="sRGB">
<feFlood flood-opacity="0" result="BackgroundImageFix"/>
<feBlend mode="normal" in="SourceGraphic" in2="BackgroundImageFix" result="shape"/>
<feColorMatrix in="SourceAlpha" type="matrix" values="0 0 0 0 0 0 0 0 0 0 0 0 0 0 0 0 0 0 127 0" result="hardAlpha"/>
<feOffset dx="1" dy="1"/>
<feGaussianBlur stdDeviation="1.5"/>
<feComposite in2="hardAlpha" operator="arithmetic" k2="-1" k3="1"/>
<feColorMatrix type="matrix" values="0 0 0 0 1 0 0 0 0 1 0 0 0 0 1 0 0 0 1 0"/>
<feBlend mode="normal" in2="shape" result="effect1_innerShadow_146_4544"/>
</filter>
<linearGradient id="paint0_linear_146_4544" x1="12" y1="8" x2="4" y2="-5" gradientUnits="userSpaceOnUse">
<stop stop-color="#235120"/>
<stop offset="1" stop-color="#65B359"/>
</linearGradient>
<linearGradient id="paint1_linear_146_4544" x1="4.39995" y1="5.6" x2="12.4645" y2="13.9667" gradientUnits="userSpaceOnUse">
<stop stop-color="#D8D8D8"/>
<stop offset="1" stop-color="#585858"/>
</linearGradient>
<clipPath id="clip0_146_4544">
<rect width="16" height="16" fill="white"/>
</clipPath>
</defs>
</svg>
