<svg width="16" height="16" viewBox="0 0 16 16" fill="none" xmlns="http://www.w3.org/2000/svg">
<g clip-path="url(#clip0_146_4547)">
<g filter="url(#filter0_i_146_4547)">
<path d="M6.4 -4.55C6.75556 -4.81667 7.24444 -4.81667 7.6 -4.55L10.6 -2.3C10.8518 -2.11115 11 -1.81476 11 -1.5V4.5C11 4.81476 10.8518 5.11115 10.6 5.3L7.6 7.55C7.24444 7.81667 6.75556 7.81667 6.4 7.55L3.4 5.3C3.14819 5.11115 3 4.81476 3 4.5V-1.5C3 -1.81476 3.14819 -2.11115 3.4 -2.3L6.4 -4.55Z" fill="#EB3131"/>
</g>
<path d="M6.09961 -4.9502C6.63294 -5.3502 7.36706 -5.3502 7.90039 -4.9502L10.9004 -2.7002C11.278 -2.41691 11.5 -1.97207 11.5 -1.5V4.5C11.5 4.97207 11.278 5.41691 10.9004 5.7002L7.90039 7.9502C7.36706 8.35019 6.63294 8.35019 6.09961 7.9502L3.09961 5.7002C2.722 5.41691 2.5 4.97207 2.5 4.5V-1.5C2.5 -1.97207 2.722 -2.41691 3.09961 -2.7002L6.09961 -4.9502Z" stroke="url(#paint0_linear_146_4547)" stroke-linejoin="round"/>
<path d="M6.7002 -4.15039C6.87784 -4.28341 7.12216 -4.28341 7.2998 -4.15039L10.2998 -1.90039C10.4257 -1.80596 10.5 -1.65738 10.5 -1.5V4.5C10.5 4.65738 10.4257 4.80596 10.2998 4.90039L7.2998 7.15039C7.12216 7.28341 6.87784 7.28341 6.7002 7.15039L3.7002 4.90039C3.57429 4.80596 3.5 4.65738 3.5 4.5V-1.5C3.5 -1.65738 3.57429 -1.80596 3.7002 -1.90039L6.7002 -4.15039Z" stroke="white" stroke-opacity="0.5" style="mix-blend-mode:hard-light"/>
<mask id="path-4-inside-1_146_4547" fill="white">
<path d="M7.00001 4L8.58703 7.81565L12.7063 8.1459L9.56786 10.8343L10.5267 14.8541L7.00001 12.7L3.4733 14.8541L4.43216 10.8343L1.29367 8.1459L5.41299 7.81565L7.00001 4Z"/>
</mask>
<g filter="url(#filter1_i_146_4547)">
<path d="M7.00001 4L8.58703 7.81565L12.7063 8.1459L9.56786 10.8343L10.5267 14.8541L7.00001 12.7L3.4733 14.8541L4.43216 10.8343L1.29367 8.1459L5.41299 7.81565L7.00001 4Z" fill="#C5C5C5"/>
</g>
<path d="M7.00001 4L7.92333 3.61597L7.00001 1.39604L6.07669 3.61597L7.00001 4ZM8.58703 7.81565L7.66371 8.19968C7.80772 8.54592 8.13333 8.78249 8.50712 8.81246L8.58703 7.81565ZM12.7063 8.1459L13.3569 8.90536L15.1829 7.34123L12.7863 7.1491L12.7063 8.1459ZM9.56786 10.8343L8.91731 10.0749C8.63252 10.3188 8.50814 10.7016 8.59515 11.0664L9.56786 10.8343ZM10.5267 14.8541L10.0055 15.7075L12.0573 16.9607L11.4994 14.6221L10.5267 14.8541ZM7.00001 12.7L7.52126 11.8466C7.20125 11.6511 6.79877 11.6511 6.47876 11.8466L7.00001 12.7ZM3.4733 14.8541L2.50059 14.6221L1.94273 16.9607L3.99455 15.7075L3.4733 14.8541ZM4.43216 10.8343L5.40487 11.0664C5.49187 10.7016 5.3675 10.3188 5.08271 10.0749L4.43216 10.8343ZM1.29367 8.1459L1.21376 7.1491L-1.18284 7.34123L0.643114 8.90536L1.29367 8.1459ZM5.41299 7.81565L5.4929 8.81246C5.86669 8.78249 6.1923 8.54592 6.33631 8.19968L5.41299 7.81565ZM7.00001 4L6.07669 4.38403L7.66371 8.19968L8.58703 7.81565L9.51035 7.43162L7.92333 3.61597L7.00001 4ZM8.58703 7.81565L8.50712 8.81246L12.6264 9.1427L12.7063 8.1459L12.7863 7.1491L8.66694 6.81885L8.58703 7.81565ZM12.7063 8.1459L12.0558 7.38644L8.91731 10.0749L9.56786 10.8343L10.2184 11.5938L13.3569 8.90536L12.7063 8.1459ZM9.56786 10.8343L8.59515 11.0664L9.55401 15.0861L10.5267 14.8541L11.4994 14.6221L10.5406 10.6023L9.56786 10.8343ZM10.5267 14.8541L11.048 14.0007L7.52126 11.8466L7.00001 12.7L6.47876 13.5534L10.0055 15.7075L10.5267 14.8541ZM7.00001 12.7L6.47876 11.8466L2.95204 14.0007L3.4733 14.8541L3.99455 15.7075L7.52126 13.5534L7.00001 12.7ZM3.4733 14.8541L4.44601 15.0861L5.40487 11.0664L4.43216 10.8343L3.45945 10.6023L2.50059 14.6221L3.4733 14.8541ZM4.43216 10.8343L5.08271 10.0749L1.94423 7.38644L1.29367 8.1459L0.643114 8.90536L3.7816 11.5938L4.43216 10.8343ZM1.29367 8.1459L1.37358 9.1427L5.4929 8.81246L5.41299 7.81565L5.33308 6.81885L1.21376 7.1491L1.29367 8.1459ZM5.41299 7.81565L6.33631 8.19968L7.92333 4.38403L7.00001 4L6.07669 3.61597L4.48967 7.43162L5.41299 7.81565Z" fill="url(#paint1_linear_146_4547)" mask="url(#path-4-inside-1_146_4547)"/>
<circle cx="12.5" cy="12.5" r="3" fill="url(#paint2_radial_146_4547)" stroke="url(#paint3_linear_146_4547)"/>
<path fill-rule="evenodd" clip-rule="evenodd" d="M12 12V11H13V12H14V13H13V14H12V13H11V12H12Z" fill="white"/>
</g>
<defs>
<filter id="filter0_i_146_4547" x="2" y="-5.75" width="12" height="16.5" filterUnits="userSpaceOnUse" color-interpolation-filters="sRGB">
<feFlood flood-opacity="0" result="BackgroundImageFix"/>
<feBlend mode="normal" in="SourceGraphic" in2="BackgroundImageFix" result="shape"/>
<feColorMatrix in="SourceAlpha" type="matrix" values="0 0 0 0 0 0 0 0 0 0 0 0 0 0 0 0 0 0 127 0" result="hardAlpha"/>
<feOffset dx="2" dy="2"/>
<feGaussianBlur stdDeviation="2.5"/>
<feComposite in2="hardAlpha" operator="arithmetic" k2="-1" k3="1"/>
<feColorMatrix type="matrix" values="0 0 0 0 1 0 0 0 0 1 0 0 0 0 1 0 0 0 0.5 0"/>
<feBlend mode="hard-light" in2="shape" result="effect1_innerShadow_146_4547"/>
</filter>
<filter id="filter1_i_146_4547" x="1.29367" y="4" width="12.4127" height="11.8541" filterUnits="userSpaceOnUse" color-interpolation-filters="sRGB">
<feFlood flood-opacity="0" result="BackgroundImageFix"/>
<feBlend mode="normal" in="SourceGraphic" in2="BackgroundImageFix" result="shape"/>
<feColorMatrix in="SourceAlpha" type="matrix" values="0 0 0 0 0 0 0 0 0 0 0 0 0 0 0 0 0 0 127 0" result="hardAlpha"/>
<feOffset dx="1" dy="1"/>
<feGaussianBlur stdDeviation="1.5"/>
<feComposite in2="hardAlpha" operator="arithmetic" k2="-1" k3="1"/>
<feColorMatrix type="matrix" values="0 0 0 0 1 0 0 0 0 1 0 0 0 0 1 0 0 0 1 0"/>
<feBlend mode="normal" in2="shape" result="effect1_innerShadow_146_4547"/>
</filter>
<linearGradient id="paint0_linear_146_4547" x1="11" y1="8" x2="3" y2="-5" gradientUnits="userSpaceOnUse">
<stop stop-color="#B41414"/>
<stop offset="1" stop-color="#BE3D3D"/>
</linearGradient>
<linearGradient id="paint1_linear_146_4547" x1="3.39997" y1="5.6" x2="11.4645" y2="13.9667" gradientUnits="userSpaceOnUse">
<stop stop-color="#D8D8D8"/>
<stop offset="1" stop-color="#585858"/>
</linearGradient>
<radialGradient id="paint2_radial_146_4547" cx="0" cy="0" r="1" gradientUnits="userSpaceOnUse" gradientTransform="translate(10 10) rotate(45) scale(5.65685)">
<stop stop-color="#B4D495"/>
<stop offset="1" stop-color="#87B960"/>
</radialGradient>
<linearGradient id="paint3_linear_146_4547" x1="15" y1="15" x2="10" y2="10" gradientUnits="userSpaceOnUse">
<stop stop-color="#376B19"/>
<stop offset="1" stop-color="#5A9438"/>
</linearGradient>
<clipPath id="clip0_146_4547">
<rect width="16" height="16" fill="white"/>
</clipPath>
</defs>
</svg>
