<svg width="16" height="16" viewBox="0 0 16 16" fill="none" xmlns="http://www.w3.org/2000/svg">
<g clip-path="url(#clip0_146_4542)">
<g filter="url(#filter0_i_146_4542)">
<path d="M6.4 -4.55C6.75556 -4.81667 7.24444 -4.81667 7.6 -4.55L10.6 -2.3C10.8518 -2.11115 11 -1.81476 11 -1.5V4.5C11 4.81476 10.8518 5.11115 10.6 5.3L7.6 7.55C7.24444 7.81667 6.75556 7.81667 6.4 7.55L3.4 5.3C3.14819 5.11115 3 4.81476 3 4.5V-1.5C3 -1.81476 3.14819 -2.11115 3.4 -2.3L6.4 -4.55Z" fill="#EB3131"/>
</g>
<path d="M6.09961 -4.9502C6.63294 -5.3502 7.36706 -5.3502 7.90039 -4.9502L10.9004 -2.7002C11.278 -2.41691 11.5 -1.97207 11.5 -1.5V4.5C11.5 4.97207 11.278 5.41691 10.9004 5.7002L7.90039 7.9502C7.36706 8.35019 6.63294 8.35019 6.09961 7.9502L3.09961 5.7002C2.722 5.41691 2.5 4.97207 2.5 4.5V-1.5C2.5 -1.97207 2.722 -2.41691 3.09961 -2.7002L6.09961 -4.9502Z" stroke="url(#paint0_linear_146_4542)" stroke-linejoin="round"/>
<path d="M6.7002 -4.15039C6.87784 -4.28341 7.12216 -4.28341 7.2998 -4.15039L10.2998 -1.90039C10.4257 -1.80596 10.5 -1.65738 10.5 -1.5V4.5C10.5 4.65738 10.4257 4.80596 10.2998 4.90039L7.2998 7.15039C7.12216 7.28341 6.87784 7.28341 6.7002 7.15039L3.7002 4.90039C3.57429 4.80596 3.5 4.65738 3.5 4.5V-1.5C3.5 -1.65738 3.57429 -1.80596 3.7002 -1.90039L6.7002 -4.15039Z" stroke="white" stroke-opacity="0.5" style="mix-blend-mode:hard-light"/>
<mask id="path-4-inside-1_146_4542" fill="white">
<path d="M6.99999 4L8.58702 7.81565L12.7063 8.1459L9.56785 10.8343L10.5267 14.8541L6.99999 12.7L3.47328 14.8541L4.43214 10.8343L1.29366 8.1459L5.41297 7.81565L6.99999 4Z"/>
</mask>
<g filter="url(#filter1_i_146_4542)">
<path d="M6.99999 4L8.58702 7.81565L12.7063 8.1459L9.56785 10.8343L10.5267 14.8541L6.99999 12.7L3.47328 14.8541L4.43214 10.8343L1.29366 8.1459L5.41297 7.81565L6.99999 4Z" fill="#FFDC6B"/>
</g>
<path d="M6.99999 4L7.92332 3.61597L6.99999 1.39604L6.07667 3.61597L6.99999 4ZM8.58702 7.81565L7.66369 8.19968C7.8077 8.54592 8.13331 8.78249 8.5071 8.81246L8.58702 7.81565ZM12.7063 8.1459L13.3569 8.90536L15.1828 7.34123L12.7862 7.1491L12.7063 8.1459ZM9.56785 10.8343L8.91729 10.0749C8.6325 10.3188 8.50813 10.7016 8.59514 11.0664L9.56785 10.8343ZM10.5267 14.8541L10.0055 15.7075L12.0573 16.9607L11.4994 14.6221L10.5267 14.8541ZM6.99999 12.7L7.52125 11.8466C7.20123 11.6511 6.79876 11.6511 6.47874 11.8466L6.99999 12.7ZM3.47328 14.8541L2.50057 14.6221L1.94271 16.9607L3.99454 15.7075L3.47328 14.8541ZM4.43214 10.8343L5.40485 11.0664C5.49186 10.7016 5.36749 10.3188 5.0827 10.0749L4.43214 10.8343ZM1.29366 8.1459L1.21374 7.1491L-1.18286 7.34123L0.643099 8.90536L1.29366 8.1459ZM5.41297 7.81565L5.49289 8.81246C5.86668 8.78249 6.19229 8.54592 6.33629 8.19968L5.41297 7.81565ZM6.99999 4L6.07667 4.38403L7.66369 8.19968L8.58702 7.81565L9.51034 7.43162L7.92332 3.61597L6.99999 4ZM8.58702 7.81565L8.5071 8.81246L12.6264 9.1427L12.7063 8.1459L12.7862 7.1491L8.66693 6.81885L8.58702 7.81565ZM12.7063 8.1459L12.0558 7.38644L8.91729 10.0749L9.56785 10.8343L10.2184 11.5938L13.3569 8.90536L12.7063 8.1459ZM9.56785 10.8343L8.59514 11.0664L9.554 15.0861L10.5267 14.8541L11.4994 14.6221L10.5406 10.6023L9.56785 10.8343ZM10.5267 14.8541L11.048 14.0007L7.52125 11.8466L6.99999 12.7L6.47874 13.5534L10.0055 15.7075L10.5267 14.8541ZM6.99999 12.7L6.47874 11.8466L2.95203 14.0007L3.47328 14.8541L3.99454 15.7075L7.52125 13.5534L6.99999 12.7ZM3.47328 14.8541L4.44599 15.0861L5.40485 11.0664L4.43214 10.8343L3.45943 10.6023L2.50057 14.6221L3.47328 14.8541ZM4.43214 10.8343L5.0827 10.0749L1.94421 7.38644L1.29366 8.1459L0.643099 8.90536L3.78159 11.5938L4.43214 10.8343ZM1.29366 8.1459L1.37357 9.1427L5.49289 8.81246L5.41297 7.81565L5.33306 6.81885L1.21374 7.1491L1.29366 8.1459ZM5.41297 7.81565L6.33629 8.19968L7.92332 4.38403L6.99999 4L6.07667 3.61597L4.48965 7.43162L5.41297 7.81565Z" fill="url(#paint1_linear_146_4542)" mask="url(#path-4-inside-1_146_4542)"/>
<circle cx="12.5" cy="12.5" r="3" fill="url(#paint2_radial_146_4542)" stroke="url(#paint3_linear_146_4542)"/>
<path fill-rule="evenodd" clip-rule="evenodd" d="M12 12V11H13V12H14V13H13V14H12V13H11V12H12Z" fill="white"/>
</g>
<defs>
<filter id="filter0_i_146_4542" x="2" y="-5.75" width="12" height="16.5" filterUnits="userSpaceOnUse" color-interpolation-filters="sRGB">
<feFlood flood-opacity="0" result="BackgroundImageFix"/>
<feBlend mode="normal" in="SourceGraphic" in2="BackgroundImageFix" result="shape"/>
<feColorMatrix in="SourceAlpha" type="matrix" values="0 0 0 0 0 0 0 0 0 0 0 0 0 0 0 0 0 0 127 0" result="hardAlpha"/>
<feOffset dx="2" dy="2"/>
<feGaussianBlur stdDeviation="2.5"/>
<feComposite in2="hardAlpha" operator="arithmetic" k2="-1" k3="1"/>
<feColorMatrix type="matrix" values="0 0 0 0 1 0 0 0 0 1 0 0 0 0 1 0 0 0 0.5 0"/>
<feBlend mode="hard-light" in2="shape" result="effect1_innerShadow_146_4542"/>
</filter>
<filter id="filter1_i_146_4542" x="1.29366" y="4" width="12.4127" height="11.8541" filterUnits="userSpaceOnUse" color-interpolation-filters="sRGB">
<feFlood flood-opacity="0" result="BackgroundImageFix"/>
<feBlend mode="normal" in="SourceGraphic" in2="BackgroundImageFix" result="shape"/>
<feColorMatrix in="SourceAlpha" type="matrix" values="0 0 0 0 0 0 0 0 0 0 0 0 0 0 0 0 0 0 127 0" result="hardAlpha"/>
<feOffset dx="1" dy="1"/>
<feGaussianBlur stdDeviation="1"/>
<feComposite in2="hardAlpha" operator="arithmetic" k2="-1" k3="1"/>
<feColorMatrix type="matrix" values="0 0 0 0 1 0 0 0 0 1 0 0 0 0 1 0 0 0 1 0"/>
<feBlend mode="hard-light" in2="shape" result="effect1_innerShadow_146_4542"/>
</filter>
<linearGradient id="paint0_linear_146_4542" x1="11" y1="8" x2="3" y2="-5" gradientUnits="userSpaceOnUse">
<stop stop-color="#B41414"/>
<stop offset="1" stop-color="#BE3D3D"/>
</linearGradient>
<linearGradient id="paint1_linear_146_4542" x1="3.39995" y1="5.6" x2="11.4645" y2="13.9667" gradientUnits="userSpaceOnUse">
<stop stop-color="#FDC922"/>
<stop offset="0.5" stop-color="#F0B411"/>
<stop offset="1" stop-color="#C88311"/>
</linearGradient>
<radialGradient id="paint2_radial_146_4542" cx="0" cy="0" r="1" gradientUnits="userSpaceOnUse" gradientTransform="translate(10 10) rotate(45) scale(5.65685)">
<stop stop-color="#B4D495"/>
<stop offset="1" stop-color="#87B960"/>
</radialGradient>
<linearGradient id="paint3_linear_146_4542" x1="15" y1="15" x2="10" y2="10" gradientUnits="userSpaceOnUse">
<stop stop-color="#376B19"/>
<stop offset="1" stop-color="#5A9438"/>
</linearGradient>
<clipPath id="clip0_146_4542">
<rect width="16" height="16" fill="white"/>
</clipPath>
</defs>
</svg>
