<svg width="16" height="16" viewBox="0 0 16 16" fill="none" xmlns="http://www.w3.org/2000/svg">
<g clip-path="url(#clip0_146_4541)">
<g filter="url(#filter0_i_146_4541)">
<path d="M7.4 -4.55C7.75556 -4.81667 8.24444 -4.81667 8.6 -4.55L11.6 -2.3C11.8518 -2.11115 12 -1.81476 12 -1.5V4.5C12 4.81476 11.8518 5.11115 11.6 5.3L8.6 7.55C8.24444 7.81667 7.75556 7.81667 7.4 7.55L4.4 5.3C4.14819 5.11115 4 4.81476 4 4.5V-1.5C4 -1.81476 4.14819 -2.11115 4.4 -2.3L7.4 -4.55Z" fill="#3E92D0"/>
</g>
<path d="M7.09961 -4.9502C7.63294 -5.3502 8.36706 -5.3502 8.90039 -4.9502L11.9004 -2.7002C12.278 -2.41691 12.5 -1.97207 12.5 -1.5V4.5C12.5 4.97207 12.278 5.41691 11.9004 5.7002L8.90039 7.9502C8.36706 8.35019 7.63294 8.35019 7.09961 7.9502L4.09961 5.7002C3.722 5.41691 3.5 4.97207 3.5 4.5V-1.5C3.5 -1.97207 3.722 -2.41691 4.09961 -2.7002L7.09961 -4.9502Z" stroke="url(#paint0_linear_146_4541)" stroke-linejoin="round"/>
<path d="M7.7002 -4.15039C7.87784 -4.28341 8.12216 -4.28341 8.2998 -4.15039L11.2998 -1.90039C11.4257 -1.80596 11.5 -1.65738 11.5 -1.5V4.5C11.5 4.65738 11.4257 4.80596 11.2998 4.90039L8.2998 7.15039C8.12216 7.28341 7.87784 7.28341 7.7002 7.15039L4.7002 4.90039C4.57429 4.80596 4.5 4.65738 4.5 4.5V-1.5C4.5 -1.65738 4.57429 -1.80596 4.7002 -1.90039L7.7002 -4.15039Z" stroke="white" stroke-opacity="0.5" style="mix-blend-mode:hard-light"/>
<mask id="path-4-inside-1_146_4541" fill="white">
<path d="M7.99998 4L9.587 7.81565L13.7063 8.1459L10.5678 10.8343L11.5267 14.8541L7.99998 12.7L4.47327 14.8541L5.43213 10.8343L2.29364 8.1459L6.41296 7.81565L7.99998 4Z"/>
</mask>
<g filter="url(#filter1_i_146_4541)">
<path d="M7.99998 4L9.587 7.81565L13.7063 8.1459L10.5678 10.8343L11.5267 14.8541L7.99998 12.7L4.47327 14.8541L5.43213 10.8343L2.29364 8.1459L6.41296 7.81565L7.99998 4Z" fill="#FFDC6B"/>
</g>
<path d="M7.99998 4L8.9233 3.61597L7.99998 1.39604L7.07666 3.61597L7.99998 4ZM9.587 7.81565L8.66368 8.19968C8.80769 8.54592 9.1333 8.78249 9.50709 8.81246L9.587 7.81565ZM13.7063 8.1459L14.3569 8.90536L16.1828 7.34123L13.7862 7.1491L13.7063 8.1459ZM10.5678 10.8343L9.91727 10.0749C9.63249 10.3188 9.50811 10.7016 9.59512 11.0664L10.5678 10.8343ZM11.5267 14.8541L11.0054 15.7075L13.0573 16.9607L12.4994 14.6221L11.5267 14.8541ZM7.99998 12.7L8.52123 11.8466C8.20122 11.6511 7.79874 11.6511 7.47872 11.8466L7.99998 12.7ZM4.47327 14.8541L3.50056 14.6221L2.9427 16.9607L4.99452 15.7075L4.47327 14.8541ZM5.43213 10.8343L6.40484 11.0664C6.49184 10.7016 6.36747 10.3188 6.08268 10.0749L5.43213 10.8343ZM2.29364 8.1459L2.21373 7.1491L-0.182872 7.34123L1.64308 8.90536L2.29364 8.1459ZM6.41296 7.81565L6.49287 8.81246C6.86666 8.78249 7.19227 8.54592 7.33628 8.19968L6.41296 7.81565ZM7.99998 4L7.07666 4.38403L8.66368 8.19968L9.587 7.81565L10.5103 7.43162L8.9233 3.61597L7.99998 4ZM9.587 7.81565L9.50709 8.81246L13.6264 9.1427L13.7063 8.1459L13.7862 7.1491L9.66691 6.81885L9.587 7.81565ZM13.7063 8.1459L13.0558 7.38644L9.91727 10.0749L10.5678 10.8343L11.2184 11.5938L14.3569 8.90536L13.7063 8.1459ZM10.5678 10.8343L9.59512 11.0664L10.554 15.0861L11.5267 14.8541L12.4994 14.6221L11.5405 10.6023L10.5678 10.8343ZM11.5267 14.8541L12.0479 14.0007L8.52123 11.8466L7.99998 12.7L7.47872 13.5534L11.0054 15.7075L11.5267 14.8541ZM7.99998 12.7L7.47872 11.8466L3.95201 14.0007L4.47327 14.8541L4.99452 15.7075L8.52123 13.5534L7.99998 12.7ZM4.47327 14.8541L5.44598 15.0861L6.40484 11.0664L5.43213 10.8343L4.45942 10.6023L3.50056 14.6221L4.47327 14.8541ZM5.43213 10.8343L6.08268 10.0749L2.9442 7.38644L2.29364 8.1459L1.64308 8.90536L4.78157 11.5938L5.43213 10.8343ZM2.29364 8.1459L2.37355 9.1427L6.49287 8.81246L6.41296 7.81565L6.33305 6.81885L2.21373 7.1491L2.29364 8.1459ZM6.41296 7.81565L7.33628 8.19968L8.9233 4.38403L7.99998 4L7.07666 3.61597L5.48964 7.43162L6.41296 7.81565Z" fill="url(#paint1_linear_146_4541)" mask="url(#path-4-inside-1_146_4541)"/>
</g>
<defs>
<filter id="filter0_i_146_4541" x="3" y="-5.75" width="12" height="16.5" filterUnits="userSpaceOnUse" color-interpolation-filters="sRGB">
<feFlood flood-opacity="0" result="BackgroundImageFix"/>
<feBlend mode="normal" in="SourceGraphic" in2="BackgroundImageFix" result="shape"/>
<feColorMatrix in="SourceAlpha" type="matrix" values="0 0 0 0 0 0 0 0 0 0 0 0 0 0 0 0 0 0 127 0" result="hardAlpha"/>
<feOffset dx="2" dy="2"/>
<feGaussianBlur stdDeviation="2.5"/>
<feComposite in2="hardAlpha" operator="arithmetic" k2="-1" k3="1"/>
<feColorMatrix type="matrix" values="0 0 0 0 1 0 0 0 0 1 0 0 0 0 1 0 0 0 0.5 0"/>
<feBlend mode="hard-light" in2="shape" result="effect1_innerShadow_146_4541"/>
</filter>
<filter id="filter1_i_146_4541" x="2.29364" y="4" width="12.4127" height="11.8541" filterUnits="userSpaceOnUse" color-interpolation-filters="sRGB">
<feFlood flood-opacity="0" result="BackgroundImageFix"/>
<feBlend mode="normal" in="SourceGraphic" in2="BackgroundImageFix" result="shape"/>
<feColorMatrix in="SourceAlpha" type="matrix" values="0 0 0 0 0 0 0 0 0 0 0 0 0 0 0 0 0 0 127 0" result="hardAlpha"/>
<feOffset dx="1" dy="1"/>
<feGaussianBlur stdDeviation="1"/>
<feComposite in2="hardAlpha" operator="arithmetic" k2="-1" k3="1"/>
<feColorMatrix type="matrix" values="0 0 0 0 1 0 0 0 0 1 0 0 0 0 1 0 0 0 1 0"/>
<feBlend mode="hard-light" in2="shape" result="effect1_innerShadow_146_4541"/>
</filter>
<linearGradient id="paint0_linear_146_4541" x1="12" y1="8" x2="4" y2="-5" gradientUnits="userSpaceOnUse">
<stop stop-color="#184A94"/>
<stop offset="1" stop-color="#4781AC"/>
</linearGradient>
<linearGradient id="paint1_linear_146_4541" x1="4.39994" y1="5.6" x2="12.4645" y2="13.9667" gradientUnits="userSpaceOnUse">
<stop stop-color="#FDC922"/>
<stop offset="0.5" stop-color="#F0B411"/>
<stop offset="1" stop-color="#C88311"/>
</linearGradient>
<clipPath id="clip0_146_4541">
<rect width="16" height="16" fill="white"/>
</clipPath>
</defs>
</svg>
