<svg width="16" height="16" viewBox="0 0 16 16" fill="none" xmlns="http://www.w3.org/2000/svg">
<path d="M8.93945 2.85352C9.52522 2.26783 10.4748 2.26783 11.0605 2.85352L14.1465 5.93945C14.7322 6.52522 14.7322 7.47478 14.1465 8.06055L7.06055 15.1465C6.47478 15.7322 5.52522 15.7322 4.93945 15.1465L1.85352 12.0605C1.26783 11.4748 1.26783 10.5252 1.85352 9.93945L8.93945 2.85352Z" fill="url(#paint0_linear_475_13880)" stroke="url(#paint1_linear_475_13880)" stroke-linejoin="round"/>
<path d="M8.86523 1.92773C9.49275 1.30032 10.525 1.35226 11.0869 2.03906L14.3135 5.9834C14.8013 6.57973 14.7585 7.44825 14.2139 7.99316L8.13477 14.0723C7.50725 14.6997 6.47501 14.6477 5.91309 13.9609L2.68652 10.0166C2.19866 9.42027 2.24149 8.55175 2.78613 8.00684L8.86523 1.92773Z" fill="url(#paint2_linear_475_13880)"/>
<path d="M8.86523 1.92773C9.49275 1.30032 10.525 1.35226 11.0869 2.03906L14.3135 5.9834C14.8013 6.57973 14.7585 7.44825 14.2139 7.99316L8.13477 14.0723C7.50725 14.6997 6.47501 14.6477 5.91309 13.9609L2.68652 10.0166C2.19866 9.42027 2.24149 8.55175 2.78613 8.00684L8.86523 1.92773Z" stroke="url(#paint3_linear_475_13880)" stroke-linejoin="round"/>
<path d="M8.86523 1.92773C9.49275 1.30032 10.525 1.35226 11.0869 2.03906L14.3135 5.9834C14.8013 6.57973 14.7585 7.44825 14.2139 7.99316L8.13477 14.0723C7.50725 14.6997 6.47501 14.6477 5.91309 13.9609L2.68652 10.0166C2.19866 9.42027 2.24149 8.55175 2.78613 8.00684L8.86523 1.92773Z" stroke="url(#paint4_linear_475_13880)" stroke-opacity="0.2" stroke-linejoin="round"/>
<path d="M9.57227 2.63477C9.78142 2.42572 10.1252 2.44305 10.3125 2.67188L13.54 6.61621C13.7026 6.81492 13.6882 7.10449 13.5068 7.28613L7.42773 13.3652C7.21858 13.5743 6.87481 13.5569 6.6875 13.3281L3.45996 9.38379C3.29742 9.18508 3.3118 8.89551 3.49316 8.71387L9.57227 2.63477Z" stroke="url(#paint5_radial_475_13880)" stroke-opacity="0.66" stroke-linejoin="round"/>
<path d="M10.4876 5.01238L6.26238 9.23762C5.86797 9.63203 5.21134 9.56701 4.90194 9.10291C4.66823 8.75234 4.71445 8.28555 5.01238 7.98762L9.23762 3.76238C9.63203 3.36797 10.2887 3.43299 10.5981 3.89709C10.8318 4.24766 10.7855 4.71445 10.4876 5.01238Z" fill="#B5B5B5"/>
<path d="M7 10.5L9.5 8" stroke="#B5B5B5" stroke-linecap="round"/>
<path d="M10.6847 5.8153L10.6133 5.88673C10.2614 6.23862 10.2218 6.79572 10.5204 7.19384L10.8082 7.57759C11.1733 8.06443 11.885 8.11501 12.3153 7.6847L12.3867 7.61327C12.7386 7.26138 12.7782 6.70428 12.4796 6.30616L12.1918 5.92241C11.8267 5.43557 11.115 5.38499 10.6847 5.8153Z" fill="#649BC9"/>
<mask id="path-7-inside-1_475_13880" fill="white">
<path d="M10 9H6V14H10V16H11L16 11.5L11 7H10V9Z"/>
</mask>
<g filter="url(#filter0_i_475_13880)">
<path d="M10 9H6V14H10V16H11L16 11.5L11 7H10V9Z" fill="#80B361"/>
</g>
<path d="M6 9V8H5V9H6ZM10 9V10C10.5523 10 11 9.55228 11 9H10ZM10 7V6H9V7H10ZM11 7L11.669 6.25671L11.3837 6H11V7ZM16 11.5L16.669 12.2433L17.4948 11.5L16.669 10.7567L16 11.5ZM11 16V17H11.3837L11.669 16.7433L11 16ZM10 16H9V17H10V16ZM10 14H11C11 13.4477 10.5523 13 10 13V14ZM6 14H5V15H6V14ZM6 9V10H10V9V8H6V9ZM10 9H11V7H10H9V9H10ZM10 7V8H11V7V6H10V7ZM11 7L10.331 7.74329L15.331 12.2433L16 11.5L16.669 10.7567L11.669 6.25671L11 7ZM16 11.5L15.331 10.7567L10.331 15.2567L11 16L11.669 16.7433L16.669 12.2433L16 11.5ZM11 16V15H10V16V17H11V16ZM10 16H11V14H10H9V16H10ZM10 14V13H6V14V15H10V14ZM6 14H7V9H6H5V14H6Z" fill="url(#paint6_linear_475_13880)" mask="url(#path-7-inside-1_475_13880)"/>
<path d="M13.752 11.4996L11.4404 13.5826C11.2619 12.9642 10.6972 12.4996 10.0049 12.4996H7.5V10.4996H10C10.7153 10.4996 11.2655 10.0249 11.4404 9.41565L13.752 11.4996Z" stroke="white" stroke-opacity="0.2"/>
<defs>
<filter id="filter0_i_475_13880" x="6" y="7" width="12" height="11" filterUnits="userSpaceOnUse" color-interpolation-filters="sRGB">
<feFlood flood-opacity="0" result="BackgroundImageFix"/>
<feBlend mode="normal" in="SourceGraphic" in2="BackgroundImageFix" result="shape"/>
<feColorMatrix in="SourceAlpha" type="matrix" values="0 0 0 0 0 0 0 0 0 0 0 0 0 0 0 0 0 0 127 0" result="hardAlpha"/>
<feOffset dx="2" dy="2"/>
<feGaussianBlur stdDeviation="1"/>
<feComposite in2="hardAlpha" operator="arithmetic" k2="-1" k3="1"/>
<feColorMatrix type="matrix" values="0 0 0 0 1 0 0 0 0 1 0 0 0 0 1 0 0 0 0.25 0"/>
<feBlend mode="normal" in2="shape" result="effect1_innerShadow_475_13880"/>
</filter>
<linearGradient id="paint0_linear_475_13880" x1="3" y1="9.5" x2="7.5" y2="14" gradientUnits="userSpaceOnUse">
<stop stop-color="#D2D2D2"/>
<stop offset="1" stop-color="#B1B1B1"/>
</linearGradient>
<linearGradient id="paint1_linear_475_13880" x1="1.5" y1="9" x2="14.5" y2="9" gradientUnits="userSpaceOnUse">
<stop stop-color="#ABABAB"/>
<stop offset="1" stop-color="#8D8D8D"/>
</linearGradient>
<linearGradient id="paint2_linear_475_13880" x1="3.5" y1="8" x2="8.5" y2="13.5" gradientUnits="userSpaceOnUse">
<stop stop-color="#E4E4E4"/>
<stop offset="1" stop-color="#D3D3D3"/>
</linearGradient>
<linearGradient id="paint3_linear_475_13880" x1="10" y1="2" x2="6" y2="14" gradientUnits="userSpaceOnUse">
<stop offset="0.729256" stop-color="#ABABAB"/>
<stop offset="1" stop-color="#8D8D8D" stop-opacity="0"/>
</linearGradient>
<linearGradient id="paint4_linear_475_13880" x1="3" y1="8" x2="15" y2="8" gradientUnits="userSpaceOnUse">
<stop offset="0.335076" stop-color="#8D8D8D" stop-opacity="0"/>
<stop offset="0.880019" stop-color="#8D8D8D"/>
</linearGradient>
<radialGradient id="paint5_radial_475_13880" cx="0" cy="0" r="1" gradientUnits="userSpaceOnUse" gradientTransform="translate(11 11) rotate(-170.538) scale(6.08276 5.61486)">
<stop offset="0.777355" stop-color="white" stop-opacity="0"/>
<stop offset="1" stop-color="white"/>
</radialGradient>
<linearGradient id="paint6_linear_475_13880" x1="14.5714" y1="14.7143" x2="8.17837" y2="7.61089" gradientUnits="userSpaceOnUse">
<stop stop-color="#247C10"/>
<stop offset="1" stop-color="#6FA53D"/>
</linearGradient>
</defs>
</svg>
