<svg width="16" height="16" viewBox="0 0 16 16" fill="none" xmlns="http://www.w3.org/2000/svg">
<g clip-path="url(#clip0_144_3602)">
<g clip-path="url(#clip1_144_3602)">
<path d="M1 5L8 9L8 15L1 11.0625V5Z" fill="url(#paint0_linear_144_3602)"/>
<path d="M15 5L8 9V15L15 11V5Z" fill="url(#paint1_linear_144_3602)"/>
<path d="M8 1L1 5L8 9L15 5L8 1Z" fill="#F5C969"/>
<path d="M15.5 11C15.5 11.1794 15.4038 11.3455 15.248 11.4346L8.24805 15.4346C8.09444 15.5222 7.90556 15.5222 7.75195 15.4346L0.751953 11.4346C0.596166 11.3455 0.5 11.1794 0.5 11V5C0.5 4.82057 0.596166 4.65445 0.751953 4.56543L7.75195 0.56543L7.81152 0.537109C7.95256 0.479661 8.1137 0.488748 8.24805 0.56543L15.248 4.56543C15.4038 4.65445 15.5 4.82057 15.5 5V11Z" stroke="url(#paint2_linear_144_3602)" stroke-linejoin="round"/>
<path d="M8 1L1 5L8 4.5V9L15 5L8 4.5L8 1Z" fill="url(#paint3_linear_144_3602)"/>
<path d="M8.5 4.03418L16.6758 4.61816L15.248 5.43457L8.24805 9.43457L7.5 9.86133V5.03711L1.03516 5.49902L0.751953 4.56543L7.75195 0.56543L8.5 0.138672V4.03418Z" stroke="url(#paint4_linear_144_3602)" stroke-opacity="0.33" style="mix-blend-mode:overlay"/>
<path d="M8.5 4.03418L16.6758 4.61816L15.248 5.43457L8.24805 9.43457L7.5 9.86133V5.03711L1.03516 5.49902L0.751953 4.56543L7.75195 0.56543L8.5 0.138672V4.03418Z" stroke="url(#paint5_linear_144_3602)" stroke-opacity="0.1" style="mix-blend-mode:hard-light"/>
<path d="M14.5 5.29004V10.709L8 14.4229L1.5 10.709V5.29004L8 1.57617L14.5 5.29004Z" stroke="white" stroke-opacity="0.33" style="mix-blend-mode:hard-light"/>
<path d="M14.5 5.29004V10.709L8 14.4229L1.5 10.709V5.29004L8 1.57617L14.5 5.29004Z" stroke="white" stroke-opacity="0.33" style="mix-blend-mode:soft-light"/>
</g>
<mask id="path-8-inside-1_144_3602" fill="white">
<path d="M10 9H6V14H10V16H11L16 11.5L11 7H10V9Z"/>
</mask>
<g filter="url(#filter0_i_144_3602)">
<path d="M10 9H6V14H10V16H11L16 11.5L11 7H10V9Z" fill="#80B361"/>
</g>
<path d="M6 9V8H5V9H6ZM10 9V10C10.5523 10 11 9.55228 11 9H10ZM10 7V6H9V7H10ZM11 7L11.669 6.25671L11.3837 6H11V7ZM16 11.5L16.669 12.2433L17.4948 11.5L16.669 10.7567L16 11.5ZM11 16V17H11.3837L11.669 16.7433L11 16ZM10 16H9V17H10V16ZM10 14H11C11 13.4477 10.5523 13 10 13V14ZM6 14H5V15H6V14ZM6 9V10H10V9V8H6V9ZM10 9H11V7H10H9V9H10ZM10 7V8H11V7V6H10V7ZM11 7L10.331 7.74329L15.331 12.2433L16 11.5L16.669 10.7567L11.669 6.25671L11 7ZM16 11.5L15.331 10.7567L10.331 15.2567L11 16L11.669 16.7433L16.669 12.2433L16 11.5ZM11 16V15H10V16V17H11V16ZM10 16H11V14H10H9V16H10ZM10 14V13H6V14V15H10V14ZM6 14H7V9H6H5V14H6Z" fill="url(#paint6_linear_144_3602)" mask="url(#path-8-inside-1_144_3602)"/>
<path d="M13.752 11.4996L11.4404 13.5826C11.2619 12.9642 10.6972 12.4996 10.0049 12.4996H7.5V10.4996H10C10.7153 10.4996 11.2655 10.0249 11.4404 9.41565L13.752 11.4996Z" stroke="white" stroke-opacity="0.2"/>
</g>
<defs>
<filter id="filter0_i_144_3602" x="6" y="7" width="12" height="11" filterUnits="userSpaceOnUse" color-interpolation-filters="sRGB">
<feFlood flood-opacity="0" result="BackgroundImageFix"/>
<feBlend mode="normal" in="SourceGraphic" in2="BackgroundImageFix" result="shape"/>
<feColorMatrix in="SourceAlpha" type="matrix" values="0 0 0 0 0 0 0 0 0 0 0 0 0 0 0 0 0 0 127 0" result="hardAlpha"/>
<feOffset dx="2" dy="2"/>
<feGaussianBlur stdDeviation="1"/>
<feComposite in2="hardAlpha" operator="arithmetic" k2="-1" k3="1"/>
<feColorMatrix type="matrix" values="0 0 0 0 1 0 0 0 0 1 0 0 0 0 1 0 0 0 0.25 0"/>
<feBlend mode="normal" in2="shape" result="effect1_innerShadow_144_3602"/>
</filter>
<linearGradient id="paint0_linear_144_3602" x1="1" y1="11" x2="8" y2="11" gradientUnits="userSpaceOnUse">
<stop stop-color="#FFF3D4"/>
<stop offset="1" stop-color="#FEE094"/>
</linearGradient>
<linearGradient id="paint1_linear_144_3602" x1="8" y1="5.375" x2="15" y2="15" gradientUnits="userSpaceOnUse">
<stop offset="0.227703" stop-color="#EFC748"/>
<stop offset="0.749324" stop-color="#DE9F32"/>
</linearGradient>
<linearGradient id="paint2_linear_144_3602" x1="1.16406" y1="2" x2="14.8745" y2="15.131" gradientUnits="userSpaceOnUse">
<stop stop-color="#DAB756"/>
<stop offset="1" stop-color="#C6882A"/>
</linearGradient>
<linearGradient id="paint3_linear_144_3602" x1="8" y1="9" x2="4.5" y2="3" gradientUnits="userSpaceOnUse">
<stop stop-color="#E9B53D"/>
<stop offset="0.065" stop-color="#F9C248"/>
<stop offset="0.525" stop-color="#FFF9E0"/>
<stop offset="0.59" stop-color="#F5C969"/>
<stop offset="1" stop-color="#FFF7E5"/>
</linearGradient>
<linearGradient id="paint4_linear_144_3602" x1="4" y1="2.5" x2="8" y2="9" gradientUnits="userSpaceOnUse">
<stop offset="0.202963" stop-opacity="0"/>
<stop offset="0.51"/>
<stop offset="0.796227" stop-opacity="0"/>
</linearGradient>
<linearGradient id="paint5_linear_144_3602" x1="4" y1="2.5" x2="8" y2="9" gradientUnits="userSpaceOnUse">
<stop offset="0.202963" stop-opacity="0"/>
<stop offset="0.51"/>
<stop offset="0.796227" stop-opacity="0"/>
</linearGradient>
<linearGradient id="paint6_linear_144_3602" x1="14.5714" y1="14.7143" x2="8.17837" y2="7.61089" gradientUnits="userSpaceOnUse">
<stop stop-color="#247C10"/>
<stop offset="1" stop-color="#6FA53D"/>
</linearGradient>
<clipPath id="clip0_144_3602">
<rect width="16" height="16" fill="white"/>
</clipPath>
<clipPath id="clip1_144_3602">
<rect width="16" height="16" fill="white"/>
</clipPath>
</defs>
</svg>
