<svg width="16" height="16" viewBox="0 0 16 16" fill="none" xmlns="http://www.w3.org/2000/svg">
<path d="M2 2C2 1.44772 2.44772 1 3 1H10.5858C10.851 1 11.1054 1.10536 11.2929 1.29289L13.7071 3.70711C13.8946 3.89464 14 4.149 14 4.41421V14C14 14.5523 13.5523 15 13 15H3C2.44772 15 2 14.5523 2 14V2Z" fill="url(#paint0_linear_99_13030)"/>
<path d="M10.5859 0.5C10.9837 0.50004 11.3652 0.658184 11.6465 0.939453L14.0605 3.35352C14.3418 3.63478 14.5 4.01629 14.5 4.41406V14C14.5 14.8284 13.8284 15.5 13 15.5H3C2.17157 15.5 1.5 14.8284 1.5 14V2L1.50781 1.84668C1.58461 1.09028 2.22334 0.5 3 0.5H10.5859Z" stroke="#A8A8A8" stroke-opacity="0.66" stroke-linejoin="round"/>
<path d="M3 1.5H10C10.2761 1.5 10.5 1.72386 10.5 2V3C10.5 3.82843 11.1716 4.5 12 4.5H13C13.2761 4.5 13.5 4.72386 13.5 5V14C13.5 14.2761 13.2761 14.5 13 14.5H3C2.72386 14.5 2.5 14.2761 2.5 14V2L2.50977 1.89941C2.55629 1.67145 2.75829 1.5 3 1.5Z" stroke="white" stroke-linejoin="round"/>
<mask id="path-4-inside-1_99_13030" fill="white">
<path d="M10 13V16H14V13H16L12 9L8 13H10Z"/>
</mask>
<g filter="url(#filter0_i_99_13030)">
<path d="M10 13V16H14V13H16L12 9L8 13H10Z" fill="#82C27C"/>
</g>
<path d="M10 16H9V17H10V16ZM10 13H11C11 12.4477 10.5523 12 10 12V13ZM8 13L7.29289 12.2929L5.58579 14H8V13ZM12 9L12.7071 8.29289L12 7.58579L11.2929 8.29289L12 9ZM16 13V14H18.4142L16.7071 12.2929L16 13ZM14 13V12C13.4477 12 13 12.4477 13 13H14ZM14 16V17H15V16H14ZM10 16H11V13H10H9V16H10ZM10 13V12H8V13V14H10V13ZM8 13L8.70711 13.7071L12.7071 9.70711L12 9L11.2929 8.29289L7.29289 12.2929L8 13ZM12 9L11.2929 9.70711L15.2929 13.7071L16 13L16.7071 12.2929L12.7071 8.29289L12 9ZM16 13V12H14V13V14H16V13ZM14 13H13V16H14H15V13H14ZM14 16V15H10V16V17H14V16Z" fill="url(#paint1_linear_99_13030)" mask="url(#path-4-inside-1_99_13030)"/>
<defs>
<filter id="filter0_i_99_13030" x="8" y="9" width="9" height="8" filterUnits="userSpaceOnUse" color-interpolation-filters="sRGB">
<feFlood flood-opacity="0" result="BackgroundImageFix"/>
<feBlend mode="normal" in="SourceGraphic" in2="BackgroundImageFix" result="shape"/>
<feColorMatrix in="SourceAlpha" type="matrix" values="0 0 0 0 0 0 0 0 0 0 0 0 0 0 0 0 0 0 127 0" result="hardAlpha"/>
<feOffset dx="1" dy="1"/>
<feGaussianBlur stdDeviation="1"/>
<feComposite in2="hardAlpha" operator="arithmetic" k2="-1" k3="1"/>
<feColorMatrix type="matrix" values="0 0 0 0 0.71381 0 0 0 0 0.864312 0 0 0 0 0.687251 0 0 0 1 0"/>
<feBlend mode="normal" in2="shape" result="effect1_innerShadow_99_13030"/>
</filter>
<linearGradient id="paint0_linear_99_13030" x1="2" y1="15" x2="14" y2="0.999999" gradientUnits="userSpaceOnUse">
<stop offset="0.500484" stop-color="white"/>
<stop offset="0.806982" stop-color="#E6E6E6"/>
<stop offset="0.901248" stop-color="white"/>
</linearGradient>
<linearGradient id="paint1_linear_99_13030" x1="14.8571" y1="15" x2="9.90139" y2="9.33628" gradientUnits="userSpaceOnUse">
<stop stop-color="#2A6B26"/>
<stop offset="1" stop-color="#80C178"/>
</linearGradient>
</defs>
</svg>
