<svg width="16" height="16" viewBox="0 0 16 16" fill="none" xmlns="http://www.w3.org/2000/svg">
<g clip-path="url(#clip0_134_1792)">
<path d="M1 2C1 1.44772 1.44772 1 2 1H9.58579C9.851 1 10.1054 1.10536 10.2929 1.29289L12.7071 3.70711C12.8946 3.89464 13 4.149 13 4.41421V14C13 14.5523 12.5523 15 12 15H2C1.44772 15 1 14.5523 1 14V2Z" fill="url(#paint0_linear_134_1792)"/>
<path d="M9.58594 0.5C9.98371 0.50004 10.3652 0.658184 10.6465 0.939453L13.0605 3.35352C13.3418 3.63478 13.5 4.01629 13.5 4.41406V14C13.5 14.8284 12.8284 15.5 12 15.5H2C1.17157 15.5 0.5 14.8284 0.5 14V2L0.507812 1.84668C0.58461 1.09028 1.22334 0.5 2 0.5H9.58594Z" stroke="url(#paint1_linear_134_1792)" stroke-opacity="0.8" stroke-linejoin="round"/>
<path d="M2 1.5H9C9.27614 1.5 9.5 1.72386 9.5 2V3C9.5 3.82843 10.1716 4.5 11 4.5H12C12.2761 4.5 12.5 4.72386 12.5 5V14C12.5 14.2761 12.2761 14.5 12 14.5H2C1.72386 14.5 1.5 14.2761 1.5 14V2L1.50977 1.89941C1.55629 1.67145 1.75829 1.5 2 1.5Z" stroke="#EDF3F8" stroke-linejoin="round"/>
<rect x="2.5" y="11.5" width="9" height="2" fill="#93D4FF" stroke="url(#paint2_linear_134_1792)"/>
<mask id="path-5-inside-1_134_1792" fill="white">
<path d="M11 2L11 4L9 4C6.79086 4 5 5.79086 5 8L8 8C8 7.44772 8.44772 7 9 7L11 7L11 9L15 5.5L11 2Z"/>
</mask>
<g filter="url(#filter0_i_134_1792)">
<path d="M11 2L11 4L9 4C6.79086 4 5 5.79086 5 8L8 8C8 7.44772 8.44772 7 9 7L11 7L11 9L15 5.5L11 2Z" fill="#82C27C"/>
</g>
<path d="M11 4L11 5C11.5523 5 12 4.55228 12 4L11 4ZM11 2L11.6585 1.24742L10 -0.203768L10 2L11 2ZM15 5.5L15.6585 6.25258L16.5186 5.5L15.6585 4.74742L15 5.5ZM11 9L10 9L10 11.2038L11.6585 9.75258L11 9ZM11 7L12 7C12 6.73478 11.8946 6.48043 11.7071 6.29289C11.5196 6.10536 11.2652 6 11 6L11 7ZM9 7L9 8L9 8L9 7ZM9 4L9 5V5L9 4ZM5 8L4 8L4 9L5 9L5 8ZM8 8L8 9L9 9L9 8L8 8ZM11 4L12 4L12 2L11 2L10 2L10 4L11 4ZM11 2L10.3415 2.75258L14.3415 6.25258L15 5.5L15.6585 4.74742L11.6585 1.24742L11 2ZM15 5.5L14.3415 4.74742L10.3415 8.24742L11 9L11.6585 9.75258L15.6585 6.25258L15 5.5ZM11 9L12 9L12 7L11 7L10 7L10 9L11 9ZM11 7L11 6L9 6L9 7L9 8L11 8L11 7ZM9 4L9 5L11 5L11 4L11 3L9 3L9 4ZM5 8L5 9L8 9L8 8L8 7L5 7L5 8ZM5 8L6 8C6 6.34315 7.34315 5 9 5L9 4L9 3C6.23858 3 4 5.23858 4 8L5 8ZM9 7L9 6C7.89543 6 7 6.89543 7 8L8 8L9 8L9 8L9 7Z" fill="url(#paint3_linear_134_1792)" mask="url(#path-5-inside-1_134_1792)"/>
<mask id="path-7-inside-2_134_1792" fill="white">
<path d="M10 16V14L12 14C14.2091 14 16 12.2091 16 10H13C13 10.5523 12.5523 11 12 11L10 11V9L6 12.5L10 16Z"/>
</mask>
<g filter="url(#filter1_i_134_1792)">
<path d="M10 16V14L12 14C14.2091 14 16 12.2091 16 10H13C13 10.5523 12.5523 11 12 11L10 11V9L6 12.5L10 16Z" fill="#82C27C"/>
</g>
<path d="M10 14L10 13C9.44772 13 9 13.4477 9 14H10ZM10 16L9.3415 16.7526L11 18.2038V16H10ZM6 12.5L5.3415 11.7474L4.48141 12.5L5.3415 13.2526L6 12.5ZM10 9H11V6.79623L9.3415 8.24742L10 9ZM10 11H9C9 11.2652 9.10536 11.5196 9.29289 11.7071C9.48043 11.8946 9.73478 12 10 12V11ZM12 11L12 10H12V11ZM12 14V13V13V14ZM16 10L17 10V9L16 9V10ZM13 10V9H12V10H13ZM10 14H9V16H10H11V14H10ZM10 16L10.6585 15.2474L6.6585 11.7474L6 12.5L5.3415 13.2526L9.3415 16.7526L10 16ZM6 12.5L6.6585 13.2526L10.6585 9.75258L10 9L9.3415 8.24742L5.3415 11.7474L6 12.5ZM10 9H9V11H10H11V9H10ZM10 11V12L12 12V11V10L10 10L10 11ZM12 14V13L10 13L10 14V15L12 15V14ZM16 10V9H13V10V11H16V10ZM16 10H15C15 11.6569 13.6569 13 12 13V14V15C14.7614 15 17 12.7614 17 10L16 10ZM12 11L12 12C13.1046 12 14 11.1046 14 10H13H12H12L12 11Z" fill="url(#paint4_linear_134_1792)" mask="url(#path-7-inside-2_134_1792)"/>
</g>
<defs>
<filter id="filter0_i_134_1792" x="5" y="2" width="11" height="8" filterUnits="userSpaceOnUse" color-interpolation-filters="sRGB">
<feFlood flood-opacity="0" result="BackgroundImageFix"/>
<feBlend mode="normal" in="SourceGraphic" in2="BackgroundImageFix" result="shape"/>
<feColorMatrix in="SourceAlpha" type="matrix" values="0 0 0 0 0 0 0 0 0 0 0 0 0 0 0 0 0 0 127 0" result="hardAlpha"/>
<feOffset dx="1" dy="1"/>
<feGaussianBlur stdDeviation="1"/>
<feComposite in2="hardAlpha" operator="arithmetic" k2="-1" k3="1"/>
<feColorMatrix type="matrix" values="0 0 0 0 0.71381 0 0 0 0 0.864312 0 0 0 0 0.687251 0 0 0 1 0"/>
<feBlend mode="normal" in2="shape" result="effect1_innerShadow_134_1792"/>
</filter>
<filter id="filter1_i_134_1792" x="6" y="9" width="11" height="8" filterUnits="userSpaceOnUse" color-interpolation-filters="sRGB">
<feFlood flood-opacity="0" result="BackgroundImageFix"/>
<feBlend mode="normal" in="SourceGraphic" in2="BackgroundImageFix" result="shape"/>
<feColorMatrix in="SourceAlpha" type="matrix" values="0 0 0 0 0 0 0 0 0 0 0 0 0 0 0 0 0 0 127 0" result="hardAlpha"/>
<feOffset dx="1" dy="1"/>
<feGaussianBlur stdDeviation="1"/>
<feComposite in2="hardAlpha" operator="arithmetic" k2="-1" k3="1"/>
<feColorMatrix type="matrix" values="0 0 0 0 0.71381 0 0 0 0 0.864312 0 0 0 0 0.687251 0 0 0 1 0"/>
<feBlend mode="normal" in2="shape" result="effect1_innerShadow_134_1792"/>
</filter>
<linearGradient id="paint0_linear_134_1792" x1="1" y1="15" x2="13" y2="0.999999" gradientUnits="userSpaceOnUse">
<stop offset="0.500484" stop-color="#D2E5FD"/>
<stop offset="0.844906" stop-color="#A6CBF0"/>
</linearGradient>
<linearGradient id="paint1_linear_134_1792" x1="1" y1="1.21042" x2="13" y2="15.2104" gradientUnits="userSpaceOnUse">
<stop stop-color="#2F88DF"/>
<stop offset="1" stop-color="#053C92"/>
</linearGradient>
<linearGradient id="paint2_linear_134_1792" x1="2" y1="11" x2="12" y2="14" gradientUnits="userSpaceOnUse">
<stop stop-color="#55B4F8"/>
<stop offset="1" stop-color="#62BCFC"/>
</linearGradient>
<linearGradient id="paint3_linear_134_1792" x1="16" y1="9" x2="9.91275" y2="2.18475" gradientUnits="userSpaceOnUse">
<stop stop-color="#2A6B26"/>
<stop offset="1" stop-color="#80C178"/>
</linearGradient>
<linearGradient id="paint4_linear_134_1792" x1="6" y1="9" x2="13.2012" y2="14.9644" gradientUnits="userSpaceOnUse">
<stop stop-color="#80C178"/>
<stop offset="1" stop-color="#2A6B26"/>
</linearGradient>
<clipPath id="clip0_134_1792">
<rect width="16" height="16" fill="white"/>
</clipPath>
</defs>
</svg>
