<svg width="16" height="16" viewBox="0 0 16 16" fill="none" xmlns="http://www.w3.org/2000/svg">
<g clip-path="url(#clip0_139_3487)">
<path d="M3 2C3 1.44772 3.44772 1 4 1H11.5858C11.851 1 12.1054 1.10536 12.2929 1.29289L14.7071 3.70711C14.8946 3.89464 15 4.149 15 4.41421V14C15 14.5523 14.5523 15 14 15H4C3.44772 15 3 14.5523 3 14V2Z" fill="url(#paint0_linear_139_3487)"/>
<path d="M11.5859 0.5C11.9837 0.50004 12.3652 0.658184 12.6465 0.939453L15.0605 3.35352C15.3418 3.63478 15.5 4.01629 15.5 4.41406V14C15.5 14.8284 14.8284 15.5 14 15.5H4C3.17157 15.5 2.5 14.8284 2.5 14V2L2.50781 1.84668C2.58461 1.09028 3.22334 0.5 4 0.5H11.5859Z" stroke="#A8A8A8" stroke-opacity="0.66" stroke-linejoin="round"/>
<path d="M4 1.5H11C11.2761 1.5 11.5 1.72386 11.5 2V3C11.5 3.82843 12.1716 4.5 13 4.5H14C14.2761 4.5 14.5 4.72386 14.5 5V14C14.5 14.2761 14.2761 14.5 14 14.5H4C3.72386 14.5 3.5 14.2761 3.5 14V2L3.50977 1.89941C3.55629 1.67145 3.75829 1.5 4 1.5Z" stroke="white" stroke-linejoin="round"/>
<g clip-path="url(#clip1_139_3487)">
<path d="M5 7.375C5.08048 7.375 5.1574 7.39021 5.22805 7.41791L6.74382 3.3125C6.20088 3.11043 5.61334 3 5 3V7.375Z" fill="url(#paint1_linear_139_3487)"/>
<path d="M5.60594 7.84624L9.77357 6.50791C9.31254 5.0314 8.18535 3.84899 6.74382 3.3125L5.22805 7.41791C5.41386 7.49076 5.5563 7.65002 5.60594 7.84624Z" fill="url(#paint2_linear_139_3487)"/>
<path d="M5.625 8C5.625 8.11384 5.59456 8.22057 5.54138 8.3125L9.63655 9.875C9.87093 9.29598 10 8.66306 10 8C10 7.48031 9.92071 6.97913 9.77357 6.50791L5.60594 7.84624C5.61838 7.89543 5.625 7.94694 5.625 8Z" fill="url(#paint3_linear_139_3487)"/>
<path d="M5.00002 8.625C4.83182 8.625 4.67913 8.55856 4.56679 8.45048L1.61736 11.6821C2.50763 12.5004 3.69548 13 5.00002 13C7.09838 13 8.89482 11.7074 9.63655 9.875L5.54138 8.3125C5.43332 8.49931 5.23136 8.625 5.00002 8.625Z" fill="url(#paint4_linear_139_3487)"/>
<path d="M1.61736 11.6821L4.56679 8.45048C4.52462 8.40992 4.48811 8.36348 4.45862 8.3125L0.53833 10.2592C0.811005 10.7967 1.17794 11.2782 1.61736 11.6821Z" fill="url(#paint5_linear_139_3487)"/>
<path d="M4.375 8C4.375 7.82302 4.44856 7.66323 4.56677 7.54952L1.61734 4.3179C0.623098 5.23176 0 6.54311 0 8C0 8.81299 0.194041 9.58067 0.53833 10.2592L4.45862 8.3125C4.40544 8.22057 4.375 8.11384 4.375 8Z" fill="url(#paint6_linear_139_3487)"/>
<path d="M5 7.375V3C3.69546 3 2.50761 3.4996 1.61734 4.3179L4.56677 7.54952C4.67912 7.44144 4.8318 7.375 5 7.375Z" fill="url(#paint7_linear_139_3487)"/>
<mask id="path-5-inside-1_139_3487" fill="white">
<path d="M5 3C7.76142 3 10 5.23858 10 8C10 10.7614 7.76142 13 5 13C2.23858 13 0 10.7614 0 8C0 5.23858 2.23858 3 5 3Z"/>
</mask>
<g clip-path="url(#paint8_angular_139_3487_clip_path)" data-figma-skip-parse="true"><g transform="matrix(0 -0.005 0.005 0 5 8)"><foreignObject x="-1200" y="-1200" width="2400" height="2400"><div xmlns="http://www.w3.org/1999/xhtml" style="background:conic-gradient(from 90deg,rgba(179, 217, 243, 1) 0deg,rgba(200, 237, 249, 1) 3.52214deg,rgba(254, 255, 255, 1) 20.2533deg,rgba(232, 247, 255, 1) 31.2867deg,rgba(241, 254, 255, 1) 54.4623deg,rgba(255, 255, 255, 1) 67.0121deg,rgba(148, 188, 231, 1) 72.317deg,rgba(196, 225, 255, 1) 109.826deg,rgba(148, 188, 231, 1) 111.588deg,rgba(186, 219, 254, 1) 173.66deg,rgba(241, 253, 255, 1) 222.879deg,rgba(151, 189, 236, 1) 225.026deg,rgba(200, 237, 249, 1) 228.18deg,rgba(148, 188, 231, 1) 243.669deg,rgba(178, 214, 251, 1) 316.332deg,rgba(255, 255, 255, 1) 318.437deg,rgba(186, 219, 254, 1) 337.38deg,rgba(151, 189, 236, 1) 355.047deg,rgba(179, 217, 243, 1) 360deg);height:100%;width:100%;opacity:1"></div></foreignObject></g></g><path d="M5 3C7.76142 3 10 5.23858 10 8C10 10.7614 7.76142 13 5 13C2.23858 13 0 10.7614 0 8C0 5.23858 2.23858 3 5 3Z" data-figma-gradient-fill="{&#34;type&#34;:&#34;GRADIENT_ANGULAR&#34;,&#34;stops&#34;:[{&#34;color&#34;:{&#34;r&#34;:0.78431373834609985,&#34;g&#34;:0.92941176891326904,&#34;b&#34;:0.97647058963775635,&#34;a&#34;:1.0},&#34;position&#34;:0.0097837150096893311},{&#34;color&#34;:{&#34;r&#34;:0.99607843160629272,&#34;g&#34;:1.0,&#34;b&#34;:1.0,&#34;a&#34;:1.0},&#34;position&#34;:0.056259077042341232},{&#34;color&#34;:{&#34;r&#34;:0.90980392694473267,&#34;g&#34;:0.96862745285034180,&#34;b&#34;:1.0,&#34;a&#34;:1.0},&#34;position&#34;:0.086907573044300079},{&#34;color&#34;:{&#34;r&#34;:0.94509804248809814,&#34;g&#34;:0.99607843160629272,&#34;b&#34;:1.0,&#34;a&#34;:1.0},&#34;position&#34;:0.15128423273563385},{&#34;color&#34;:{&#34;r&#34;:1.0,&#34;g&#34;:1.0,&#34;b&#34;:1.0,&#34;a&#34;:1.0},&#34;position&#34;:0.18614466488361359},{&#34;color&#34;:{&#34;r&#34;:0.58039218187332153,&#34;g&#34;:0.73725491762161255,&#34;b&#34;:0.90588235855102539,&#34;a&#34;:1.0},&#34;position&#34;:0.20088045299053192},{&#34;color&#34;:{&#34;r&#34;:0.77070313692092896,&#34;g&#34;:0.88364005088806152,&#34;b&#34;:1.0,&#34;a&#34;:1.0},&#34;position&#34;:0.30507355928421021},{&#34;color&#34;:{&#34;r&#34;:0.58039218187332153,&#34;g&#34;:0.73725491762161255,&#34;b&#34;:0.90588235855102539,&#34;a&#34;:1.0},&#34;position&#34;:0.30996635556221008},{&#34;color&#34;:{&#34;r&#34;:0.7294117808341980,&#34;g&#34;:0.85882353782653809,&#34;b&#34;:0.99607843160629272,&#34;a&#34;:1.0},&#34;position&#34;:0.48238837718963623},{&#34;color&#34;:{&#34;r&#34;:0.94509804248809814,&#34;g&#34;:0.99215686321258545,&#34;b&#34;:1.0,&#34;a&#34;:1.0},&#34;position&#34;:0.61910802125930786},{&#34;color&#34;:{&#34;r&#34;:0.59215688705444336,&#34;g&#34;:0.74117648601531982,&#34;b&#34;:0.92549020051956177,&#34;a&#34;:1.0},&#34;position&#34;:0.62507313489913940},{&#34;color&#34;:{&#34;r&#34;:0.78431373834609985,&#34;g&#34;:0.92941176891326904,&#34;b&#34;:0.97647058963775635,&#34;a&#34;:1.0},&#34;position&#34;:0.63383287191390991},{&#34;color&#34;:{&#34;r&#34;:0.58039218187332153,&#34;g&#34;:0.73725491762161255,&#34;b&#34;:0.90588235855102539,&#34;a&#34;:1.0},&#34;position&#34;:0.67685914039611816},{&#34;color&#34;:{&#34;r&#34;:0.69803923368453979,&#34;g&#34;:0.83921569585800171,&#34;b&#34;:0.98431372642517090,&#34;a&#34;:1.0},&#34;position&#34;:0.87870067358016968},{&#34;color&#34;:{&#34;r&#34;:1.0,&#34;g&#34;:1.0,&#34;b&#34;:1.0,&#34;a&#34;:1.0},&#34;position&#34;:0.88454765081405640},{&#34;color&#34;:{&#34;r&#34;:0.7294117808341980,&#34;g&#34;:0.85882353782653809,&#34;b&#34;:0.99607843160629272,&#34;a&#34;:1.0},&#34;position&#34;:0.93716704845428467},{&#34;color&#34;:{&#34;r&#34;:0.59215688705444336,&#34;g&#34;:0.74117648601531982,&#34;b&#34;:0.92549020051956177,&#34;a&#34;:1.0},&#34;position&#34;:0.98624092340469360}],&#34;stopsVar&#34;:[{&#34;color&#34;:{&#34;r&#34;:0.78431373834609985,&#34;g&#34;:0.92941176891326904,&#34;b&#34;:0.97647058963775635,&#34;a&#34;:1.0},&#34;position&#34;:0.0097837150096893311},{&#34;color&#34;:{&#34;r&#34;:0.99607843160629272,&#34;g&#34;:1.0,&#34;b&#34;:1.0,&#34;a&#34;:1.0},&#34;position&#34;:0.056259077042341232},{&#34;color&#34;:{&#34;r&#34;:0.90980392694473267,&#34;g&#34;:0.96862745285034180,&#34;b&#34;:1.0,&#34;a&#34;:1.0},&#34;position&#34;:0.086907573044300079},{&#34;color&#34;:{&#34;r&#34;:0.94509804248809814,&#34;g&#34;:0.99607843160629272,&#34;b&#34;:1.0,&#34;a&#34;:1.0},&#34;position&#34;:0.15128423273563385},{&#34;color&#34;:{&#34;r&#34;:1.0,&#34;g&#34;:1.0,&#34;b&#34;:1.0,&#34;a&#34;:1.0},&#34;position&#34;:0.18614466488361359},{&#34;color&#34;:{&#34;r&#34;:0.58039218187332153,&#34;g&#34;:0.73725491762161255,&#34;b&#34;:0.90588235855102539,&#34;a&#34;:1.0},&#34;position&#34;:0.20088045299053192},{&#34;color&#34;:{&#34;r&#34;:0.77070313692092896,&#34;g&#34;:0.88364005088806152,&#34;b&#34;:1.0,&#34;a&#34;:1.0},&#34;position&#34;:0.30507355928421021},{&#34;color&#34;:{&#34;r&#34;:0.58039218187332153,&#34;g&#34;:0.73725491762161255,&#34;b&#34;:0.90588235855102539,&#34;a&#34;:1.0},&#34;position&#34;:0.30996635556221008},{&#34;color&#34;:{&#34;r&#34;:0.7294117808341980,&#34;g&#34;:0.85882353782653809,&#34;b&#34;:0.99607843160629272,&#34;a&#34;:1.0},&#34;position&#34;:0.48238837718963623},{&#34;color&#34;:{&#34;r&#34;:0.94509804248809814,&#34;g&#34;:0.99215686321258545,&#34;b&#34;:1.0,&#34;a&#34;:1.0},&#34;position&#34;:0.61910802125930786},{&#34;color&#34;:{&#34;r&#34;:0.59215688705444336,&#34;g&#34;:0.74117648601531982,&#34;b&#34;:0.92549020051956177,&#34;a&#34;:1.0},&#34;position&#34;:0.62507313489913940},{&#34;color&#34;:{&#34;r&#34;:0.78431373834609985,&#34;g&#34;:0.92941176891326904,&#34;b&#34;:0.97647058963775635,&#34;a&#34;:1.0},&#34;position&#34;:0.63383287191390991},{&#34;color&#34;:{&#34;r&#34;:0.58039218187332153,&#34;g&#34;:0.73725491762161255,&#34;b&#34;:0.90588235855102539,&#34;a&#34;:1.0},&#34;position&#34;:0.67685914039611816},{&#34;color&#34;:{&#34;r&#34;:0.69803923368453979,&#34;g&#34;:0.83921569585800171,&#34;b&#34;:0.98431372642517090,&#34;a&#34;:1.0},&#34;position&#34;:0.87870067358016968},{&#34;color&#34;:{&#34;r&#34;:1.0,&#34;g&#34;:1.0,&#34;b&#34;:1.0,&#34;a&#34;:1.0},&#34;position&#34;:0.88454765081405640},{&#34;color&#34;:{&#34;r&#34;:0.7294117808341980,&#34;g&#34;:0.85882353782653809,&#34;b&#34;:0.99607843160629272,&#34;a&#34;:1.0},&#34;position&#34;:0.93716704845428467},{&#34;color&#34;:{&#34;r&#34;:0.59215688705444336,&#34;g&#34;:0.74117648601531982,&#34;b&#34;:0.92549020051956177,&#34;a&#34;:1.0},&#34;position&#34;:0.98624092340469360}],&#34;transform&#34;:{&#34;m00&#34;:8.2694606912993296e-15,&#34;m01&#34;:10.0,&#34;m02&#34;:0.0,&#34;m10&#34;:-10.0,&#34;m11&#34;:6.0490146420490165e-15,&#34;m12&#34;:13.0},&#34;opacity&#34;:1.0,&#34;blendMode&#34;:&#34;NORMAL&#34;,&#34;visible&#34;:true}"/>
<path d="M5 3V4C7.20914 4 9 5.79086 9 8H10H11C11 4.68629 8.31371 2 5 2V3ZM10 8H9C9 10.2091 7.20914 12 5 12V13V14C8.31371 14 11 11.3137 11 8H10ZM5 13V12C2.79086 12 1 10.2091 1 8H0H-1C-1 11.3137 1.68629 14 5 14V13ZM0 8H1C1 5.79086 2.79086 4 5 4V3V2C1.68629 2 -1 4.68629 -1 8H0Z" fill="url(#paint9_linear_139_3487)" mask="url(#path-5-inside-1_139_3487)"/>
<mask id="path-7-inside-2_139_3487" fill="white">
<path fill-rule="evenodd" clip-rule="evenodd" d="M5 12C7.20914 12 9 10.2091 9 8C9 5.79086 7.20914 4 5 4C2.79086 4 1 5.79086 1 8C1 10.2091 2.79086 12 5 12ZM5 9C5.55228 9 6 8.55228 6 8C6 7.44772 5.55228 7 5 7C4.44772 7 4 7.44772 4 8C4 8.55228 4.44772 9 5 9Z"/>
</mask>
<path d="M8 8C8 9.65685 6.65685 11 5 11V13C7.76142 13 10 10.7614 10 8H8ZM5 5C6.65685 5 8 6.34315 8 8H10C10 5.23858 7.76142 3 5 3V5ZM2 8C2 6.34315 3.34315 5 5 5V3C2.23858 3 0 5.23858 0 8H2ZM5 11C3.34315 11 2 9.65685 2 8H0C0 10.7614 2.23858 13 5 13V11ZM5 8V10C6.10457 10 7 9.10457 7 8H5ZM5 8H7C7 6.89543 6.10457 6 5 6V8ZM5 8V6C3.89543 6 3 6.89543 3 8H5ZM5 8H3C3 9.10457 3.89543 10 5 10V8Z" fill="white" fill-opacity="0.66" style="mix-blend-mode:hard-light" mask="url(#path-7-inside-2_139_3487)"/>
<circle cx="5" cy="8" r="1" fill="#7A9ED3"/>
</g>
</g>
<defs>
<clipPath id="paint8_angular_139_3487_clip_path"><path d="M5 3C7.76142 3 10 5.23858 10 8C10 10.7614 7.76142 13 5 13C2.23858 13 0 10.7614 0 8C0 5.23858 2.23858 3 5 3Z"/></clipPath><linearGradient id="paint0_linear_139_3487" x1="3" y1="15" x2="15" y2="0.999999" gradientUnits="userSpaceOnUse">
<stop offset="0.500484" stop-color="white"/>
<stop offset="0.806982" stop-color="#E6E6E6"/>
<stop offset="0.901248" stop-color="white"/>
</linearGradient>
<linearGradient id="paint1_linear_139_3487" x1="5.9375" y1="5.5" x2="5" y2="5.20896" gradientUnits="userSpaceOnUse">
<stop stop-color="#FEFFFF"/>
<stop offset="1" stop-color="#C8EDF9"/>
</linearGradient>
<linearGradient id="paint2_linear_139_3487" x1="6.5625" y1="3.3125" x2="9.6875" y2="6.4375" gradientUnits="userSpaceOnUse">
<stop stop-color="#FEFFFF"/>
<stop offset="0.264347" stop-color="#E8F7FF"/>
<stop offset="0.558853" stop-color="#F1FEFF"/>
<stop offset="1" stop-color="white"/>
</linearGradient>
<linearGradient id="paint3_linear_139_3487" x1="5" y1="3" x2="5" y2="13" gradientUnits="userSpaceOnUse">
<stop stop-color="#94BCE7"/>
<stop offset="1" stop-color="#C5E1FF"/>
</linearGradient>
<linearGradient id="paint4_linear_139_3487" x1="5.46393e-08" y1="8" x2="10" y2="8" gradientUnits="userSpaceOnUse">
<stop offset="0.164959" stop-color="#F1FDFF"/>
<stop offset="0.572115" stop-color="#BADBFE"/>
<stop offset="1" stop-color="#94BCE7"/>
</linearGradient>
<linearGradient id="paint5_linear_139_3487" x1="0.3125" y1="10.1875" x2="1.5625" y2="11.75" gradientUnits="userSpaceOnUse">
<stop stop-color="#94BCE7"/>
<stop offset="0.502415" stop-color="#C8EDF9"/>
<stop offset="1" stop-color="#97BDEC"/>
</linearGradient>
<linearGradient id="paint6_linear_139_3487" x1="2.28338" y1="4.3179" x2="2.28338" y2="10.2592" gradientUnits="userSpaceOnUse">
<stop stop-color="#B2D6FB"/>
<stop offset="1" stop-color="#94BCE7"/>
</linearGradient>
<linearGradient id="paint7_linear_139_3487" x1="5" y1="3" x2="1.5625" y2="4.25" gradientUnits="userSpaceOnUse">
<stop stop-color="#97BDEC"/>
<stop offset="0.485577" stop-color="#BADBFE"/>
<stop offset="1" stop-color="white"/>
</linearGradient>
<linearGradient id="paint9_linear_139_3487" x1="0" y1="3" x2="10" y2="13" gradientUnits="userSpaceOnUse">
<stop offset="0.147434" stop-color="#B4CFF5"/>
<stop offset="0.85197" stop-color="#4978C0"/>
</linearGradient>
<clipPath id="clip0_139_3487">
<rect width="16" height="16" fill="white"/>
</clipPath>
<clipPath id="clip1_139_3487">
<rect width="10" height="10" fill="white" transform="translate(0 3)"/>
</clipPath>
</defs>
</svg>
