<svg width="16" height="16" viewBox="0 0 16 16" fill="none" xmlns="http://www.w3.org/2000/svg">
<g clip-path="url(#clip0_99_13023)">
<path d="M3 2C3 1.44772 3.44772 1 4 1H11.5858C11.851 1 12.1054 1.10536 12.2929 1.29289L14.7071 3.70711C14.8946 3.89464 15 4.149 15 4.41421V14C15 14.5523 14.5523 15 14 15H4C3.44772 15 3 14.5523 3 14V2Z" fill="url(#paint0_linear_99_13023)"/>
<path d="M11.5859 0.5C11.9837 0.50004 12.3652 0.658184 12.6465 0.939453L15.0605 3.35352C15.3418 3.63478 15.5 4.01629 15.5 4.41406V14C15.5 14.8284 14.8284 15.5 14 15.5H4C3.17157 15.5 2.5 14.8284 2.5 14V2L2.50781 1.84668C2.58461 1.09028 3.22334 0.5 4 0.5H11.5859Z" stroke="#A8A8A8" stroke-opacity="0.66" stroke-linejoin="round"/>
<path d="M4 1.5H11C11.2761 1.5 11.5 1.72386 11.5 2V3C11.5 3.82843 12.1716 4.5 13 4.5H14C14.2761 4.5 14.5 4.72386 14.5 5V14C14.5 14.2761 14.2761 14.5 14 14.5H4C3.72386 14.5 3.5 14.2761 3.5 14V2L3.50977 1.89941C3.55629 1.67145 3.75829 1.5 4 1.5Z" stroke="white" stroke-linejoin="round"/>
<mask id="path-4-inside-1_99_13023" fill="white">
<path d="M4.99997 3L6.32249 6.17971L9.75525 6.45492L7.13985 8.69529L7.9389 12.0451L4.99997 10.25L2.06105 12.0451L2.8601 8.69529L0.24469 6.45492L3.67746 6.17971L4.99997 3Z"/>
</mask>
<g filter="url(#filter0_i_99_13023)">
<path d="M4.99997 3L6.32249 6.17971L9.75525 6.45492L7.13985 8.69529L7.9389 12.0451L4.99997 10.25L2.06105 12.0451L2.8601 8.69529L0.24469 6.45492L3.67746 6.17971L4.99997 3Z" fill="#FFDC6B"/>
</g>
<path d="M4.99997 3L5.92329 2.61597L4.99997 0.396041L4.07665 2.61597L4.99997 3ZM6.32249 6.17971L5.39917 6.56374C5.54318 6.90998 5.86879 7.14655 6.24258 7.17651L6.32249 6.17971ZM9.75525 6.45492L10.4058 7.21437L12.2318 5.65025L9.83517 5.45811L9.75525 6.45492ZM7.13985 8.69529L6.48929 7.93583C6.2045 8.17978 6.08013 8.56256 6.16714 8.92731L7.13985 8.69529ZM7.9389 12.0451L7.41764 12.8985L9.46947 14.1517L8.91161 11.8131L7.9389 12.0451ZM4.99997 10.25L5.52123 9.3966C5.20121 9.20113 4.79873 9.20113 4.47872 9.3966L4.99997 10.25ZM2.06105 12.0451L1.08834 11.8131L0.530477 14.1517L2.5823 12.8985L2.06105 12.0451ZM2.8601 8.69529L3.8328 8.92731C3.91981 8.56256 3.79544 8.17978 3.51065 7.93583L2.8601 8.69529ZM0.24469 6.45492L0.164777 5.45811L-2.23182 5.65025L-0.405867 7.21437L0.24469 6.45492ZM3.67746 6.17971L3.75737 7.17651C4.13116 7.14655 4.45677 6.90998 4.60078 6.56374L3.67746 6.17971ZM4.99997 3L4.07665 3.38403L5.39917 6.56374L6.32249 6.17971L7.24581 5.79568L5.92329 2.61597L4.99997 3ZM6.32249 6.17971L6.24258 7.17651L9.67534 7.45172L9.75525 6.45492L9.83517 5.45811L6.4024 5.18291L6.32249 6.17971ZM9.75525 6.45492L9.1047 5.69546L6.48929 7.93583L7.13985 8.69529L7.79041 9.45475L10.4058 7.21437L9.75525 6.45492ZM7.13985 8.69529L6.16714 8.92731L6.96619 12.2771L7.9389 12.0451L8.91161 11.8131L8.11256 8.46326L7.13985 8.69529ZM7.9389 12.0451L8.46015 11.1917L5.52123 9.3966L4.99997 10.25L4.47872 11.1034L7.41764 12.8985L7.9389 12.0451ZM4.99997 10.25L4.47872 9.3966L1.53979 11.1917L2.06105 12.0451L2.5823 12.8985L5.52123 11.1034L4.99997 10.25ZM2.06105 12.0451L3.03376 12.2771L3.8328 8.92731L2.8601 8.69529L1.88739 8.46326L1.08834 11.8131L2.06105 12.0451ZM2.8601 8.69529L3.51065 7.93583L0.895246 5.69546L0.24469 6.45492L-0.405867 7.21437L2.20954 9.45475L2.8601 8.69529ZM0.24469 6.45492L0.324603 7.45172L3.75737 7.17651L3.67746 6.17971L3.59754 5.18291L0.164777 5.45811L0.24469 6.45492ZM3.67746 6.17971L4.60078 6.56374L5.92329 3.38403L4.99997 3L4.07665 2.61597L2.75414 5.79568L3.67746 6.17971Z" fill="url(#paint1_linear_99_13023)" mask="url(#path-4-inside-1_99_13023)"/>
</g>
<defs>
<filter id="filter0_i_99_13023" x="0.24469" y="3" width="10.5106" height="10.0451" filterUnits="userSpaceOnUse" color-interpolation-filters="sRGB">
<feFlood flood-opacity="0" result="BackgroundImageFix"/>
<feBlend mode="normal" in="SourceGraphic" in2="BackgroundImageFix" result="shape"/>
<feColorMatrix in="SourceAlpha" type="matrix" values="0 0 0 0 0 0 0 0 0 0 0 0 0 0 0 0 0 0 127 0" result="hardAlpha"/>
<feOffset dx="1" dy="1"/>
<feGaussianBlur stdDeviation="1"/>
<feComposite in2="hardAlpha" operator="arithmetic" k2="-1" k3="1"/>
<feColorMatrix type="matrix" values="0 0 0 0 1 0 0 0 0 1 0 0 0 0 1 0 0 0 1 0"/>
<feBlend mode="hard-light" in2="shape" result="effect1_innerShadow_99_13023"/>
</filter>
<linearGradient id="paint0_linear_99_13023" x1="3" y1="15" x2="15" y2="0.999999" gradientUnits="userSpaceOnUse">
<stop offset="0.500484" stop-color="white"/>
<stop offset="0.806982" stop-color="#E6E6E6"/>
<stop offset="0.901248" stop-color="white"/>
</linearGradient>
<linearGradient id="paint1_linear_99_13023" x1="1.99994" y1="4.33333" x2="8.72038" y2="11.3056" gradientUnits="userSpaceOnUse">
<stop stop-color="#FDC922"/>
<stop offset="0.5" stop-color="#F0B411"/>
<stop offset="1" stop-color="#C88311"/>
</linearGradient>
<clipPath id="clip0_99_13023">
<rect width="16" height="16" fill="white"/>
</clipPath>
</defs>
</svg>
