<svg width="16" height="16" viewBox="0 0 16 16" fill="none" xmlns="http://www.w3.org/2000/svg">
<path d="M2 2C2 1.44772 2.44772 1 3 1H10.5858C10.851 1 11.1054 1.10536 11.2929 1.29289L13.7071 3.70711C13.8946 3.89464 14 4.149 14 4.41421V14C14 14.5523 13.5523 15 13 15H3C2.44772 15 2 14.5523 2 14V2Z" fill="url(#paint0_linear_99_13028)"/>
<path d="M10.5859 0.5C10.9837 0.50004 11.3652 0.658184 11.6465 0.939453L14.0605 3.35352C14.3418 3.63478 14.5 4.01629 14.5 4.41406V14C14.5 14.8284 13.8284 15.5 13 15.5H3C2.17157 15.5 1.5 14.8284 1.5 14V2L1.50781 1.84668C1.58461 1.09028 2.22334 0.5 3 0.5H10.5859Z" stroke="#A8A8A8" stroke-opacity="0.66" stroke-linejoin="round"/>
<path d="M3 1.5H10C10.2761 1.5 10.5 1.72386 10.5 2V3C10.5 3.82843 11.1716 4.5 12 4.5H13C13.2761 4.5 13.5 4.72386 13.5 5V14C13.5 14.2761 13.2761 14.5 13 14.5H3C2.72386 14.5 2.5 14.2761 2.5 14V2L2.50977 1.89941C2.55629 1.67145 2.75829 1.5 3 1.5Z" stroke="white" stroke-linejoin="round"/>
<mask id="path-4-inside-1_99_13028" fill="white">
<path d="M14 12V9H10V12H8L12 16L16 12H14Z"/>
</mask>
<g filter="url(#filter0_i_99_13028)">
<path d="M14 12V9H10V12H8L12 16L16 12H14Z" fill="#82C27C"/>
</g>
<path d="M14 9H15L15 8H14V9ZM14 12H13C13 12.5523 13.4477 13 14 13V12ZM16 12L16.7071 12.7071L18.4142 11H16V12ZM12 16L11.2929 16.7071L12 17.4142L12.7071 16.7071L12 16ZM8 12V11H5.58579L7.29289 12.7071L8 12ZM10 12V13C10.5523 13 11 12.5523 11 12H10ZM10 9V8H9V9H10ZM14 9H13V12H14H15V9H14ZM14 12V13H16V12V11H14V12ZM16 12L15.2929 11.2929L11.2929 15.2929L12 16L12.7071 16.7071L16.7071 12.7071L16 12ZM12 16L12.7071 15.2929L8.70711 11.2929L8 12L7.29289 12.7071L11.2929 16.7071L12 16ZM8 12V13H10V12V11H8V12ZM10 12H11V9H10H9V12H10ZM10 9V10H14V9V8H10V9Z" fill="url(#paint1_linear_99_13028)" mask="url(#path-4-inside-1_99_13028)"/>
<defs>
<filter id="filter0_i_99_13028" x="8" y="9" width="9" height="8" filterUnits="userSpaceOnUse" color-interpolation-filters="sRGB">
<feFlood flood-opacity="0" result="BackgroundImageFix"/>
<feBlend mode="normal" in="SourceGraphic" in2="BackgroundImageFix" result="shape"/>
<feColorMatrix in="SourceAlpha" type="matrix" values="0 0 0 0 0 0 0 0 0 0 0 0 0 0 0 0 0 0 127 0" result="hardAlpha"/>
<feOffset dx="1" dy="1"/>
<feGaussianBlur stdDeviation="1"/>
<feComposite in2="hardAlpha" operator="arithmetic" k2="-1" k3="1"/>
<feColorMatrix type="matrix" values="0 0 0 0 0.71381 0 0 0 0 0.864312 0 0 0 0 0.687251 0 0 0 1 0"/>
<feBlend mode="normal" in2="shape" result="effect1_innerShadow_99_13028"/>
</filter>
<linearGradient id="paint0_linear_99_13028" x1="2" y1="15" x2="14" y2="0.999999" gradientUnits="userSpaceOnUse">
<stop offset="0.500484" stop-color="white"/>
<stop offset="0.806982" stop-color="#E6E6E6"/>
<stop offset="0.901248" stop-color="white"/>
</linearGradient>
<linearGradient id="paint1_linear_99_13028" x1="9.14286" y1="10" x2="14.0986" y2="15.6637" gradientUnits="userSpaceOnUse">
<stop stop-color="#80C178"/>
<stop offset="1" stop-color="#2A6B26"/>
</linearGradient>
</defs>
</svg>
