<svg width="16" height="16" viewBox="0 0 16 16" fill="none" xmlns="http://www.w3.org/2000/svg">
<g clip-path="url(#clip0_448_7318)">
<path d="M3.79297 9.5C4.18348 9.10953 4.81652 9.10953 5.20703 9.5L7 11.293C7.39047 11.6835 7.39047 12.3165 7 12.707L6.92969 12.7773C6.82887 12.878 6.70763 12.9558 6.57422 13.0059L2.67578 14.4678L1.64551 14.8545L2.03223 13.8242L3.49414 9.92578C3.5442 9.79237 3.62196 9.67113 3.72266 9.57031L3.79297 9.5Z" fill="url(#paint0_linear_448_7318)"/>
<path d="M3.79297 9.5C4.18348 9.10953 4.81652 9.10953 5.20703 9.5L7 11.293C7.39047 11.6835 7.39047 12.3165 7 12.707L6.92969 12.7773C6.82887 12.878 6.70763 12.9558 6.57422 13.0059L2.67578 14.4678L1.64551 14.8545L2.03223 13.8242L3.49414 9.92578C3.5442 9.79237 3.62196 9.67113 3.72266 9.57031L3.79297 9.5Z" fill="url(#paint1_linear_448_7318)"/>
<path d="M3.79297 9.5C4.18348 9.10953 4.81652 9.10953 5.20703 9.5L7 11.293C7.39047 11.6835 7.39047 12.3165 7 12.707L6.92969 12.7773C6.82887 12.878 6.70763 12.9558 6.57422 13.0059L2.67578 14.4678L1.64551 14.8545L2.03223 13.8242L3.49414 9.92578C3.5442 9.79237 3.62196 9.67113 3.72266 9.57031L3.79297 9.5Z" stroke="url(#paint2_linear_448_7318)" stroke-linejoin="round"/>
<path d="M3.79297 9.5C4.18348 9.10953 4.81652 9.10953 5.20703 9.5L7 11.293C7.39047 11.6835 7.39047 12.3165 7 12.707L6.92969 12.7773C6.82887 12.878 6.70763 12.9558 6.57422 13.0059L2.67578 14.4678L1.64551 14.8545L2.03223 13.8242L3.49414 9.92578C3.5442 9.79237 3.62196 9.67113 3.72266 9.57031L3.79297 9.5Z" stroke="url(#paint3_linear_448_7318)" stroke-linejoin="round"/>
<path d="M10.7246 2.58203C10.9187 2.45387 11.1827 2.47562 11.3535 2.64648L13.8535 5.14648C14.0488 5.34175 14.0488 5.65825 13.8535 5.85352L6.85352 12.8535C6.65825 13.0488 6.34175 13.0488 6.14648 12.8535L3.64648 10.3535C3.45122 10.1583 3.45122 9.84175 3.64648 9.64648L10.6465 2.64648L10.7246 2.58203Z" fill="url(#paint4_linear_448_7318)" stroke="url(#paint5_linear_448_7318)" stroke-linejoin="round"/>
<path fill-rule="evenodd" clip-rule="evenodd" d="M4 10L11 3L13.5 5.5L6.5 12.5L4 10ZM5.79289 11.7929L12.7929 4.79289L11.7071 3.70711L4.70711 10.7071L5.79289 11.7929Z" fill="url(#paint6_linear_448_7318)"/>
<path d="M14.662 1.83357C15.5045 2.67609 15.6853 4.0213 14.8533 4.85328L13.4998 6.20672L10.293 2.99988L11.6465 1.64644C12.477 0.815932 13.8178 0.989423 14.662 1.83357Z" fill="url(#paint7_linear_448_7318)" stroke="url(#paint8_linear_448_7318)"/>
<mask id="path-5-inside-1_448_7318" fill="white">
<path d="M10 9H6V14H10V16H11L16 11.5L11 7H10V9Z"/>
</mask>
<g filter="url(#filter0_i_448_7318)">
<path d="M10 9H6V14H10V16H11L16 11.5L11 7H10V9Z" fill="#80B361"/>
</g>
<path d="M6 9V8H5V9H6ZM10 9V10C10.5523 10 11 9.55228 11 9H10ZM10 7V6H9V7H10ZM11 7L11.669 6.25671L11.3837 6H11V7ZM16 11.5L16.669 12.2433L17.4948 11.5L16.669 10.7567L16 11.5ZM11 16V17H11.3837L11.669 16.7433L11 16ZM10 16H9V17H10V16ZM10 14H11C11 13.4477 10.5523 13 10 13V14ZM6 14H5V15H6V14ZM6 9V10H10V9V8H6V9ZM10 9H11V7H10H9V9H10ZM10 7V8H11V7V6H10V7ZM11 7L10.331 7.74329L15.331 12.2433L16 11.5L16.669 10.7567L11.669 6.25671L11 7ZM16 11.5L15.331 10.7567L10.331 15.2567L11 16L11.669 16.7433L16.669 12.2433L16 11.5ZM11 16V15H10V16V17H11V16ZM10 16H11V14H10H9V16H10ZM10 14V13H6V14V15H10V14ZM6 14H7V9H6H5V14H6Z" fill="url(#paint9_linear_448_7318)" mask="url(#path-5-inside-1_448_7318)"/>
<path d="M13.752 11.4996L11.4404 13.5826C11.2619 12.9642 10.6972 12.4996 10.0049 12.4996H7.5V10.4996H10C10.7153 10.4996 11.2655 10.0249 11.4404 9.41565L13.752 11.4996Z" stroke="white" stroke-opacity="0.2"/>
</g>
<defs>
<filter id="filter0_i_448_7318" x="6" y="7" width="12" height="11" filterUnits="userSpaceOnUse" color-interpolation-filters="sRGB">
<feFlood flood-opacity="0" result="BackgroundImageFix"/>
<feBlend mode="normal" in="SourceGraphic" in2="BackgroundImageFix" result="shape"/>
<feColorMatrix in="SourceAlpha" type="matrix" values="0 0 0 0 0 0 0 0 0 0 0 0 0 0 0 0 0 0 127 0" result="hardAlpha"/>
<feOffset dx="2" dy="2"/>
<feGaussianBlur stdDeviation="1"/>
<feComposite in2="hardAlpha" operator="arithmetic" k2="-1" k3="1"/>
<feColorMatrix type="matrix" values="0 0 0 0 1 0 0 0 0 1 0 0 0 0 1 0 0 0 0.25 0"/>
<feBlend mode="normal" in2="shape" result="effect1_innerShadow_448_7318"/>
</filter>
<linearGradient id="paint0_linear_448_7318" x1="4" y1="10" x2="6.5" y2="12.5" gradientUnits="userSpaceOnUse">
<stop stop-color="#FAE7D1"/>
<stop offset="1" stop-color="#E89840"/>
</linearGradient>
<linearGradient id="paint1_linear_448_7318" x1="5" y1="11" x2="1" y2="15" gradientUnits="userSpaceOnUse">
<stop stop-color="#584013" stop-opacity="0"/>
<stop offset="0.499937" stop-color="#584013" stop-opacity="0"/>
<stop offset="0.661921" stop-color="#584013"/>
</linearGradient>
<linearGradient id="paint2_linear_448_7318" x1="4" y1="11" x2="5.5" y2="12.5" gradientUnits="userSpaceOnUse">
<stop stop-color="#B98926"/>
<stop offset="1" stop-color="#AA6016"/>
</linearGradient>
<linearGradient id="paint3_linear_448_7318" x1="6" y1="10" x2="0.999999" y2="15" gradientUnits="userSpaceOnUse">
<stop offset="0.5" stop-color="#B98926" stop-opacity="0"/>
<stop offset="0.656842" stop-color="#584013"/>
</linearGradient>
<linearGradient id="paint4_linear_448_7318" x1="4" y1="10" x2="6.5" y2="12.5" gradientUnits="userSpaceOnUse">
<stop stop-color="#F5DC60"/>
<stop offset="1" stop-color="#EFCB1A"/>
</linearGradient>
<linearGradient id="paint5_linear_448_7318" x1="4" y1="10" x2="6.5" y2="12.5" gradientUnits="userSpaceOnUse">
<stop stop-color="#E9C755"/>
<stop offset="1" stop-color="#D98F3B"/>
</linearGradient>
<linearGradient id="paint6_linear_448_7318" x1="6.5" y1="8.5" x2="8" y2="10" gradientUnits="userSpaceOnUse">
<stop stop-color="#FCF4B3"/>
<stop offset="1" stop-color="#F6E34A"/>
</linearGradient>
<linearGradient id="paint7_linear_448_7318" x1="11.9872" y1="1.96495" x2="13.9495" y2="4.88643" gradientUnits="userSpaceOnUse">
<stop stop-color="#FDD7D1"/>
<stop offset="1" stop-color="#FBACA1"/>
</linearGradient>
<linearGradient id="paint8_linear_448_7318" x1="12" y1="2" x2="13.8849" y2="4.89985" gradientUnits="userSpaceOnUse">
<stop stop-color="#E1B3AD"/>
<stop offset="1" stop-color="#B17971"/>
</linearGradient>
<linearGradient id="paint9_linear_448_7318" x1="14.5714" y1="14.7143" x2="8.17837" y2="7.61089" gradientUnits="userSpaceOnUse">
<stop stop-color="#247C10"/>
<stop offset="1" stop-color="#6FA53D"/>
</linearGradient>
<clipPath id="clip0_448_7318">
<rect width="16" height="16" fill="white"/>
</clipPath>
</defs>
</svg>
