<svg width="16" height="16" viewBox="0 0 16 16" fill="none" xmlns="http://www.w3.org/2000/svg">
<g clip-path="url(#clip0_452_7813)">
<mask id="mask0_452_7813" style="mask-type:alpha" maskUnits="userSpaceOnUse" x="0" y="4" width="13" height="12">
<path d="M13 13L4 4H0V16H13V13Z" fill="#D9D9D9"/>
</mask>
<g mask="url(#mask0_452_7813)">
<rect x="0.928923" y="10.1213" width="13" height="7" rx="3" transform="rotate(-45 0.928923 10.1213)" fill="url(#paint0_linear_452_7813)" stroke="url(#paint1_linear_452_7813)" stroke-width="2"/>
<rect x="0.221816" y="10.1213" width="14" height="8" rx="3.5" transform="rotate(-45 0.221816 10.1213)" stroke="url(#paint2_linear_452_7813)"/>
</g>
<mask id="mask1_452_7813" style="mask-type:alpha" maskUnits="userSpaceOnUse" x="3" y="0" width="13" height="12">
<path d="M3 3L12 12L16 12L16 0L3 1.1365e-06L3 3Z" fill="#D9D9D9"/>
</mask>
<g mask="url(#mask1_452_7813)">
<rect x="-0.485291" y="10.1213" width="15" height="9" rx="4" transform="rotate(-45 -0.485291 10.1213)" fill="url(#paint3_linear_452_7813)"/>
<rect x="0.928923" y="10.1213" width="13" height="7" rx="3" transform="rotate(-45 0.928923 10.1213)" stroke="white" stroke-opacity="0.66" stroke-width="2"/>
<rect x="0.221816" y="10.1213" width="14" height="8" rx="3.5" transform="rotate(-45 0.221816 10.1213)" stroke="url(#paint4_linear_452_7813)"/>
</g>
</g>
<mask id="path-8-inside-1_452_7813" fill="white">
<path d="M10 9H6V14H10V16H11L16 11.5L11 7H10V9Z"/>
</mask>
<g filter="url(#filter0_i_452_7813)">
<path d="M10 9H6V14H10V16H11L16 11.5L11 7H10V9Z" fill="#80B361"/>
</g>
<path d="M6 9V8H5V9H6ZM10 9V10C10.5523 10 11 9.55228 11 9H10ZM10 7V6H9V7H10ZM11 7L11.669 6.25671L11.3837 6H11V7ZM16 11.5L16.669 12.2433L17.4948 11.5L16.669 10.7567L16 11.5ZM11 16V17H11.3837L11.669 16.7433L11 16ZM10 16H9V17H10V16ZM10 14H11C11 13.4477 10.5523 13 10 13V14ZM6 14H5V15H6V14ZM6 9V10H10V9V8H6V9ZM10 9H11V7H10H9V9H10ZM10 7V8H11V7V6H10V7ZM11 7L10.331 7.74329L15.331 12.2433L16 11.5L16.669 10.7567L11.669 6.25671L11 7ZM16 11.5L15.331 10.7567L10.331 15.2567L11 16L11.669 16.7433L16.669 12.2433L16 11.5ZM11 16V15H10V16V17H11V16ZM10 16H11V14H10H9V16H10ZM10 14V13H6V14V15H10V14ZM6 14H7V9H6H5V14H6Z" fill="url(#paint5_linear_452_7813)" mask="url(#path-8-inside-1_452_7813)"/>
<path d="M13.752 11.4996L11.4404 13.5826C11.2619 12.9642 10.6972 12.4996 10.0049 12.4996H7.5V10.4996H10C10.7153 10.4996 11.2655 10.0249 11.4404 9.41565L13.752 11.4996Z" stroke="white" stroke-opacity="0.2"/>
<defs>
<filter id="filter0_i_452_7813" x="6" y="7" width="12" height="11" filterUnits="userSpaceOnUse" color-interpolation-filters="sRGB">
<feFlood flood-opacity="0" result="BackgroundImageFix"/>
<feBlend mode="normal" in="SourceGraphic" in2="BackgroundImageFix" result="shape"/>
<feColorMatrix in="SourceAlpha" type="matrix" values="0 0 0 0 0 0 0 0 0 0 0 0 0 0 0 0 0 0 127 0" result="hardAlpha"/>
<feOffset dx="2" dy="2"/>
<feGaussianBlur stdDeviation="1"/>
<feComposite in2="hardAlpha" operator="arithmetic" k2="-1" k3="1"/>
<feColorMatrix type="matrix" values="0 0 0 0 1 0 0 0 0 1 0 0 0 0 1 0 0 0 0.25 0"/>
<feBlend mode="normal" in2="shape" result="effect1_innerShadow_452_7813"/>
</filter>
<linearGradient id="paint0_linear_452_7813" x1="5.88971" y1="10.1213" x2="3.90441" y2="18.0625" gradientUnits="userSpaceOnUse">
<stop stop-color="#EF9C9C"/>
<stop offset="0.735706" stop-color="#E53434"/>
</linearGradient>
<linearGradient id="paint1_linear_452_7813" x1="5.88971" y1="10.1213" x2="3.90441" y2="18.0625" gradientUnits="userSpaceOnUse">
<stop stop-color="white" stop-opacity="0.66"/>
<stop offset="1" stop-color="white" stop-opacity="0.05"/>
</linearGradient>
<linearGradient id="paint2_linear_452_7813" x1="5.88971" y1="10.1213" x2="3.90441" y2="18.0625" gradientUnits="userSpaceOnUse">
<stop stop-color="#DD6A6A"/>
<stop offset="1" stop-color="#C31D1D" stop-opacity="0.984314"/>
</linearGradient>
<linearGradient id="paint3_linear_452_7813" x1="5.88971" y1="10.1213" x2="3.90441" y2="18.0625" gradientUnits="userSpaceOnUse">
<stop offset="0.278166" stop-color="#F2F2F2"/>
<stop offset="0.768057" stop-color="#DDDDDD"/>
</linearGradient>
<linearGradient id="paint4_linear_452_7813" x1="5.88971" y1="10.1213" x2="3.90441" y2="18.0625" gradientUnits="userSpaceOnUse">
<stop stop-color="#DADDDD"/>
<stop offset="1" stop-color="#ACB1B1" stop-opacity="0.85098"/>
</linearGradient>
<linearGradient id="paint5_linear_452_7813" x1="14.5714" y1="14.7143" x2="8.17837" y2="7.61089" gradientUnits="userSpaceOnUse">
<stop stop-color="#247C10"/>
<stop offset="1" stop-color="#6FA53D"/>
</linearGradient>
<clipPath id="clip0_452_7813">
<rect width="16" height="16" fill="white"/>
</clipPath>
</defs>
</svg>
