<svg width="16" height="16" viewBox="0 0 16 16" fill="none" xmlns="http://www.w3.org/2000/svg">
<g clip-path="url(#clip0_201_5606)">
<mask id="path-1-outside-1_201_5606" maskUnits="userSpaceOnUse" x="-1" y="3" width="18" height="11" fill="black">
<rect fill="white" x="-1" y="3" width="18" height="11"/>
<path d="M1 6L3 4H13.5L15 6L8 12.5L1 6Z"/>
</mask>
<path d="M1 6L3 4H13.5L15 6L8 12.5L1 6Z" fill="url(#paint0_linear_201_5606)"/>
<path d="M3 4V3H2.58579L2.29289 3.29289L3 4ZM1 6L0.292893 5.29289L-0.440888 6.02667L0.319549 6.73279L1 6ZM15 6L15.6805 6.73279L16.3402 6.12021L15.8 5.4L15 6ZM13.5 4L14.3 3.4L14 3H13.5V4ZM8 12.5L7.31955 13.2328H8.68045L8 12.5ZM2.29289 3.29289L0.292893 5.29289L1.70711 6.70711L3.70711 4.70711L2.29289 3.29289ZM15.8 5.4L14.3 3.4L12.7 4.6L14.2 6.6L15.8 5.4ZM13.5 3H3V5H13.5V3ZM0.319549 6.73279L7.31955 13.2328L8.68045 11.7672L1.68045 5.26721L0.319549 6.73279ZM8.68045 13.2328L15.6805 6.73279L14.3195 5.26721L7.31955 11.7672L8.68045 13.2328Z" fill="url(#paint1_linear_201_5606)" mask="url(#path-1-outside-1_201_5606)"/>
<mask id="path-3-inside-2_201_5606" fill="white">
<path d="M1 6L3 4H13.5L15 6L8 12.5L1 6Z"/>
</mask>
<path d="M3 4V3H2.58579L2.29289 3.29289L3 4ZM1 6L0.292893 5.29289L-0.440888 6.02667L0.319549 6.73279L1 6ZM15 6L15.6805 6.73279L16.3402 6.12021L15.8 5.4L15 6ZM13.5 4L14.3 3.4L14 3H13.5V4ZM8 12.5L7.31955 13.2328H8.68045L8 12.5ZM2.29289 3.29289L0.292893 5.29289L1.70711 6.70711L3.70711 4.70711L2.29289 3.29289ZM15.8 5.4L14.3 3.4L12.7 4.6L14.2 6.6L15.8 5.4ZM13.5 3H3V5H13.5V3ZM0.319549 6.73279L7.31955 13.2328L8.68045 11.7672L1.68045 5.26721L0.319549 6.73279ZM8.68045 13.2328L15.6805 6.73279L14.3195 5.26721L7.31955 11.7672L8.68045 13.2328Z" fill="white" fill-opacity="0.66" style="mix-blend-mode:hard-light" mask="url(#path-3-inside-2_201_5606)"/>
<path d="M8 12.5L6 6V4L4 6L8 12.5Z" fill="url(#paint2_linear_201_5606)" fill-opacity="0.66"/>
<mask id="path-6-inside-3_201_5606" fill="white">
<path d="M14 12V9H10V12H8L12 16L16 12H14Z"/>
</mask>
<g filter="url(#filter0_i_201_5606)">
<path d="M14 12V9H10V12H8L12 16L16 12H14Z" fill="#82C27C"/>
</g>
<path d="M14 9H15L15 8H14V9ZM14 12H13C13 12.5523 13.4477 13 14 13V12ZM16 12L16.7071 12.7071L18.4142 11H16V12ZM12 16L11.2929 16.7071L12 17.4142L12.7071 16.7071L12 16ZM8 12V11H5.58579L7.29289 12.7071L8 12ZM10 12V13C10.5523 13 11 12.5523 11 12H10ZM10 9V8H9V9H10ZM14 9H13V12H14H15V9H14ZM14 12V13H16V12V11H14V12ZM16 12L15.2929 11.2929L11.2929 15.2929L12 16L12.7071 16.7071L16.7071 12.7071L16 12ZM12 16L12.7071 15.2929L8.70711 11.2929L8 12L7.29289 12.7071L11.2929 16.7071L12 16ZM8 12V13H10V12V11H8V12ZM10 12H11V9H10H9V12H10ZM10 9V10H14V9V8H10V9Z" fill="url(#paint3_linear_201_5606)" mask="url(#path-6-inside-3_201_5606)"/>
</g>
<defs>
<filter id="filter0_i_201_5606" x="8" y="9" width="9" height="8" filterUnits="userSpaceOnUse" color-interpolation-filters="sRGB">
<feFlood flood-opacity="0" result="BackgroundImageFix"/>
<feBlend mode="normal" in="SourceGraphic" in2="BackgroundImageFix" result="shape"/>
<feColorMatrix in="SourceAlpha" type="matrix" values="0 0 0 0 0 0 0 0 0 0 0 0 0 0 0 0 0 0 127 0" result="hardAlpha"/>
<feOffset dx="1" dy="1"/>
<feGaussianBlur stdDeviation="1"/>
<feComposite in2="hardAlpha" operator="arithmetic" k2="-1" k3="1"/>
<feColorMatrix type="matrix" values="0 0 0 0 0.71381 0 0 0 0 0.864312 0 0 0 0 0.687251 0 0 0 1 0"/>
<feBlend mode="normal" in2="shape" result="effect1_innerShadow_201_5606"/>
</filter>
<linearGradient id="paint0_linear_201_5606" x1="1" y1="8" x2="15" y2="8" gradientUnits="userSpaceOnUse">
<stop stop-color="#F44141"/>
<stop offset="0.498047" stop-color="#DE0707"/>
<stop offset="0.502232" stop-color="#FF3333"/>
<stop offset="1" stop-color="#CD1515"/>
</linearGradient>
<linearGradient id="paint1_linear_201_5606" x1="1" y1="4" x2="9.5" y2="12" gradientUnits="userSpaceOnUse">
<stop stop-color="#FE807C"/>
<stop offset="1" stop-color="#C62C32"/>
</linearGradient>
<linearGradient id="paint2_linear_201_5606" x1="5.5" y1="4" x2="5.5" y2="12.5" gradientUnits="userSpaceOnUse">
<stop stop-color="white" stop-opacity="0"/>
<stop offset="0.24" stop-color="white"/>
<stop offset="1" stop-color="white" stop-opacity="0"/>
</linearGradient>
<linearGradient id="paint3_linear_201_5606" x1="9.14286" y1="10" x2="14.0986" y2="15.6637" gradientUnits="userSpaceOnUse">
<stop stop-color="#80C178"/>
<stop offset="1" stop-color="#2A6B26"/>
</linearGradient>
<clipPath id="clip0_201_5606">
<rect width="16" height="16" fill="white"/>
</clipPath>
</defs>
</svg>
