<svg width="16" height="16" viewBox="0 0 16 16" fill="none" xmlns="http://www.w3.org/2000/svg">
<mask id="path-1-outside-1_188_3595" maskUnits="userSpaceOnUse" x="1" y="1" width="11" height="14" fill="black">
<rect fill="white" x="1" y="1" width="11" height="14"/>
<path fill-rule="evenodd" clip-rule="evenodd" d="M5 2L2 5V12L5 14H11V2H5Z"/>
</mask>
<path d="M2 5L1.29289 4.29289C1.10536 4.48043 1 4.73478 1 5H2ZM5 2V1C4.73478 1 4.48043 1.10536 4.29289 1.29289L5 2ZM2 12H1C1 12.3344 1.1671 12.6466 1.4453 12.8321L2 12ZM5 14L4.4453 14.8321C4.60957 14.9416 4.80258 15 5 15V14ZM11 14V15C11.5523 15 12 14.5523 12 14H11ZM11 2H12C12 1.44772 11.5523 1 11 1V2ZM2.70711 5.70711L5.70711 2.70711L4.29289 1.29289L1.29289 4.29289L2.70711 5.70711ZM3 12V5H1V12H3ZM5.5547 13.1679L2.5547 11.1679L1.4453 12.8321L4.4453 14.8321L5.5547 13.1679ZM11 13H5V15H11V13ZM10 2V14H12V2H10ZM5 3H11V1H5V3Z" fill="url(#paint0_linear_188_3595)" mask="url(#path-1-outside-1_188_3595)"/>
<path d="M2 5L5 2V14L2 12V5Z" fill="url(#paint1_linear_188_3595)"/>
<rect x="5" y="2" width="6" height="12" fill="url(#paint2_linear_188_3595)"/>
<mask id="path-5-inside-2_188_3595" fill="white">
<path fill-rule="evenodd" clip-rule="evenodd" d="M5 2L2 5V12L5 14H11V2H5Z"/>
</mask>
<path d="M2 5L1.29289 4.29289C1.10536 4.48043 1 4.73478 1 5H2ZM5 2V1C4.73478 1 4.48043 1.10536 4.29289 1.29289L5 2ZM2 12H1C1 12.3344 1.1671 12.6466 1.4453 12.8321L2 12ZM5 14L4.4453 14.8321C4.60957 14.9416 4.80258 15 5 15V14ZM11 14V15C11.5523 15 12 14.5523 12 14H11ZM11 2H12C12 1.44772 11.5523 1 11 1V2ZM2.70711 5.70711L5.70711 2.70711L4.29289 1.29289L1.29289 4.29289L2.70711 5.70711ZM3 12V5H1V12H3ZM5.5547 13.1679L2.5547 11.1679L1.4453 12.8321L4.4453 14.8321L5.5547 13.1679ZM11 13H5V15H11V13ZM10 2V14H12V2H10ZM5 3H11V1H5V3Z" fill="white" style="mix-blend-mode:soft-light" mask="url(#path-5-inside-2_188_3595)"/>
<rect x="6" y="4" width="4" height="1" rx="0.5" fill="black" fill-opacity="0.33"/>
<rect x="6" y="6" width="4" height="1" rx="0.5" fill="black" fill-opacity="0.33"/>
<circle cx="9" cy="9" r="1" fill="url(#paint3_linear_188_3595)"/>
<mask id="path-10-inside-3_188_3595" fill="white">
<path d="M10 9H6V14H10V16H11L16 11.5L11 7H10V9Z"/>
</mask>
<g filter="url(#filter0_i_188_3595)">
<path d="M10 9H6V14H10V16H11L16 11.5L11 7H10V9Z" fill="#80B361"/>
</g>
<path d="M6 9V8H5V9H6ZM10 9V10C10.5523 10 11 9.55228 11 9H10ZM10 7V6H9V7H10ZM11 7L11.669 6.25671L11.3837 6H11V7ZM16 11.5L16.669 12.2433L17.4948 11.5L16.669 10.7567L16 11.5ZM11 16V17H11.3837L11.669 16.7433L11 16ZM10 16H9V17H10V16ZM10 14H11C11 13.4477 10.5523 13 10 13V14ZM6 14H5V15H6V14ZM6 9V10H10V9V8H6V9ZM10 9H11V7H10H9V9H10ZM10 7V8H11V7V6H10V7ZM11 7L10.331 7.74329L15.331 12.2433L16 11.5L16.669 10.7567L11.669 6.25671L11 7ZM16 11.5L15.331 10.7567L10.331 15.2567L11 16L11.669 16.7433L16.669 12.2433L16 11.5ZM11 16V15H10V16V17H11V16ZM10 16H11V14H10H9V16H10ZM10 14V13H6V14V15H10V14ZM6 14H7V9H6H5V14H6Z" fill="url(#paint4_linear_188_3595)" mask="url(#path-10-inside-3_188_3595)"/>
<path d="M13.752 11.4996L11.4404 13.5826C11.2619 12.9642 10.6972 12.4996 10.0049 12.4996H7.5V10.4996H10C10.7153 10.4996 11.2655 10.0249 11.4404 9.41565L13.752 11.4996Z" stroke="white" stroke-opacity="0.2"/>
<defs>
<filter id="filter0_i_188_3595" x="6" y="7" width="12" height="11" filterUnits="userSpaceOnUse" color-interpolation-filters="sRGB">
<feFlood flood-opacity="0" result="BackgroundImageFix"/>
<feBlend mode="normal" in="SourceGraphic" in2="BackgroundImageFix" result="shape"/>
<feColorMatrix in="SourceAlpha" type="matrix" values="0 0 0 0 0 0 0 0 0 0 0 0 0 0 0 0 0 0 127 0" result="hardAlpha"/>
<feOffset dx="2" dy="2"/>
<feGaussianBlur stdDeviation="1"/>
<feComposite in2="hardAlpha" operator="arithmetic" k2="-1" k3="1"/>
<feColorMatrix type="matrix" values="0 0 0 0 1 0 0 0 0 1 0 0 0 0 1 0 0 0 0.25 0"/>
<feBlend mode="normal" in2="shape" result="effect1_innerShadow_188_3595"/>
</filter>
<linearGradient id="paint0_linear_188_3595" x1="5" y1="2" x2="11" y2="14" gradientUnits="userSpaceOnUse">
<stop stop-color="#CACACA"/>
<stop offset="1" stop-color="#636363"/>
</linearGradient>
<linearGradient id="paint1_linear_188_3595" x1="2" y1="3" x2="5" y2="12.5" gradientUnits="userSpaceOnUse">
<stop stop-color="#E1E1E1"/>
<stop offset="1" stop-color="#D2D2D4"/>
</linearGradient>
<linearGradient id="paint2_linear_188_3595" x1="8" y1="2" x2="8" y2="14" gradientUnits="userSpaceOnUse">
<stop stop-color="#C9CACF"/>
<stop offset="1" stop-color="#AEAFB7"/>
</linearGradient>
<linearGradient id="paint3_linear_188_3595" x1="8" y1="8" x2="10" y2="10" gradientUnits="userSpaceOnUse">
<stop stop-color="#A4C8A0"/>
<stop offset="1" stop-color="#42A13B"/>
</linearGradient>
<linearGradient id="paint4_linear_188_3595" x1="14.5714" y1="14.7143" x2="8.17837" y2="7.61089" gradientUnits="userSpaceOnUse">
<stop stop-color="#247C10"/>
<stop offset="1" stop-color="#6FA53D"/>
</linearGradient>
</defs>
</svg>
