<svg width="16" height="16" viewBox="0 0 16 16" fill="none" xmlns="http://www.w3.org/2000/svg">
<g clip-path="url(#clip0_295_7398)">
<mask id="path-1-inside-1_295_7398" fill="white">
<path d="M6 1L6 3C2.68629 3 -1.15852e-06 5.68629 -1.30337e-06 9L4 9C4 7.89543 4.89543 7 6 7L6 9L10 5L6 1Z"/>
</mask>
<g filter="url(#filter0_i_295_7398)">
<path d="M6 1L6 3C2.68629 3 -1.15852e-06 5.68629 -1.30337e-06 9L4 9C4 7.89543 4.89543 7 6 7L6 9L10 5L6 1Z" fill="#82C27C"/>
</g>
<path d="M6 3L6 4C6.55228 4 7 3.55228 7 3L6 3ZM6 1L6.70711 0.292893L5 -1.41421L5 1L6 1ZM10 5L10.7071 5.70711L11.4142 5L10.7071 4.29289L10 5ZM6 9L5 9L5 11.4142L6.70711 9.70711L6 9ZM6 7L7 7C7 6.44772 6.55228 6 6 6L6 7ZM4 9L4 10L5 10L5 9L4 9ZM-1.30337e-06 9L-1 9L-1 10L-1.34708e-06 10L-1.30337e-06 9ZM6 3L7 3L7 1L6 1L5 1L5 3L6 3ZM6 1L5.29289 1.70711L9.29289 5.70711L10 5L10.7071 4.29289L6.70711 0.292893L6 1ZM10 5L9.29289 4.29289L5.29289 8.29289L6 9L6.70711 9.70711L10.7071 5.70711L10 5ZM6 9L7 9L7 7L6 7L5 7L5 9L6 9ZM4 9L5 9C5 8.44772 5.44771 8 6 8L6 7L6 6C4.34315 6 3 7.34315 3 9L4 9ZM-1.30337e-06 9L0.999999 9C0.999999 6.23858 3.23858 4 6 4L6 3L6 2C2.13401 2 -1 5.13401 -1 9L-1.30337e-06 9ZM-1.30337e-06 9L-1.34708e-06 10L4 10L4 9L4 8L-1.25965e-06 8L-1.30337e-06 9Z" fill="url(#paint0_linear_295_7398)" mask="url(#path-1-inside-1_295_7398)"/>
<path d="M10.5 14.5H15.0654L10.5 7.65137V14.5Z" fill="url(#paint1_linear_295_7398)" stroke="url(#paint2_linear_295_7398)"/>
<path d="M8.5 14.5L8.5 9.93457L1.65137 14.5L8.5 14.5Z" fill="url(#paint3_linear_295_7398)" stroke="url(#paint4_linear_295_7398)"/>
</g>
<defs>
<filter id="filter0_i_295_7398" x="0" y="1" width="11" height="9" filterUnits="userSpaceOnUse" color-interpolation-filters="sRGB">
<feFlood flood-opacity="0" result="BackgroundImageFix"/>
<feBlend mode="normal" in="SourceGraphic" in2="BackgroundImageFix" result="shape"/>
<feColorMatrix in="SourceAlpha" type="matrix" values="0 0 0 0 0 0 0 0 0 0 0 0 0 0 0 0 0 0 127 0" result="hardAlpha"/>
<feOffset dx="1" dy="1"/>
<feGaussianBlur stdDeviation="1"/>
<feComposite in2="hardAlpha" operator="arithmetic" k2="-1" k3="1"/>
<feColorMatrix type="matrix" values="0 0 0 0 0.71381 0 0 0 0 0.864312 0 0 0 0 0.687251 0 0 0 1 0"/>
<feBlend mode="normal" in2="shape" result="effect1_innerShadow_295_7398"/>
</filter>
<linearGradient id="paint0_linear_295_7398" x1="10" y1="9" x2="1.22875" y2="-0.174718" gradientUnits="userSpaceOnUse">
<stop offset="0.247441" stop-color="#2A6B26"/>
<stop offset="0.806397" stop-color="#80C178"/>
</linearGradient>
<linearGradient id="paint1_linear_295_7398" x1="13" y1="10" x2="10" y2="14.96" gradientUnits="userSpaceOnUse">
<stop stop-color="#8EADE0"/>
<stop offset="1" stop-color="#749AD9"/>
</linearGradient>
<linearGradient id="paint2_linear_295_7398" x1="13" y1="6" x2="13" y2="15" gradientUnits="userSpaceOnUse">
<stop stop-color="#6F9CDC"/>
<stop offset="1" stop-color="#5788CF"/>
</linearGradient>
<linearGradient id="paint3_linear_295_7398" x1="4" y1="12" x2="8.96001" y2="15" gradientUnits="userSpaceOnUse">
<stop stop-color="#BCD3FA"/>
<stop offset="1" stop-color="#B3CEF9"/>
</linearGradient>
<linearGradient id="paint4_linear_295_7398" x1="0.0310869" y1="9" x2="8.96891" y2="15" gradientUnits="userSpaceOnUse">
<stop offset="0.297308" stop-color="#AECCF8"/>
<stop offset="0.867451" stop-color="#84B1F3"/>
</linearGradient>
<clipPath id="clip0_295_7398">
<rect width="16" height="16" fill="white"/>
</clipPath>
</defs>
</svg>
