<svg width="16" height="16" viewBox="0 0 16 16" fill="none" xmlns="http://www.w3.org/2000/svg">
<g clip-path="url(#clip0_375_7057)">
<path d="M7.99954 1.5C9.20742 1.5 9.8491 2.13899 10.437 2.60938C10.7363 2.84877 11.037 3.06486 11.4253 3.22559C11.746 3.35827 12.1431 3.45861 12.6646 3.48926C12.7212 3.3594 12.7945 3.2038 12.8833 3.05566C12.985 2.88613 13.1472 2.65362 13.3755 2.5166C13.5008 2.44145 13.6706 2.38034 13.8687 2.40234C14.0187 2.41902 14.1478 2.47901 14.2544 2.55957L14.354 2.64648L14.44 2.74609C14.5204 2.8526 14.5805 2.98105 14.5972 3.13086C14.6192 3.32873 14.5589 3.49881 14.4839 3.62402C14.3469 3.85235 14.1144 4.01448 13.9449 4.11621C13.7925 4.20764 13.6317 4.28162 13.4995 4.33887V9C13.4995 9.62615 13.2657 10.219 12.9224 10.7598C12.5787 11.3011 12.1084 11.8189 11.5923 12.3027C10.566 13.2649 9.28007 14.1656 8.30032 14.9004C8.12255 15.0337 7.87751 15.0337 7.69974 14.9004C6.71998 14.1656 5.43407 13.2649 4.40775 12.3027C3.89164 11.8189 3.42135 11.3011 3.07767 10.7598C2.7344 10.219 2.49954 9.62615 2.49954 9V4.33789C2.36764 4.2807 2.20714 4.20737 2.05521 4.11621C1.88566 4.01448 1.65314 3.85235 1.51614 3.62402C1.44112 3.49881 1.38088 3.32874 1.40286 3.13086C1.42519 2.93107 1.52394 2.76865 1.64603 2.64648L1.74564 2.55957C1.85227 2.47901 1.98133 2.41902 2.13138 2.40234C2.32949 2.38035 2.49929 2.44145 2.62454 2.5166C2.85286 2.65362 3.01501 2.88614 3.11673 3.05566C3.20549 3.20367 3.27789 3.35948 3.3345 3.48926C3.85642 3.45867 4.2539 3.35835 4.57474 3.22559C4.96308 3.06486 5.26379 2.84876 5.56302 2.60938C6.15087 2.13905 6.79198 1.50016 7.99954 1.5Z" stroke="url(#paint0_linear_375_7057)" stroke-miterlimit="1.41421" stroke-linejoin="round"/>
<path d="M7.99999 14.5C5.99998 13 2.99998 11 2.99999 9L3 4C3 4 1.49999 3.5 1.99999 3C2.49999 2.5 3 4 3 4C6 4 6 2 7.99999 2C9.99999 2 9.99998 4 13 4C13 4 13.5 2.5 14 3C14.5 3.5 13 4 13 4V9C13 11 9.99998 13 7.99999 14.5Z" fill="url(#paint1_linear_375_7057)"/>
<path d="M7.99999 14.5C5.99998 13 2.99998 11 2.99999 9L3 4C3 4 1.49999 3.5 1.99999 3C2.49999 2.5 3 4 3 4C6 4 6 2 7.99999 2C9.99999 2 9.99998 4 13 4C13 4 13.5 2.5 14 3C14.5 3.5 13 4 13 4V9C13 11 9.99998 13 7.99999 14.5Z" fill="url(#paint2_linear_375_7057)"/>
<path d="M7.99954 2.5C8.79147 2.5 9.15103 2.86104 9.81302 3.39062C10.1387 3.65113 10.5258 3.93522 11.0435 4.14941C11.4509 4.31797 11.9248 4.43563 12.4995 4.47949V9L12.4937 9.1416C12.463 9.47594 12.3241 9.83651 12.0777 10.2246C11.7964 10.6675 11.3915 11.1188 10.9077 11.5723C10.0278 12.3973 8.95171 13.1709 7.99954 13.877C7.04752 13.1711 5.97211 12.3971 5.09232 11.5723C4.6086 11.1188 4.20368 10.6675 3.92239 10.2246C3.64081 9.78112 3.49954 9.37369 3.49954 9V4.48047C4.07473 4.43667 4.54891 4.31808 4.95657 4.14941C5.47423 3.93521 5.86139 3.65114 6.18704 3.39062C6.8489 2.86114 7.20793 2.50014 7.99954 2.5Z" stroke="white" stroke-opacity="0.8" stroke-miterlimit="1.41421" stroke-linejoin="bevel"/>
<mask id="path-4-inside-1_375_7057" fill="white">
<path d="M10 9H6V14H10V16H11L16 11.5L11 7H10V9Z"/>
</mask>
<g filter="url(#filter0_i_375_7057)">
<path d="M10 9H6V14H10V16H11L16 11.5L11 7H10V9Z" fill="#80B361"/>
</g>
<path d="M6 9V8H5V9H6ZM10 9V10C10.5523 10 11 9.55228 11 9H10ZM10 7V6H9V7H10ZM11 7L11.669 6.25671L11.3837 6H11V7ZM16 11.5L16.669 12.2433L17.4948 11.5L16.669 10.7567L16 11.5ZM11 16V17H11.3837L11.669 16.7433L11 16ZM10 16H9V17H10V16ZM10 14H11C11 13.4477 10.5523 13 10 13V14ZM6 14H5V15H6V14ZM6 9V10H10V9V8H6V9ZM10 9H11V7H10H9V9H10ZM10 7V8H11V7V6H10V7ZM11 7L10.331 7.74329L15.331 12.2433L16 11.5L16.669 10.7567L11.669 6.25671L11 7ZM16 11.5L15.331 10.7567L10.331 15.2567L11 16L11.669 16.7433L16.669 12.2433L16 11.5ZM11 16V15H10V16V17H11V16ZM10 16H11V14H10H9V16H10ZM10 14V13H6V14V15H10V14ZM6 14H7V9H6H5V14H6Z" fill="url(#paint3_linear_375_7057)" mask="url(#path-4-inside-1_375_7057)"/>
<path d="M13.752 11.4996L11.4404 13.5826C11.2619 12.9642 10.6972 12.4996 10.0049 12.4996H7.5V10.4996H10C10.7153 10.4996 11.2655 10.0249 11.4404 9.41565L13.752 11.4996Z" stroke="white" stroke-opacity="0.2"/>
</g>
<defs>
<filter id="filter0_i_375_7057" x="6" y="7" width="12" height="11" filterUnits="userSpaceOnUse" color-interpolation-filters="sRGB">
<feFlood flood-opacity="0" result="BackgroundImageFix"/>
<feBlend mode="normal" in="SourceGraphic" in2="BackgroundImageFix" result="shape"/>
<feColorMatrix in="SourceAlpha" type="matrix" values="0 0 0 0 0 0 0 0 0 0 0 0 0 0 0 0 0 0 127 0" result="hardAlpha"/>
<feOffset dx="2" dy="2"/>
<feGaussianBlur stdDeviation="1"/>
<feComposite in2="hardAlpha" operator="arithmetic" k2="-1" k3="1"/>
<feColorMatrix type="matrix" values="0 0 0 0 1 0 0 0 0 1 0 0 0 0 1 0 0 0 0.25 0"/>
<feBlend mode="normal" in2="shape" result="effect1_innerShadow_375_7057"/>
</filter>
<linearGradient id="paint0_linear_375_7057" x1="1.89795" y1="2.13469" x2="14.102" y2="14.3653" gradientUnits="userSpaceOnUse">
<stop offset="0.0474476" stop-color="#EEC340"/>
<stop offset="0.799952" stop-color="#D5901E"/>
</linearGradient>
<linearGradient id="paint1_linear_375_7057" x1="7.99999" y1="2" x2="7.99999" y2="14.5" gradientUnits="userSpaceOnUse">
<stop stop-color="#FEFCF3"/>
<stop offset="0.32" stop-color="#FDF7E6"/>
<stop offset="0.4" stop-color="#FCF1A7"/>
<stop offset="1" stop-color="#FFFE6F"/>
</linearGradient>
<linearGradient id="paint2_linear_375_7057" x1="1.89795" y1="8.25" x2="14.102" y2="8.25" gradientUnits="userSpaceOnUse">
<stop stop-color="#F6DC7D"/>
<stop offset="0.341241" stop-color="#F6DD7B"/>
<stop offset="0.453908" stop-color="#F3D15E" stop-opacity="0"/>
<stop offset="0.54609" stop-color="#F3CF55" stop-opacity="0"/>
<stop offset="0.67" stop-color="#F2CC4A"/>
<stop offset="1" stop-color="#EFC338"/>
</linearGradient>
<linearGradient id="paint3_linear_375_7057" x1="14.5714" y1="14.7143" x2="8.17837" y2="7.61089" gradientUnits="userSpaceOnUse">
<stop stop-color="#247C10"/>
<stop offset="1" stop-color="#6FA53D"/>
</linearGradient>
<clipPath id="clip0_375_7057">
<rect width="16" height="16" fill="white"/>
</clipPath>
</defs>
</svg>
