<svg width="16" height="16" viewBox="0 0 16 16" fill="none" xmlns="http://www.w3.org/2000/svg">
<mask id="path-1-inside-1_136_3470" fill="white">
<path d="M8 0L10.571 4.80353L16 5.72949L12.16 9.6242L12.9443 15L8 12.6035L3.05573 15L3.84 9.6242L0 5.72949L5.42898 4.80353L8 0Z"/>
</mask>
<g filter="url(#filter0_i_136_3470)">
<path d="M8 0L10.571 4.80353L16 5.72949L12.16 9.6242L12.9443 15L8 12.6035L3.05573 15L3.84 9.6242L0 5.72949L5.42898 4.80353L8 0Z" fill="#FFDC6B"/>
</g>
<path d="M8 0L8.88166 -0.471894L8 -2.11912L7.11835 -0.471894L8 0ZM10.571 4.80353L9.68937 5.27542C9.8351 5.5477 10.0985 5.73737 10.4029 5.78929L10.571 4.80353ZM16 5.72949L16.7121 6.43158L18.0584 5.06612L16.1681 4.74373L16 5.72949ZM12.16 9.6242L11.4479 8.92211C11.2279 9.14522 11.1252 9.45852 11.1705 9.76856L12.16 9.6242ZM12.9443 15L12.5081 15.8999L14.2062 16.7229L13.9338 14.8556L12.9443 15ZM8 12.6035L8.43616 11.7037C8.16071 11.5702 7.83929 11.5702 7.56384 11.7037L8 12.6035ZM3.05573 15L2.0662 14.8556L1.79379 16.7229L3.49189 15.8999L3.05573 15ZM3.84 9.6242L4.82953 9.76856C4.87476 9.45852 4.77206 9.14522 4.55209 8.92211L3.84 9.6242ZM0 5.72949L-0.168131 4.74373L-2.05837 5.06612L-0.71209 6.43158L0 5.72949ZM5.42898 4.80353L5.59711 5.78929C5.90154 5.73737 6.1649 5.5477 6.31064 5.27542L5.42898 4.80353ZM8 0L7.11835 0.471894L9.68937 5.27542L10.571 4.80353L11.4527 4.33164L8.88166 -0.471894L8 0ZM10.571 4.80353L10.4029 5.78929L15.8319 6.71526L16 5.72949L16.1681 4.74373L10.7392 3.81777L10.571 4.80353ZM16 5.72949L15.2879 5.0274L11.4479 8.92211L12.16 9.6242L12.8721 10.3263L16.7121 6.43158L16 5.72949ZM12.16 9.6242L11.1705 9.76856L11.9547 15.1444L12.9443 15L13.9338 14.8556L13.1495 9.47984L12.16 9.6242ZM12.9443 15L13.3804 14.1001L8.43616 11.7037L8 12.6035L7.56384 13.5034L12.5081 15.8999L12.9443 15ZM8 12.6035L7.56384 11.7037L2.61957 14.1001L3.05573 15L3.49189 15.8999L8.43616 13.5034L8 12.6035ZM3.05573 15L4.04525 15.1444L4.82953 9.76856L3.84 9.6242L2.85048 9.47983L2.0662 14.8556L3.05573 15ZM3.84 9.6242L4.55209 8.92211L0.71209 5.0274L0 5.72949L-0.71209 6.43158L3.12791 10.3263L3.84 9.6242ZM0 5.72949L0.168131 6.71526L5.59711 5.78929L5.42898 4.80353L5.26085 3.81777L-0.168131 4.74373L0 5.72949ZM5.42898 4.80353L6.31064 5.27542L8.88166 0.471894L8 0L7.11835 -0.471894L4.54732 4.33164L5.42898 4.80353Z" fill="url(#paint0_linear_136_3470)" mask="url(#path-1-inside-1_136_3470)"/>
<defs>
<filter id="filter0_i_136_3470" x="0" y="0" width="17" height="16" filterUnits="userSpaceOnUse" color-interpolation-filters="sRGB">
<feFlood flood-opacity="0" result="BackgroundImageFix"/>
<feBlend mode="normal" in="SourceGraphic" in2="BackgroundImageFix" result="shape"/>
<feColorMatrix in="SourceAlpha" type="matrix" values="0 0 0 0 0 0 0 0 0 0 0 0 0 0 0 0 0 0 127 0" result="hardAlpha"/>
<feOffset dx="1" dy="1"/>
<feGaussianBlur stdDeviation="1"/>
<feComposite in2="hardAlpha" operator="arithmetic" k2="-1" k3="1"/>
<feColorMatrix type="matrix" values="0 0 0 0 1 0 0 0 0 1 0 0 0 0 1 0 0 0 1 0"/>
<feBlend mode="hard-light" in2="shape" result="effect1_innerShadow_136_3470"/>
</filter>
<linearGradient id="paint0_linear_136_3470" x1="2.95299" y1="2.21115" x2="14.0909" y2="13.9334" gradientUnits="userSpaceOnUse">
<stop stop-color="#FDC922"/>
<stop offset="0.5" stop-color="#F0B411"/>
<stop offset="1" stop-color="#C88311"/>
</linearGradient>
</defs>
</svg>
