<svg width="16" height="16" viewBox="0 0 16 16" fill="none" xmlns="http://www.w3.org/2000/svg">
<path d="M13 1.5C14.3807 1.5 15.5 2.61929 15.5 4V5C15.5 5.82843 14.8284 6.5 14 6.5H13C12.1716 6.5 11.5 5.82843 11.5 5V4.5H4.5V5C4.5 5.82843 3.82843 6.5 3 6.5H2C1.17157 6.5 0.5 5.82843 0.5 5V4C0.5 2.61929 1.61929 1.5 3 1.5H13Z" fill="url(#paint0_linear_450_7642)" stroke="url(#paint1_linear_450_7642)" stroke-linejoin="round"/>
<path d="M14.5 14C14.5 14.2761 14.2761 14.5 14 14.5H2C1.72386 14.5 1.5 14.2761 1.5 14V10C1.5 9.93639 1.51251 9.87351 1.53613 9.81445L3.53613 4.81445L3.56934 4.74609C3.65822 4.59524 3.8212 4.5 4 4.5H4.5V3C4.5 2.72386 4.72386 2.5 5 2.5H6C6.27614 2.5 6.5 2.72386 6.5 3V4.5H9.5V3C9.5 2.72386 9.72386 2.5 10 2.5H11C11.2761 2.5 11.5 2.72386 11.5 3V4.5H12C12.2045 4.5 12.3879 4.62462 12.4639 4.81445L14.4639 9.81445C14.4875 9.87351 14.5 9.93639 14.5 10V14Z" fill="url(#paint2_linear_450_7642)" stroke="url(#paint3_linear_450_7642)" stroke-linejoin="round"/>
<rect x="2" y="11" width="12" height="3" fill="url(#paint4_linear_450_7642)"/>
<path d="M4.5 5.5V6C4.5 6.27614 4.72386 6.5 5 6.5H11C11.2761 6.5 11.5 6.27614 11.5 6V5.5H11.6621L13.5 10.0947V13.5H2.5V10.0947L4.33789 5.5H4.5Z" stroke="white" stroke-opacity="0.33" stroke-linejoin="round"/>
<path d="M10 6.5C10.2294 6.5 10.4297 6.65632 10.4854 6.87891L11.4854 10.8789C11.5226 11.0281 11.4891 11.1864 11.3945 11.3076C11.2998 11.429 11.154 11.5 11 11.5H5C4.84603 11.5 4.70022 11.429 4.60547 11.3076C4.51092 11.1864 4.47742 11.0281 4.51465 10.8789L5.51465 6.87891C5.57029 6.65632 5.77057 6.5 6 6.5H10Z" fill="#FEFEFE"/>
<path d="M10 6.5C10.2294 6.5 10.4297 6.65632 10.4854 6.87891L11.4854 10.8789C11.5226 11.0281 11.4891 11.1864 11.3945 11.3076C11.2998 11.429 11.154 11.5 11 11.5H5C4.84603 11.5 4.70022 11.429 4.60547 11.3076C4.51092 11.1864 4.47742 11.0281 4.51465 10.8789L5.51465 6.87891C5.57029 6.65632 5.77057 6.5 6 6.5H10Z" stroke="url(#paint5_linear_450_7642)" stroke-linejoin="round"/>
<path d="M10 6.5C10.2294 6.5 10.4297 6.65632 10.4854 6.87891L11.4854 10.8789C11.5226 11.0281 11.4891 11.1864 11.3945 11.3076C11.2998 11.429 11.154 11.5 11 11.5H5C4.84603 11.5 4.70022 11.429 4.60547 11.3076C4.51092 11.1864 4.47742 11.0281 4.51465 10.8789L5.51465 6.87891C5.57029 6.65632 5.77057 6.5 6 6.5H10Z" stroke="url(#paint6_linear_450_7642)" stroke-linejoin="round"/>
<path fill-rule="evenodd" clip-rule="evenodd" d="M12 3H13C13.5523 3 14 3.44772 14 4V5V6C14.5523 6 15 5.55228 15 5V4C15 2.89543 14.1046 2 13 2H3C1.89543 2 1 2.89543 1 4V5C1 5.55228 1.44772 6 2 6V5L2 4C2 3.44772 2.44772 3 3 3H4H12Z" fill="url(#paint7_linear_450_7642)"/>
<mask id="path-7-inside-1_450_7642" fill="white">
<path d="M10 9H6V14H10V16H11L16 11.5L11 7H10V9Z"/>
</mask>
<g filter="url(#filter0_i_450_7642)">
<path d="M10 9H6V14H10V16H11L16 11.5L11 7H10V9Z" fill="#80B361"/>
</g>
<path d="M6 9V8H5V9H6ZM10 9V10C10.5523 10 11 9.55228 11 9H10ZM10 7V6H9V7H10ZM11 7L11.669 6.25671L11.3837 6H11V7ZM16 11.5L16.669 12.2433L17.4948 11.5L16.669 10.7567L16 11.5ZM11 16V17H11.3837L11.669 16.7433L11 16ZM10 16H9V17H10V16ZM10 14H11C11 13.4477 10.5523 13 10 13V14ZM6 14H5V15H6V14ZM6 9V10H10V9V8H6V9ZM10 9H11V7H10H9V9H10ZM10 7V8H11V7V6H10V7ZM11 7L10.331 7.74329L15.331 12.2433L16 11.5L16.669 10.7567L11.669 6.25671L11 7ZM16 11.5L15.331 10.7567L10.331 15.2567L11 16L11.669 16.7433L16.669 12.2433L16 11.5ZM11 16V15H10V16V17H11V16ZM10 16H11V14H10H9V16H10ZM10 14V13H6V14V15H10V14ZM6 14H7V9H6H5V14H6Z" fill="url(#paint8_linear_450_7642)" mask="url(#path-7-inside-1_450_7642)"/>
<path d="M13.752 11.4996L11.4404 13.5826C11.2619 12.9642 10.6972 12.4996 10.0049 12.4996H7.5V10.4996H10C10.7153 10.4996 11.2655 10.0249 11.4404 9.41565L13.752 11.4996Z" stroke="white" stroke-opacity="0.2"/>
<defs>
<filter id="filter0_i_450_7642" x="6" y="7" width="12" height="11" filterUnits="userSpaceOnUse" color-interpolation-filters="sRGB">
<feFlood flood-opacity="0" result="BackgroundImageFix"/>
<feBlend mode="normal" in="SourceGraphic" in2="BackgroundImageFix" result="shape"/>
<feColorMatrix in="SourceAlpha" type="matrix" values="0 0 0 0 0 0 0 0 0 0 0 0 0 0 0 0 0 0 127 0" result="hardAlpha"/>
<feOffset dx="2" dy="2"/>
<feGaussianBlur stdDeviation="1"/>
<feComposite in2="hardAlpha" operator="arithmetic" k2="-1" k3="1"/>
<feColorMatrix type="matrix" values="0 0 0 0 1 0 0 0 0 1 0 0 0 0 1 0 0 0 0.25 0"/>
<feBlend mode="normal" in2="shape" result="effect1_innerShadow_450_7642"/>
</filter>
<linearGradient id="paint0_linear_450_7642" x1="1" y1="3.5" x2="15" y2="3.5" gradientUnits="userSpaceOnUse">
<stop stop-color="#A4BDD8"/>
<stop offset="1" stop-color="#7294BA"/>
</linearGradient>
<linearGradient id="paint1_linear_450_7642" x1="1" y1="3.5" x2="15" y2="3.5" gradientUnits="userSpaceOnUse">
<stop stop-color="#7099C1" stop-opacity="0.890196"/>
<stop offset="1" stop-color="#3D4870" stop-opacity="0.933333"/>
</linearGradient>
<linearGradient id="paint2_linear_450_7642" x1="2.5" y1="3" x2="13.5" y2="14" gradientUnits="userSpaceOnUse">
<stop stop-color="#ADCBEC"/>
<stop offset="1" stop-color="#5981B2"/>
</linearGradient>
<linearGradient id="paint3_linear_450_7642" x1="2.5" y1="3" x2="13.5" y2="14" gradientUnits="userSpaceOnUse">
<stop stop-color="#5E85B2"/>
<stop offset="1" stop-color="#404E79" stop-opacity="0.972549"/>
</linearGradient>
<linearGradient id="paint4_linear_450_7642" x1="6" y1="11" x2="8.88" y2="14.84" gradientUnits="userSpaceOnUse">
<stop stop-color="#7AA1CC"/>
<stop offset="1" stop-color="#5981B2"/>
</linearGradient>
<linearGradient id="paint5_linear_450_7642" x1="5.25" y1="7" x2="9.05541" y2="12.2324" gradientUnits="userSpaceOnUse">
<stop stop-color="#D8E9FD"/>
<stop offset="1" stop-color="#577CAA"/>
</linearGradient>
<linearGradient id="paint6_linear_450_7642" x1="8" y1="6" x2="8" y2="11" gradientUnits="userSpaceOnUse">
<stop offset="0.19697" stop-color="#6786AB"/>
<stop offset="0.201382" stop-color="#6786AB" stop-opacity="0"/>
</linearGradient>
<linearGradient id="paint7_linear_450_7642" x1="1" y1="3.5" x2="15" y2="3.5" gradientUnits="userSpaceOnUse">
<stop stop-color="#CADCF0"/>
<stop offset="1" stop-color="#AFC9E2"/>
</linearGradient>
<linearGradient id="paint8_linear_450_7642" x1="14.5714" y1="14.7143" x2="8.17837" y2="7.61089" gradientUnits="userSpaceOnUse">
<stop stop-color="#247C10"/>
<stop offset="1" stop-color="#6FA53D"/>
</linearGradient>
</defs>
</svg>
